<?xml version="1.0" encoding="utf-8" standalone="no"?>
<!DOCTYPE svg PUBLIC "-//W3C//DTD SVG 1.1//EN"
  "http://www.w3.org/Graphics/SVG/1.1/DTD/svg11.dtd">
<!-- Created with matplotlib (http://matplotlib.org/) -->
<svg height="432pt" version="1.1" viewBox="0 0 648 432" width="648pt" xmlns="http://www.w3.org/2000/svg" xmlns:xlink="http://www.w3.org/1999/xlink">
 <defs>
  <style type="text/css">
*{stroke-linecap:butt;stroke-linejoin:round;stroke-miterlimit:100000;}
  </style>
 </defs>
 <g id="figure_1">
  <g id="patch_1">
   <path d="M 0 432 
L 648 432 
L 648 0 
L 0 0 
L 0 432 
z
" style="fill:none;"/>
  </g>
  <g id="axes_1">
   <g id="patch_2">
    <path d="M 81 388.8 
L 583.2 388.8 
L 583.2 43.2 
L 81 43.2 
L 81 388.8 
z
" style="fill:none;"/>
   </g>
   <g id="patch_3">
    <path clip-path="url(#pa42b7d3334)" d="M 81 7473.6 
L 83.0088 7473.6 
L 83.0088 371.601625 
L 81 371.601625 
z
" style="fill:#0000ff;stroke:#000000;stroke-linejoin:miter;"/>
   </g>
   <g id="patch_4">
    <path clip-path="url(#pa42b7d3334)" d="M 83.511 7473.6 
L 85.5198 7473.6 
L 85.5198 369.700921 
L 83.511 369.700921 
z
" style="fill:#0000ff;stroke:#000000;stroke-linejoin:miter;"/>
   </g>
   <g id="patch_5">
    <path clip-path="url(#pa42b7d3334)" d="M 86.022 7473.6 
L 88.0308 7473.6 
L 88.0308 367.899146 
L 86.022 367.899146 
z
" style="fill:#0000ff;stroke:#000000;stroke-linejoin:miter;"/>
   </g>
   <g id="patch_6">
    <path clip-path="url(#pa42b7d3334)" d="M 88.533 7473.6 
L 90.5418 7473.6 
L 90.5418 366.364949 
L 88.533 366.364949 
z
" style="fill:#0000ff;stroke:#000000;stroke-linejoin:miter;"/>
   </g>
   <g id="patch_7">
    <path clip-path="url(#pa42b7d3334)" d="M 91.044 7473.6 
L 93.0528 7473.6 
L 93.0528 364.283685 
L 91.044 364.283685 
z
" style="fill:#0000ff;stroke:#000000;stroke-linejoin:miter;"/>
   </g>
   <g id="patch_8">
    <path clip-path="url(#pa42b7d3334)" d="M 93.555 7473.6 
L 95.5638 7473.6 
L 95.5638 363.650449 
L 93.555 363.650449 
z
" style="fill:#0000ff;stroke:#000000;stroke-linejoin:miter;"/>
   </g>
   <g id="patch_9">
    <path clip-path="url(#pa42b7d3334)" d="M 96.066 7473.6 
L 98.0748 7473.6 
L 98.0748 362.593328 
L 96.066 362.593328 
z
" style="fill:#0000ff;stroke:#000000;stroke-linejoin:miter;"/>
   </g>
   <g id="patch_10">
    <path clip-path="url(#pa42b7d3334)" d="M 98.577 7473.6 
L 100.5858 7473.6 
L 100.5858 361.163294 
L 98.577 361.163294 
z
" style="fill:#0000ff;stroke:#000000;stroke-linejoin:miter;"/>
   </g>
   <g id="patch_11">
    <path clip-path="url(#pa42b7d3334)" d="M 101.088 7473.6 
L 103.0968 7473.6 
L 103.0968 358.093275 
L 101.088 358.093275 
z
" style="fill:#0000ff;stroke:#000000;stroke-linejoin:miter;"/>
   </g>
   <g id="patch_12">
    <path clip-path="url(#pa42b7d3334)" d="M 103.599 7473.6 
L 105.6078 7473.6 
L 105.6078 356.979462 
L 103.599 356.979462 
z
" style="fill:#0000ff;stroke:#000000;stroke-linejoin:miter;"/>
   </g>
   <g id="patch_13">
    <path clip-path="url(#pa42b7d3334)" d="M 106.11 7473.6 
L 108.1188 7473.6 
L 108.1188 357.626451 
L 106.11 357.626451 
z
" style="fill:#0000ff;stroke:#000000;stroke-linejoin:miter;"/>
   </g>
   <g id="patch_14">
    <path clip-path="url(#pa42b7d3334)" d="M 108.621 7473.6 
L 110.6298 7473.6 
L 110.6298 356.48744 
L 108.621 356.48744 
z
" style="fill:#0000ff;stroke:#000000;stroke-linejoin:miter;"/>
   </g>
   <g id="patch_15">
    <path clip-path="url(#pa42b7d3334)" d="M 111.132 7473.6 
L 113.1408 7473.6 
L 113.1408 352.721763 
L 111.132 352.721763 
z
" style="fill:#0000ff;stroke:#000000;stroke-linejoin:miter;"/>
   </g>
   <g id="patch_16">
    <path clip-path="url(#pa42b7d3334)" d="M 113.643 7473.6 
L 115.6518 7473.6 
L 115.6518 351.336078 
L 113.643 351.336078 
z
" style="fill:#0000ff;stroke:#000000;stroke-linejoin:miter;"/>
   </g>
   <g id="patch_17">
    <path clip-path="url(#pa42b7d3334)" d="M 116.154 7473.6 
L 118.1628 7473.6 
L 118.1628 349.818388 
L 116.154 349.818388 
z
" style="fill:#0000ff;stroke:#000000;stroke-linejoin:miter;"/>
   </g>
   <g id="patch_18">
    <path clip-path="url(#pa42b7d3334)" d="M 118.665 7473.6 
L 120.6738 7473.6 
L 120.6738 348.951668 
L 118.665 348.951668 
z
" style="fill:#0000ff;stroke:#000000;stroke-linejoin:miter;"/>
   </g>
   <g id="patch_19">
    <path clip-path="url(#pa42b7d3334)" d="M 121.176 7473.6 
L 123.1848 7473.6 
L 123.1848 348.917266 
L 121.176 348.917266 
z
" style="fill:#0000ff;stroke:#000000;stroke-linejoin:miter;"/>
   </g>
   <g id="patch_20">
    <path clip-path="url(#pa42b7d3334)" d="M 123.687 7473.6 
L 125.6958 7473.6 
L 125.6958 347.524515 
L 123.687 347.524515 
z
" style="fill:#0000ff;stroke:#000000;stroke-linejoin:miter;"/>
   </g>
   <g id="patch_21">
    <path clip-path="url(#pa42b7d3334)" d="M 126.198 7473.6 
L 128.2068 7473.6 
L 128.2068 347.026174 
L 126.198 347.026174 
z
" style="fill:#0000ff;stroke:#000000;stroke-linejoin:miter;"/>
   </g>
   <g id="patch_22">
    <path clip-path="url(#pa42b7d3334)" d="M 128.709 7473.6 
L 130.7178 7473.6 
L 130.7178 345.040121 
L 128.709 345.040121 
z
" style="fill:#0000ff;stroke:#000000;stroke-linejoin:miter;"/>
   </g>
   <g id="patch_23">
    <path clip-path="url(#pa42b7d3334)" d="M 131.22 7473.6 
L 133.2288 7473.6 
L 133.2288 344.294751 
L 131.22 344.294751 
z
" style="fill:#0000ff;stroke:#000000;stroke-linejoin:miter;"/>
   </g>
   <g id="patch_24">
    <path clip-path="url(#pa42b7d3334)" d="M 133.731 7473.6 
L 135.7398 7473.6 
L 135.7398 342.199142 
L 133.731 342.199142 
z
" style="fill:#0000ff;stroke:#000000;stroke-linejoin:miter;"/>
   </g>
   <g id="patch_25">
    <path clip-path="url(#pa42b7d3334)" d="M 136.242 7473.6 
L 138.2508 7473.6 
L 138.2508 340.95383 
L 136.242 340.95383 
z
" style="fill:#0000ff;stroke:#000000;stroke-linejoin:miter;"/>
   </g>
   <g id="patch_26">
    <path clip-path="url(#pa42b7d3334)" d="M 138.753 7473.6 
L 140.7618 7473.6 
L 140.7618 340.075309 
L 138.753 340.075309 
z
" style="fill:#0000ff;stroke:#000000;stroke-linejoin:miter;"/>
   </g>
   <g id="patch_27">
    <path clip-path="url(#pa42b7d3334)" d="M 141.264 7473.6 
L 143.2728 7473.6 
L 143.2728 338.185721 
L 141.264 338.185721 
z
" style="fill:#0000ff;stroke:#000000;stroke-linejoin:miter;"/>
   </g>
   <g id="patch_28">
    <path clip-path="url(#pa42b7d3334)" d="M 143.775 7473.6 
L 145.7838 7473.6 
L 145.7838 337.12052 
L 143.775 337.12052 
z
" style="fill:#0000ff;stroke:#000000;stroke-linejoin:miter;"/>
   </g>
   <g id="patch_29">
    <path clip-path="url(#pa42b7d3334)" d="M 146.286 7473.6 
L 148.2948 7473.6 
L 148.2948 335.525421 
L 146.286 335.525421 
z
" style="fill:#0000ff;stroke:#000000;stroke-linejoin:miter;"/>
   </g>
   <g id="patch_30">
    <path clip-path="url(#pa42b7d3334)" d="M 148.797 7473.6 
L 150.8058 7473.6 
L 150.8058 332.872502 
L 148.797 332.872502 
z
" style="fill:#0000ff;stroke:#000000;stroke-linejoin:miter;"/>
   </g>
   <g id="patch_31">
    <path clip-path="url(#pa42b7d3334)" d="M 151.308 7473.6 
L 153.3168 7473.6 
L 153.3168 330.917566 
L 151.308 330.917566 
z
" style="fill:#0000ff;stroke:#000000;stroke-linejoin:miter;"/>
   </g>
   <g id="patch_32">
    <path clip-path="url(#pa42b7d3334)" d="M 153.819 7473.6 
L 155.8278 7473.6 
L 155.8278 328.8174 
L 153.819 328.8174 
z
" style="fill:#0000ff;stroke:#000000;stroke-linejoin:miter;"/>
   </g>
   <g id="patch_33">
    <path clip-path="url(#pa42b7d3334)" d="M 156.33 7473.6 
L 158.3388 7473.6 
L 158.3388 328.100823 
L 156.33 328.100823 
z
" style="fill:#0000ff;stroke:#000000;stroke-linejoin:miter;"/>
   </g>
   <g id="patch_34">
    <path clip-path="url(#pa42b7d3334)" d="M 158.841 7473.6 
L 160.8498 7473.6 
L 160.8498 326.940834 
L 158.841 326.940834 
z
" style="fill:#0000ff;stroke:#000000;stroke-linejoin:miter;"/>
   </g>
   <g id="patch_35">
    <path clip-path="url(#pa42b7d3334)" d="M 161.352 7473.6 
L 163.3608 7473.6 
L 163.3608 325.447256 
L 161.352 325.447256 
z
" style="fill:#0000ff;stroke:#000000;stroke-linejoin:miter;"/>
   </g>
   <g id="patch_36">
    <path clip-path="url(#pa42b7d3334)" d="M 163.863 7473.6 
L 165.8718 7473.6 
L 165.8718 325.44716 
L 163.863 325.44716 
z
" style="fill:#0000ff;stroke:#000000;stroke-linejoin:miter;"/>
   </g>
   <g id="patch_37">
    <path clip-path="url(#pa42b7d3334)" d="M 166.374 7473.6 
L 168.3828 7473.6 
L 168.3828 324.487761 
L 166.374 324.487761 
z
" style="fill:#0000ff;stroke:#000000;stroke-linejoin:miter;"/>
   </g>
   <g id="patch_38">
    <path clip-path="url(#pa42b7d3334)" d="M 168.885 7473.6 
L 170.8938 7473.6 
L 170.8938 323.218228 
L 168.885 323.218228 
z
" style="fill:#0000ff;stroke:#000000;stroke-linejoin:miter;"/>
   </g>
   <g id="patch_39">
    <path clip-path="url(#pa42b7d3334)" d="M 171.396 7473.6 
L 173.4048 7473.6 
L 173.4048 322.732065 
L 171.396 322.732065 
z
" style="fill:#0000ff;stroke:#000000;stroke-linejoin:miter;"/>
   </g>
   <g id="patch_40">
    <path clip-path="url(#pa42b7d3334)" d="M 173.907 7473.6 
L 175.9158 7473.6 
L 175.9158 319.556489 
L 173.907 319.556489 
z
" style="fill:#0000ff;stroke:#000000;stroke-linejoin:miter;"/>
   </g>
   <g id="patch_41">
    <path clip-path="url(#pa42b7d3334)" d="M 176.418 7473.6 
L 178.4268 7473.6 
L 178.4268 319.604861 
L 176.418 319.604861 
z
" style="fill:#0000ff;stroke:#000000;stroke-linejoin:miter;"/>
   </g>
   <g id="patch_42">
    <path clip-path="url(#pa42b7d3334)" d="M 178.929 7473.6 
L 180.9378 7473.6 
L 180.9378 317.743855 
L 178.929 317.743855 
z
" style="fill:#0000ff;stroke:#000000;stroke-linejoin:miter;"/>
   </g>
   <g id="patch_43">
    <path clip-path="url(#pa42b7d3334)" d="M 181.44 7473.6 
L 183.4488 7473.6 
L 183.4488 315.269897 
L 181.44 315.269897 
z
" style="fill:#0000ff;stroke:#000000;stroke-linejoin:miter;"/>
   </g>
   <g id="patch_44">
    <path clip-path="url(#pa42b7d3334)" d="M 183.951 7473.6 
L 185.9598 7473.6 
L 185.9598 314.561439 
L 183.951 314.561439 
z
" style="fill:#0000ff;stroke:#000000;stroke-linejoin:miter;"/>
   </g>
   <g id="patch_45">
    <path clip-path="url(#pa42b7d3334)" d="M 186.462 7473.6 
L 188.4708 7473.6 
L 188.4708 312.712532 
L 186.462 312.712532 
z
" style="fill:#0000ff;stroke:#000000;stroke-linejoin:miter;"/>
   </g>
   <g id="patch_46">
    <path clip-path="url(#pa42b7d3334)" d="M 188.973 7473.6 
L 190.9818 7473.6 
L 190.9818 311.98556 
L 188.973 311.98556 
z
" style="fill:#0000ff;stroke:#000000;stroke-linejoin:miter;"/>
   </g>
   <g id="patch_47">
    <path clip-path="url(#pa42b7d3334)" d="M 191.484 7473.6 
L 193.4928 7473.6 
L 193.4928 310.229169 
L 191.484 310.229169 
z
" style="fill:#0000ff;stroke:#000000;stroke-linejoin:miter;"/>
   </g>
   <g id="patch_48">
    <path clip-path="url(#pa42b7d3334)" d="M 193.995 7473.6 
L 196.0038 7473.6 
L 196.0038 309.444308 
L 193.995 309.444308 
z
" style="fill:#0000ff;stroke:#000000;stroke-linejoin:miter;"/>
   </g>
   <g id="patch_49">
    <path clip-path="url(#pa42b7d3334)" d="M 196.506 7473.6 
L 198.5148 7473.6 
L 198.5148 308.659665 
L 196.506 308.659665 
z
" style="fill:#0000ff;stroke:#000000;stroke-linejoin:miter;"/>
   </g>
   <g id="patch_50">
    <path clip-path="url(#pa42b7d3334)" d="M 199.017 7473.6 
L 201.0258 7473.6 
L 201.0258 305.824356 
L 199.017 305.824356 
z
" style="fill:#0000ff;stroke:#000000;stroke-linejoin:miter;"/>
   </g>
   <g id="patch_51">
    <path clip-path="url(#pa42b7d3334)" d="M 201.528 7473.6 
L 203.5368 7473.6 
L 203.5368 305.750711 
L 201.528 305.750711 
z
" style="fill:#0000ff;stroke:#000000;stroke-linejoin:miter;"/>
   </g>
   <g id="patch_52">
    <path clip-path="url(#pa42b7d3334)" d="M 204.039 7473.6 
L 206.0478 7473.6 
L 206.0478 302.992193 
L 204.039 302.992193 
z
" style="fill:#0000ff;stroke:#000000;stroke-linejoin:miter;"/>
   </g>
   <g id="patch_53">
    <path clip-path="url(#pa42b7d3334)" d="M 206.55 7473.6 
L 208.5588 7473.6 
L 208.5588 302.522213 
L 206.55 302.522213 
z
" style="fill:#0000ff;stroke:#000000;stroke-linejoin:miter;"/>
   </g>
   <g id="patch_54">
    <path clip-path="url(#pa42b7d3334)" d="M 209.061 7473.6 
L 211.0698 7473.6 
L 211.0698 300.478983 
L 209.061 300.478983 
z
" style="fill:#0000ff;stroke:#000000;stroke-linejoin:miter;"/>
   </g>
   <g id="patch_55">
    <path clip-path="url(#pa42b7d3334)" d="M 211.572 7473.6 
L 213.5808 7473.6 
L 213.5808 298.694513 
L 211.572 298.694513 
z
" style="fill:#0000ff;stroke:#000000;stroke-linejoin:miter;"/>
   </g>
   <g id="patch_56">
    <path clip-path="url(#pa42b7d3334)" d="M 214.083 7473.6 
L 216.0918 7473.6 
L 216.0918 298.922851 
L 214.083 298.922851 
z
" style="fill:#0000ff;stroke:#000000;stroke-linejoin:miter;"/>
   </g>
   <g id="patch_57">
    <path clip-path="url(#pa42b7d3334)" d="M 216.594 7473.6 
L 218.6028 7473.6 
L 218.6028 296.657403 
L 216.594 296.657403 
z
" style="fill:#0000ff;stroke:#000000;stroke-linejoin:miter;"/>
   </g>
   <g id="patch_58">
    <path clip-path="url(#pa42b7d3334)" d="M 219.105 7473.6 
L 221.1138 7473.6 
L 221.1138 295.20603 
L 219.105 295.20603 
z
" style="fill:#0000ff;stroke:#000000;stroke-linejoin:miter;"/>
   </g>
   <g id="patch_59">
    <path clip-path="url(#pa42b7d3334)" d="M 221.616 7473.6 
L 223.6248 7473.6 
L 223.6248 293.670329 
L 221.616 293.670329 
z
" style="fill:#0000ff;stroke:#000000;stroke-linejoin:miter;"/>
   </g>
   <g id="patch_60">
    <path clip-path="url(#pa42b7d3334)" d="M 224.127 7473.6 
L 226.1358 7473.6 
L 226.1358 291.763022 
L 224.127 291.763022 
z
" style="fill:#0000ff;stroke:#000000;stroke-linejoin:miter;"/>
   </g>
   <g id="patch_61">
    <path clip-path="url(#pa42b7d3334)" d="M 226.638 7473.6 
L 228.6468 7473.6 
L 228.6468 292.131284 
L 226.638 292.131284 
z
" style="fill:#0000ff;stroke:#000000;stroke-linejoin:miter;"/>
   </g>
   <g id="patch_62">
    <path clip-path="url(#pa42b7d3334)" d="M 229.149 7473.6 
L 231.1578 7473.6 
L 231.1578 289.27629 
L 229.149 289.27629 
z
" style="fill:#0000ff;stroke:#000000;stroke-linejoin:miter;"/>
   </g>
   <g id="patch_63">
    <path clip-path="url(#pa42b7d3334)" d="M 231.66 7473.6 
L 233.6688 7473.6 
L 233.6688 288.623615 
L 231.66 288.623615 
z
" style="fill:#0000ff;stroke:#000000;stroke-linejoin:miter;"/>
   </g>
   <g id="patch_64">
    <path clip-path="url(#pa42b7d3334)" d="M 234.171 7473.6 
L 236.1798 7473.6 
L 236.1798 287.458375 
L 234.171 287.458375 
z
" style="fill:#0000ff;stroke:#000000;stroke-linejoin:miter;"/>
   </g>
   <g id="patch_65">
    <path clip-path="url(#pa42b7d3334)" d="M 236.682 7473.6 
L 238.6908 7473.6 
L 238.6908 286.717855 
L 236.682 286.717855 
z
" style="fill:#0000ff;stroke:#000000;stroke-linejoin:miter;"/>
   </g>
   <g id="patch_66">
    <path clip-path="url(#pa42b7d3334)" d="M 239.193 7473.6 
L 241.2018 7473.6 
L 241.2018 285.017129 
L 239.193 285.017129 
z
" style="fill:#0000ff;stroke:#000000;stroke-linejoin:miter;"/>
   </g>
   <g id="patch_67">
    <path clip-path="url(#pa42b7d3334)" d="M 241.704 7473.6 
L 243.7128 7473.6 
L 243.7128 283.353611 
L 241.704 283.353611 
z
" style="fill:#0000ff;stroke:#000000;stroke-linejoin:miter;"/>
   </g>
   <g id="patch_68">
    <path clip-path="url(#pa42b7d3334)" d="M 244.215 7473.6 
L 246.2238 7473.6 
L 246.2238 282.746035 
L 244.215 282.746035 
z
" style="fill:#0000ff;stroke:#000000;stroke-linejoin:miter;"/>
   </g>
   <g id="patch_69">
    <path clip-path="url(#pa42b7d3334)" d="M 246.726 7473.6 
L 248.7348 7473.6 
L 248.7348 281.783952 
L 246.726 281.783952 
z
" style="fill:#0000ff;stroke:#000000;stroke-linejoin:miter;"/>
   </g>
   <g id="patch_70">
    <path clip-path="url(#pa42b7d3334)" d="M 249.237 7473.6 
L 251.2458 7473.6 
L 251.2458 279.247239 
L 249.237 279.247239 
z
" style="fill:#0000ff;stroke:#000000;stroke-linejoin:miter;"/>
   </g>
   <g id="patch_71">
    <path clip-path="url(#pa42b7d3334)" d="M 251.748 7473.6 
L 253.7568 7473.6 
L 253.7568 278.886093 
L 251.748 278.886093 
z
" style="fill:#0000ff;stroke:#000000;stroke-linejoin:miter;"/>
   </g>
   <g id="patch_72">
    <path clip-path="url(#pa42b7d3334)" d="M 254.259 7473.6 
L 256.2678 7473.6 
L 256.2678 276.909106 
L 254.259 276.909106 
z
" style="fill:#0000ff;stroke:#000000;stroke-linejoin:miter;"/>
   </g>
   <g id="patch_73">
    <path clip-path="url(#pa42b7d3334)" d="M 256.77 7473.6 
L 258.7788 7473.6 
L 258.7788 276.813192 
L 256.77 276.813192 
z
" style="fill:#0000ff;stroke:#000000;stroke-linejoin:miter;"/>
   </g>
   <g id="patch_74">
    <path clip-path="url(#pa42b7d3334)" d="M 259.281 7473.6 
L 261.2898 7473.6 
L 261.2898 274.660478 
L 259.281 274.660478 
z
" style="fill:#0000ff;stroke:#000000;stroke-linejoin:miter;"/>
   </g>
   <g id="patch_75">
    <path clip-path="url(#pa42b7d3334)" d="M 261.792 7473.6 
L 263.8008 7473.6 
L 263.8008 272.920262 
L 261.792 272.920262 
z
" style="fill:#0000ff;stroke:#000000;stroke-linejoin:miter;"/>
   </g>
   <g id="patch_76">
    <path clip-path="url(#pa42b7d3334)" d="M 264.303 7473.6 
L 266.3118 7473.6 
L 266.3118 271.840345 
L 264.303 271.840345 
z
" style="fill:#0000ff;stroke:#000000;stroke-linejoin:miter;"/>
   </g>
   <g id="patch_77">
    <path clip-path="url(#pa42b7d3334)" d="M 266.814 7473.6 
L 268.8228 7473.6 
L 268.8228 269.771712 
L 266.814 269.771712 
z
" style="fill:#0000ff;stroke:#000000;stroke-linejoin:miter;"/>
   </g>
   <g id="patch_78">
    <path clip-path="url(#pa42b7d3334)" d="M 269.325 7473.6 
L 271.3338 7473.6 
L 271.3338 268.879042 
L 269.325 268.879042 
z
" style="fill:#0000ff;stroke:#000000;stroke-linejoin:miter;"/>
   </g>
   <g id="patch_79">
    <path clip-path="url(#pa42b7d3334)" d="M 271.836 7473.6 
L 273.8448 7473.6 
L 273.8448 268.019459 
L 271.836 268.019459 
z
" style="fill:#0000ff;stroke:#000000;stroke-linejoin:miter;"/>
   </g>
   <g id="patch_80">
    <path clip-path="url(#pa42b7d3334)" d="M 274.347 7473.6 
L 276.3558 7473.6 
L 276.3558 265.661926 
L 274.347 265.661926 
z
" style="fill:#0000ff;stroke:#000000;stroke-linejoin:miter;"/>
   </g>
   <g id="patch_81">
    <path clip-path="url(#pa42b7d3334)" d="M 276.858 7473.6 
L 278.8668 7473.6 
L 278.8668 265.353259 
L 276.858 265.353259 
z
" style="fill:#0000ff;stroke:#000000;stroke-linejoin:miter;"/>
   </g>
   <g id="patch_82">
    <path clip-path="url(#pa42b7d3334)" d="M 279.369 7473.6 
L 281.3778 7473.6 
L 281.3778 264.105366 
L 279.369 264.105366 
z
" style="fill:#0000ff;stroke:#000000;stroke-linejoin:miter;"/>
   </g>
   <g id="patch_83">
    <path clip-path="url(#pa42b7d3334)" d="M 281.88 7473.6 
L 283.8888 7473.6 
L 283.8888 263.345581 
L 281.88 263.345581 
z
" style="fill:#0000ff;stroke:#000000;stroke-linejoin:miter;"/>
   </g>
   <g id="patch_84">
    <path clip-path="url(#pa42b7d3334)" d="M 284.391 7473.6 
L 286.3998 7473.6 
L 286.3998 262.378859 
L 284.391 262.378859 
z
" style="fill:#0000ff;stroke:#000000;stroke-linejoin:miter;"/>
   </g>
   <g id="patch_85">
    <path clip-path="url(#pa42b7d3334)" d="M 286.902 7473.6 
L 288.9108 7473.6 
L 288.9108 260.568487 
L 286.902 260.568487 
z
" style="fill:#0000ff;stroke:#000000;stroke-linejoin:miter;"/>
   </g>
   <g id="patch_86">
    <path clip-path="url(#pa42b7d3334)" d="M 289.413 7473.6 
L 291.4218 7473.6 
L 291.4218 259.28834 
L 289.413 259.28834 
z
" style="fill:#0000ff;stroke:#000000;stroke-linejoin:miter;"/>
   </g>
   <g id="patch_87">
    <path clip-path="url(#pa42b7d3334)" d="M 291.924 7473.6 
L 293.9328 7473.6 
L 293.9328 257.489246 
L 291.924 257.489246 
z
" style="fill:#0000ff;stroke:#000000;stroke-linejoin:miter;"/>
   </g>
   <g id="patch_88">
    <path clip-path="url(#pa42b7d3334)" d="M 294.435 7473.6 
L 296.4438 7473.6 
L 296.4438 254.508372 
L 294.435 254.508372 
z
" style="fill:#0000ff;stroke:#000000;stroke-linejoin:miter;"/>
   </g>
   <g id="patch_89">
    <path clip-path="url(#pa42b7d3334)" d="M 296.946 7473.6 
L 298.9548 7473.6 
L 298.9548 254.755367 
L 296.946 254.755367 
z
" style="fill:#0000ff;stroke:#000000;stroke-linejoin:miter;"/>
   </g>
   <g id="patch_90">
    <path clip-path="url(#pa42b7d3334)" d="M 299.457 7473.6 
L 301.4658 7473.6 
L 301.4658 253.377175 
L 299.457 253.377175 
z
" style="fill:#0000ff;stroke:#000000;stroke-linejoin:miter;"/>
   </g>
   <g id="patch_91">
    <path clip-path="url(#pa42b7d3334)" d="M 301.968 7473.6 
L 303.9768 7473.6 
L 303.9768 251.556737 
L 301.968 251.556737 
z
" style="fill:#0000ff;stroke:#000000;stroke-linejoin:miter;"/>
   </g>
   <g id="patch_92">
    <path clip-path="url(#pa42b7d3334)" d="M 304.479 7473.6 
L 306.4878 7473.6 
L 306.4878 250.542987 
L 304.479 250.542987 
z
" style="fill:#0000ff;stroke:#000000;stroke-linejoin:miter;"/>
   </g>
   <g id="patch_93">
    <path clip-path="url(#pa42b7d3334)" d="M 306.99 7473.6 
L 308.9988 7473.6 
L 308.9988 249.926844 
L 306.99 249.926844 
z
" style="fill:#0000ff;stroke:#000000;stroke-linejoin:miter;"/>
   </g>
   <g id="patch_94">
    <path clip-path="url(#pa42b7d3334)" d="M 309.501 7473.6 
L 311.5098 7473.6 
L 311.5098 249.62634 
L 309.501 249.62634 
z
" style="fill:#0000ff;stroke:#000000;stroke-linejoin:miter;"/>
   </g>
   <g id="patch_95">
    <path clip-path="url(#pa42b7d3334)" d="M 312.012 7473.6 
L 314.0208 7473.6 
L 314.0208 245.605532 
L 312.012 245.605532 
z
" style="fill:#0000ff;stroke:#000000;stroke-linejoin:miter;"/>
   </g>
   <g id="patch_96">
    <path clip-path="url(#pa42b7d3334)" d="M 314.523 7473.6 
L 316.5318 7473.6 
L 316.5318 245.420246 
L 314.523 245.420246 
z
" style="fill:#0000ff;stroke:#000000;stroke-linejoin:miter;"/>
   </g>
   <g id="patch_97">
    <path clip-path="url(#pa42b7d3334)" d="M 317.034 7473.6 
L 319.0428 7473.6 
L 319.0428 243.866869 
L 317.034 243.866869 
z
" style="fill:#0000ff;stroke:#000000;stroke-linejoin:miter;"/>
   </g>
   <g id="patch_98">
    <path clip-path="url(#pa42b7d3334)" d="M 319.545 7473.6 
L 321.5538 7473.6 
L 321.5538 242.563071 
L 319.545 242.563071 
z
" style="fill:#0000ff;stroke:#000000;stroke-linejoin:miter;"/>
   </g>
   <g id="patch_99">
    <path clip-path="url(#pa42b7d3334)" d="M 322.056 7473.6 
L 324.0648 7473.6 
L 324.0648 240.729981 
L 322.056 240.729981 
z
" style="fill:#0000ff;stroke:#000000;stroke-linejoin:miter;"/>
   </g>
   <g id="patch_100">
    <path clip-path="url(#pa42b7d3334)" d="M 324.567 7473.6 
L 326.5758 7473.6 
L 326.5758 238.835661 
L 324.567 238.835661 
z
" style="fill:#0000ff;stroke:#000000;stroke-linejoin:miter;"/>
   </g>
   <g id="patch_101">
    <path clip-path="url(#pa42b7d3334)" d="M 327.078 7473.6 
L 329.0868 7473.6 
L 329.0868 238.007803 
L 327.078 238.007803 
z
" style="fill:#0000ff;stroke:#000000;stroke-linejoin:miter;"/>
   </g>
   <g id="patch_102">
    <path clip-path="url(#pa42b7d3334)" d="M 329.589 7473.6 
L 331.5978 7473.6 
L 331.5978 236.720198 
L 329.589 236.720198 
z
" style="fill:#0000ff;stroke:#000000;stroke-linejoin:miter;"/>
   </g>
   <g id="patch_103">
    <path clip-path="url(#pa42b7d3334)" d="M 332.1 7473.6 
L 334.1088 7473.6 
L 334.1088 234.906195 
L 332.1 234.906195 
z
" style="fill:#0000ff;stroke:#000000;stroke-linejoin:miter;"/>
   </g>
   <g id="patch_104">
    <path clip-path="url(#pa42b7d3334)" d="M 334.611 7473.6 
L 336.6198 7473.6 
L 336.6198 233.549469 
L 334.611 233.549469 
z
" style="fill:#0000ff;stroke:#000000;stroke-linejoin:miter;"/>
   </g>
   <g id="patch_105">
    <path clip-path="url(#pa42b7d3334)" d="M 337.122 7473.6 
L 339.1308 7473.6 
L 339.1308 233.101382 
L 337.122 233.101382 
z
" style="fill:#0000ff;stroke:#000000;stroke-linejoin:miter;"/>
   </g>
   <g id="patch_106">
    <path clip-path="url(#pa42b7d3334)" d="M 339.633 7473.6 
L 341.6418 7473.6 
L 341.6418 231.044217 
L 339.633 231.044217 
z
" style="fill:#0000ff;stroke:#000000;stroke-linejoin:miter;"/>
   </g>
   <g id="patch_107">
    <path clip-path="url(#pa42b7d3334)" d="M 342.144 7473.6 
L 344.1528 7473.6 
L 344.1528 228.671661 
L 342.144 228.671661 
z
" style="fill:#0000ff;stroke:#000000;stroke-linejoin:miter;"/>
   </g>
   <g id="patch_108">
    <path clip-path="url(#pa42b7d3334)" d="M 344.655 7473.6 
L 346.6638 7473.6 
L 346.6638 227.350504 
L 344.655 227.350504 
z
" style="fill:#0000ff;stroke:#000000;stroke-linejoin:miter;"/>
   </g>
   <g id="patch_109">
    <path clip-path="url(#pa42b7d3334)" d="M 347.166 7473.6 
L 349.1748 7473.6 
L 349.1748 225.617788 
L 347.166 225.617788 
z
" style="fill:#0000ff;stroke:#000000;stroke-linejoin:miter;"/>
   </g>
   <g id="patch_110">
    <path clip-path="url(#pa42b7d3334)" d="M 349.677 7473.6 
L 351.6858 7473.6 
L 351.6858 225.748028 
L 349.677 225.748028 
z
" style="fill:#0000ff;stroke:#000000;stroke-linejoin:miter;"/>
   </g>
   <g id="patch_111">
    <path clip-path="url(#pa42b7d3334)" d="M 352.188 7473.6 
L 354.1968 7473.6 
L 354.1968 224.024605 
L 352.188 224.024605 
z
" style="fill:#0000ff;stroke:#000000;stroke-linejoin:miter;"/>
   </g>
   <g id="patch_112">
    <path clip-path="url(#pa42b7d3334)" d="M 354.699 7473.6 
L 356.7078 7473.6 
L 356.7078 222.672847 
L 354.699 222.672847 
z
" style="fill:#0000ff;stroke:#000000;stroke-linejoin:miter;"/>
   </g>
   <g id="patch_113">
    <path clip-path="url(#pa42b7d3334)" d="M 357.21 7473.6 
L 359.2188 7473.6 
L 359.2188 220.989112 
L 357.21 220.989112 
z
" style="fill:#0000ff;stroke:#000000;stroke-linejoin:miter;"/>
   </g>
   <g id="patch_114">
    <path clip-path="url(#pa42b7d3334)" d="M 359.721 7473.6 
L 361.7298 7473.6 
L 361.7298 220.834087 
L 359.721 220.834087 
z
" style="fill:#0000ff;stroke:#000000;stroke-linejoin:miter;"/>
   </g>
   <g id="patch_115">
    <path clip-path="url(#pa42b7d3334)" d="M 362.232 7473.6 
L 364.2408 7473.6 
L 364.2408 218.743982 
L 362.232 218.743982 
z
" style="fill:#0000ff;stroke:#000000;stroke-linejoin:miter;"/>
   </g>
   <g id="patch_116">
    <path clip-path="url(#pa42b7d3334)" d="M 364.743 7473.6 
L 366.7518 7473.6 
L 366.7518 217.77662 
L 364.743 217.77662 
z
" style="fill:#0000ff;stroke:#000000;stroke-linejoin:miter;"/>
   </g>
   <g id="patch_117">
    <path clip-path="url(#pa42b7d3334)" d="M 367.254 7473.6 
L 369.2628 7473.6 
L 369.2628 215.174438 
L 367.254 215.174438 
z
" style="fill:#0000ff;stroke:#000000;stroke-linejoin:miter;"/>
   </g>
   <g id="patch_118">
    <path clip-path="url(#pa42b7d3334)" d="M 369.765 7473.6 
L 371.7738 7473.6 
L 371.7738 214.980205 
L 369.765 214.980205 
z
" style="fill:#0000ff;stroke:#000000;stroke-linejoin:miter;"/>
   </g>
   <g id="patch_119">
    <path clip-path="url(#pa42b7d3334)" d="M 372.276 7473.6 
L 374.2848 7473.6 
L 374.2848 213.246389 
L 372.276 213.246389 
z
" style="fill:#0000ff;stroke:#000000;stroke-linejoin:miter;"/>
   </g>
   <g id="patch_120">
    <path clip-path="url(#pa42b7d3334)" d="M 374.787 7473.6 
L 376.7958 7473.6 
L 376.7958 211.557571 
L 374.787 211.557571 
z
" style="fill:#0000ff;stroke:#000000;stroke-linejoin:miter;"/>
   </g>
   <g id="patch_121">
    <path clip-path="url(#pa42b7d3334)" d="M 377.298 7473.6 
L 379.3068 7473.6 
L 379.3068 211.146671 
L 377.298 211.146671 
z
" style="fill:#0000ff;stroke:#000000;stroke-linejoin:miter;"/>
   </g>
   <g id="patch_122">
    <path clip-path="url(#pa42b7d3334)" d="M 379.809 7473.6 
L 381.8178 7473.6 
L 381.8178 209.090692 
L 379.809 209.090692 
z
" style="fill:#0000ff;stroke:#000000;stroke-linejoin:miter;"/>
   </g>
   <g id="patch_123">
    <path clip-path="url(#pa42b7d3334)" d="M 382.32 7473.6 
L 384.3288 7473.6 
L 384.3288 208.400062 
L 382.32 208.400062 
z
" style="fill:#0000ff;stroke:#000000;stroke-linejoin:miter;"/>
   </g>
   <g id="patch_124">
    <path clip-path="url(#pa42b7d3334)" d="M 384.831 7473.6 
L 386.8398 7473.6 
L 386.8398 207.374567 
L 384.831 207.374567 
z
" style="fill:#0000ff;stroke:#000000;stroke-linejoin:miter;"/>
   </g>
   <g id="patch_125">
    <path clip-path="url(#pa42b7d3334)" d="M 387.342 7473.6 
L 389.3508 7473.6 
L 389.3508 205.620741 
L 387.342 205.620741 
z
" style="fill:#0000ff;stroke:#000000;stroke-linejoin:miter;"/>
   </g>
   <g id="patch_126">
    <path clip-path="url(#pa42b7d3334)" d="M 389.853 7473.6 
L 391.8618 7473.6 
L 391.8618 204.582802 
L 389.853 204.582802 
z
" style="fill:#0000ff;stroke:#000000;stroke-linejoin:miter;"/>
   </g>
   <g id="patch_127">
    <path clip-path="url(#pa42b7d3334)" d="M 392.364 7473.6 
L 394.3728 7473.6 
L 394.3728 201.346794 
L 392.364 201.346794 
z
" style="fill:#0000ff;stroke:#000000;stroke-linejoin:miter;"/>
   </g>
   <g id="patch_128">
    <path clip-path="url(#pa42b7d3334)" d="M 394.875 7473.6 
L 396.8838 7473.6 
L 396.8838 200.294275 
L 394.875 200.294275 
z
" style="fill:#0000ff;stroke:#000000;stroke-linejoin:miter;"/>
   </g>
   <g id="patch_129">
    <path clip-path="url(#pa42b7d3334)" d="M 397.386 7473.6 
L 399.3948 7473.6 
L 399.3948 200.706171 
L 397.386 200.706171 
z
" style="fill:#0000ff;stroke:#000000;stroke-linejoin:miter;"/>
   </g>
   <g id="patch_130">
    <path clip-path="url(#pa42b7d3334)" d="M 399.897 7473.6 
L 401.9058 7473.6 
L 401.9058 198.730677 
L 399.897 198.730677 
z
" style="fill:#0000ff;stroke:#000000;stroke-linejoin:miter;"/>
   </g>
   <g id="patch_131">
    <path clip-path="url(#pa42b7d3334)" d="M 402.408 7473.6 
L 404.4168 7473.6 
L 404.4168 199.095801 
L 402.408 199.095801 
z
" style="fill:#0000ff;stroke:#000000;stroke-linejoin:miter;"/>
   </g>
   <g id="patch_132">
    <path clip-path="url(#pa42b7d3334)" d="M 404.919 7473.6 
L 406.9278 7473.6 
L 406.9278 197.202748 
L 404.919 197.202748 
z
" style="fill:#0000ff;stroke:#000000;stroke-linejoin:miter;"/>
   </g>
   <g id="patch_133">
    <path clip-path="url(#pa42b7d3334)" d="M 407.43 7473.6 
L 409.4388 7473.6 
L 409.4388 196.213689 
L 407.43 196.213689 
z
" style="fill:#0000ff;stroke:#000000;stroke-linejoin:miter;"/>
   </g>
   <g id="patch_134">
    <path clip-path="url(#pa42b7d3334)" d="M 409.941 7473.6 
L 411.9498 7473.6 
L 411.9498 193.510067 
L 409.941 193.510067 
z
" style="fill:#0000ff;stroke:#000000;stroke-linejoin:miter;"/>
   </g>
   <g id="patch_135">
    <path clip-path="url(#pa42b7d3334)" d="M 412.452 7473.6 
L 414.4608 7473.6 
L 414.4608 192.571261 
L 412.452 192.571261 
z
" style="fill:#0000ff;stroke:#000000;stroke-linejoin:miter;"/>
   </g>
   <g id="patch_136">
    <path clip-path="url(#pa42b7d3334)" d="M 414.963 7473.6 
L 416.9718 7473.6 
L 416.9718 192.352369 
L 414.963 192.352369 
z
" style="fill:#0000ff;stroke:#000000;stroke-linejoin:miter;"/>
   </g>
   <g id="patch_137">
    <path clip-path="url(#pa42b7d3334)" d="M 417.474 7473.6 
L 419.4828 7473.6 
L 419.4828 188.358053 
L 417.474 188.358053 
z
" style="fill:#0000ff;stroke:#000000;stroke-linejoin:miter;"/>
   </g>
   <g id="patch_138">
    <path clip-path="url(#pa42b7d3334)" d="M 419.985 7473.6 
L 421.9938 7473.6 
L 421.9938 188.055602 
L 419.985 188.055602 
z
" style="fill:#0000ff;stroke:#000000;stroke-linejoin:miter;"/>
   </g>
   <g id="patch_139">
    <path clip-path="url(#pa42b7d3334)" d="M 422.496 7473.6 
L 424.5048 7473.6 
L 424.5048 187.616978 
L 422.496 187.616978 
z
" style="fill:#0000ff;stroke:#000000;stroke-linejoin:miter;"/>
   </g>
   <g id="patch_140">
    <path clip-path="url(#pa42b7d3334)" d="M 425.007 7473.6 
L 427.0158 7473.6 
L 427.0158 185.939461 
L 425.007 185.939461 
z
" style="fill:#0000ff;stroke:#000000;stroke-linejoin:miter;"/>
   </g>
   <g id="patch_141">
    <path clip-path="url(#pa42b7d3334)" d="M 427.518 7473.6 
L 429.5268 7473.6 
L 429.5268 185.14863 
L 427.518 185.14863 
z
" style="fill:#0000ff;stroke:#000000;stroke-linejoin:miter;"/>
   </g>
   <g id="patch_142">
    <path clip-path="url(#pa42b7d3334)" d="M 430.029 7473.6 
L 432.0378 7473.6 
L 432.0378 183.381081 
L 430.029 183.381081 
z
" style="fill:#0000ff;stroke:#000000;stroke-linejoin:miter;"/>
   </g>
   <g id="patch_143">
    <path clip-path="url(#pa42b7d3334)" d="M 432.54 7473.6 
L 434.5488 7473.6 
L 434.5488 181.439369 
L 432.54 181.439369 
z
" style="fill:#0000ff;stroke:#000000;stroke-linejoin:miter;"/>
   </g>
   <g id="patch_144">
    <path clip-path="url(#pa42b7d3334)" d="M 435.051 7473.6 
L 437.0598 7473.6 
L 437.0598 179.741491 
L 435.051 179.741491 
z
" style="fill:#0000ff;stroke:#000000;stroke-linejoin:miter;"/>
   </g>
   <g id="patch_145">
    <path clip-path="url(#pa42b7d3334)" d="M 437.562 7473.6 
L 439.5708 7473.6 
L 439.5708 178.300291 
L 437.562 178.300291 
z
" style="fill:#0000ff;stroke:#000000;stroke-linejoin:miter;"/>
   </g>
   <g id="patch_146">
    <path clip-path="url(#pa42b7d3334)" d="M 440.073 7473.6 
L 442.0818 7473.6 
L 442.0818 178.660468 
L 440.073 178.660468 
z
" style="fill:#0000ff;stroke:#000000;stroke-linejoin:miter;"/>
   </g>
   <g id="patch_147">
    <path clip-path="url(#pa42b7d3334)" d="M 442.584 7473.6 
L 444.5928 7473.6 
L 444.5928 175.286031 
L 442.584 175.286031 
z
" style="fill:#0000ff;stroke:#000000;stroke-linejoin:miter;"/>
   </g>
   <g id="patch_148">
    <path clip-path="url(#pa42b7d3334)" d="M 445.095 7473.6 
L 447.1038 7473.6 
L 447.1038 173.833024 
L 445.095 173.833024 
z
" style="fill:#0000ff;stroke:#000000;stroke-linejoin:miter;"/>
   </g>
   <g id="patch_149">
    <path clip-path="url(#pa42b7d3334)" d="M 447.606 7473.6 
L 449.6148 7473.6 
L 449.6148 173.897601 
L 447.606 173.897601 
z
" style="fill:#0000ff;stroke:#000000;stroke-linejoin:miter;"/>
   </g>
   <g id="patch_150">
    <path clip-path="url(#pa42b7d3334)" d="M 450.117 7473.6 
L 452.1258 7473.6 
L 452.1258 171.928392 
L 450.117 171.928392 
z
" style="fill:#0000ff;stroke:#000000;stroke-linejoin:miter;"/>
   </g>
   <g id="patch_151">
    <path clip-path="url(#pa42b7d3334)" d="M 452.628 7473.6 
L 454.6368 7473.6 
L 454.6368 171.005829 
L 452.628 171.005829 
z
" style="fill:#0000ff;stroke:#000000;stroke-linejoin:miter;"/>
   </g>
   <g id="patch_152">
    <path clip-path="url(#pa42b7d3334)" d="M 455.139 7473.6 
L 457.1478 7473.6 
L 457.1478 169.177552 
L 455.139 169.177552 
z
" style="fill:#0000ff;stroke:#000000;stroke-linejoin:miter;"/>
   </g>
   <g id="patch_153">
    <path clip-path="url(#pa42b7d3334)" d="M 457.65 7473.6 
L 459.6588 7473.6 
L 459.6588 167.185162 
L 457.65 167.185162 
z
" style="fill:#0000ff;stroke:#000000;stroke-linejoin:miter;"/>
   </g>
   <g id="patch_154">
    <path clip-path="url(#pa42b7d3334)" d="M 460.161 7473.6 
L 462.1698 7473.6 
L 462.1698 165.377958 
L 460.161 165.377958 
z
" style="fill:#0000ff;stroke:#000000;stroke-linejoin:miter;"/>
   </g>
   <g id="patch_155">
    <path clip-path="url(#pa42b7d3334)" d="M 462.672 7473.6 
L 464.6808 7473.6 
L 464.6808 163.249267 
L 462.672 163.249267 
z
" style="fill:#0000ff;stroke:#000000;stroke-linejoin:miter;"/>
   </g>
   <g id="patch_156">
    <path clip-path="url(#pa42b7d3334)" d="M 465.183 7473.6 
L 467.1918 7473.6 
L 467.1918 163.244368 
L 465.183 163.244368 
z
" style="fill:#0000ff;stroke:#000000;stroke-linejoin:miter;"/>
   </g>
   <g id="patch_157">
    <path clip-path="url(#pa42b7d3334)" d="M 467.694 7473.6 
L 469.7028 7473.6 
L 469.7028 161.781591 
L 467.694 161.781591 
z
" style="fill:#0000ff;stroke:#000000;stroke-linejoin:miter;"/>
   </g>
   <g id="patch_158">
    <path clip-path="url(#pa42b7d3334)" d="M 470.205 7473.6 
L 472.2138 7473.6 
L 472.2138 161.093794 
L 470.205 161.093794 
z
" style="fill:#0000ff;stroke:#000000;stroke-linejoin:miter;"/>
   </g>
   <g id="patch_159">
    <path clip-path="url(#pa42b7d3334)" d="M 472.716 7473.6 
L 474.7248 7473.6 
L 474.7248 161.3466 
L 472.716 161.3466 
z
" style="fill:#0000ff;stroke:#000000;stroke-linejoin:miter;"/>
   </g>
   <g id="patch_160">
    <path clip-path="url(#pa42b7d3334)" d="M 475.227 7473.6 
L 477.2358 7473.6 
L 477.2358 157.022846 
L 475.227 157.022846 
z
" style="fill:#0000ff;stroke:#000000;stroke-linejoin:miter;"/>
   </g>
   <g id="patch_161">
    <path clip-path="url(#pa42b7d3334)" d="M 477.738 7473.6 
L 479.7468 7473.6 
L 479.7468 156.394382 
L 477.738 156.394382 
z
" style="fill:#0000ff;stroke:#000000;stroke-linejoin:miter;"/>
   </g>
   <g id="patch_162">
    <path clip-path="url(#pa42b7d3334)" d="M 480.249 7473.6 
L 482.2578 7473.6 
L 482.2578 154.811683 
L 480.249 154.811683 
z
" style="fill:#0000ff;stroke:#000000;stroke-linejoin:miter;"/>
   </g>
   <g id="patch_163">
    <path clip-path="url(#pa42b7d3334)" d="M 482.76 7473.6 
L 484.7688 7473.6 
L 484.7688 153.509934 
L 482.76 153.509934 
z
" style="fill:#0000ff;stroke:#000000;stroke-linejoin:miter;"/>
   </g>
   <g id="patch_164">
    <path clip-path="url(#pa42b7d3334)" d="M 485.271 7473.6 
L 487.2798 7473.6 
L 487.2798 150.539013 
L 485.271 150.539013 
z
" style="fill:#0000ff;stroke:#000000;stroke-linejoin:miter;"/>
   </g>
   <g id="patch_165">
    <path clip-path="url(#pa42b7d3334)" d="M 487.782 7473.6 
L 489.7908 7473.6 
L 489.7908 150.910706 
L 487.782 150.910706 
z
" style="fill:#0000ff;stroke:#000000;stroke-linejoin:miter;"/>
   </g>
   <g id="patch_166">
    <path clip-path="url(#pa42b7d3334)" d="M 490.293 7473.6 
L 492.3018 7473.6 
L 492.3018 149.766466 
L 490.293 149.766466 
z
" style="fill:#0000ff;stroke:#000000;stroke-linejoin:miter;"/>
   </g>
   <g id="patch_167">
    <path clip-path="url(#pa42b7d3334)" d="M 492.804 7473.6 
L 494.8128 7473.6 
L 494.8128 148.635176 
L 492.804 148.635176 
z
" style="fill:#0000ff;stroke:#000000;stroke-linejoin:miter;"/>
   </g>
   <g id="patch_168">
    <path clip-path="url(#pa42b7d3334)" d="M 495.315 7473.6 
L 497.3238 7473.6 
L 497.3238 147.829513 
L 495.315 147.829513 
z
" style="fill:#0000ff;stroke:#000000;stroke-linejoin:miter;"/>
   </g>
   <g id="patch_169">
    <path clip-path="url(#pa42b7d3334)" d="M 497.826 7473.6 
L 499.8348 7473.6 
L 499.8348 147.227906 
L 497.826 147.227906 
z
" style="fill:#0000ff;stroke:#000000;stroke-linejoin:miter;"/>
   </g>
   <g id="patch_170">
    <path clip-path="url(#pa42b7d3334)" d="M 500.337 7473.6 
L 502.3458 7473.6 
L 502.3458 145.525119 
L 500.337 145.525119 
z
" style="fill:#0000ff;stroke:#000000;stroke-linejoin:miter;"/>
   </g>
   <g id="patch_171">
    <path clip-path="url(#pa42b7d3334)" d="M 502.848 7473.6 
L 504.8568 7473.6 
L 504.8568 143.526136 
L 502.848 143.526136 
z
" style="fill:#0000ff;stroke:#000000;stroke-linejoin:miter;"/>
   </g>
   <g id="patch_172">
    <path clip-path="url(#pa42b7d3334)" d="M 505.359 7473.6 
L 507.3678 7473.6 
L 507.3678 141.235891 
L 505.359 141.235891 
z
" style="fill:#0000ff;stroke:#000000;stroke-linejoin:miter;"/>
   </g>
   <g id="patch_173">
    <path clip-path="url(#pa42b7d3334)" d="M 507.87 7473.6 
L 509.8788 7473.6 
L 509.8788 140.375327 
L 507.87 140.375327 
z
" style="fill:#0000ff;stroke:#000000;stroke-linejoin:miter;"/>
   </g>
   <g id="patch_174">
    <path clip-path="url(#pa42b7d3334)" d="M 510.381 7473.6 
L 512.3898 7473.6 
L 512.3898 138.38174 
L 510.381 138.38174 
z
" style="fill:#0000ff;stroke:#000000;stroke-linejoin:miter;"/>
   </g>
   <g id="patch_175">
    <path clip-path="url(#pa42b7d3334)" d="M 512.892 7473.6 
L 514.9008 7473.6 
L 514.9008 137.459182 
L 512.892 137.459182 
z
" style="fill:#0000ff;stroke:#000000;stroke-linejoin:miter;"/>
   </g>
   <g id="patch_176">
    <path clip-path="url(#pa42b7d3334)" d="M 515.403 7473.6 
L 517.4118 7473.6 
L 517.4118 135.661211 
L 515.403 135.661211 
z
" style="fill:#0000ff;stroke:#000000;stroke-linejoin:miter;"/>
   </g>
   <g id="patch_177">
    <path clip-path="url(#pa42b7d3334)" d="M 517.914 7473.6 
L 519.9228 7473.6 
L 519.9228 134.333026 
L 517.914 134.333026 
z
" style="fill:#0000ff;stroke:#000000;stroke-linejoin:miter;"/>
   </g>
   <g id="patch_178">
    <path clip-path="url(#pa42b7d3334)" d="M 520.425 7473.6 
L 522.4338 7473.6 
L 522.4338 132.685528 
L 520.425 132.685528 
z
" style="fill:#0000ff;stroke:#000000;stroke-linejoin:miter;"/>
   </g>
   <g id="patch_179">
    <path clip-path="url(#pa42b7d3334)" d="M 522.936 7473.6 
L 524.9448 7473.6 
L 524.9448 131.933916 
L 522.936 131.933916 
z
" style="fill:#0000ff;stroke:#000000;stroke-linejoin:miter;"/>
   </g>
   <g id="patch_180">
    <path clip-path="url(#pa42b7d3334)" d="M 525.447 7473.6 
L 527.4558 7473.6 
L 527.4558 129.488431 
L 525.447 129.488431 
z
" style="fill:#0000ff;stroke:#000000;stroke-linejoin:miter;"/>
   </g>
   <g id="patch_181">
    <path clip-path="url(#pa42b7d3334)" d="M 527.958 7473.6 
L 529.9668 7473.6 
L 529.9668 129.447019 
L 527.958 129.447019 
z
" style="fill:#0000ff;stroke:#000000;stroke-linejoin:miter;"/>
   </g>
   <g id="patch_182">
    <path clip-path="url(#pa42b7d3334)" d="M 530.469 7473.6 
L 532.4778 7473.6 
L 532.4778 128.224117 
L 530.469 128.224117 
z
" style="fill:#0000ff;stroke:#000000;stroke-linejoin:miter;"/>
   </g>
   <g id="patch_183">
    <path clip-path="url(#pa42b7d3334)" d="M 532.98 7473.6 
L 534.9888 7473.6 
L 534.9888 126.618209 
L 532.98 126.618209 
z
" style="fill:#0000ff;stroke:#000000;stroke-linejoin:miter;"/>
   </g>
   <g id="patch_184">
    <path clip-path="url(#pa42b7d3334)" d="M 535.491 7473.6 
L 537.4998 7473.6 
L 537.4998 126.438767 
L 535.491 126.438767 
z
" style="fill:#0000ff;stroke:#000000;stroke-linejoin:miter;"/>
   </g>
   <g id="patch_185">
    <path clip-path="url(#pa42b7d3334)" d="M 538.002 7473.6 
L 540.0108 7473.6 
L 540.0108 124.236499 
L 538.002 124.236499 
z
" style="fill:#0000ff;stroke:#000000;stroke-linejoin:miter;"/>
   </g>
   <g id="patch_186">
    <path clip-path="url(#pa42b7d3334)" d="M 540.513 7473.6 
L 542.5218 7473.6 
L 542.5218 123.16139 
L 540.513 123.16139 
z
" style="fill:#0000ff;stroke:#000000;stroke-linejoin:miter;"/>
   </g>
   <g id="patch_187">
    <path clip-path="url(#pa42b7d3334)" d="M 543.024 7473.6 
L 545.0328 7473.6 
L 545.0328 121.654515 
L 543.024 121.654515 
z
" style="fill:#0000ff;stroke:#000000;stroke-linejoin:miter;"/>
   </g>
   <g id="patch_188">
    <path clip-path="url(#pa42b7d3334)" d="M 545.535 7473.6 
L 547.5438 7473.6 
L 547.5438 119.701249 
L 545.535 119.701249 
z
" style="fill:#0000ff;stroke:#000000;stroke-linejoin:miter;"/>
   </g>
   <g id="patch_189">
    <path clip-path="url(#pa42b7d3334)" d="M 548.046 7473.6 
L 550.0548 7473.6 
L 550.0548 118.530167 
L 548.046 118.530167 
z
" style="fill:#0000ff;stroke:#000000;stroke-linejoin:miter;"/>
   </g>
   <g id="patch_190">
    <path clip-path="url(#pa42b7d3334)" d="M 550.557 7473.6 
L 552.5658 7473.6 
L 552.5658 117.783702 
L 550.557 117.783702 
z
" style="fill:#0000ff;stroke:#000000;stroke-linejoin:miter;"/>
   </g>
   <g id="patch_191">
    <path clip-path="url(#pa42b7d3334)" d="M 553.068 7473.6 
L 555.0768 7473.6 
L 555.0768 116.817891 
L 553.068 116.817891 
z
" style="fill:#0000ff;stroke:#000000;stroke-linejoin:miter;"/>
   </g>
   <g id="patch_192">
    <path clip-path="url(#pa42b7d3334)" d="M 555.579 7473.6 
L 557.5878 7473.6 
L 557.5878 115.938329 
L 555.579 115.938329 
z
" style="fill:#0000ff;stroke:#000000;stroke-linejoin:miter;"/>
   </g>
   <g id="patch_193">
    <path clip-path="url(#pa42b7d3334)" d="M 558.09 7473.6 
L 560.0988 7473.6 
L 560.0988 114.839125 
L 558.09 114.839125 
z
" style="fill:#0000ff;stroke:#000000;stroke-linejoin:miter;"/>
   </g>
   <g id="patch_194">
    <path clip-path="url(#pa42b7d3334)" d="M 560.601 7473.6 
L 562.6098 7473.6 
L 562.6098 113.319366 
L 560.601 113.319366 
z
" style="fill:#0000ff;stroke:#000000;stroke-linejoin:miter;"/>
   </g>
   <g id="patch_195">
    <path clip-path="url(#pa42b7d3334)" d="M 563.112 7473.6 
L 565.1208 7473.6 
L 565.1208 111.678095 
L 563.112 111.678095 
z
" style="fill:#0000ff;stroke:#000000;stroke-linejoin:miter;"/>
   </g>
   <g id="patch_196">
    <path clip-path="url(#pa42b7d3334)" d="M 565.623 7473.6 
L 567.6318 7473.6 
L 567.6318 110.113983 
L 565.623 110.113983 
z
" style="fill:#0000ff;stroke:#000000;stroke-linejoin:miter;"/>
   </g>
   <g id="patch_197">
    <path clip-path="url(#pa42b7d3334)" d="M 568.134 7473.6 
L 570.1428 7473.6 
L 570.1428 108.618922 
L 568.134 108.618922 
z
" style="fill:#0000ff;stroke:#000000;stroke-linejoin:miter;"/>
   </g>
   <g id="patch_198">
    <path clip-path="url(#pa42b7d3334)" d="M 570.645 7473.6 
L 572.6538 7473.6 
L 572.6538 107.840283 
L 570.645 107.840283 
z
" style="fill:#0000ff;stroke:#000000;stroke-linejoin:miter;"/>
   </g>
   <g id="patch_199">
    <path clip-path="url(#pa42b7d3334)" d="M 573.156 7473.6 
L 575.1648 7473.6 
L 575.1648 103.381011 
L 573.156 103.381011 
z
" style="fill:#0000ff;stroke:#000000;stroke-linejoin:miter;"/>
   </g>
   <g id="patch_200">
    <path clip-path="url(#pa42b7d3334)" d="M 575.667 7473.6 
L 577.6758 7473.6 
L 577.6758 102.029867 
L 575.667 102.029867 
z
" style="fill:#0000ff;stroke:#000000;stroke-linejoin:miter;"/>
   </g>
   <g id="patch_201">
    <path clip-path="url(#pa42b7d3334)" d="M 578.178 7473.6 
L 580.1868 7473.6 
L 580.1868 101.294427 
L 578.178 101.294427 
z
" style="fill:#0000ff;stroke:#000000;stroke-linejoin:miter;"/>
   </g>
   <g id="patch_202">
    <path clip-path="url(#pa42b7d3334)" d="M 580.689 7473.6 
L 582.6978 7473.6 
L 582.6978 99.625523 
L 580.689 99.625523 
z
" style="fill:#0000ff;stroke:#000000;stroke-linejoin:miter;"/>
   </g>
   <g id="patch_203">
    <path clip-path="url(#pa42b7d3334)" d="M 583.2 7473.6 
L 585.2088 7473.6 
L 585.2088 99.856064 
L 583.2 99.856064 
z
" style="fill:#0000ff;stroke:#000000;stroke-linejoin:miter;"/>
   </g>
   <g id="patch_204">
    <path clip-path="url(#pa42b7d3334)" d="M 585.711 7473.6 
L 587.7198 7473.6 
L 587.7198 97.053587 
L 585.711 97.053587 
z
" style="fill:#0000ff;stroke:#000000;stroke-linejoin:miter;"/>
   </g>
   <g id="patch_205">
    <path clip-path="url(#pa42b7d3334)" d="M 588.222 7473.6 
L 590.2308 7473.6 
L 590.2308 95.010134 
L 588.222 95.010134 
z
" style="fill:#0000ff;stroke:#000000;stroke-linejoin:miter;"/>
   </g>
   <g id="patch_206">
    <path clip-path="url(#pa42b7d3334)" d="M 590.733 7473.6 
L 592.7418 7473.6 
L 592.7418 95.103849 
L 590.733 95.103849 
z
" style="fill:#0000ff;stroke:#000000;stroke-linejoin:miter;"/>
   </g>
   <g id="patch_207">
    <path clip-path="url(#pa42b7d3334)" d="M 593.244 7473.6 
L 595.2528 7473.6 
L 595.2528 94.620031 
L 593.244 94.620031 
z
" style="fill:#0000ff;stroke:#000000;stroke-linejoin:miter;"/>
   </g>
   <g id="patch_208">
    <path clip-path="url(#pa42b7d3334)" d="M 595.755 7473.6 
L 597.7638 7473.6 
L 597.7638 93.718998 
L 595.755 93.718998 
z
" style="fill:#0000ff;stroke:#000000;stroke-linejoin:miter;"/>
   </g>
   <g id="patch_209">
    <path clip-path="url(#pa42b7d3334)" d="M 598.266 7473.6 
L 600.2748 7473.6 
L 600.2748 91.945026 
L 598.266 91.945026 
z
" style="fill:#0000ff;stroke:#000000;stroke-linejoin:miter;"/>
   </g>
   <g id="patch_210">
    <path clip-path="url(#pa42b7d3334)" d="M 600.777 7473.6 
L 602.7858 7473.6 
L 602.7858 90.200851 
L 600.777 90.200851 
z
" style="fill:#0000ff;stroke:#000000;stroke-linejoin:miter;"/>
   </g>
   <g id="patch_211">
    <path clip-path="url(#pa42b7d3334)" d="M 603.288 7473.6 
L 605.2968 7473.6 
L 605.2968 88.926458 
L 603.288 88.926458 
z
" style="fill:#0000ff;stroke:#000000;stroke-linejoin:miter;"/>
   </g>
   <g id="patch_212">
    <path clip-path="url(#pa42b7d3334)" d="M 605.799 7473.6 
L 607.8078 7473.6 
L 607.8078 87.281181 
L 605.799 87.281181 
z
" style="fill:#0000ff;stroke:#000000;stroke-linejoin:miter;"/>
   </g>
   <g id="patch_213">
    <path clip-path="url(#pa42b7d3334)" d="M 608.31 7473.6 
L 610.3188 7473.6 
L 610.3188 84.954344 
L 608.31 84.954344 
z
" style="fill:#0000ff;stroke:#000000;stroke-linejoin:miter;"/>
   </g>
   <g id="patch_214">
    <path clip-path="url(#pa42b7d3334)" d="M 610.821 7473.6 
L 612.8298 7473.6 
L 612.8298 82.208381 
L 610.821 82.208381 
z
" style="fill:#0000ff;stroke:#000000;stroke-linejoin:miter;"/>
   </g>
   <g id="patch_215">
    <path clip-path="url(#pa42b7d3334)" d="M 613.332 7473.6 
L 615.3408 7473.6 
L 615.3408 80.80074 
L 613.332 80.80074 
z
" style="fill:#0000ff;stroke:#000000;stroke-linejoin:miter;"/>
   </g>
   <g id="patch_216">
    <path clip-path="url(#pa42b7d3334)" d="M 615.843 7473.6 
L 617.8518 7473.6 
L 617.8518 79.498118 
L 615.843 79.498118 
z
" style="fill:#0000ff;stroke:#000000;stroke-linejoin:miter;"/>
   </g>
   <g id="patch_217">
    <path clip-path="url(#pa42b7d3334)" d="M 618.354 7473.6 
L 620.3628 7473.6 
L 620.3628 77.269143 
L 618.354 77.269143 
z
" style="fill:#0000ff;stroke:#000000;stroke-linejoin:miter;"/>
   </g>
   <g id="patch_218">
    <path clip-path="url(#pa42b7d3334)" d="M 620.865 7473.6 
L 622.8738 7473.6 
L 622.8738 75.64365 
L 620.865 75.64365 
z
" style="fill:#0000ff;stroke:#000000;stroke-linejoin:miter;"/>
   </g>
   <g id="patch_219">
    <path clip-path="url(#pa42b7d3334)" d="M 623.376 7473.6 
L 625.3848 7473.6 
L 625.3848 72.397668 
L 623.376 72.397668 
z
" style="fill:#0000ff;stroke:#000000;stroke-linejoin:miter;"/>
   </g>
   <g id="patch_220">
    <path clip-path="url(#pa42b7d3334)" d="M 625.887 7473.6 
L 627.8958 7473.6 
L 627.8958 63.687441 
L 625.887 63.687441 
z
" style="fill:#0000ff;stroke:#000000;stroke-linejoin:miter;"/>
   </g>
   <g id="patch_221">
    <path d="M 81 388.8 
L 81 43.2 
" style="fill:none;stroke:#000000;stroke-linecap:square;stroke-linejoin:miter;"/>
   </g>
   <g id="patch_222">
    <path d="M 583.2 388.8 
L 583.2 43.2 
" style="fill:none;stroke:#000000;stroke-linecap:square;stroke-linejoin:miter;"/>
   </g>
   <g id="patch_223">
    <path d="M 81 388.8 
L 583.2 388.8 
" style="fill:none;stroke:#000000;stroke-linecap:square;stroke-linejoin:miter;"/>
   </g>
   <g id="patch_224">
    <path d="M 81 43.2 
L 583.2 43.2 
" style="fill:none;stroke:#000000;stroke-linecap:square;stroke-linejoin:miter;"/>
   </g>
   <g id="matplotlib.axis_1">
    <g id="xtick_1">
     <g id="line2d_1">
      <defs>
       <path d="M 0 0 
L 0 -4 
" id="m8b2a7acf21" style="stroke:#000000;stroke-width:0.5;"/>
      </defs>
      <g>
       <use style="stroke:#000000;stroke-width:0.5;" x="81.0" xlink:href="#m8b2a7acf21" y="388.8"/>
      </g>
     </g>
     <g id="line2d_2">
      <defs>
       <path d="M 0 0 
L 0 4 
" id="m739cbc06da" style="stroke:#000000;stroke-width:0.5;"/>
      </defs>
      <g>
       <use style="stroke:#000000;stroke-width:0.5;" x="81.0" xlink:href="#m739cbc06da" y="43.2"/>
      </g>
     </g>
     <g id="text_1">
      <!-- 0 -->
      <defs>
       <path d="M 31.78125 66.40625 
Q 24.171875 66.40625 20.328125 58.90625 
Q 16.5 51.421875 16.5 36.375 
Q 16.5 21.390625 20.328125 13.890625 
Q 24.171875 6.390625 31.78125 6.390625 
Q 39.453125 6.390625 43.28125 13.890625 
Q 47.125 21.390625 47.125 36.375 
Q 47.125 51.421875 43.28125 58.90625 
Q 39.453125 66.40625 31.78125 66.40625 
M 31.78125 74.21875 
Q 44.046875 74.21875 50.515625 64.515625 
Q 56.984375 54.828125 56.984375 36.375 
Q 56.984375 17.96875 50.515625 8.265625 
Q 44.046875 -1.421875 31.78125 -1.421875 
Q 19.53125 -1.421875 13.0625 8.265625 
Q 6.59375 17.96875 6.59375 36.375 
Q 6.59375 54.828125 13.0625 64.515625 
Q 19.53125 74.21875 31.78125 74.21875 
" id="BitstreamVeraSans-Roman-30"/>
      </defs>
      <g transform="translate(75.91 404.9575)scale(0.16 -0.16)">
       <use xlink:href="#BitstreamVeraSans-Roman-30"/>
      </g>
     </g>
    </g>
    <g id="xtick_2">
     <g id="line2d_3">
      <g>
       <use style="stroke:#000000;stroke-width:0.5;" x="206.55" xlink:href="#m8b2a7acf21" y="388.8"/>
      </g>
     </g>
     <g id="line2d_4">
      <g>
       <use style="stroke:#000000;stroke-width:0.5;" x="206.55" xlink:href="#m739cbc06da" y="43.2"/>
      </g>
     </g>
     <g id="text_2">
      <!-- 50 -->
      <defs>
       <path d="M 10.796875 72.90625 
L 49.515625 72.90625 
L 49.515625 64.59375 
L 19.828125 64.59375 
L 19.828125 46.734375 
Q 21.96875 47.46875 24.109375 47.828125 
Q 26.265625 48.1875 28.421875 48.1875 
Q 40.625 48.1875 47.75 41.5 
Q 54.890625 34.8125 54.890625 23.390625 
Q 54.890625 11.625 47.5625 5.09375 
Q 40.234375 -1.421875 26.90625 -1.421875 
Q 22.3125 -1.421875 17.546875 -0.640625 
Q 12.796875 0.140625 7.71875 1.703125 
L 7.71875 11.625 
Q 12.109375 9.234375 16.796875 8.0625 
Q 21.484375 6.890625 26.703125 6.890625 
Q 35.15625 6.890625 40.078125 11.328125 
Q 45.015625 15.765625 45.015625 23.390625 
Q 45.015625 31 40.078125 35.4375 
Q 35.15625 39.890625 26.703125 39.890625 
Q 22.75 39.890625 18.8125 39.015625 
Q 14.890625 38.140625 10.796875 36.28125 
z
" id="BitstreamVeraSans-Roman-35"/>
      </defs>
      <g transform="translate(196.37 404.9575)scale(0.16 -0.16)">
       <use xlink:href="#BitstreamVeraSans-Roman-35"/>
       <use x="63.623046875" xlink:href="#BitstreamVeraSans-Roman-30"/>
      </g>
     </g>
    </g>
    <g id="xtick_3">
     <g id="line2d_5">
      <g>
       <use style="stroke:#000000;stroke-width:0.5;" x="332.1" xlink:href="#m8b2a7acf21" y="388.8"/>
      </g>
     </g>
     <g id="line2d_6">
      <g>
       <use style="stroke:#000000;stroke-width:0.5;" x="332.1" xlink:href="#m739cbc06da" y="43.2"/>
      </g>
     </g>
     <g id="text_3">
      <!-- 100 -->
      <defs>
       <path d="M 12.40625 8.296875 
L 28.515625 8.296875 
L 28.515625 63.921875 
L 10.984375 60.40625 
L 10.984375 69.390625 
L 28.421875 72.90625 
L 38.28125 72.90625 
L 38.28125 8.296875 
L 54.390625 8.296875 
L 54.390625 0 
L 12.40625 0 
z
" id="BitstreamVeraSans-Roman-31"/>
      </defs>
      <g transform="translate(316.83 404.9575)scale(0.16 -0.16)">
       <use xlink:href="#BitstreamVeraSans-Roman-31"/>
       <use x="63.623046875" xlink:href="#BitstreamVeraSans-Roman-30"/>
       <use x="127.24609375" xlink:href="#BitstreamVeraSans-Roman-30"/>
      </g>
     </g>
    </g>
    <g id="xtick_4">
     <g id="line2d_7">
      <g>
       <use style="stroke:#000000;stroke-width:0.5;" x="457.65" xlink:href="#m8b2a7acf21" y="388.8"/>
      </g>
     </g>
     <g id="line2d_8">
      <g>
       <use style="stroke:#000000;stroke-width:0.5;" x="457.65" xlink:href="#m739cbc06da" y="43.2"/>
      </g>
     </g>
     <g id="text_4">
      <!-- 150 -->
      <g transform="translate(442.38 404.9575)scale(0.16 -0.16)">
       <use xlink:href="#BitstreamVeraSans-Roman-31"/>
       <use x="63.623046875" xlink:href="#BitstreamVeraSans-Roman-35"/>
       <use x="127.24609375" xlink:href="#BitstreamVeraSans-Roman-30"/>
      </g>
     </g>
    </g>
    <g id="xtick_5">
     <g id="line2d_9">
      <g>
       <use style="stroke:#000000;stroke-width:0.5;" x="583.2" xlink:href="#m8b2a7acf21" y="388.8"/>
      </g>
     </g>
     <g id="line2d_10">
      <g>
       <use style="stroke:#000000;stroke-width:0.5;" x="583.2" xlink:href="#m739cbc06da" y="43.2"/>
      </g>
     </g>
     <g id="text_5">
      <!-- 200 -->
      <defs>
       <path d="M 19.1875 8.296875 
L 53.609375 8.296875 
L 53.609375 0 
L 7.328125 0 
L 7.328125 8.296875 
Q 12.9375 14.109375 22.625 23.890625 
Q 32.328125 33.6875 34.8125 36.53125 
Q 39.546875 41.84375 41.421875 45.53125 
Q 43.3125 49.21875 43.3125 52.78125 
Q 43.3125 58.59375 39.234375 62.25 
Q 35.15625 65.921875 28.609375 65.921875 
Q 23.96875 65.921875 18.8125 64.3125 
Q 13.671875 62.703125 7.8125 59.421875 
L 7.8125 69.390625 
Q 13.765625 71.78125 18.9375 73 
Q 24.125 74.21875 28.421875 74.21875 
Q 39.75 74.21875 46.484375 68.546875 
Q 53.21875 62.890625 53.21875 53.421875 
Q 53.21875 48.921875 51.53125 44.890625 
Q 49.859375 40.875 45.40625 35.40625 
Q 44.1875 33.984375 37.640625 27.21875 
Q 31.109375 20.453125 19.1875 8.296875 
" id="BitstreamVeraSans-Roman-32"/>
      </defs>
      <g transform="translate(567.93 404.9575)scale(0.16 -0.16)">
       <use xlink:href="#BitstreamVeraSans-Roman-32"/>
       <use x="63.623046875" xlink:href="#BitstreamVeraSans-Roman-30"/>
       <use x="127.24609375" xlink:href="#BitstreamVeraSans-Roman-30"/>
      </g>
     </g>
    </g>
    <g id="text_6">
     <!-- temporal gradients -->
     <defs>
      <path d="M 18.109375 8.203125 
L 18.109375 -20.796875 
L 9.078125 -20.796875 
L 9.078125 54.6875 
L 18.109375 54.6875 
L 18.109375 46.390625 
Q 20.953125 51.265625 25.265625 53.625 
Q 29.59375 56 35.59375 56 
Q 45.5625 56 51.78125 48.09375 
Q 58.015625 40.1875 58.015625 27.296875 
Q 58.015625 14.40625 51.78125 6.484375 
Q 45.5625 -1.421875 35.59375 -1.421875 
Q 29.59375 -1.421875 25.265625 0.953125 
Q 20.953125 3.328125 18.109375 8.203125 
M 48.6875 27.296875 
Q 48.6875 37.203125 44.609375 42.84375 
Q 40.53125 48.484375 33.40625 48.484375 
Q 26.265625 48.484375 22.1875 42.84375 
Q 18.109375 37.203125 18.109375 27.296875 
Q 18.109375 17.390625 22.1875 11.75 
Q 26.265625 6.109375 33.40625 6.109375 
Q 40.53125 6.109375 44.609375 11.75 
Q 48.6875 17.390625 48.6875 27.296875 
" id="BitstreamVeraSans-Roman-70"/>
      <path d="M 44.28125 53.078125 
L 44.28125 44.578125 
Q 40.484375 46.53125 36.375 47.5 
Q 32.28125 48.484375 27.875 48.484375 
Q 21.1875 48.484375 17.84375 46.4375 
Q 14.5 44.390625 14.5 40.28125 
Q 14.5 37.15625 16.890625 35.375 
Q 19.28125 33.59375 26.515625 31.984375 
L 29.59375 31.296875 
Q 39.15625 29.25 43.1875 25.515625 
Q 47.21875 21.78125 47.21875 15.09375 
Q 47.21875 7.46875 41.1875 3.015625 
Q 35.15625 -1.421875 24.609375 -1.421875 
Q 20.21875 -1.421875 15.453125 -0.5625 
Q 10.6875 0.296875 5.421875 2 
L 5.421875 11.28125 
Q 10.40625 8.6875 15.234375 7.390625 
Q 20.0625 6.109375 24.8125 6.109375 
Q 31.15625 6.109375 34.5625 8.28125 
Q 37.984375 10.453125 37.984375 14.40625 
Q 37.984375 18.0625 35.515625 20.015625 
Q 33.0625 21.96875 24.703125 23.78125 
L 21.578125 24.515625 
Q 13.234375 26.265625 9.515625 29.90625 
Q 5.8125 33.546875 5.8125 39.890625 
Q 5.8125 47.609375 11.28125 51.796875 
Q 16.75 56 26.8125 56 
Q 31.78125 56 36.171875 55.265625 
Q 40.578125 54.546875 44.28125 53.078125 
" id="BitstreamVeraSans-Roman-73"/>
      <path d="M 52 44.1875 
Q 55.375 50.25 60.0625 53.125 
Q 64.75 56 71.09375 56 
Q 79.640625 56 84.28125 50.015625 
Q 88.921875 44.046875 88.921875 33.015625 
L 88.921875 0 
L 79.890625 0 
L 79.890625 32.71875 
Q 79.890625 40.578125 77.09375 44.375 
Q 74.3125 48.1875 68.609375 48.1875 
Q 61.625 48.1875 57.5625 43.546875 
Q 53.515625 38.921875 53.515625 30.90625 
L 53.515625 0 
L 44.484375 0 
L 44.484375 32.71875 
Q 44.484375 40.625 41.703125 44.40625 
Q 38.921875 48.1875 33.109375 48.1875 
Q 26.21875 48.1875 22.15625 43.53125 
Q 18.109375 38.875 18.109375 30.90625 
L 18.109375 0 
L 9.078125 0 
L 9.078125 54.6875 
L 18.109375 54.6875 
L 18.109375 46.1875 
Q 21.1875 51.21875 25.484375 53.609375 
Q 29.78125 56 35.6875 56 
Q 41.65625 56 45.828125 52.96875 
Q 50 49.953125 52 44.1875 
" id="BitstreamVeraSans-Roman-6d"/>
      <path d="M 34.28125 27.484375 
Q 23.390625 27.484375 19.1875 25 
Q 14.984375 22.515625 14.984375 16.5 
Q 14.984375 11.71875 18.140625 8.90625 
Q 21.296875 6.109375 26.703125 6.109375 
Q 34.1875 6.109375 38.703125 11.40625 
Q 43.21875 16.703125 43.21875 25.484375 
L 43.21875 27.484375 
z
M 52.203125 31.203125 
L 52.203125 0 
L 43.21875 0 
L 43.21875 8.296875 
Q 40.140625 3.328125 35.546875 0.953125 
Q 30.953125 -1.421875 24.3125 -1.421875 
Q 15.921875 -1.421875 10.953125 3.296875 
Q 6 8.015625 6 15.921875 
Q 6 25.140625 12.171875 29.828125 
Q 18.359375 34.515625 30.609375 34.515625 
L 43.21875 34.515625 
L 43.21875 35.40625 
Q 43.21875 41.609375 39.140625 45 
Q 35.0625 48.390625 27.6875 48.390625 
Q 23 48.390625 18.546875 47.265625 
Q 14.109375 46.140625 10.015625 43.890625 
L 10.015625 52.203125 
Q 14.9375 54.109375 19.578125 55.046875 
Q 24.21875 56 28.609375 56 
Q 40.484375 56 46.34375 49.84375 
Q 52.203125 43.703125 52.203125 31.203125 
" id="BitstreamVeraSans-Roman-61"/>
      <path d="M 30.609375 48.390625 
Q 23.390625 48.390625 19.1875 42.75 
Q 14.984375 37.109375 14.984375 27.296875 
Q 14.984375 17.484375 19.15625 11.84375 
Q 23.34375 6.203125 30.609375 6.203125 
Q 37.796875 6.203125 41.984375 11.859375 
Q 46.1875 17.53125 46.1875 27.296875 
Q 46.1875 37.015625 41.984375 42.703125 
Q 37.796875 48.390625 30.609375 48.390625 
M 30.609375 56 
Q 42.328125 56 49.015625 48.375 
Q 55.71875 40.765625 55.71875 27.296875 
Q 55.71875 13.875 49.015625 6.21875 
Q 42.328125 -1.421875 30.609375 -1.421875 
Q 18.84375 -1.421875 12.171875 6.21875 
Q 5.515625 13.875 5.515625 27.296875 
Q 5.515625 40.765625 12.171875 48.375 
Q 18.84375 56 30.609375 56 
" id="BitstreamVeraSans-Roman-6f"/>
      <path d="M 41.109375 46.296875 
Q 39.59375 47.171875 37.8125 47.578125 
Q 36.03125 48 33.890625 48 
Q 26.265625 48 22.1875 43.046875 
Q 18.109375 38.09375 18.109375 28.8125 
L 18.109375 0 
L 9.078125 0 
L 9.078125 54.6875 
L 18.109375 54.6875 
L 18.109375 46.1875 
Q 20.953125 51.171875 25.484375 53.578125 
Q 30.03125 56 36.53125 56 
Q 37.453125 56 38.578125 55.875 
Q 39.703125 55.765625 41.0625 55.515625 
z
" id="BitstreamVeraSans-Roman-72"/>
      <path d="M 54.890625 33.015625 
L 54.890625 0 
L 45.90625 0 
L 45.90625 32.71875 
Q 45.90625 40.484375 42.875 44.328125 
Q 39.84375 48.1875 33.796875 48.1875 
Q 26.515625 48.1875 22.3125 43.546875 
Q 18.109375 38.921875 18.109375 30.90625 
L 18.109375 0 
L 9.078125 0 
L 9.078125 54.6875 
L 18.109375 54.6875 
L 18.109375 46.1875 
Q 21.34375 51.125 25.703125 53.5625 
Q 30.078125 56 35.796875 56 
Q 45.21875 56 50.046875 50.171875 
Q 54.890625 44.34375 54.890625 33.015625 
" id="BitstreamVeraSans-Roman-6e"/>
      <path d="M 18.3125 70.21875 
L 18.3125 54.6875 
L 36.8125 54.6875 
L 36.8125 47.703125 
L 18.3125 47.703125 
L 18.3125 18.015625 
Q 18.3125 11.328125 20.140625 9.421875 
Q 21.96875 7.515625 27.59375 7.515625 
L 36.8125 7.515625 
L 36.8125 0 
L 27.59375 0 
Q 17.1875 0 13.234375 3.875 
Q 9.28125 7.765625 9.28125 18.015625 
L 9.28125 47.703125 
L 2.6875 47.703125 
L 2.6875 54.6875 
L 9.28125 54.6875 
L 9.28125 70.21875 
z
" id="BitstreamVeraSans-Roman-74"/>
      <path d="M 45.40625 46.390625 
L 45.40625 75.984375 
L 54.390625 75.984375 
L 54.390625 0 
L 45.40625 0 
L 45.40625 8.203125 
Q 42.578125 3.328125 38.25 0.953125 
Q 33.9375 -1.421875 27.875 -1.421875 
Q 17.96875 -1.421875 11.734375 6.484375 
Q 5.515625 14.40625 5.515625 27.296875 
Q 5.515625 40.1875 11.734375 48.09375 
Q 17.96875 56 27.875 56 
Q 33.9375 56 38.25 53.625 
Q 42.578125 51.265625 45.40625 46.390625 
M 14.796875 27.296875 
Q 14.796875 17.390625 18.875 11.75 
Q 22.953125 6.109375 30.078125 6.109375 
Q 37.203125 6.109375 41.296875 11.75 
Q 45.40625 17.390625 45.40625 27.296875 
Q 45.40625 37.203125 41.296875 42.84375 
Q 37.203125 48.484375 30.078125 48.484375 
Q 22.953125 48.484375 18.875 42.84375 
Q 14.796875 37.203125 14.796875 27.296875 
" id="BitstreamVeraSans-Roman-64"/>
      <path id="BitstreamVeraSans-Roman-20"/>
      <path d="M 9.421875 54.6875 
L 18.40625 54.6875 
L 18.40625 0 
L 9.421875 0 
z
M 9.421875 75.984375 
L 18.40625 75.984375 
L 18.40625 64.59375 
L 9.421875 64.59375 
z
" id="BitstreamVeraSans-Roman-69"/>
      <path d="M 45.40625 27.984375 
Q 45.40625 37.75 41.375 43.109375 
Q 37.359375 48.484375 30.078125 48.484375 
Q 22.859375 48.484375 18.828125 43.109375 
Q 14.796875 37.75 14.796875 27.984375 
Q 14.796875 18.265625 18.828125 12.890625 
Q 22.859375 7.515625 30.078125 7.515625 
Q 37.359375 7.515625 41.375 12.890625 
Q 45.40625 18.265625 45.40625 27.984375 
M 54.390625 6.78125 
Q 54.390625 -7.171875 48.1875 -13.984375 
Q 42 -20.796875 29.203125 -20.796875 
Q 24.46875 -20.796875 20.265625 -20.09375 
Q 16.0625 -19.390625 12.109375 -17.921875 
L 12.109375 -9.1875 
Q 16.0625 -11.328125 19.921875 -12.34375 
Q 23.78125 -13.375 27.78125 -13.375 
Q 36.625 -13.375 41.015625 -8.765625 
Q 45.40625 -4.15625 45.40625 5.171875 
L 45.40625 9.625 
Q 42.625 4.78125 38.28125 2.390625 
Q 33.9375 0 27.875 0 
Q 17.828125 0 11.671875 7.65625 
Q 5.515625 15.328125 5.515625 27.984375 
Q 5.515625 40.671875 11.671875 48.328125 
Q 17.828125 56 27.875 56 
Q 33.9375 56 38.28125 53.609375 
Q 42.625 51.21875 45.40625 46.390625 
L 45.40625 54.6875 
L 54.390625 54.6875 
z
" id="BitstreamVeraSans-Roman-67"/>
      <path d="M 9.421875 75.984375 
L 18.40625 75.984375 
L 18.40625 0 
L 9.421875 0 
z
" id="BitstreamVeraSans-Roman-6c"/>
      <path d="M 56.203125 29.59375 
L 56.203125 25.203125 
L 14.890625 25.203125 
Q 15.484375 15.921875 20.484375 11.0625 
Q 25.484375 6.203125 34.421875 6.203125 
Q 39.59375 6.203125 44.453125 7.46875 
Q 49.3125 8.734375 54.109375 11.28125 
L 54.109375 2.78125 
Q 49.265625 0.734375 44.1875 -0.34375 
Q 39.109375 -1.421875 33.890625 -1.421875 
Q 20.796875 -1.421875 13.15625 6.1875 
Q 5.515625 13.8125 5.515625 26.8125 
Q 5.515625 40.234375 12.765625 48.109375 
Q 20.015625 56 32.328125 56 
Q 43.359375 56 49.78125 48.890625 
Q 56.203125 41.796875 56.203125 29.59375 
M 47.21875 32.234375 
Q 47.125 39.59375 43.09375 43.984375 
Q 39.0625 48.390625 32.421875 48.390625 
Q 24.90625 48.390625 20.390625 44.140625 
Q 15.875 39.890625 15.1875 32.171875 
z
" id="BitstreamVeraSans-Roman-65"/>
     </defs>
     <g transform="translate(255.45125 425.4425)scale(0.16 -0.16)">
      <use xlink:href="#BitstreamVeraSans-Roman-74"/>
      <use x="39.208984375" xlink:href="#BitstreamVeraSans-Roman-65"/>
      <use x="100.732421875" xlink:href="#BitstreamVeraSans-Roman-6d"/>
      <use x="198.14453125" xlink:href="#BitstreamVeraSans-Roman-70"/>
      <use x="261.62109375" xlink:href="#BitstreamVeraSans-Roman-6f"/>
      <use x="322.802734375" xlink:href="#BitstreamVeraSans-Roman-72"/>
      <use x="363.916015625" xlink:href="#BitstreamVeraSans-Roman-61"/>
      <use x="425.1953125" xlink:href="#BitstreamVeraSans-Roman-6c"/>
      <use x="452.978515625" xlink:href="#BitstreamVeraSans-Roman-20"/>
      <use x="484.765625" xlink:href="#BitstreamVeraSans-Roman-67"/>
      <use x="548.2421875" xlink:href="#BitstreamVeraSans-Roman-72"/>
      <use x="589.35546875" xlink:href="#BitstreamVeraSans-Roman-61"/>
      <use x="650.634765625" xlink:href="#BitstreamVeraSans-Roman-64"/>
      <use x="714.111328125" xlink:href="#BitstreamVeraSans-Roman-69"/>
      <use x="741.89453125" xlink:href="#BitstreamVeraSans-Roman-65"/>
      <use x="803.41796875" xlink:href="#BitstreamVeraSans-Roman-6e"/>
      <use x="866.796875" xlink:href="#BitstreamVeraSans-Roman-74"/>
      <use x="906.005859375" xlink:href="#BitstreamVeraSans-Roman-73"/>
     </g>
    </g>
   </g>
   <g id="matplotlib.axis_2">
    <g id="ytick_1">
     <g id="line2d_11">
      <defs>
       <path d="M 0 0 
L 4 0 
" id="m48da69e56f" style="stroke:#000000;stroke-width:0.5;"/>
      </defs>
      <g>
       <use style="stroke:#000000;stroke-width:0.5;" x="81.0" xlink:href="#m48da69e56f" y="388.8"/>
      </g>
     </g>
     <g id="line2d_12">
      <defs>
       <path d="M 0 0 
L -4 0 
" id="m1dbb809c09" style="stroke:#000000;stroke-width:0.5;"/>
      </defs>
      <g>
       <use style="stroke:#000000;stroke-width:0.5;" x="583.2" xlink:href="#m1dbb809c09" y="388.8"/>
      </g>
     </g>
     <g id="text_7">
      <!-- $\mathdefault{10^{-14}}$ -->
      <defs>
       <path d="M 4.890625 31.390625 
L 31.203125 31.390625 
L 31.203125 23.390625 
L 4.890625 23.390625 
z
" id="BitstreamVeraSans-Roman-2d"/>
       <path d="M 37.796875 64.3125 
L 12.890625 25.390625 
L 37.796875 25.390625 
z
M 35.203125 72.90625 
L 47.609375 72.90625 
L 47.609375 25.390625 
L 58.015625 25.390625 
L 58.015625 17.1875 
L 47.609375 17.1875 
L 47.609375 0 
L 37.796875 0 
L 37.796875 17.1875 
L 4.890625 17.1875 
L 4.890625 26.703125 
z
" id="BitstreamVeraSans-Roman-34"/>
      </defs>
      <g transform="translate(36.2 393.5525)scale(0.16 -0.16)">
       <use transform="translate(0.0 0.7156250000000028)" xlink:href="#BitstreamVeraSans-Roman-31"/>
       <use transform="translate(63.623046875 0.7156250000000028)" xlink:href="#BitstreamVeraSans-Roman-30"/>
       <use transform="translate(132.75859375 47.965625)scale(0.7)" xlink:href="#BitstreamVeraSans-Roman-2d"/>
       <use transform="translate(158.0173828125 47.965625)scale(0.7)" xlink:href="#BitstreamVeraSans-Roman-31"/>
       <use transform="translate(202.553515625 47.965625)scale(0.7)" xlink:href="#BitstreamVeraSans-Roman-34"/>
      </g>
     </g>
    </g>
    <g id="ytick_2">
     <g id="line2d_13">
      <g>
       <use style="stroke:#000000;stroke-width:0.5;" x="81.0" xlink:href="#m48da69e56f" y="364.114285714"/>
      </g>
     </g>
     <g id="line2d_14">
      <g>
       <use style="stroke:#000000;stroke-width:0.5;" x="583.2" xlink:href="#m1dbb809c09" y="364.114285714"/>
      </g>
     </g>
     <g id="text_8">
      <!-- $\mathdefault{10^{-13}}$ -->
      <defs>
       <path d="M 40.578125 39.3125 
Q 47.65625 37.796875 51.625 33 
Q 55.609375 28.21875 55.609375 21.1875 
Q 55.609375 10.40625 48.1875 4.484375 
Q 40.765625 -1.421875 27.09375 -1.421875 
Q 22.515625 -1.421875 17.65625 -0.515625 
Q 12.796875 0.390625 7.625 2.203125 
L 7.625 11.71875 
Q 11.71875 9.328125 16.59375 8.109375 
Q 21.484375 6.890625 26.8125 6.890625 
Q 36.078125 6.890625 40.9375 10.546875 
Q 45.796875 14.203125 45.796875 21.1875 
Q 45.796875 27.640625 41.28125 31.265625 
Q 36.765625 34.90625 28.71875 34.90625 
L 20.21875 34.90625 
L 20.21875 43.015625 
L 29.109375 43.015625 
Q 36.375 43.015625 40.234375 45.921875 
Q 44.09375 48.828125 44.09375 54.296875 
Q 44.09375 59.90625 40.109375 62.90625 
Q 36.140625 65.921875 28.71875 65.921875 
Q 24.65625 65.921875 20.015625 65.03125 
Q 15.375 64.15625 9.8125 62.3125 
L 9.8125 71.09375 
Q 15.4375 72.65625 20.34375 73.4375 
Q 25.25 74.21875 29.59375 74.21875 
Q 40.828125 74.21875 47.359375 69.109375 
Q 53.90625 64.015625 53.90625 55.328125 
Q 53.90625 49.265625 50.4375 45.09375 
Q 46.96875 40.921875 40.578125 39.3125 
" id="BitstreamVeraSans-Roman-33"/>
      </defs>
      <g transform="translate(36.2 368.946785714)scale(0.16 -0.16)">
       <use transform="translate(0.0 0.796875)" xlink:href="#BitstreamVeraSans-Roman-31"/>
       <use transform="translate(63.623046875 0.796875)" xlink:href="#BitstreamVeraSans-Roman-30"/>
       <use transform="translate(132.75859375 48.046875)scale(0.7)" xlink:href="#BitstreamVeraSans-Roman-2d"/>
       <use transform="translate(158.0173828125 48.046875)scale(0.7)" xlink:href="#BitstreamVeraSans-Roman-31"/>
       <use transform="translate(202.553515625 48.046875)scale(0.7)" xlink:href="#BitstreamVeraSans-Roman-33"/>
      </g>
     </g>
    </g>
    <g id="ytick_3">
     <g id="line2d_15">
      <g>
       <use style="stroke:#000000;stroke-width:0.5;" x="81.0" xlink:href="#m48da69e56f" y="339.428571429"/>
      </g>
     </g>
     <g id="line2d_16">
      <g>
       <use style="stroke:#000000;stroke-width:0.5;" x="583.2" xlink:href="#m1dbb809c09" y="339.428571429"/>
      </g>
     </g>
     <g id="text_9">
      <!-- $\mathdefault{10^{-12}}$ -->
      <g transform="translate(36.2 344.261071429)scale(0.16 -0.16)">
       <use transform="translate(0.0 0.796875)" xlink:href="#BitstreamVeraSans-Roman-31"/>
       <use transform="translate(63.623046875 0.796875)" xlink:href="#BitstreamVeraSans-Roman-30"/>
       <use transform="translate(132.75859375 48.046875)scale(0.7)" xlink:href="#BitstreamVeraSans-Roman-2d"/>
       <use transform="translate(158.0173828125 48.046875)scale(0.7)" xlink:href="#BitstreamVeraSans-Roman-31"/>
       <use transform="translate(202.553515625 48.046875)scale(0.7)" xlink:href="#BitstreamVeraSans-Roman-32"/>
      </g>
     </g>
    </g>
    <g id="ytick_4">
     <g id="line2d_17">
      <g>
       <use style="stroke:#000000;stroke-width:0.5;" x="81.0" xlink:href="#m48da69e56f" y="314.742857143"/>
      </g>
     </g>
     <g id="line2d_18">
      <g>
       <use style="stroke:#000000;stroke-width:0.5;" x="583.2" xlink:href="#m1dbb809c09" y="314.742857143"/>
      </g>
     </g>
     <g id="text_10">
      <!-- $\mathdefault{10^{-11}}$ -->
      <g transform="translate(36.2 319.495357143)scale(0.16 -0.16)">
       <use transform="translate(0.0 0.7156250000000028)" xlink:href="#BitstreamVeraSans-Roman-31"/>
       <use transform="translate(63.623046875 0.7156250000000028)" xlink:href="#BitstreamVeraSans-Roman-30"/>
       <use transform="translate(132.75859375 47.965625)scale(0.7)" xlink:href="#BitstreamVeraSans-Roman-2d"/>
       <use transform="translate(158.0173828125 47.965625)scale(0.7)" xlink:href="#BitstreamVeraSans-Roman-31"/>
       <use transform="translate(202.553515625 47.965625)scale(0.7)" xlink:href="#BitstreamVeraSans-Roman-31"/>
      </g>
     </g>
    </g>
    <g id="ytick_5">
     <g id="line2d_19">
      <g>
       <use style="stroke:#000000;stroke-width:0.5;" x="81.0" xlink:href="#m48da69e56f" y="290.057142857"/>
      </g>
     </g>
     <g id="line2d_20">
      <g>
       <use style="stroke:#000000;stroke-width:0.5;" x="583.2" xlink:href="#m1dbb809c09" y="290.057142857"/>
      </g>
     </g>
     <g id="text_11">
      <!-- $\mathdefault{10^{-10}}$ -->
      <g transform="translate(36.2 294.889642857)scale(0.16 -0.16)">
       <use transform="translate(0.0 0.796875)" xlink:href="#BitstreamVeraSans-Roman-31"/>
       <use transform="translate(63.623046875 0.796875)" xlink:href="#BitstreamVeraSans-Roman-30"/>
       <use transform="translate(132.75859375 48.046875)scale(0.7)" xlink:href="#BitstreamVeraSans-Roman-2d"/>
       <use transform="translate(158.0173828125 48.046875)scale(0.7)" xlink:href="#BitstreamVeraSans-Roman-31"/>
       <use transform="translate(202.553515625 48.046875)scale(0.7)" xlink:href="#BitstreamVeraSans-Roman-30"/>
      </g>
     </g>
    </g>
    <g id="ytick_6">
     <g id="line2d_21">
      <g>
       <use style="stroke:#000000;stroke-width:0.5;" x="81.0" xlink:href="#m48da69e56f" y="265.371428571"/>
      </g>
     </g>
     <g id="line2d_22">
      <g>
       <use style="stroke:#000000;stroke-width:0.5;" x="583.2" xlink:href="#m1dbb809c09" y="265.371428571"/>
      </g>
     </g>
     <g id="text_12">
      <!-- $\mathdefault{10^{-9}}$ -->
      <defs>
       <path d="M 10.984375 1.515625 
L 10.984375 10.5 
Q 14.703125 8.734375 18.5 7.8125 
Q 22.3125 6.890625 25.984375 6.890625 
Q 35.75 6.890625 40.890625 13.453125 
Q 46.046875 20.015625 46.78125 33.40625 
Q 43.953125 29.203125 39.59375 26.953125 
Q 35.25 24.703125 29.984375 24.703125 
Q 19.046875 24.703125 12.671875 31.3125 
Q 6.296875 37.9375 6.296875 49.421875 
Q 6.296875 60.640625 12.9375 67.421875 
Q 19.578125 74.21875 30.609375 74.21875 
Q 43.265625 74.21875 49.921875 64.515625 
Q 56.59375 54.828125 56.59375 36.375 
Q 56.59375 19.140625 48.40625 8.859375 
Q 40.234375 -1.421875 26.421875 -1.421875 
Q 22.703125 -1.421875 18.890625 -0.6875 
Q 15.09375 0.046875 10.984375 1.515625 
M 30.609375 32.421875 
Q 37.25 32.421875 41.125 36.953125 
Q 45.015625 41.5 45.015625 49.421875 
Q 45.015625 57.28125 41.125 61.84375 
Q 37.25 66.40625 30.609375 66.40625 
Q 23.96875 66.40625 20.09375 61.84375 
Q 16.21875 57.28125 16.21875 49.421875 
Q 16.21875 41.5 20.09375 36.953125 
Q 23.96875 32.421875 30.609375 32.421875 
" id="BitstreamVeraSans-Roman-39"/>
      </defs>
      <g transform="translate(43.24 270.203928571)scale(0.16 -0.16)">
       <use transform="translate(0.0 0.796875)" xlink:href="#BitstreamVeraSans-Roman-31"/>
       <use transform="translate(63.623046875 0.796875)" xlink:href="#BitstreamVeraSans-Roman-30"/>
       <use transform="translate(132.75859375 48.046875)scale(0.7)" xlink:href="#BitstreamVeraSans-Roman-2d"/>
       <use transform="translate(158.0173828125 48.046875)scale(0.7)" xlink:href="#BitstreamVeraSans-Roman-39"/>
      </g>
     </g>
    </g>
    <g id="ytick_7">
     <g id="line2d_23">
      <g>
       <use style="stroke:#000000;stroke-width:0.5;" x="81.0" xlink:href="#m48da69e56f" y="240.685714286"/>
      </g>
     </g>
     <g id="line2d_24">
      <g>
       <use style="stroke:#000000;stroke-width:0.5;" x="583.2" xlink:href="#m1dbb809c09" y="240.685714286"/>
      </g>
     </g>
     <g id="text_13">
      <!-- $\mathdefault{10^{-8}}$ -->
      <defs>
       <path d="M 31.78125 34.625 
Q 24.75 34.625 20.71875 30.859375 
Q 16.703125 27.09375 16.703125 20.515625 
Q 16.703125 13.921875 20.71875 10.15625 
Q 24.75 6.390625 31.78125 6.390625 
Q 38.8125 6.390625 42.859375 10.171875 
Q 46.921875 13.96875 46.921875 20.515625 
Q 46.921875 27.09375 42.890625 30.859375 
Q 38.875 34.625 31.78125 34.625 
M 21.921875 38.8125 
Q 15.578125 40.375 12.03125 44.71875 
Q 8.5 49.078125 8.5 55.328125 
Q 8.5 64.0625 14.71875 69.140625 
Q 20.953125 74.21875 31.78125 74.21875 
Q 42.671875 74.21875 48.875 69.140625 
Q 55.078125 64.0625 55.078125 55.328125 
Q 55.078125 49.078125 51.53125 44.71875 
Q 48 40.375 41.703125 38.8125 
Q 48.828125 37.15625 52.796875 32.3125 
Q 56.78125 27.484375 56.78125 20.515625 
Q 56.78125 9.90625 50.3125 4.234375 
Q 43.84375 -1.421875 31.78125 -1.421875 
Q 19.734375 -1.421875 13.25 4.234375 
Q 6.78125 9.90625 6.78125 20.515625 
Q 6.78125 27.484375 10.78125 32.3125 
Q 14.796875 37.15625 21.921875 38.8125 
M 18.3125 54.390625 
Q 18.3125 48.734375 21.84375 45.5625 
Q 25.390625 42.390625 31.78125 42.390625 
Q 38.140625 42.390625 41.71875 45.5625 
Q 45.3125 48.734375 45.3125 54.390625 
Q 45.3125 60.0625 41.71875 63.234375 
Q 38.140625 66.40625 31.78125 66.40625 
Q 25.390625 66.40625 21.84375 63.234375 
Q 18.3125 60.0625 18.3125 54.390625 
" id="BitstreamVeraSans-Roman-38"/>
      </defs>
      <g transform="translate(43.24 245.518214286)scale(0.16 -0.16)">
       <use transform="translate(0.0 0.796875)" xlink:href="#BitstreamVeraSans-Roman-31"/>
       <use transform="translate(63.623046875 0.796875)" xlink:href="#BitstreamVeraSans-Roman-30"/>
       <use transform="translate(132.75859375 48.046875)scale(0.7)" xlink:href="#BitstreamVeraSans-Roman-2d"/>
       <use transform="translate(158.0173828125 48.046875)scale(0.7)" xlink:href="#BitstreamVeraSans-Roman-38"/>
      </g>
     </g>
    </g>
    <g id="ytick_8">
     <g id="line2d_25">
      <g>
       <use style="stroke:#000000;stroke-width:0.5;" x="81.0" xlink:href="#m48da69e56f" y="216.0"/>
      </g>
     </g>
     <g id="line2d_26">
      <g>
       <use style="stroke:#000000;stroke-width:0.5;" x="583.2" xlink:href="#m1dbb809c09" y="216.0"/>
      </g>
     </g>
     <g id="text_14">
      <!-- $\mathdefault{10^{-7}}$ -->
      <defs>
       <path d="M 8.203125 72.90625 
L 55.078125 72.90625 
L 55.078125 68.703125 
L 28.609375 0 
L 18.3125 0 
L 43.21875 64.59375 
L 8.203125 64.59375 
z
" id="BitstreamVeraSans-Roman-37"/>
      </defs>
      <g transform="translate(43.24 220.7525)scale(0.16 -0.16)">
       <use transform="translate(0.0 0.7156250000000028)" xlink:href="#BitstreamVeraSans-Roman-31"/>
       <use transform="translate(63.623046875 0.7156250000000028)" xlink:href="#BitstreamVeraSans-Roman-30"/>
       <use transform="translate(132.75859375 47.965625)scale(0.7)" xlink:href="#BitstreamVeraSans-Roman-2d"/>
       <use transform="translate(158.0173828125 47.965625)scale(0.7)" xlink:href="#BitstreamVeraSans-Roman-37"/>
      </g>
     </g>
    </g>
    <g id="ytick_9">
     <g id="line2d_27">
      <g>
       <use style="stroke:#000000;stroke-width:0.5;" x="81.0" xlink:href="#m48da69e56f" y="191.314285714"/>
      </g>
     </g>
     <g id="line2d_28">
      <g>
       <use style="stroke:#000000;stroke-width:0.5;" x="583.2" xlink:href="#m1dbb809c09" y="191.314285714"/>
      </g>
     </g>
     <g id="text_15">
      <!-- $\mathdefault{10^{-6}}$ -->
      <defs>
       <path d="M 33.015625 40.375 
Q 26.375 40.375 22.484375 35.828125 
Q 18.609375 31.296875 18.609375 23.390625 
Q 18.609375 15.53125 22.484375 10.953125 
Q 26.375 6.390625 33.015625 6.390625 
Q 39.65625 6.390625 43.53125 10.953125 
Q 47.40625 15.53125 47.40625 23.390625 
Q 47.40625 31.296875 43.53125 35.828125 
Q 39.65625 40.375 33.015625 40.375 
M 52.59375 71.296875 
L 52.59375 62.3125 
Q 48.875 64.0625 45.09375 64.984375 
Q 41.3125 65.921875 37.59375 65.921875 
Q 27.828125 65.921875 22.671875 59.328125 
Q 17.53125 52.734375 16.796875 39.40625 
Q 19.671875 43.65625 24.015625 45.921875 
Q 28.375 48.1875 33.59375 48.1875 
Q 44.578125 48.1875 50.953125 41.515625 
Q 57.328125 34.859375 57.328125 23.390625 
Q 57.328125 12.15625 50.6875 5.359375 
Q 44.046875 -1.421875 33.015625 -1.421875 
Q 20.359375 -1.421875 13.671875 8.265625 
Q 6.984375 17.96875 6.984375 36.375 
Q 6.984375 53.65625 15.1875 63.9375 
Q 23.390625 74.21875 37.203125 74.21875 
Q 40.921875 74.21875 44.703125 73.484375 
Q 48.484375 72.75 52.59375 71.296875 
" id="BitstreamVeraSans-Roman-36"/>
      </defs>
      <g transform="translate(43.24 196.146785714)scale(0.16 -0.16)">
       <use transform="translate(0.0 0.796875)" xlink:href="#BitstreamVeraSans-Roman-31"/>
       <use transform="translate(63.623046875 0.796875)" xlink:href="#BitstreamVeraSans-Roman-30"/>
       <use transform="translate(132.75859375 48.046875)scale(0.7)" xlink:href="#BitstreamVeraSans-Roman-2d"/>
       <use transform="translate(158.0173828125 48.046875)scale(0.7)" xlink:href="#BitstreamVeraSans-Roman-36"/>
      </g>
     </g>
    </g>
    <g id="ytick_10">
     <g id="line2d_29">
      <g>
       <use style="stroke:#000000;stroke-width:0.5;" x="81.0" xlink:href="#m48da69e56f" y="166.628571429"/>
      </g>
     </g>
     <g id="line2d_30">
      <g>
       <use style="stroke:#000000;stroke-width:0.5;" x="583.2" xlink:href="#m1dbb809c09" y="166.628571429"/>
      </g>
     </g>
     <g id="text_16">
      <!-- $\mathdefault{10^{-5}}$ -->
      <g transform="translate(43.24 171.381071429)scale(0.16 -0.16)">
       <use transform="translate(0.0 0.7156250000000028)" xlink:href="#BitstreamVeraSans-Roman-31"/>
       <use transform="translate(63.623046875 0.7156250000000028)" xlink:href="#BitstreamVeraSans-Roman-30"/>
       <use transform="translate(132.75859375 47.965625)scale(0.7)" xlink:href="#BitstreamVeraSans-Roman-2d"/>
       <use transform="translate(158.0173828125 47.965625)scale(0.7)" xlink:href="#BitstreamVeraSans-Roman-35"/>
      </g>
     </g>
    </g>
    <g id="ytick_11">
     <g id="line2d_31">
      <g>
       <use style="stroke:#000000;stroke-width:0.5;" x="81.0" xlink:href="#m48da69e56f" y="141.942857143"/>
      </g>
     </g>
     <g id="line2d_32">
      <g>
       <use style="stroke:#000000;stroke-width:0.5;" x="583.2" xlink:href="#m1dbb809c09" y="141.942857143"/>
      </g>
     </g>
     <g id="text_17">
      <!-- $\mathdefault{10^{-4}}$ -->
      <g transform="translate(43.24 146.695357143)scale(0.16 -0.16)">
       <use transform="translate(0.0 0.7156250000000028)" xlink:href="#BitstreamVeraSans-Roman-31"/>
       <use transform="translate(63.623046875 0.7156250000000028)" xlink:href="#BitstreamVeraSans-Roman-30"/>
       <use transform="translate(132.75859375 47.965625)scale(0.7)" xlink:href="#BitstreamVeraSans-Roman-2d"/>
       <use transform="translate(158.0173828125 47.965625)scale(0.7)" xlink:href="#BitstreamVeraSans-Roman-34"/>
      </g>
     </g>
    </g>
    <g id="ytick_12">
     <g id="line2d_33">
      <g>
       <use style="stroke:#000000;stroke-width:0.5;" x="81.0" xlink:href="#m48da69e56f" y="117.257142857"/>
      </g>
     </g>
     <g id="line2d_34">
      <g>
       <use style="stroke:#000000;stroke-width:0.5;" x="583.2" xlink:href="#m1dbb809c09" y="117.257142857"/>
      </g>
     </g>
     <g id="text_18">
      <!-- $\mathdefault{10^{-3}}$ -->
      <g transform="translate(43.24 122.089642857)scale(0.16 -0.16)">
       <use transform="translate(0.0 0.796875)" xlink:href="#BitstreamVeraSans-Roman-31"/>
       <use transform="translate(63.623046875 0.796875)" xlink:href="#BitstreamVeraSans-Roman-30"/>
       <use transform="translate(132.75859375 48.046875)scale(0.7)" xlink:href="#BitstreamVeraSans-Roman-2d"/>
       <use transform="translate(158.0173828125 48.046875)scale(0.7)" xlink:href="#BitstreamVeraSans-Roman-33"/>
      </g>
     </g>
    </g>
    <g id="ytick_13">
     <g id="line2d_35">
      <g>
       <use style="stroke:#000000;stroke-width:0.5;" x="81.0" xlink:href="#m48da69e56f" y="92.5714285714"/>
      </g>
     </g>
     <g id="line2d_36">
      <g>
       <use style="stroke:#000000;stroke-width:0.5;" x="583.2" xlink:href="#m1dbb809c09" y="92.5714285714"/>
      </g>
     </g>
     <g id="text_19">
      <!-- $\mathdefault{10^{-2}}$ -->
      <g transform="translate(43.24 97.4039285714)scale(0.16 -0.16)">
       <use transform="translate(0.0 0.796875)" xlink:href="#BitstreamVeraSans-Roman-31"/>
       <use transform="translate(63.623046875 0.796875)" xlink:href="#BitstreamVeraSans-Roman-30"/>
       <use transform="translate(132.75859375 48.046875)scale(0.7)" xlink:href="#BitstreamVeraSans-Roman-2d"/>
       <use transform="translate(158.0173828125 48.046875)scale(0.7)" xlink:href="#BitstreamVeraSans-Roman-32"/>
      </g>
     </g>
    </g>
    <g id="ytick_14">
     <g id="line2d_37">
      <g>
       <use style="stroke:#000000;stroke-width:0.5;" x="81.0" xlink:href="#m48da69e56f" y="67.8857142857"/>
      </g>
     </g>
     <g id="line2d_38">
      <g>
       <use style="stroke:#000000;stroke-width:0.5;" x="583.2" xlink:href="#m1dbb809c09" y="67.8857142857"/>
      </g>
     </g>
     <g id="text_20">
      <!-- $\mathdefault{10^{-1}}$ -->
      <g transform="translate(43.24 72.6382142857)scale(0.16 -0.16)">
       <use transform="translate(0.0 0.7156250000000028)" xlink:href="#BitstreamVeraSans-Roman-31"/>
       <use transform="translate(63.623046875 0.7156250000000028)" xlink:href="#BitstreamVeraSans-Roman-30"/>
       <use transform="translate(132.75859375 47.965625)scale(0.7)" xlink:href="#BitstreamVeraSans-Roman-2d"/>
       <use transform="translate(158.0173828125 47.965625)scale(0.7)" xlink:href="#BitstreamVeraSans-Roman-31"/>
      </g>
     </g>
    </g>
    <g id="ytick_15">
     <g id="line2d_39">
      <g>
       <use style="stroke:#000000;stroke-width:0.5;" x="81.0" xlink:href="#m48da69e56f" y="43.2"/>
      </g>
     </g>
     <g id="line2d_40">
      <g>
       <use style="stroke:#000000;stroke-width:0.5;" x="583.2" xlink:href="#m1dbb809c09" y="43.2"/>
      </g>
     </g>
     <g id="text_21">
      <!-- $\mathdefault{10^{0}}$ -->
      <g transform="translate(47.24 48.0325)scale(0.16 -0.16)">
       <use transform="translate(0.0 0.796875)" xlink:href="#BitstreamVeraSans-Roman-31"/>
       <use transform="translate(63.623046875 0.796875)" xlink:href="#BitstreamVeraSans-Roman-30"/>
       <use transform="translate(132.75859375 48.046875)scale(0.7)" xlink:href="#BitstreamVeraSans-Roman-30"/>
      </g>
     </g>
    </g>
    <g id="ytick_16">
     <g id="line2d_41">
      <defs>
       <path d="M 0 0 
L 2 0 
" id="m379101bd2b" style="stroke:#000000;stroke-width:0.5;"/>
      </defs>
      <g>
       <use style="stroke:#000000;stroke-width:0.5;" x="81.0" xlink:href="#m379101bd2b" y="388.8"/>
      </g>
     </g>
     <g id="line2d_42">
      <defs>
       <path d="M 0 0 
L -2 0 
" id="mb69a85204a" style="stroke:#000000;stroke-width:0.5;"/>
      </defs>
      <g>
       <use style="stroke:#000000;stroke-width:0.5;" x="583.2" xlink:href="#mb69a85204a" y="388.8"/>
      </g>
     </g>
    </g>
    <g id="ytick_17">
     <g id="line2d_43">
      <g>
       <use style="stroke:#000000;stroke-width:0.5;" x="81.0" xlink:href="#m379101bd2b" y="364.114285714"/>
      </g>
     </g>
     <g id="line2d_44">
      <g>
       <use style="stroke:#000000;stroke-width:0.5;" x="583.2" xlink:href="#mb69a85204a" y="364.114285714"/>
      </g>
     </g>
    </g>
    <g id="ytick_18">
     <g id="line2d_45">
      <g>
       <use style="stroke:#000000;stroke-width:0.5;" x="81.0" xlink:href="#m379101bd2b" y="339.428571429"/>
      </g>
     </g>
     <g id="line2d_46">
      <g>
       <use style="stroke:#000000;stroke-width:0.5;" x="583.2" xlink:href="#mb69a85204a" y="339.428571429"/>
      </g>
     </g>
    </g>
    <g id="ytick_19">
     <g id="line2d_47">
      <g>
       <use style="stroke:#000000;stroke-width:0.5;" x="81.0" xlink:href="#m379101bd2b" y="314.742857143"/>
      </g>
     </g>
     <g id="line2d_48">
      <g>
       <use style="stroke:#000000;stroke-width:0.5;" x="583.2" xlink:href="#mb69a85204a" y="314.742857143"/>
      </g>
     </g>
    </g>
    <g id="ytick_20">
     <g id="line2d_49">
      <g>
       <use style="stroke:#000000;stroke-width:0.5;" x="81.0" xlink:href="#m379101bd2b" y="290.057142857"/>
      </g>
     </g>
     <g id="line2d_50">
      <g>
       <use style="stroke:#000000;stroke-width:0.5;" x="583.2" xlink:href="#mb69a85204a" y="290.057142857"/>
      </g>
     </g>
    </g>
    <g id="ytick_21">
     <g id="line2d_51">
      <g>
       <use style="stroke:#000000;stroke-width:0.5;" x="81.0" xlink:href="#m379101bd2b" y="265.371428571"/>
      </g>
     </g>
     <g id="line2d_52">
      <g>
       <use style="stroke:#000000;stroke-width:0.5;" x="583.2" xlink:href="#mb69a85204a" y="265.371428571"/>
      </g>
     </g>
    </g>
    <g id="ytick_22">
     <g id="line2d_53">
      <g>
       <use style="stroke:#000000;stroke-width:0.5;" x="81.0" xlink:href="#m379101bd2b" y="240.685714286"/>
      </g>
     </g>
     <g id="line2d_54">
      <g>
       <use style="stroke:#000000;stroke-width:0.5;" x="583.2" xlink:href="#mb69a85204a" y="240.685714286"/>
      </g>
     </g>
    </g>
    <g id="ytick_23">
     <g id="line2d_55">
      <g>
       <use style="stroke:#000000;stroke-width:0.5;" x="81.0" xlink:href="#m379101bd2b" y="216.0"/>
      </g>
     </g>
     <g id="line2d_56">
      <g>
       <use style="stroke:#000000;stroke-width:0.5;" x="583.2" xlink:href="#mb69a85204a" y="216.0"/>
      </g>
     </g>
    </g>
    <g id="ytick_24">
     <g id="line2d_57">
      <g>
       <use style="stroke:#000000;stroke-width:0.5;" x="81.0" xlink:href="#m379101bd2b" y="191.314285714"/>
      </g>
     </g>
     <g id="line2d_58">
      <g>
       <use style="stroke:#000000;stroke-width:0.5;" x="583.2" xlink:href="#mb69a85204a" y="191.314285714"/>
      </g>
     </g>
    </g>
    <g id="ytick_25">
     <g id="line2d_59">
      <g>
       <use style="stroke:#000000;stroke-width:0.5;" x="81.0" xlink:href="#m379101bd2b" y="166.628571429"/>
      </g>
     </g>
     <g id="line2d_60">
      <g>
       <use style="stroke:#000000;stroke-width:0.5;" x="583.2" xlink:href="#mb69a85204a" y="166.628571429"/>
      </g>
     </g>
    </g>
    <g id="ytick_26">
     <g id="line2d_61">
      <g>
       <use style="stroke:#000000;stroke-width:0.5;" x="81.0" xlink:href="#m379101bd2b" y="141.942857143"/>
      </g>
     </g>
     <g id="line2d_62">
      <g>
       <use style="stroke:#000000;stroke-width:0.5;" x="583.2" xlink:href="#mb69a85204a" y="141.942857143"/>
      </g>
     </g>
    </g>
    <g id="ytick_27">
     <g id="line2d_63">
      <g>
       <use style="stroke:#000000;stroke-width:0.5;" x="81.0" xlink:href="#m379101bd2b" y="117.257142857"/>
      </g>
     </g>
     <g id="line2d_64">
      <g>
       <use style="stroke:#000000;stroke-width:0.5;" x="583.2" xlink:href="#mb69a85204a" y="117.257142857"/>
      </g>
     </g>
    </g>
    <g id="ytick_28">
     <g id="line2d_65">
      <g>
       <use style="stroke:#000000;stroke-width:0.5;" x="81.0" xlink:href="#m379101bd2b" y="92.5714285714"/>
      </g>
     </g>
     <g id="line2d_66">
      <g>
       <use style="stroke:#000000;stroke-width:0.5;" x="583.2" xlink:href="#mb69a85204a" y="92.5714285714"/>
      </g>
     </g>
    </g>
    <g id="ytick_29">
     <g id="line2d_67">
      <g>
       <use style="stroke:#000000;stroke-width:0.5;" x="81.0" xlink:href="#m379101bd2b" y="67.8857142857"/>
      </g>
     </g>
     <g id="line2d_68">
      <g>
       <use style="stroke:#000000;stroke-width:0.5;" x="583.2" xlink:href="#mb69a85204a" y="67.8857142857"/>
      </g>
     </g>
    </g>
    <g id="ytick_30">
     <g id="line2d_69">
      <g>
       <use style="stroke:#000000;stroke-width:0.5;" x="81.0" xlink:href="#m379101bd2b" y="43.2"/>
      </g>
     </g>
     <g id="line2d_70">
      <g>
       <use style="stroke:#000000;stroke-width:0.5;" x="583.2" xlink:href="#mb69a85204a" y="43.2"/>
      </g>
     </g>
    </g>
    <g id="text_22">
     <!-- norm -->
     <g transform="translate(27.8725 237.045)rotate(-90.0)scale(0.16 -0.16)">
      <use xlink:href="#BitstreamVeraSans-Roman-6e"/>
      <use x="63.37890625" xlink:href="#BitstreamVeraSans-Roman-6f"/>
      <use x="124.560546875" xlink:href="#BitstreamVeraSans-Roman-72"/>
      <use x="165.658203125" xlink:href="#BitstreamVeraSans-Roman-6d"/>
     </g>
    </g>
   </g>
   <g id="legend_1">
    <g id="patch_225">
     <path d="M 431.891 88.742 
L 571.76 88.742 
Q 575.6 88.742 575.6 84.902 
L 575.6 58.64 
Q 575.6 54.8 571.76 54.8 
L 431.891 54.8 
Q 428.051 54.8 428.051 58.64 
L 428.051 84.902 
Q 428.051 88.742 431.891 88.742 
z
" style="fill:#4c4c4c;opacity:0.5;stroke:#4c4c4c;stroke-linejoin:miter;"/>
    </g>
    <g id="patch_226">
     <path d="M 429.891 86.742 
L 569.76 86.742 
Q 573.6 86.742 573.6 82.902 
L 573.6 56.64 
Q 573.6 52.8 569.76 52.8 
L 429.891 52.8 
Q 426.051 52.8 426.051 56.64 
L 426.051 82.902 
Q 426.051 86.742 429.891 86.742 
z
" style="fill:#ffffff;stroke:#000000;stroke-linejoin:miter;"/>
    </g>
    <g id="patch_227">
     <path d="M 433.731 75.069 
L 472.131 75.069 
L 472.131 61.629 
L 433.731 61.629 
z
" style="fill:#0000ff;stroke:#000000;stroke-linejoin:miter;"/>
    </g>
    <g id="text_23">
     <!-- rho=0.9 -->
     <defs>
      <path d="M 10.59375 45.40625 
L 73.1875 45.40625 
L 73.1875 37.203125 
L 10.59375 37.203125 
z
M 10.59375 25.484375 
L 73.1875 25.484375 
L 73.1875 17.1875 
L 10.59375 17.1875 
z
" id="BitstreamVeraSans-Roman-3d"/>
      <path d="M 10.6875 12.40625 
L 21 12.40625 
L 21 0 
L 10.6875 0 
z
" id="BitstreamVeraSans-Roman-2e"/>
      <path d="M 54.890625 33.015625 
L 54.890625 0 
L 45.90625 0 
L 45.90625 32.71875 
Q 45.90625 40.484375 42.875 44.328125 
Q 39.84375 48.1875 33.796875 48.1875 
Q 26.515625 48.1875 22.3125 43.546875 
Q 18.109375 38.921875 18.109375 30.90625 
L 18.109375 0 
L 9.078125 0 
L 9.078125 75.984375 
L 18.109375 75.984375 
L 18.109375 46.1875 
Q 21.34375 51.125 25.703125 53.5625 
Q 30.078125 56 35.796875 56 
Q 45.21875 56 50.046875 50.171875 
Q 54.890625 44.34375 54.890625 33.015625 
" id="BitstreamVeraSans-Roman-68"/>
     </defs>
     <g transform="translate(487.491 75.069)scale(0.192 -0.192)">
      <use xlink:href="#BitstreamVeraSans-Roman-72"/>
      <use x="41.09765625" xlink:href="#BitstreamVeraSans-Roman-68"/>
      <use x="104.4765625" xlink:href="#BitstreamVeraSans-Roman-6f"/>
      <use x="165.658203125" xlink:href="#BitstreamVeraSans-Roman-3d"/>
      <use x="249.447265625" xlink:href="#BitstreamVeraSans-Roman-30"/>
      <use x="313.0703125" xlink:href="#BitstreamVeraSans-Roman-2e"/>
      <use x="344.857421875" xlink:href="#BitstreamVeraSans-Roman-39"/>
     </g>
    </g>
   </g>
  </g>
 </g>
 <defs>
  <clipPath id="pa42b7d3334">
   <rect height="345.6" width="502.2" x="81.0" y="43.2"/>
  </clipPath>
 </defs>
</svg>
