<?xml version="1.0" encoding="utf-8" standalone="no"?>
<!DOCTYPE svg PUBLIC "-//W3C//DTD SVG 1.1//EN"
  "http://www.w3.org/Graphics/SVG/1.1/DTD/svg11.dtd">
<!-- Created with matplotlib (http://matplotlib.org/) -->
<svg height="2160pt" version="1.1" viewBox="0 0 1440 2160" width="1440pt" xmlns="http://www.w3.org/2000/svg" xmlns:xlink="http://www.w3.org/1999/xlink">
 <defs>
  <style type="text/css">
*{stroke-linecap:butt;stroke-linejoin:round;}
  </style>
 </defs>
 <g id="figure_1">
  <g id="patch_1">
   <path d="
M0 2160
L1440 2160
L1440 0
L0 0
z
" style="fill:#ffffff;"/>
  </g>
  <g id="axes_1">
   <g id="patch_2">
    <path d="
M180 1944
L1296 1944
L1296 216
L180 216
z
" style="fill:#ffffff;"/>
   </g>
   <g id="patch_3">
    <path clip-path="url(#p188218b6aa)" d="
M180 1944
L185.58 1944
L185.58 1944
L180 1944
z
" style="fill:#0000ff;stroke:#000000;stroke-linejoin:miter;"/>
   </g>
   <g id="patch_4">
    <path clip-path="url(#p188218b6aa)" d="
M186.975 1944
L192.555 1944
L192.555 1940.8
L186.975 1940.8
z
" style="fill:#0000ff;stroke:#000000;stroke-linejoin:miter;"/>
   </g>
   <g id="patch_5">
    <path clip-path="url(#p188218b6aa)" d="
M193.95 1944
L199.53 1944
L199.53 1939.42
L193.95 1939.42
z
" style="fill:#0000ff;stroke:#000000;stroke-linejoin:miter;"/>
   </g>
   <g id="patch_6">
    <path clip-path="url(#p188218b6aa)" d="
M200.925 1944
L206.505 1944
L206.505 1938.39
L200.925 1938.39
z
" style="fill:#0000ff;stroke:#000000;stroke-linejoin:miter;"/>
   </g>
   <g id="patch_7">
    <path clip-path="url(#p188218b6aa)" d="
M207.9 1944
L213.48 1944
L213.48 1938.16
L207.9 1938.16
z
" style="fill:#0000ff;stroke:#000000;stroke-linejoin:miter;"/>
   </g>
   <g id="patch_8">
    <path clip-path="url(#p188218b6aa)" d="
M214.875 1944
L220.455 1944
L220.455 1937.94
L214.875 1937.94
z
" style="fill:#0000ff;stroke:#000000;stroke-linejoin:miter;"/>
   </g>
   <g id="patch_9">
    <path clip-path="url(#p188218b6aa)" d="
M221.85 1944
L227.43 1944
L227.43 1937.17
L221.85 1937.17
z
" style="fill:#0000ff;stroke:#000000;stroke-linejoin:miter;"/>
   </g>
   <g id="patch_10">
    <path clip-path="url(#p188218b6aa)" d="
M228.825 1944
L234.405 1944
L234.405 1936.19
L228.825 1936.19
z
" style="fill:#0000ff;stroke:#000000;stroke-linejoin:miter;"/>
   </g>
   <g id="patch_11">
    <path clip-path="url(#p188218b6aa)" d="
M235.8 1944
L241.38 1944
L241.38 1936.11
L235.8 1936.11
z
" style="fill:#0000ff;stroke:#000000;stroke-linejoin:miter;"/>
   </g>
   <g id="patch_12">
    <path clip-path="url(#p188218b6aa)" d="
M242.775 1944
L248.355 1944
L248.355 1935.74
L242.775 1935.74
z
" style="fill:#0000ff;stroke:#000000;stroke-linejoin:miter;"/>
   </g>
   <g id="patch_13">
    <path clip-path="url(#p188218b6aa)" d="
M249.75 1944
L255.33 1944
L255.33 1935.03
L249.75 1935.03
z
" style="fill:#0000ff;stroke:#000000;stroke-linejoin:miter;"/>
   </g>
   <g id="patch_14">
    <path clip-path="url(#p188218b6aa)" d="
M256.725 1944
L262.305 1944
L262.305 1934.9
L256.725 1934.9
z
" style="fill:#0000ff;stroke:#000000;stroke-linejoin:miter;"/>
   </g>
   <g id="patch_15">
    <path clip-path="url(#p188218b6aa)" d="
M263.7 1944
L269.28 1944
L269.28 1934.56
L263.7 1934.56
z
" style="fill:#0000ff;stroke:#000000;stroke-linejoin:miter;"/>
   </g>
   <g id="patch_16">
    <path clip-path="url(#p188218b6aa)" d="
M270.675 1944
L276.255 1944
L276.255 1933.64
L270.675 1933.64
z
" style="fill:#0000ff;stroke:#000000;stroke-linejoin:miter;"/>
   </g>
   <g id="patch_17">
    <path clip-path="url(#p188218b6aa)" d="
M277.65 1944
L283.23 1944
L283.23 1933.37
L277.65 1933.37
z
" style="fill:#0000ff;stroke:#000000;stroke-linejoin:miter;"/>
   </g>
   <g id="patch_18">
    <path clip-path="url(#p188218b6aa)" d="
M284.625 1944
L290.205 1944
L290.205 1933.85
L284.625 1933.85
z
" style="fill:#0000ff;stroke:#000000;stroke-linejoin:miter;"/>
   </g>
   <g id="patch_19">
    <path clip-path="url(#p188218b6aa)" d="
M291.6 1944
L297.18 1944
L297.18 1933.14
L291.6 1933.14
z
" style="fill:#0000ff;stroke:#000000;stroke-linejoin:miter;"/>
   </g>
   <g id="patch_20">
    <path clip-path="url(#p188218b6aa)" d="
M298.575 1944
L304.155 1944
L304.155 1932.46
L298.575 1932.46
z
" style="fill:#0000ff;stroke:#000000;stroke-linejoin:miter;"/>
   </g>
   <g id="patch_21">
    <path clip-path="url(#p188218b6aa)" d="
M305.55 1944
L311.13 1944
L311.13 1932.6
L305.55 1932.6
z
" style="fill:#0000ff;stroke:#000000;stroke-linejoin:miter;"/>
   </g>
   <g id="patch_22">
    <path clip-path="url(#p188218b6aa)" d="
M312.525 1944
L318.105 1944
L318.105 1931.89
L312.525 1931.89
z
" style="fill:#0000ff;stroke:#000000;stroke-linejoin:miter;"/>
   </g>
   <g id="patch_23">
    <path clip-path="url(#p188218b6aa)" d="
M319.5 1944
L325.08 1944
L325.08 1930.96
L319.5 1930.96
z
" style="fill:#0000ff;stroke:#000000;stroke-linejoin:miter;"/>
   </g>
   <g id="patch_24">
    <path clip-path="url(#p188218b6aa)" d="
M326.475 1944
L332.055 1944
L332.055 1931.62
L326.475 1931.62
z
" style="fill:#0000ff;stroke:#000000;stroke-linejoin:miter;"/>
   </g>
   <g id="patch_25">
    <path clip-path="url(#p188218b6aa)" d="
M333.45 1944
L339.03 1944
L339.03 1931.3
L333.45 1931.3
z
" style="fill:#0000ff;stroke:#000000;stroke-linejoin:miter;"/>
   </g>
   <g id="patch_26">
    <path clip-path="url(#p188218b6aa)" d="
M340.425 1944
L346.005 1944
L346.005 1929.85
L340.425 1929.85
z
" style="fill:#0000ff;stroke:#000000;stroke-linejoin:miter;"/>
   </g>
   <g id="patch_27">
    <path clip-path="url(#p188218b6aa)" d="
M347.4 1944
L352.98 1944
L352.98 1930.33
L347.4 1930.33
z
" style="fill:#0000ff;stroke:#000000;stroke-linejoin:miter;"/>
   </g>
   <g id="patch_28">
    <path clip-path="url(#p188218b6aa)" d="
M354.375 1944
L359.955 1944
L359.955 1930.17
L354.375 1930.17
z
" style="fill:#0000ff;stroke:#000000;stroke-linejoin:miter;"/>
   </g>
   <g id="patch_29">
    <path clip-path="url(#p188218b6aa)" d="
M361.35 1944
L366.93 1944
L366.93 1929.08
L361.35 1929.08
z
" style="fill:#0000ff;stroke:#000000;stroke-linejoin:miter;"/>
   </g>
   <g id="patch_30">
    <path clip-path="url(#p188218b6aa)" d="
M368.325 1944
L373.905 1944
L373.905 1928.78
L368.325 1928.78
z
" style="fill:#0000ff;stroke:#000000;stroke-linejoin:miter;"/>
   </g>
   <g id="patch_31">
    <path clip-path="url(#p188218b6aa)" d="
M375.3 1944
L380.88 1944
L380.88 1928.84
L375.3 1928.84
z
" style="fill:#0000ff;stroke:#000000;stroke-linejoin:miter;"/>
   </g>
   <g id="patch_32">
    <path clip-path="url(#p188218b6aa)" d="
M382.275 1944
L387.855 1944
L387.855 1927.92
L382.275 1927.92
z
" style="fill:#0000ff;stroke:#000000;stroke-linejoin:miter;"/>
   </g>
   <g id="patch_33">
    <path clip-path="url(#p188218b6aa)" d="
M389.25 1944
L394.83 1944
L394.83 1927.07
L389.25 1927.07
z
" style="fill:#0000ff;stroke:#000000;stroke-linejoin:miter;"/>
   </g>
   <g id="patch_34">
    <path clip-path="url(#p188218b6aa)" d="
M396.225 1944
L401.805 1944
L401.805 1927.09
L396.225 1927.09
z
" style="fill:#0000ff;stroke:#000000;stroke-linejoin:miter;"/>
   </g>
   <g id="patch_35">
    <path clip-path="url(#p188218b6aa)" d="
M403.2 1944
L408.78 1944
L408.78 1926.78
L403.2 1926.78
z
" style="fill:#0000ff;stroke:#000000;stroke-linejoin:miter;"/>
   </g>
   <g id="patch_36">
    <path clip-path="url(#p188218b6aa)" d="
M410.175 1944
L415.755 1944
L415.755 1925.63
L410.175 1925.63
z
" style="fill:#0000ff;stroke:#000000;stroke-linejoin:miter;"/>
   </g>
   <g id="patch_37">
    <path clip-path="url(#p188218b6aa)" d="
M417.15 1944
L422.73 1944
L422.73 1925.44
L417.15 1925.44
z
" style="fill:#0000ff;stroke:#000000;stroke-linejoin:miter;"/>
   </g>
   <g id="patch_38">
    <path clip-path="url(#p188218b6aa)" d="
M424.125 1944
L429.705 1944
L429.705 1925.62
L424.125 1925.62
z
" style="fill:#0000ff;stroke:#000000;stroke-linejoin:miter;"/>
   </g>
   <g id="patch_39">
    <path clip-path="url(#p188218b6aa)" d="
M431.1 1944
L436.68 1944
L436.68 1924.12
L431.1 1924.12
z
" style="fill:#0000ff;stroke:#000000;stroke-linejoin:miter;"/>
   </g>
   <g id="patch_40">
    <path clip-path="url(#p188218b6aa)" d="
M438.075 1944
L443.655 1944
L443.655 1923.24
L438.075 1923.24
z
" style="fill:#0000ff;stroke:#000000;stroke-linejoin:miter;"/>
   </g>
   <g id="patch_41">
    <path clip-path="url(#p188218b6aa)" d="
M445.05 1944
L450.63 1944
L450.63 1923.61
L445.05 1923.61
z
" style="fill:#0000ff;stroke:#000000;stroke-linejoin:miter;"/>
   </g>
   <g id="patch_42">
    <path clip-path="url(#p188218b6aa)" d="
M452.025 1944
L457.605 1944
L457.605 1922.53
L452.025 1922.53
z
" style="fill:#0000ff;stroke:#000000;stroke-linejoin:miter;"/>
   </g>
   <g id="patch_43">
    <path clip-path="url(#p188218b6aa)" d="
M459 1944
L464.58 1944
L464.58 1920.8
L459 1920.8
z
" style="fill:#0000ff;stroke:#000000;stroke-linejoin:miter;"/>
   </g>
   <g id="patch_44">
    <path clip-path="url(#p188218b6aa)" d="
M465.975 1944
L471.555 1944
L471.555 1921.39
L465.975 1921.39
z
" style="fill:#0000ff;stroke:#000000;stroke-linejoin:miter;"/>
   </g>
   <g id="patch_45">
    <path clip-path="url(#p188218b6aa)" d="
M472.95 1944
L478.53 1944
L478.53 1921.3
L472.95 1921.3
z
" style="fill:#0000ff;stroke:#000000;stroke-linejoin:miter;"/>
   </g>
   <g id="patch_46">
    <path clip-path="url(#p188218b6aa)" d="
M479.925 1944
L485.505 1944
L485.505 1919.95
L479.925 1919.95
z
" style="fill:#0000ff;stroke:#000000;stroke-linejoin:miter;"/>
   </g>
   <g id="patch_47">
    <path clip-path="url(#p188218b6aa)" d="
M486.9 1944
L492.48 1944
L492.48 1920.16
L486.9 1920.16
z
" style="fill:#0000ff;stroke:#000000;stroke-linejoin:miter;"/>
   </g>
   <g id="patch_48">
    <path clip-path="url(#p188218b6aa)" d="
M493.875 1944
L499.455 1944
L499.455 1920.62
L493.875 1920.62
z
" style="fill:#0000ff;stroke:#000000;stroke-linejoin:miter;"/>
   </g>
   <g id="patch_49">
    <path clip-path="url(#p188218b6aa)" d="
M500.85 1944
L506.43 1944
L506.43 1918.97
L500.85 1918.97
z
" style="fill:#0000ff;stroke:#000000;stroke-linejoin:miter;"/>
   </g>
   <g id="patch_50">
    <path clip-path="url(#p188218b6aa)" d="
M507.825 1944
L513.405 1944
L513.405 1918.88
L507.825 1918.88
z
" style="fill:#0000ff;stroke:#000000;stroke-linejoin:miter;"/>
   </g>
   <g id="patch_51">
    <path clip-path="url(#p188218b6aa)" d="
M514.8 1944
L520.38 1944
L520.38 1919.09
L514.8 1919.09
z
" style="fill:#0000ff;stroke:#000000;stroke-linejoin:miter;"/>
   </g>
   <g id="patch_52">
    <path clip-path="url(#p188218b6aa)" d="
M521.775 1944
L527.355 1944
L527.355 1918.64
L521.775 1918.64
z
" style="fill:#0000ff;stroke:#000000;stroke-linejoin:miter;"/>
   </g>
   <g id="patch_53">
    <path clip-path="url(#p188218b6aa)" d="
M528.75 1944
L534.33 1944
L534.33 1917.36
L528.75 1917.36
z
" style="fill:#0000ff;stroke:#000000;stroke-linejoin:miter;"/>
   </g>
   <g id="patch_54">
    <path clip-path="url(#p188218b6aa)" d="
M535.725 1944
L541.305 1944
L541.305 1917.24
L535.725 1917.24
z
" style="fill:#0000ff;stroke:#000000;stroke-linejoin:miter;"/>
   </g>
   <g id="patch_55">
    <path clip-path="url(#p188218b6aa)" d="
M542.7 1944
L548.28 1944
L548.28 1917.08
L542.7 1917.08
z
" style="fill:#0000ff;stroke:#000000;stroke-linejoin:miter;"/>
   </g>
   <g id="patch_56">
    <path clip-path="url(#p188218b6aa)" d="
M549.675 1944
L555.255 1944
L555.255 1915.18
L549.675 1915.18
z
" style="fill:#0000ff;stroke:#000000;stroke-linejoin:miter;"/>
   </g>
   <g id="patch_57">
    <path clip-path="url(#p188218b6aa)" d="
M556.65 1944
L562.23 1944
L562.23 1914.29
L556.65 1914.29
z
" style="fill:#0000ff;stroke:#000000;stroke-linejoin:miter;"/>
   </g>
   <g id="patch_58">
    <path clip-path="url(#p188218b6aa)" d="
M563.625 1944
L569.205 1944
L569.205 1915.25
L563.625 1915.25
z
" style="fill:#0000ff;stroke:#000000;stroke-linejoin:miter;"/>
   </g>
   <g id="patch_59">
    <path clip-path="url(#p188218b6aa)" d="
M570.6 1944
L576.18 1944
L576.18 1914.02
L570.6 1914.02
z
" style="fill:#0000ff;stroke:#000000;stroke-linejoin:miter;"/>
   </g>
   <g id="patch_60">
    <path clip-path="url(#p188218b6aa)" d="
M577.575 1944
L583.155 1944
L583.155 1912.49
L577.575 1912.49
z
" style="fill:#0000ff;stroke:#000000;stroke-linejoin:miter;"/>
   </g>
   <g id="patch_61">
    <path clip-path="url(#p188218b6aa)" d="
M584.55 1944
L590.13 1944
L590.13 1913.49
L584.55 1913.49
z
" style="fill:#0000ff;stroke:#000000;stroke-linejoin:miter;"/>
   </g>
   <g id="patch_62">
    <path clip-path="url(#p188218b6aa)" d="
M591.525 1944
L597.105 1944
L597.105 1912.93
L591.525 1912.93
z
" style="fill:#0000ff;stroke:#000000;stroke-linejoin:miter;"/>
   </g>
   <g id="patch_63">
    <path clip-path="url(#p188218b6aa)" d="
M598.5 1944
L604.08 1944
L604.08 1911.03
L598.5 1911.03
z
" style="fill:#0000ff;stroke:#000000;stroke-linejoin:miter;"/>
   </g>
   <g id="patch_64">
    <path clip-path="url(#p188218b6aa)" d="
M605.475 1944
L611.055 1944
L611.055 1911.58
L605.475 1911.58
z
" style="fill:#0000ff;stroke:#000000;stroke-linejoin:miter;"/>
   </g>
   <g id="patch_65">
    <path clip-path="url(#p188218b6aa)" d="
M612.45 1944
L618.03 1944
L618.03 1911.49
L612.45 1911.49
z
" style="fill:#0000ff;stroke:#000000;stroke-linejoin:miter;"/>
   </g>
   <g id="patch_66">
    <path clip-path="url(#p188218b6aa)" d="
M619.425 1944
L625.005 1944
L625.005 1909
L619.425 1909
z
" style="fill:#0000ff;stroke:#000000;stroke-linejoin:miter;"/>
   </g>
   <g id="patch_67">
    <path clip-path="url(#p188218b6aa)" d="
M626.4 1944
L631.98 1944
L631.98 1908.55
L626.4 1908.55
z
" style="fill:#0000ff;stroke:#000000;stroke-linejoin:miter;"/>
   </g>
   <g id="patch_68">
    <path clip-path="url(#p188218b6aa)" d="
M633.375 1944
L638.955 1944
L638.955 1908.98
L633.375 1908.98
z
" style="fill:#0000ff;stroke:#000000;stroke-linejoin:miter;"/>
   </g>
   <g id="patch_69">
    <path clip-path="url(#p188218b6aa)" d="
M640.35 1944
L645.93 1944
L645.93 1906.7
L640.35 1906.7
z
" style="fill:#0000ff;stroke:#000000;stroke-linejoin:miter;"/>
   </g>
   <g id="patch_70">
    <path clip-path="url(#p188218b6aa)" d="
M647.325 1944
L652.905 1944
L652.905 1905.13
L647.325 1905.13
z
" style="fill:#0000ff;stroke:#000000;stroke-linejoin:miter;"/>
   </g>
   <g id="patch_71">
    <path clip-path="url(#p188218b6aa)" d="
M654.3 1944
L659.88 1944
L659.88 1906.13
L654.3 1906.13
z
" style="fill:#0000ff;stroke:#000000;stroke-linejoin:miter;"/>
   </g>
   <g id="patch_72">
    <path clip-path="url(#p188218b6aa)" d="
M661.275 1944
L666.855 1944
L666.855 1904.84
L661.275 1904.84
z
" style="fill:#0000ff;stroke:#000000;stroke-linejoin:miter;"/>
   </g>
   <g id="patch_73">
    <path clip-path="url(#p188218b6aa)" d="
M668.25 1944
L673.83 1944
L673.83 1902.1
L668.25 1902.1
z
" style="fill:#0000ff;stroke:#000000;stroke-linejoin:miter;"/>
   </g>
   <g id="patch_74">
    <path clip-path="url(#p188218b6aa)" d="
M675.225 1944
L680.805 1944
L680.805 1902.06
L675.225 1902.06
z
" style="fill:#0000ff;stroke:#000000;stroke-linejoin:miter;"/>
   </g>
   <g id="patch_75">
    <path clip-path="url(#p188218b6aa)" d="
M682.2 1944
L687.78 1944
L687.78 1902.02
L682.2 1902.02
z
" style="fill:#0000ff;stroke:#000000;stroke-linejoin:miter;"/>
   </g>
   <g id="patch_76">
    <path clip-path="url(#p188218b6aa)" d="
M689.175 1944
L694.755 1944
L694.755 1899.77
L689.175 1899.77
z
" style="fill:#0000ff;stroke:#000000;stroke-linejoin:miter;"/>
   </g>
   <g id="patch_77">
    <path clip-path="url(#p188218b6aa)" d="
M696.15 1944
L701.73 1944
L701.73 1898.8
L696.15 1898.8
z
" style="fill:#0000ff;stroke:#000000;stroke-linejoin:miter;"/>
   </g>
   <g id="patch_78">
    <path clip-path="url(#p188218b6aa)" d="
M703.125 1944
L708.705 1944
L708.705 1900.01
L703.125 1900.01
z
" style="fill:#0000ff;stroke:#000000;stroke-linejoin:miter;"/>
   </g>
   <g id="patch_79">
    <path clip-path="url(#p188218b6aa)" d="
M710.1 1944
L715.68 1944
L715.68 1897.4
L710.1 1897.4
z
" style="fill:#0000ff;stroke:#000000;stroke-linejoin:miter;"/>
   </g>
   <g id="patch_80">
    <path clip-path="url(#p188218b6aa)" d="
M717.075 1944
L722.655 1944
L722.655 1894.96
L717.075 1894.96
z
" style="fill:#0000ff;stroke:#000000;stroke-linejoin:miter;"/>
   </g>
   <g id="patch_81">
    <path clip-path="url(#p188218b6aa)" d="
M724.05 1944
L729.63 1944
L729.63 1896.61
L724.05 1896.61
z
" style="fill:#0000ff;stroke:#000000;stroke-linejoin:miter;"/>
   </g>
   <g id="patch_82">
    <path clip-path="url(#p188218b6aa)" d="
M731.025 1944
L736.605 1944
L736.605 1895.17
L731.025 1895.17
z
" style="fill:#0000ff;stroke:#000000;stroke-linejoin:miter;"/>
   </g>
   <g id="patch_83">
    <path clip-path="url(#p188218b6aa)" d="
M738 1944
L743.58 1944
L743.58 1891.33
L738 1891.33
z
" style="fill:#0000ff;stroke:#000000;stroke-linejoin:miter;"/>
   </g>
   <g id="patch_84">
    <path clip-path="url(#p188218b6aa)" d="
M744.975 1944
L750.555 1944
L750.555 1891.46
L744.975 1891.46
z
" style="fill:#0000ff;stroke:#000000;stroke-linejoin:miter;"/>
   </g>
   <g id="patch_85">
    <path clip-path="url(#p188218b6aa)" d="
M751.95 1944
L757.53 1944
L757.53 1890.96
L751.95 1890.96
z
" style="fill:#0000ff;stroke:#000000;stroke-linejoin:miter;"/>
   </g>
   <g id="patch_86">
    <path clip-path="url(#p188218b6aa)" d="
M758.925 1944
L764.505 1944
L764.505 1887.36
L758.925 1887.36
z
" style="fill:#0000ff;stroke:#000000;stroke-linejoin:miter;"/>
   </g>
   <g id="patch_87">
    <path clip-path="url(#p188218b6aa)" d="
M765.9 1944
L771.48 1944
L771.48 1885.93
L765.9 1885.93
z
" style="fill:#0000ff;stroke:#000000;stroke-linejoin:miter;"/>
   </g>
   <g id="patch_88">
    <path clip-path="url(#p188218b6aa)" d="
M772.875 1944
L778.455 1944
L778.455 1887.84
L772.875 1887.84
z
" style="fill:#0000ff;stroke:#000000;stroke-linejoin:miter;"/>
   </g>
   <g id="patch_89">
    <path clip-path="url(#p188218b6aa)" d="
M779.85 1944
L785.43 1944
L785.43 1884.57
L779.85 1884.57
z
" style="fill:#0000ff;stroke:#000000;stroke-linejoin:miter;"/>
   </g>
   <g id="patch_90">
    <path clip-path="url(#p188218b6aa)" d="
M786.825 1944
L792.405 1944
L792.405 1881.58
L786.825 1881.58
z
" style="fill:#0000ff;stroke:#000000;stroke-linejoin:miter;"/>
   </g>
   <g id="patch_91">
    <path clip-path="url(#p188218b6aa)" d="
M793.8 1944
L799.38 1944
L799.38 1882.74
L793.8 1882.74
z
" style="fill:#0000ff;stroke:#000000;stroke-linejoin:miter;"/>
   </g>
   <g id="patch_92">
    <path clip-path="url(#p188218b6aa)" d="
M800.775 1944
L806.355 1944
L806.355 1880.95
L800.775 1880.95
z
" style="fill:#0000ff;stroke:#000000;stroke-linejoin:miter;"/>
   </g>
   <g id="patch_93">
    <path clip-path="url(#p188218b6aa)" d="
M807.75 1944
L813.33 1944
L813.33 1875.81
L807.75 1875.81
z
" style="fill:#0000ff;stroke:#000000;stroke-linejoin:miter;"/>
   </g>
   <g id="patch_94">
    <path clip-path="url(#p188218b6aa)" d="
M814.725 1944
L820.305 1944
L820.305 1876.4
L814.725 1876.4
z
" style="fill:#0000ff;stroke:#000000;stroke-linejoin:miter;"/>
   </g>
   <g id="patch_95">
    <path clip-path="url(#p188218b6aa)" d="
M821.7 1944
L827.28 1944
L827.28 1876.11
L821.7 1876.11
z
" style="fill:#0000ff;stroke:#000000;stroke-linejoin:miter;"/>
   </g>
   <g id="patch_96">
    <path clip-path="url(#p188218b6aa)" d="
M828.675 1944
L834.255 1944
L834.255 1872.22
L828.675 1872.22
z
" style="fill:#0000ff;stroke:#000000;stroke-linejoin:miter;"/>
   </g>
   <g id="patch_97">
    <path clip-path="url(#p188218b6aa)" d="
M835.65 1944
L841.23 1944
L841.23 1870.33
L835.65 1870.33
z
" style="fill:#0000ff;stroke:#000000;stroke-linejoin:miter;"/>
   </g>
   <g id="patch_98">
    <path clip-path="url(#p188218b6aa)" d="
M842.625 1944
L848.205 1944
L848.205 1873.27
L842.625 1873.27
z
" style="fill:#0000ff;stroke:#000000;stroke-linejoin:miter;"/>
   </g>
   <g id="patch_99">
    <path clip-path="url(#p188218b6aa)" d="
M849.6 1944
L855.18 1944
L855.18 1869.62
L849.6 1869.62
z
" style="fill:#0000ff;stroke:#000000;stroke-linejoin:miter;"/>
   </g>
   <g id="patch_100">
    <path clip-path="url(#p188218b6aa)" d="
M856.575 1944
L862.155 1944
L862.155 1865.49
L856.575 1865.49
z
" style="fill:#0000ff;stroke:#000000;stroke-linejoin:miter;"/>
   </g>
   <g id="patch_101">
    <path clip-path="url(#p188218b6aa)" d="
M863.55 1944
L869.13 1944
L869.13 1866.87
L863.55 1866.87
z
" style="fill:#0000ff;stroke:#000000;stroke-linejoin:miter;"/>
   </g>
   <g id="patch_102">
    <path clip-path="url(#p188218b6aa)" d="
M870.525 1944
L876.105 1944
L876.105 1866.18
L870.525 1866.18
z
" style="fill:#0000ff;stroke:#000000;stroke-linejoin:miter;"/>
   </g>
   <g id="patch_103">
    <path clip-path="url(#p188218b6aa)" d="
M877.5 1944
L883.08 1944
L883.08 1861.27
L877.5 1861.27
z
" style="fill:#0000ff;stroke:#000000;stroke-linejoin:miter;"/>
   </g>
   <g id="patch_104">
    <path clip-path="url(#p188218b6aa)" d="
M884.475 1944
L890.055 1944
L890.055 1861.68
L884.475 1861.68
z
" style="fill:#0000ff;stroke:#000000;stroke-linejoin:miter;"/>
   </g>
   <g id="patch_105">
    <path clip-path="url(#p188218b6aa)" d="
M891.45 1944
L897.03 1944
L897.03 1863.36
L891.45 1863.36
z
" style="fill:#0000ff;stroke:#000000;stroke-linejoin:miter;"/>
   </g>
   <g id="patch_106">
    <path clip-path="url(#p188218b6aa)" d="
M898.425 1944
L904.005 1944
L904.005 1858.21
L898.425 1858.21
z
" style="fill:#0000ff;stroke:#000000;stroke-linejoin:miter;"/>
   </g>
   <g id="patch_107">
    <path clip-path="url(#p188218b6aa)" d="
M905.4 1944
L910.98 1944
L910.98 1855.67
L905.4 1855.67
z
" style="fill:#0000ff;stroke:#000000;stroke-linejoin:miter;"/>
   </g>
   <g id="patch_108">
    <path clip-path="url(#p188218b6aa)" d="
M912.375 1944
L917.955 1944
L917.955 1857.99
L912.375 1857.99
z
" style="fill:#0000ff;stroke:#000000;stroke-linejoin:miter;"/>
   </g>
   <g id="patch_109">
    <path clip-path="url(#p188218b6aa)" d="
M919.35 1944
L924.93 1944
L924.93 1854.12
L919.35 1854.12
z
" style="fill:#0000ff;stroke:#000000;stroke-linejoin:miter;"/>
   </g>
   <g id="patch_110">
    <path clip-path="url(#p188218b6aa)" d="
M926.325 1944
L931.905 1944
L931.905 1847.65
L926.325 1847.65
z
" style="fill:#0000ff;stroke:#000000;stroke-linejoin:miter;"/>
   </g>
   <g id="patch_111">
    <path clip-path="url(#p188218b6aa)" d="
M933.3 1944
L938.88 1944
L938.88 1849.54
L933.3 1849.54
z
" style="fill:#0000ff;stroke:#000000;stroke-linejoin:miter;"/>
   </g>
   <g id="patch_112">
    <path clip-path="url(#p188218b6aa)" d="
M940.275 1944
L945.855 1944
L945.855 1848.32
L940.275 1848.32
z
" style="fill:#0000ff;stroke:#000000;stroke-linejoin:miter;"/>
   </g>
   <g id="patch_113">
    <path clip-path="url(#p188218b6aa)" d="
M947.25 1944
L952.83 1944
L952.83 1840.52
L947.25 1840.52
z
" style="fill:#0000ff;stroke:#000000;stroke-linejoin:miter;"/>
   </g>
   <g id="patch_114">
    <path clip-path="url(#p188218b6aa)" d="
M954.225 1944
L959.805 1944
L959.805 1839
L954.225 1839
z
" style="fill:#0000ff;stroke:#000000;stroke-linejoin:miter;"/>
   </g>
   <g id="patch_115">
    <path clip-path="url(#p188218b6aa)" d="
M961.2 1944
L966.78 1944
L966.78 1839.35
L961.2 1839.35
z
" style="fill:#0000ff;stroke:#000000;stroke-linejoin:miter;"/>
   </g>
   <g id="patch_116">
    <path clip-path="url(#p188218b6aa)" d="
M968.175 1944
L973.755 1944
L973.755 1831.11
L968.175 1831.11
z
" style="fill:#0000ff;stroke:#000000;stroke-linejoin:miter;"/>
   </g>
   <g id="patch_117">
    <path clip-path="url(#p188218b6aa)" d="
M975.15 1944
L980.73 1944
L980.73 1825.9
L975.15 1825.9
z
" style="fill:#0000ff;stroke:#000000;stroke-linejoin:miter;"/>
   </g>
   <g id="patch_118">
    <path clip-path="url(#p188218b6aa)" d="
M982.125 1944
L987.705 1944
L987.705 1826.4
L982.125 1826.4
z
" style="fill:#0000ff;stroke:#000000;stroke-linejoin:miter;"/>
   </g>
   <g id="patch_119">
    <path clip-path="url(#p188218b6aa)" d="
M989.1 1944
L994.68 1944
L994.68 1820.35
L989.1 1820.35
z
" style="fill:#0000ff;stroke:#000000;stroke-linejoin:miter;"/>
   </g>
   <g id="patch_120">
    <path clip-path="url(#p188218b6aa)" d="
M996.075 1944
L1001.65 1944
L1001.65 1812.94
L996.075 1812.94
z
" style="fill:#0000ff;stroke:#000000;stroke-linejoin:miter;"/>
   </g>
   <g id="patch_121">
    <path clip-path="url(#p188218b6aa)" d="
M1003.05 1944
L1008.63 1944
L1008.63 1813.19
L1003.05 1813.19
z
" style="fill:#0000ff;stroke:#000000;stroke-linejoin:miter;"/>
   </g>
   <g id="patch_122">
    <path clip-path="url(#p188218b6aa)" d="
M1010.03 1944
L1015.61 1944
L1015.61 1810.43
L1010.03 1810.43
z
" style="fill:#0000ff;stroke:#000000;stroke-linejoin:miter;"/>
   </g>
   <g id="patch_123">
    <path clip-path="url(#p188218b6aa)" d="
M1017 1944
L1022.58 1944
L1022.58 1802.77
L1017 1802.77
z
" style="fill:#0000ff;stroke:#000000;stroke-linejoin:miter;"/>
   </g>
   <g id="patch_124">
    <path clip-path="url(#p188218b6aa)" d="
M1023.98 1944
L1029.56 1944
L1029.56 1804.02
L1023.98 1804.02
z
" style="fill:#0000ff;stroke:#000000;stroke-linejoin:miter;"/>
   </g>
   <g id="patch_125">
    <path clip-path="url(#p188218b6aa)" d="
M1030.95 1944
L1036.53 1944
L1036.53 1802.74
L1030.95 1802.74
z
" style="fill:#0000ff;stroke:#000000;stroke-linejoin:miter;"/>
   </g>
   <g id="patch_126">
    <path clip-path="url(#p188218b6aa)" d="
M1037.93 1944
L1043.51 1944
L1043.51 1795.02
L1037.93 1795.02
z
" style="fill:#0000ff;stroke:#000000;stroke-linejoin:miter;"/>
   </g>
   <g id="patch_127">
    <path clip-path="url(#p188218b6aa)" d="
M1044.9 1944
L1050.48 1944
L1050.48 1795.18
L1044.9 1795.18
z
" style="fill:#0000ff;stroke:#000000;stroke-linejoin:miter;"/>
   </g>
   <g id="patch_128">
    <path clip-path="url(#p188218b6aa)" d="
M1051.88 1944
L1057.45 1944
L1057.45 1800.55
L1051.88 1800.55
z
" style="fill:#0000ff;stroke:#000000;stroke-linejoin:miter;"/>
   </g>
   <g id="patch_129">
    <path clip-path="url(#p188218b6aa)" d="
M1058.85 1944
L1064.43 1944
L1064.43 1799.14
L1058.85 1799.14
z
" style="fill:#0000ff;stroke:#000000;stroke-linejoin:miter;"/>
   </g>
   <g id="patch_130">
    <path clip-path="url(#p188218b6aa)" d="
M1065.83 1944
L1071.4 1944
L1071.4 1795.31
L1065.83 1795.31
z
" style="fill:#0000ff;stroke:#000000;stroke-linejoin:miter;"/>
   </g>
   <g id="patch_131">
    <path clip-path="url(#p188218b6aa)" d="
M1072.8 1944
L1078.38 1944
L1078.38 1802.21
L1072.8 1802.21
z
" style="fill:#0000ff;stroke:#000000;stroke-linejoin:miter;"/>
   </g>
   <g id="patch_132">
    <path clip-path="url(#p188218b6aa)" d="
M1079.78 1944
L1085.36 1944
L1085.36 1808.43
L1079.78 1808.43
z
" style="fill:#0000ff;stroke:#000000;stroke-linejoin:miter;"/>
   </g>
   <g id="patch_133">
    <path clip-path="url(#p188218b6aa)" d="
M1086.75 1944
L1092.33 1944
L1092.33 1799.4
L1086.75 1799.4
z
" style="fill:#0000ff;stroke:#000000;stroke-linejoin:miter;"/>
   </g>
   <g id="patch_134">
    <path clip-path="url(#p188218b6aa)" d="
M1093.72 1944
L1099.31 1944
L1099.31 1795.63
L1093.72 1795.63
z
" style="fill:#0000ff;stroke:#000000;stroke-linejoin:miter;"/>
   </g>
   <g id="patch_135">
    <path clip-path="url(#p188218b6aa)" d="
M1100.7 1944
L1106.28 1944
L1106.28 1802.12
L1100.7 1802.12
z
" style="fill:#0000ff;stroke:#000000;stroke-linejoin:miter;"/>
   </g>
   <g id="patch_136">
    <path clip-path="url(#p188218b6aa)" d="
M1107.68 1944
L1113.26 1944
L1113.26 1793.63
L1107.68 1793.63
z
" style="fill:#0000ff;stroke:#000000;stroke-linejoin:miter;"/>
   </g>
   <g id="patch_137">
    <path clip-path="url(#p188218b6aa)" d="
M1114.65 1944
L1120.23 1944
L1120.23 1773.48
L1114.65 1773.48
z
" style="fill:#0000ff;stroke:#000000;stroke-linejoin:miter;"/>
   </g>
   <g id="patch_138">
    <path clip-path="url(#p188218b6aa)" d="
M1121.62 1944
L1127.21 1944
L1127.21 1776.62
L1121.62 1776.62
z
" style="fill:#0000ff;stroke:#000000;stroke-linejoin:miter;"/>
   </g>
   <g id="patch_139">
    <path clip-path="url(#p188218b6aa)" d="
M1128.6 1944
L1134.18 1944
L1134.18 1771.1
L1128.6 1771.1
z
" style="fill:#0000ff;stroke:#000000;stroke-linejoin:miter;"/>
   </g>
   <g id="patch_140">
    <path clip-path="url(#p188218b6aa)" d="
M1135.58 1944
L1141.16 1944
L1141.16 1731.65
L1135.58 1731.65
z
" style="fill:#0000ff;stroke:#000000;stroke-linejoin:miter;"/>
   </g>
   <g id="patch_141">
    <path clip-path="url(#p188218b6aa)" d="
M1142.55 1944
L1148.13 1944
L1148.13 1707.69
L1142.55 1707.69
z
" style="fill:#0000ff;stroke:#000000;stroke-linejoin:miter;"/>
   </g>
   <g id="patch_142">
    <path clip-path="url(#p188218b6aa)" d="
M1149.53 1944
L1155.11 1944
L1155.11 1673.89
L1149.53 1673.89
z
" style="fill:#0000ff;stroke:#000000;stroke-linejoin:miter;"/>
   </g>
   <g id="patch_143">
    <path clip-path="url(#p188218b6aa)" d="
M1156.5 1944
L1162.08 1944
L1162.08 1648.54
L1156.5 1648.54
z
" style="fill:#0000ff;stroke:#000000;stroke-linejoin:miter;"/>
   </g>
   <g id="patch_144">
    <path clip-path="url(#p188218b6aa)" d="
M1163.47 1944
L1169.06 1944
L1169.06 1627.68
L1163.47 1627.68
z
" style="fill:#0000ff;stroke:#000000;stroke-linejoin:miter;"/>
   </g>
   <g id="patch_145">
    <path clip-path="url(#p188218b6aa)" d="
M1170.45 1944
L1176.03 1944
L1176.03 1591.68
L1170.45 1591.68
z
" style="fill:#0000ff;stroke:#000000;stroke-linejoin:miter;"/>
   </g>
   <g id="patch_146">
    <path clip-path="url(#p188218b6aa)" d="
M1177.43 1944
L1183.01 1944
L1183.01 1541.71
L1177.43 1541.71
z
" style="fill:#0000ff;stroke:#000000;stroke-linejoin:miter;"/>
   </g>
   <g id="patch_147">
    <path clip-path="url(#p188218b6aa)" d="
M1184.4 1944
L1189.98 1944
L1189.98 1519.65
L1184.4 1519.65
z
" style="fill:#0000ff;stroke:#000000;stroke-linejoin:miter;"/>
   </g>
   <g id="patch_148">
    <path clip-path="url(#p188218b6aa)" d="
M1191.38 1944
L1196.96 1944
L1196.96 1519.95
L1191.38 1519.95
z
" style="fill:#0000ff;stroke:#000000;stroke-linejoin:miter;"/>
   </g>
   <g id="patch_149">
    <path clip-path="url(#p188218b6aa)" d="
M1198.35 1944
L1203.93 1944
L1203.93 1326.86
L1198.35 1326.86
z
" style="fill:#0000ff;stroke:#000000;stroke-linejoin:miter;"/>
   </g>
   <g id="patch_150">
    <path clip-path="url(#p188218b6aa)" d="
M1205.33 1944
L1210.91 1944
L1210.91 1271.43
L1205.33 1271.43
z
" style="fill:#0000ff;stroke:#000000;stroke-linejoin:miter;"/>
   </g>
   <g id="patch_151">
    <path clip-path="url(#p188218b6aa)" d="
M1212.3 1944
L1217.88 1944
L1217.88 1183.47
L1212.3 1183.47
z
" style="fill:#0000ff;stroke:#000000;stroke-linejoin:miter;"/>
   </g>
   <g id="patch_152">
    <path clip-path="url(#p188218b6aa)" d="
M1219.28 1944
L1224.86 1944
L1224.86 1012.59
L1219.28 1012.59
z
" style="fill:#0000ff;stroke:#000000;stroke-linejoin:miter;"/>
   </g>
   <g id="patch_153">
    <path clip-path="url(#p188218b6aa)" d="
M1226.25 1944
L1231.83 1944
L1231.83 1026.73
L1226.25 1026.73
z
" style="fill:#0000ff;stroke:#000000;stroke-linejoin:miter;"/>
   </g>
   <g id="patch_154">
    <path clip-path="url(#p188218b6aa)" d="
M1233.23 1944
L1238.81 1944
L1238.81 899.257
L1233.23 899.257
z
" style="fill:#0000ff;stroke:#000000;stroke-linejoin:miter;"/>
   </g>
   <g id="patch_155">
    <path clip-path="url(#p188218b6aa)" d="
M1240.2 1944
L1245.78 1944
L1245.78 739.618
L1240.2 739.618
z
" style="fill:#0000ff;stroke:#000000;stroke-linejoin:miter;"/>
   </g>
   <g id="patch_156">
    <path clip-path="url(#p188218b6aa)" d="
M1247.18 1944
L1252.76 1944
L1252.76 315.537
L1247.18 315.537
z
" style="fill:#0000ff;stroke:#000000;stroke-linejoin:miter;"/>
   </g>
   <g id="patch_157">
    <path d="
M180 1944
L180 216" style="fill:none;stroke:#000000;stroke-linecap:square;stroke-linejoin:miter;"/>
   </g>
   <g id="patch_158">
    <path d="
M1296 1944
L1296 216" style="fill:none;stroke:#000000;stroke-linecap:square;stroke-linejoin:miter;"/>
   </g>
   <g id="patch_159">
    <path d="
M180 216
L1296 216" style="fill:none;stroke:#000000;stroke-linecap:square;stroke-linejoin:miter;"/>
   </g>
   <g id="patch_160">
    <path d="
M180 1944
L1296 1944" style="fill:none;stroke:#000000;stroke-linecap:square;stroke-linejoin:miter;"/>
   </g>
   <g id="matplotlib.axis_1">
    <g id="xtick_1">
     <g id="line2d_1">
      <defs>
       <path d="
M0 0
L0 -4" id="mc7db9fdffb" style="stroke:#000000;stroke-width:0.5;"/>
      </defs>
      <g>
       <use style="stroke:#000000;stroke-width:0.5;" x="180.0" xlink:href="#mc7db9fdffb" y="1944.0"/>
      </g>
     </g>
     <g id="line2d_2">
      <defs>
       <path d="
M0 0
L0 4" id="m5a7d422ac3" style="stroke:#000000;stroke-width:0.5;"/>
      </defs>
      <g>
       <use style="stroke:#000000;stroke-width:0.5;" x="180.0" xlink:href="#m5a7d422ac3" y="216.0"/>
      </g>
     </g>
     <g id="text_1">
      <!-- 0 -->
      <defs>
       <path d="
M31.7812 66.4062
Q24.1719 66.4062 20.3281 58.9062
Q16.5 51.4219 16.5 36.375
Q16.5 21.3906 20.3281 13.8906
Q24.1719 6.39062 31.7812 6.39062
Q39.4531 6.39062 43.2812 13.8906
Q47.125 21.3906 47.125 36.375
Q47.125 51.4219 43.2812 58.9062
Q39.4531 66.4062 31.7812 66.4062
M31.7812 74.2188
Q44.0469 74.2188 50.5156 64.5156
Q56.9844 54.8281 56.9844 36.375
Q56.9844 17.9688 50.5156 8.26562
Q44.0469 -1.42188 31.7812 -1.42188
Q19.5312 -1.42188 13.0625 8.26562
Q6.59375 17.9688 6.59375 36.375
Q6.59375 54.8281 13.0625 64.5156
Q19.5312 74.2188 31.7812 74.2188" id="BitstreamVeraSans-Roman-30"/>
      </defs>
      <g transform="translate(176.9765625 1957.118125)scale(0.12 -0.12)">
       <use xlink:href="#BitstreamVeraSans-Roman-30"/>
      </g>
     </g>
    </g>
    <g id="xtick_2">
     <g id="line2d_3">
      <g>
       <use style="stroke:#000000;stroke-width:0.5;" x="319.5" xlink:href="#mc7db9fdffb" y="1944.0"/>
      </g>
     </g>
     <g id="line2d_4">
      <g>
       <use style="stroke:#000000;stroke-width:0.5;" x="319.5" xlink:href="#m5a7d422ac3" y="216.0"/>
      </g>
     </g>
     <g id="text_2">
      <!-- 20 -->
      <defs>
       <path d="
M19.1875 8.29688
L53.6094 8.29688
L53.6094 0
L7.32812 0
L7.32812 8.29688
Q12.9375 14.1094 22.625 23.8906
Q32.3281 33.6875 34.8125 36.5312
Q39.5469 41.8438 41.4219 45.5312
Q43.3125 49.2188 43.3125 52.7812
Q43.3125 58.5938 39.2344 62.25
Q35.1562 65.9219 28.6094 65.9219
Q23.9688 65.9219 18.8125 64.3125
Q13.6719 62.7031 7.8125 59.4219
L7.8125 69.3906
Q13.7656 71.7812 18.9375 73
Q24.125 74.2188 28.4219 74.2188
Q39.75 74.2188 46.4844 68.5469
Q53.2188 62.8906 53.2188 53.4219
Q53.2188 48.9219 51.5312 44.8906
Q49.8594 40.875 45.4062 35.4062
Q44.1875 33.9844 37.6406 27.2188
Q31.1094 20.4531 19.1875 8.29688" id="BitstreamVeraSans-Roman-32"/>
      </defs>
      <g transform="translate(312.703125 1957.118125)scale(0.12 -0.12)">
       <use xlink:href="#BitstreamVeraSans-Roman-32"/>
       <use x="63.623046875" xlink:href="#BitstreamVeraSans-Roman-30"/>
      </g>
     </g>
    </g>
    <g id="xtick_3">
     <g id="line2d_5">
      <g>
       <use style="stroke:#000000;stroke-width:0.5;" x="459.0" xlink:href="#mc7db9fdffb" y="1944.0"/>
      </g>
     </g>
     <g id="line2d_6">
      <g>
       <use style="stroke:#000000;stroke-width:0.5;" x="459.0" xlink:href="#m5a7d422ac3" y="216.0"/>
      </g>
     </g>
     <g id="text_3">
      <!-- 40 -->
      <defs>
       <path d="
M37.7969 64.3125
L12.8906 25.3906
L37.7969 25.3906
z

M35.2031 72.9062
L47.6094 72.9062
L47.6094 25.3906
L58.0156 25.3906
L58.0156 17.1875
L47.6094 17.1875
L47.6094 0
L37.7969 0
L37.7969 17.1875
L4.89062 17.1875
L4.89062 26.7031
z
" id="BitstreamVeraSans-Roman-34"/>
      </defs>
      <g transform="translate(452.056875 1957.118125)scale(0.12 -0.12)">
       <use xlink:href="#BitstreamVeraSans-Roman-34"/>
       <use x="63.623046875" xlink:href="#BitstreamVeraSans-Roman-30"/>
      </g>
     </g>
    </g>
    <g id="xtick_4">
     <g id="line2d_7">
      <g>
       <use style="stroke:#000000;stroke-width:0.5;" x="598.5" xlink:href="#mc7db9fdffb" y="1944.0"/>
      </g>
     </g>
     <g id="line2d_8">
      <g>
       <use style="stroke:#000000;stroke-width:0.5;" x="598.5" xlink:href="#m5a7d422ac3" y="216.0"/>
      </g>
     </g>
     <g id="text_4">
      <!-- 60 -->
      <defs>
       <path d="
M33.0156 40.375
Q26.375 40.375 22.4844 35.8281
Q18.6094 31.2969 18.6094 23.3906
Q18.6094 15.5312 22.4844 10.9531
Q26.375 6.39062 33.0156 6.39062
Q39.6562 6.39062 43.5312 10.9531
Q47.4062 15.5312 47.4062 23.3906
Q47.4062 31.2969 43.5312 35.8281
Q39.6562 40.375 33.0156 40.375
M52.5938 71.2969
L52.5938 62.3125
Q48.875 64.0625 45.0938 64.9844
Q41.3125 65.9219 37.5938 65.9219
Q27.8281 65.9219 22.6719 59.3281
Q17.5312 52.7344 16.7969 39.4062
Q19.6719 43.6562 24.0156 45.9219
Q28.375 48.1875 33.5938 48.1875
Q44.5781 48.1875 50.9531 41.5156
Q57.3281 34.8594 57.3281 23.3906
Q57.3281 12.1562 50.6875 5.35938
Q44.0469 -1.42188 33.0156 -1.42188
Q20.3594 -1.42188 13.6719 8.26562
Q6.98438 17.9688 6.98438 36.375
Q6.98438 53.6562 15.1875 63.9375
Q23.3906 74.2188 37.2031 74.2188
Q40.9219 74.2188 44.7031 73.4844
Q48.4844 72.75 52.5938 71.2969" id="BitstreamVeraSans-Roman-36"/>
      </defs>
      <g transform="translate(591.6825 1957.118125)scale(0.12 -0.12)">
       <use xlink:href="#BitstreamVeraSans-Roman-36"/>
       <use x="63.623046875" xlink:href="#BitstreamVeraSans-Roman-30"/>
      </g>
     </g>
    </g>
    <g id="xtick_5">
     <g id="line2d_9">
      <g>
       <use style="stroke:#000000;stroke-width:0.5;" x="738.0" xlink:href="#mc7db9fdffb" y="1944.0"/>
      </g>
     </g>
     <g id="line2d_10">
      <g>
       <use style="stroke:#000000;stroke-width:0.5;" x="738.0" xlink:href="#m5a7d422ac3" y="216.0"/>
      </g>
     </g>
     <g id="text_5">
      <!-- 80 -->
      <defs>
       <path d="
M31.7812 34.625
Q24.75 34.625 20.7188 30.8594
Q16.7031 27.0938 16.7031 20.5156
Q16.7031 13.9219 20.7188 10.1562
Q24.75 6.39062 31.7812 6.39062
Q38.8125 6.39062 42.8594 10.1719
Q46.9219 13.9688 46.9219 20.5156
Q46.9219 27.0938 42.8906 30.8594
Q38.875 34.625 31.7812 34.625
M21.9219 38.8125
Q15.5781 40.375 12.0312 44.7188
Q8.5 49.0781 8.5 55.3281
Q8.5 64.0625 14.7188 69.1406
Q20.9531 74.2188 31.7812 74.2188
Q42.6719 74.2188 48.875 69.1406
Q55.0781 64.0625 55.0781 55.3281
Q55.0781 49.0781 51.5312 44.7188
Q48 40.375 41.7031 38.8125
Q48.8281 37.1562 52.7969 32.3125
Q56.7812 27.4844 56.7812 20.5156
Q56.7812 9.90625 50.3125 4.23438
Q43.8438 -1.42188 31.7812 -1.42188
Q19.7344 -1.42188 13.25 4.23438
Q6.78125 9.90625 6.78125 20.5156
Q6.78125 27.4844 10.7812 32.3125
Q14.7969 37.1562 21.9219 38.8125
M18.3125 54.3906
Q18.3125 48.7344 21.8438 45.5625
Q25.3906 42.3906 31.7812 42.3906
Q38.1406 42.3906 41.7188 45.5625
Q45.3125 48.7344 45.3125 54.3906
Q45.3125 60.0625 41.7188 63.2344
Q38.1406 66.4062 31.7812 66.4062
Q25.3906 66.4062 21.8438 63.2344
Q18.3125 60.0625 18.3125 54.3906" id="BitstreamVeraSans-Roman-38"/>
      </defs>
      <g transform="translate(731.1703125 1957.118125)scale(0.12 -0.12)">
       <use xlink:href="#BitstreamVeraSans-Roman-38"/>
       <use x="63.623046875" xlink:href="#BitstreamVeraSans-Roman-30"/>
      </g>
     </g>
    </g>
    <g id="xtick_6">
     <g id="line2d_11">
      <g>
       <use style="stroke:#000000;stroke-width:0.5;" x="877.5" xlink:href="#mc7db9fdffb" y="1944.0"/>
      </g>
     </g>
     <g id="line2d_12">
      <g>
       <use style="stroke:#000000;stroke-width:0.5;" x="877.5" xlink:href="#m5a7d422ac3" y="216.0"/>
      </g>
     </g>
     <g id="text_6">
      <!-- 100 -->
      <defs>
       <path d="
M12.4062 8.29688
L28.5156 8.29688
L28.5156 63.9219
L10.9844 60.4062
L10.9844 69.3906
L28.4219 72.9062
L38.2812 72.9062
L38.2812 8.29688
L54.3906 8.29688
L54.3906 0
L12.4062 0
z
" id="BitstreamVeraSans-Roman-31"/>
      </defs>
      <g transform="translate(867.105 1957.118125)scale(0.12 -0.12)">
       <use xlink:href="#BitstreamVeraSans-Roman-31"/>
       <use x="63.623046875" xlink:href="#BitstreamVeraSans-Roman-30"/>
       <use x="127.24609375" xlink:href="#BitstreamVeraSans-Roman-30"/>
      </g>
     </g>
    </g>
    <g id="xtick_7">
     <g id="line2d_13">
      <g>
       <use style="stroke:#000000;stroke-width:0.5;" x="1017.0" xlink:href="#mc7db9fdffb" y="1944.0"/>
      </g>
     </g>
     <g id="line2d_14">
      <g>
       <use style="stroke:#000000;stroke-width:0.5;" x="1017.0" xlink:href="#m5a7d422ac3" y="216.0"/>
      </g>
     </g>
     <g id="text_7">
      <!-- 120 -->
      <g transform="translate(1006.605 1957.118125)scale(0.12 -0.12)">
       <use xlink:href="#BitstreamVeraSans-Roman-31"/>
       <use x="63.623046875" xlink:href="#BitstreamVeraSans-Roman-32"/>
       <use x="127.24609375" xlink:href="#BitstreamVeraSans-Roman-30"/>
      </g>
     </g>
    </g>
    <g id="xtick_8">
     <g id="line2d_15">
      <g>
       <use style="stroke:#000000;stroke-width:0.5;" x="1156.5" xlink:href="#mc7db9fdffb" y="1944.0"/>
      </g>
     </g>
     <g id="line2d_16">
      <g>
       <use style="stroke:#000000;stroke-width:0.5;" x="1156.5" xlink:href="#m5a7d422ac3" y="216.0"/>
      </g>
     </g>
     <g id="text_8">
      <!-- 140 -->
      <g transform="translate(1146.105 1957.118125)scale(0.12 -0.12)">
       <use xlink:href="#BitstreamVeraSans-Roman-31"/>
       <use x="63.623046875" xlink:href="#BitstreamVeraSans-Roman-34"/>
       <use x="127.24609375" xlink:href="#BitstreamVeraSans-Roman-30"/>
      </g>
     </g>
    </g>
    <g id="xtick_9">
     <g id="line2d_17">
      <g>
       <use style="stroke:#000000;stroke-width:0.5;" x="1296.0" xlink:href="#mc7db9fdffb" y="1944.0"/>
      </g>
     </g>
     <g id="line2d_18">
      <g>
       <use style="stroke:#000000;stroke-width:0.5;" x="1296.0" xlink:href="#m5a7d422ac3" y="216.0"/>
      </g>
     </g>
     <g id="text_9">
      <!-- 160 -->
      <g transform="translate(1285.605 1957.118125)scale(0.12 -0.12)">
       <use xlink:href="#BitstreamVeraSans-Roman-31"/>
       <use x="63.623046875" xlink:href="#BitstreamVeraSans-Roman-36"/>
       <use x="127.24609375" xlink:href="#BitstreamVeraSans-Roman-30"/>
      </g>
     </g>
    </g>
   </g>
   <g id="matplotlib.axis_2">
    <g id="ytick_1">
     <g id="line2d_19">
      <defs>
       <path d="
M0 0
L4 0" id="md7965d1ba0" style="stroke:#000000;stroke-width:0.5;"/>
      </defs>
      <g>
       <use style="stroke:#000000;stroke-width:0.5;" x="180.0" xlink:href="#md7965d1ba0" y="1944.0"/>
      </g>
     </g>
     <g id="line2d_20">
      <defs>
       <path d="
M0 0
L-4 0" id="md9a1c1a7cd" style="stroke:#000000;stroke-width:0.5;"/>
      </defs>
      <g>
       <use style="stroke:#000000;stroke-width:0.5;" x="1296.0" xlink:href="#md9a1c1a7cd" y="1944.0"/>
      </g>
     </g>
     <g id="text_10">
      <!-- 0.0 -->
      <defs>
       <path d="
M10.6875 12.4062
L21 12.4062
L21 0
L10.6875 0
z
" id="BitstreamVeraSans-Roman-2e"/>
      </defs>
      <g transform="translate(158.504375 1947.31125)scale(0.12 -0.12)">
       <use xlink:href="#BitstreamVeraSans-Roman-30"/>
       <use x="63.623046875" xlink:href="#BitstreamVeraSans-Roman-2e"/>
       <use x="95.41015625" xlink:href="#BitstreamVeraSans-Roman-30"/>
      </g>
     </g>
    </g>
    <g id="ytick_2">
     <g id="line2d_21">
      <g>
       <use style="stroke:#000000;stroke-width:0.5;" x="180.0" xlink:href="#md7965d1ba0" y="1598.4"/>
      </g>
     </g>
     <g id="line2d_22">
      <g>
       <use style="stroke:#000000;stroke-width:0.5;" x="1296.0" xlink:href="#md9a1c1a7cd" y="1598.4"/>
      </g>
     </g>
     <g id="text_11">
      <!-- 0.5 -->
      <defs>
       <path d="
M10.7969 72.9062
L49.5156 72.9062
L49.5156 64.5938
L19.8281 64.5938
L19.8281 46.7344
Q21.9688 47.4688 24.1094 47.8281
Q26.2656 48.1875 28.4219 48.1875
Q40.625 48.1875 47.75 41.5
Q54.8906 34.8125 54.8906 23.3906
Q54.8906 11.625 47.5625 5.09375
Q40.2344 -1.42188 26.9062 -1.42188
Q22.3125 -1.42188 17.5469 -0.640625
Q12.7969 0.140625 7.71875 1.70312
L7.71875 11.625
Q12.1094 9.23438 16.7969 8.0625
Q21.4844 6.89062 26.7031 6.89062
Q35.1562 6.89062 40.0781 11.3281
Q45.0156 15.7656 45.0156 23.3906
Q45.0156 31 40.0781 35.4375
Q35.1562 39.8906 26.7031 39.8906
Q22.75 39.8906 18.8125 39.0156
Q14.8906 38.1406 10.7969 36.2812
z
" id="BitstreamVeraSans-Roman-35"/>
      </defs>
      <g transform="translate(158.755625 1601.71125)scale(0.12 -0.12)">
       <use xlink:href="#BitstreamVeraSans-Roman-30"/>
       <use x="63.623046875" xlink:href="#BitstreamVeraSans-Roman-2e"/>
       <use x="95.41015625" xlink:href="#BitstreamVeraSans-Roman-35"/>
      </g>
     </g>
    </g>
    <g id="ytick_3">
     <g id="line2d_23">
      <g>
       <use style="stroke:#000000;stroke-width:0.5;" x="180.0" xlink:href="#md7965d1ba0" y="1252.8"/>
      </g>
     </g>
     <g id="line2d_24">
      <g>
       <use style="stroke:#000000;stroke-width:0.5;" x="1296.0" xlink:href="#md9a1c1a7cd" y="1252.8"/>
      </g>
     </g>
     <g id="text_12">
      <!-- 1.0 -->
      <g transform="translate(159.03125 1256.11125)scale(0.12 -0.12)">
       <use xlink:href="#BitstreamVeraSans-Roman-31"/>
       <use x="63.623046875" xlink:href="#BitstreamVeraSans-Roman-2e"/>
       <use x="95.41015625" xlink:href="#BitstreamVeraSans-Roman-30"/>
      </g>
     </g>
    </g>
    <g id="ytick_4">
     <g id="line2d_25">
      <g>
       <use style="stroke:#000000;stroke-width:0.5;" x="180.0" xlink:href="#md7965d1ba0" y="907.2"/>
      </g>
     </g>
     <g id="line2d_26">
      <g>
       <use style="stroke:#000000;stroke-width:0.5;" x="1296.0" xlink:href="#md9a1c1a7cd" y="907.2"/>
      </g>
     </g>
     <g id="text_13">
      <!-- 1.5 -->
      <g transform="translate(159.2825 910.51125)scale(0.12 -0.12)">
       <use xlink:href="#BitstreamVeraSans-Roman-31"/>
       <use x="63.623046875" xlink:href="#BitstreamVeraSans-Roman-2e"/>
       <use x="95.41015625" xlink:href="#BitstreamVeraSans-Roman-35"/>
      </g>
     </g>
    </g>
    <g id="ytick_5">
     <g id="line2d_27">
      <g>
       <use style="stroke:#000000;stroke-width:0.5;" x="180.0" xlink:href="#md7965d1ba0" y="561.6"/>
      </g>
     </g>
     <g id="line2d_28">
      <g>
       <use style="stroke:#000000;stroke-width:0.5;" x="1296.0" xlink:href="#md9a1c1a7cd" y="561.6"/>
      </g>
     </g>
     <g id="text_14">
      <!-- 2.0 -->
      <g transform="translate(158.5925 564.91125)scale(0.12 -0.12)">
       <use xlink:href="#BitstreamVeraSans-Roman-32"/>
       <use x="63.623046875" xlink:href="#BitstreamVeraSans-Roman-2e"/>
       <use x="95.41015625" xlink:href="#BitstreamVeraSans-Roman-30"/>
      </g>
     </g>
    </g>
    <g id="ytick_6">
     <g id="line2d_29">
      <g>
       <use style="stroke:#000000;stroke-width:0.5;" x="180.0" xlink:href="#md7965d1ba0" y="216.0"/>
      </g>
     </g>
     <g id="line2d_30">
      <g>
       <use style="stroke:#000000;stroke-width:0.5;" x="1296.0" xlink:href="#md9a1c1a7cd" y="216.0"/>
      </g>
     </g>
     <g id="text_15">
      <!-- 2.5 -->
      <g transform="translate(158.84375 219.31125)scale(0.12 -0.12)">
       <use xlink:href="#BitstreamVeraSans-Roman-32"/>
       <use x="63.623046875" xlink:href="#BitstreamVeraSans-Roman-2e"/>
       <use x="95.41015625" xlink:href="#BitstreamVeraSans-Roman-35"/>
      </g>
     </g>
    </g>
   </g>
  </g>
 </g>
 <defs>
  <clipPath id="p188218b6aa">
   <rect height="1728.0" width="1116.0" x="180.0" y="216.0"/>
  </clipPath>
 </defs>
</svg>
