<?xml version="1.0" encoding="utf-8" standalone="no"?>
<!DOCTYPE svg PUBLIC "-//W3C//DTD SVG 1.1//EN"
  "http://www.w3.org/Graphics/SVG/1.1/DTD/svg11.dtd">
<!-- Created with matplotlib (http://matplotlib.org/) -->
<svg height="432pt" version="1.1" viewBox="0 0 576 432" width="576pt" xmlns="http://www.w3.org/2000/svg" xmlns:xlink="http://www.w3.org/1999/xlink">
 <defs>
  <style type="text/css">
*{stroke-linecap:butt;stroke-linejoin:round;}
  </style>
 </defs>
 <g id="figure_1">
  <g id="patch_1">
   <path d="
M0 432
L576 432
L576 0
L0 0
z
" style="fill:#ffffff;"/>
  </g>
  <g id="axes_1">
   <g id="patch_2">
    <path d="
M72 388.8
L518.4 388.8
L518.4 43.2
L72 43.2
z
" style="fill:#ffffff;"/>
   </g>
   <g id="line2d_1">
    <path clip-path="url(#p7ff5b81e1d)" d="
M72 75.807
L72.2232 211.67
L72.6696 216.148
L73.7856 222.181
L74.4552 224.924
L75.5712 227.948
L76.464 230.107
L78.696 233.817
L79.1424 234.197
L79.5888 234.893
L79.812 235
L80.0352 234.914
L80.4816 235.781
L81.1512 236.268
L82.044 237.095
L82.2672 237.116
L82.4904 237.307
L82.7136 237.716
L83.16 237.777
L84.9456 239.017
L85.1688 238.814
L85.392 238.958
L85.6152 239.252
L85.8384 239.307
L86.0616 239.587
L86.508 239.533
L86.7312 239.555
L86.9544 239.993
L87.1776 239.918
L87.624 240.097
L88.0704 240.192
L88.2936 240.374
L88.74 240.324
L88.9632 240.696
L89.1864 240.672
L89.4096 240.909
L89.6328 240.643
L89.856 240.979
L90.0792 240.538
L90.5256 241.195
L90.972 241.329
L91.4184 241.349
L91.6416 241.55
L91.8648 241.403
L92.088 241.582
L92.3112 241.613
L92.5344 241.758
L92.7576 241.639
L93.204 241.896
L93.6504 241.924
L93.8736 241.655
L94.0968 242.065
L94.32 241.987
L94.5432 242.176
L94.9896 242.222
L95.2128 242.136
L95.436 242.433
L95.6592 242.484
L95.8824 242.236
L96.3288 242.369
L97.2216 242.774
L97.4448 242.743
L97.668 242.864
L97.8912 242.647
L98.1144 242.755
L98.3376 242.99
L99.0072 243.081
L99.2304 242.821
L99.4536 243.09
L100.123 243.214
L100.346 243.363
L100.57 243.322
L100.793 243.406
L101.016 243.294
L101.239 243.625
L101.462 243.416
L101.686 243.497
L101.909 243.452
L102.355 243.678
L103.248 243.682
L103.471 244.013
L103.694 244.048
L103.918 243.862
L104.141 243.831
L104.364 244.078
L104.587 244.155
L105.034 244.082
L105.257 244.208
L105.926 244.22
L106.15 244.378
L106.373 243.914
L106.596 244.468
L107.266 244.478
L107.489 244.399
L107.712 244.696
L108.158 244.779
L108.382 244.873
L108.605 244.801
L109.051 244.86
L109.274 244.817
L109.498 244.937
L109.721 244.554
L109.944 245.08
L110.39 245.13
L110.614 244.91
L111.06 245.389
L111.506 245.244
L111.73 245.436
L111.953 245.423
L112.622 245.629
L113.069 245.711
L113.515 245.885
L113.738 245.768
L114.408 245.937
L114.631 245.9
L114.854 246.153
L115.301 246.079
L115.524 245.956
L115.747 246.22
L115.97 246.212
L116.417 246.519
L116.863 246.334
L117.086 246.687
L117.31 246.546
L117.533 246.537
L118.202 246.835
L118.872 246.759
L119.095 246.937
L119.542 247.001
L119.988 247.198
L120.434 247.129
L120.658 247.405
L120.881 247.279
L121.327 247.364
L121.55 247.577
L122.22 247.595
L122.666 247.73
L122.89 247.678
L123.113 247.789
L123.336 248.06
L123.559 247.95
L123.782 248.117
L124.006 247.943
L124.229 248.012
L124.452 248.201
L124.675 248.01
L124.898 248.256
L125.345 248.205
L125.568 248.341
L125.791 248.299
L126.014 248.476
L126.461 248.319
L126.684 248.621
L127.13 248.603
L127.8 248.693
L128.47 248.927
L128.916 248.678
L129.139 248.917
L129.586 249.112
L129.809 248.723
L130.032 249.268
L130.255 249.125
L130.478 249.238
L130.702 249.132
L131.148 249.543
L131.371 249.347
L131.594 249.574
L131.818 249.493
L132.041 249.557
L132.264 249.441
L132.487 249.717
L132.71 249.76
L132.934 249.643
L133.157 249.875
L133.826 249.867
L134.05 249.861
L134.496 250.032
L134.719 249.977
L135.389 250.266
L136.058 250.304
L136.282 250.469
L136.505 249.865
L136.728 250.525
L136.951 250.26
L137.174 250.499
L137.398 250.052
L137.844 250.657
L138.067 250.677
L138.29 250.478
L138.514 250.804
L138.737 250.656
L138.96 250.68
L139.406 250.87
L139.853 250.849
L140.299 251.055
L140.522 250.995
L140.969 251.232
L141.192 250.999
L141.415 251.23
L142.531 251.509
L142.978 251.463
L143.201 251.557
L143.647 251.27
L144.54 251.745
L144.763 251.818
L144.986 251.727
L145.21 251.777
L145.433 251.966
L145.656 251.915
L146.102 252.066
L146.772 251.901
L146.995 252.149
L147.218 251.978
L147.665 252.079
L148.111 252.359
L148.558 252.286
L148.781 252.526
L149.227 252.35
L149.45 251.862
L149.674 252.575
L150.12 252.541
L150.343 252.434
L150.79 252.56
L151.013 252.804
L151.236 252.111
L151.459 252.707
L151.682 252.845
L151.906 252.685
L152.129 252.884
L152.352 252.344
L152.798 252.969
L153.245 253.181
L153.468 252.816
L153.691 253.248
L154.138 252.919
L154.361 253.216
L154.584 252.737
L154.807 253.187
L155.254 253.341
L155.923 253.284
L156.146 253.46
L156.37 253.377
L156.593 253.654
L156.816 253.41
L157.039 253.629
L157.262 253.503
L157.932 253.821
L158.602 253.78
L158.825 253.917
L159.048 253.831
L159.271 254.039
L159.494 253.88
L159.718 254.018
L159.941 253.819
L160.834 254.172
L161.503 254.073
L161.726 254.243
L162.173 254.177
L162.619 254.421
L162.842 254.621
L163.066 254.156
L163.289 254.348
L163.958 254.408
L164.182 254.456
L164.405 254.658
L164.851 254.563
L165.074 254.847
L165.298 254.579
L165.744 254.915
L165.967 254.845
L166.19 254.926
L166.414 254.69
L166.637 254.914
L166.86 254.797
L167.083 255.04
L167.306 254.934
L167.753 255.061
L167.976 255.037
L168.199 255.222
L168.422 255.009
L168.646 255.144
L169.092 255.156
L169.315 255.345
L169.538 255.232
L170.208 255.32
L170.431 255.194
L170.878 255.57
L171.101 255.278
L171.77 255.666
L172.217 255.425
L172.663 255.473
L173.11 255.831
L173.556 255.728
L173.779 255.852
L174.002 255.679
L174.226 255.793
L174.672 255.843
L175.342 255.787
L175.788 256.139
L176.011 256.081
L176.234 255.806
L176.458 256.224
L176.681 255.984
L177.127 256.422
L177.35 256.278
L177.797 256.349
L178.02 256.171
L178.466 256.394
L178.69 256.305
L178.913 256.383
L179.136 256.172
L180.029 256.47
L180.475 256.566
L180.698 256.212
L180.922 256.577
L181.368 256.773
L181.814 256.354
L182.038 256.728
L182.484 256.793
L182.707 256.979
L183.154 256.742
L183.823 256.847
L184.046 257.073
L184.939 256.62
L185.162 257.098
L185.386 256.931
L185.609 257.276
L186.055 256.952
L186.278 257.099
L186.502 256.934
L186.725 257.348
L186.948 257.115
L187.394 257.338
L187.841 257.456
L188.064 257.344
L188.287 257.383
L188.51 257.288
L188.734 257.537
L188.957 257.212
L189.18 257.616
L189.403 257.486
L189.85 257.586
L190.073 257.599
L190.296 257.243
L190.519 257.649
L190.742 257.659
L190.966 257.46
L191.189 257.733
L191.635 257.688
L191.858 257.517
L192.082 257.755
L192.751 257.963
L192.974 257.779
L193.198 257.756
L193.421 258.062
L193.644 257.943
L193.867 257.655
L194.09 257.944
L194.76 257.937
L195.206 258.147
L195.653 258.055
L195.876 258.218
L196.322 258.004
L196.546 258.271
L196.992 258.12
L197.215 258.339
L197.438 258.21
L197.662 258.3
L197.885 258.161
L198.108 258.368
L198.331 258.296
L198.778 258.348
L199.001 258.368
L199.224 258.219
L199.447 258.381
L199.894 258.397
L200.117 258.631
L200.34 258.411
L200.563 257.811
L200.786 258.693
L201.01 258.719
L201.233 258.481
L201.456 258.812
L201.902 258.663
L202.126 258.409
L202.349 258.375
L202.572 258.842
L203.018 258.806
L203.242 259.014
L203.688 258.898
L203.911 258.934
L204.358 258.826
L204.581 258.792
L205.027 259.098
L205.474 258.737
L205.92 259.103
L206.143 259.279
L206.59 259.037
L206.813 259.152
L207.036 259
L207.259 259.216
L207.482 259.15
L207.706 258.719
L207.929 259.211
L208.152 259.247
L208.375 259.155
L208.598 259.331
L208.822 259.113
L209.045 259.344
L209.714 259.213
L209.938 259.148
L210.384 259.412
L210.83 259.572
L211.054 259.458
L211.277 259.671
L211.5 259.392
L211.723 259.614
L212.17 259.332
L212.393 259.534
L212.839 259.536
L213.062 259.699
L213.509 259.512
L213.732 259.751
L213.955 259.512
L214.402 259.71
L214.625 259.55
L214.848 259.808
L215.071 259.705
L215.294 259.999
L215.741 259.764
L216.187 259.903
L216.634 259.823
L217.303 260.032
L218.196 259.935
L218.866 260.156
L219.312 259.783
L219.535 260.219
L219.758 260.076
L219.982 260.159
L220.651 260.137
L221.098 260.333
L221.321 260.225
L221.99 260.395
L222.214 260.221
L222.437 260.416
L222.66 260.222
L222.883 260.504
L223.106 260.348
L223.33 260.469
L223.553 260.339
L224.222 260.502
L224.446 260.615
L224.669 260.419
L225.115 260.553
L225.338 260.603
L225.562 260.519
L225.785 260.632
L226.008 260.501
L226.231 260.643
L226.454 260.445
L226.901 260.292
L227.124 260.677
L227.347 260.512
L227.794 260.918
L228.017 260.475
L228.24 260.817
L228.463 260.782
L228.686 260.927
L228.91 260.756
L229.133 260.972
L229.579 260.639
L229.802 260.861
L230.026 260.8
L230.249 260.944
L231.365 260.818
L231.588 261.049
L231.811 260.845
L232.034 261.008
L232.704 260.983
L233.15 261.115
L233.597 260.959
L233.82 261.347
L234.043 261.041
L234.266 261.218
L234.713 260.926
L235.159 261.283
L235.382 261.143
L235.606 260.869
L235.829 261.253
L236.275 261.075
L236.498 261.457
L236.945 261.122
L237.391 261.538
L237.614 261.142
L237.838 261.421
L238.061 261.259
L238.284 261.521
L238.73 261.323
L238.954 261.576
L239.4 261.451
L239.623 261.563
L240.07 261.372
L240.293 261.616
L240.516 261.599
L240.739 261.703
L240.962 261.275
L241.186 261.694
L241.409 261.628
L241.632 261.741
L242.078 261.511
L242.302 261.742
L242.525 261.73
L242.748 261.939
L242.971 261.666
L243.194 260.328
L243.418 261.458
L243.641 261.606
L243.864 261.106
L244.087 261.677
L244.31 261.807
L244.534 261.675
L244.98 261.783
L245.203 261.713
L245.426 261.951
L245.65 261.81
L246.542 262.051
L247.212 261.656
L247.435 262.064
L247.658 262.176
L248.105 261.921
L248.328 261.955
L248.551 262.17
L248.774 261.91
L249.221 262.163
L249.444 262.212
L249.667 261.877
L249.89 262.222
L250.114 262.039
L250.337 262.096
L250.783 262.007
L251.006 262.074
L251.23 262.308
L251.453 262.295
L251.676 262.116
L252.122 262.221
L252.569 262.092
L252.792 262.304
L253.238 262.233
L253.685 262.392
L253.908 262.327
L254.131 262.52
L254.354 262.195
L254.578 262.412
L255.024 262.353
L255.247 262.471
L255.47 262.337
L255.694 262.348
L255.917 262.547
L256.14 262.235
L256.363 262.549
L256.586 262.007
L256.81 262.457
L257.033 262.604
L257.926 262.504
L258.149 262.688
L258.372 262.591
L258.595 262.117
L258.818 262.353
L259.042 262.33
L259.265 262.603
L259.488 262.501
L259.711 262.686
L259.934 262.327
L260.158 262.411
L260.604 262.84
L260.827 262.948
L261.05 262.781
L261.274 262.866
L261.72 262.437
L261.943 262.49
L262.166 262.813
L262.39 262.763
L262.613 262.879
L263.059 262.561
L263.282 262.936
L263.729 262.727
L263.952 263.007
L264.175 262.431
L264.398 263.049
L265.068 262.846
L265.738 262.724
L265.961 263.049
L266.184 263.006
L266.407 263.116
L266.854 262.899
L267.746 263.127
L268.416 262.99
L268.862 263.343
L269.086 263.315
L269.309 263.081
L269.532 263.35
L269.755 262.831
L269.978 263.117
L270.202 263.102
L270.425 263.327
L270.648 262.8
L270.871 263.444
L271.094 263.324
L271.318 262.984
L271.764 263.334
L272.434 263.336
L272.657 262.92
L272.88 263.425
L273.326 263.348
L273.55 263.087
L273.996 263.353
L274.219 263.409
L274.442 263.236
L274.666 263.506
L275.335 263.471
L275.558 263.294
L276.005 263.614
L276.451 263.468
L276.674 263.603
L276.898 263.091
L277.121 263.435
L277.567 263.331
L277.79 263.731
L278.014 263.699
L278.237 263.542
L278.46 263.691
L279.576 263.787
L279.799 263.521
L280.022 263.748
L280.692 263.852
L280.915 263.639
L281.138 263.874
L281.585 263.78
L281.808 263.564
L282.031 263.824
L283.594 263.522
L283.817 263.77
L284.04 263.693
L284.486 263.817
L284.933 263.637
L285.156 263.86
L285.379 263.775
L285.602 264.108
L285.826 264.137
L286.049 263.973
L286.272 263.259
L286.495 263.488
L286.718 263.964
L286.942 264.09
L287.165 263.637
L287.388 264.084
L287.611 264.02
L287.834 264.139
L288.281 263.645
L288.504 264.07
L288.727 264.148
L288.95 263.517
L289.174 264.083
L289.843 263.376
L290.066 264.179
L290.736 264.335
L290.959 264.097
L291.182 264.144
L291.406 263.849
L291.629 264.043
L291.852 263.905
L292.075 264.316
L292.298 264.216
L292.522 264.297
L292.745 264.211
L293.191 264.308
L293.414 264.151
L293.861 264.152
L294.084 264.533
L294.307 264.169
L294.53 264.19
L294.754 264.625
L294.977 264.27
L295.423 264.315
L295.646 264.375
L295.87 264.559
L296.093 264.33
L296.316 264.577
L296.539 264.381
L296.762 264.405
L296.986 264.271
L297.209 264.282
L297.432 263.645
L297.655 264.342
L298.102 264.599
L298.325 263.679
L298.548 264.59
L298.994 264.285
L299.218 264.739
L299.441 264.038
L299.664 264.599
L299.887 264.506
L300.11 264.696
L300.78 264.313
L301.226 264.64
L301.45 264.39
L301.673 264.644
L301.896 264.063
L302.119 264.654
L302.789 264.799
L303.012 264.476
L303.235 264.701
L303.458 264.492
L303.682 264.821
L303.905 264.781
L304.128 264.443
L304.351 264.837
L304.574 264.665
L304.798 264.834
L305.021 264.539
L305.244 264.819
L305.467 264.304
L305.69 264.753
L306.36 264.954
L307.253 264.394
L307.476 264.894
L308.146 264.904
L308.369 265.114
L308.592 264.35
L309.038 264.927
L309.262 264.821
L309.485 264.965
L309.931 264.915
L310.154 265.064
L310.601 264.44
L310.824 264.949
L311.047 265.008
L311.27 264.876
L311.494 264.566
L311.717 265.115
L312.163 264.877
L312.61 265.107
L312.833 264.902
L313.502 265.093
L313.726 264.795
L313.949 265.261
L314.172 264.475
L314.842 265.373
L315.288 265.124
L315.511 265.316
L315.734 265.028
L315.958 265.068
L316.181 264.899
L316.404 264.976
L316.627 264.895
L316.85 265.413
L317.074 264.573
L317.297 265.175
L317.52 265.094
L317.743 265.357
L317.966 265.399
L318.19 264.786
L318.413 265.333
L318.636 265.262
L318.859 265.059
L319.082 265.115
L319.306 264.955
L319.752 265.501
L319.975 265.186
L320.198 265.282
L320.422 265.101
L320.645 265.434
L320.868 265.205
L321.091 265.433
L321.314 265.066
L321.761 265.569
L321.984 265.201
L322.207 265.13
L322.43 265.569
L322.654 265.407
L322.877 265.547
L323.323 265.173
L323.546 265.456
L323.77 264.992
L323.993 265.536
L324.439 265.304
L324.662 265.64
L324.886 265.603
L325.109 264.669
L325.332 265.393
L325.555 265.664
L325.778 265.252
L326.002 265.199
L326.225 265.491
L326.448 265.294
L326.671 265.843
L327.118 265.429
L327.341 265.394
L327.564 265.667
L327.787 265.313
L328.01 265.45
L328.457 265.256
L328.903 265.768
L329.126 265.489
L329.35 265.601
L330.242 265.493
L330.466 265.706
L330.689 265.539
L330.912 266.027
L331.358 265.665
L331.582 265.933
L332.251 265.592
L332.921 265.951
L333.144 265.536
L333.367 265.837
L333.59 265.857
L333.814 265.628
L334.037 265.68
L334.26 265.86
L334.483 265.708
L334.93 265.929
L335.599 265.716
L335.822 265.619
L336.269 266.068
L336.715 265.198
L337.162 265.919
L337.385 265.786
L337.608 265.913
L338.054 265.834
L338.278 264.68
L338.501 266.142
L338.947 265.759
L339.17 266.192
L339.394 266.044
L339.617 266.156
L339.84 265.865
L340.286 265.751
L340.51 266.034
L340.733 266.077
L340.956 265.966
L341.179 265.334
L341.402 266.06
L341.626 265.887
L342.295 266.321
L342.518 265.964
L342.742 265.932
L342.965 266.177
L343.188 265.626
L343.411 265.912
L343.634 265.953
L344.081 266.272
L344.304 266.055
L344.75 265.995
L344.974 265.865
L345.197 266.278
L345.42 266.251
L345.643 265.89
L346.313 266.165
L346.536 266.023
L346.759 266.133
L346.982 266.105
L347.206 266.433
L347.429 265.97
L347.652 266.015
L347.875 266.177
L348.098 265.893
L348.322 266.363
L348.545 266.098
L349.438 266.107
L349.661 266.377
L350.107 265.996
L350.554 266.366
L351 266.212
L351.223 266.49
L351.67 266.36
L352.116 266.489
L352.339 266.197
L352.562 266.351
L352.786 266.308
L353.009 266.597
L353.232 266.055
L353.678 266.35
L354.125 265.718
L354.348 265.631
L355.018 266.754
L355.464 266.342
L356.134 266.621
L356.58 266.444
L356.803 266.705
L357.026 266.671
L357.473 266.166
L357.696 266.684
L358.142 266.416
L358.366 266.605
L359.035 266.816
L359.482 266.491
L359.928 266.534
L360.151 266.131
L360.374 266.673
L360.598 266.644
L360.821 266.352
L361.044 265.845
L361.267 266.897
L361.49 266.246
L361.714 266.858
L361.937 266.476
L362.16 266.398
L362.383 266.69
L362.83 266.816
L363.053 266.008
L363.499 266.562
L363.946 266.734
L364.169 266.236
L364.392 266.417
L364.615 266.843
L364.838 266.425
L365.062 266.351
L365.285 266.678
L365.954 266.635
L366.178 266.665
L366.401 266.825
L366.624 266.593
L367.07 267
L367.517 266.934
L367.74 266.657
L368.633 266.934
L368.856 267.021
L369.079 266.674
L369.302 267.115
L369.526 266.898
L369.749 267.14
L369.972 267.187
L370.418 266.874
L370.642 266.191
L370.865 266.925
L371.088 266.924
L371.311 267.039
L371.534 266.445
L371.758 267.057
L371.981 266.494
L372.204 266.597
L372.427 266.871
L372.65 266.691
L372.874 266.687
L373.32 266.975
L373.766 267.171
L373.99 266.78
L374.436 266.957
L374.659 267.24
L374.882 267.135
L375.106 266.575
L375.329 266.916
L375.775 266.997
L375.998 266.92
L376.222 267.103
L376.445 267.047
L376.668 266.602
L376.891 267.235
L377.114 267.131
L377.338 266.644
L377.561 266.996
L377.784 267.032
L378.23 267.355
L378.454 266.565
L378.677 267.231
L378.9 266.898
L379.123 267.404
L379.346 266.706
L379.57 267.088
L380.016 267.266
L380.239 267.076
L380.462 267.318
L380.686 267.145
L380.909 266.731
L381.132 267.21
L381.355 266.833
L381.802 267.452
L382.025 266.832
L382.248 267.494
L382.471 267.003
L382.694 267.341
L382.918 267.293
L383.364 267.439
L383.587 266.953
L383.81 267.342
L384.034 267.059
L384.48 267.554
L384.703 267.329
L384.926 266.736
L385.15 267.143
L385.596 267.185
L385.819 267.122
L386.042 267.416
L386.266 267.1
L386.489 267.553
L386.712 267.436
L386.935 267.106
L387.158 267.491
L387.605 267.142
L387.828 267.539
L388.051 267.419
L388.274 266.904
L388.498 267.468
L388.944 267.098
L389.167 267.07
L389.39 267.444
L389.837 267.432
L390.06 267.156
L390.283 267.52
L390.506 267.646
L390.73 267.307
L390.953 267.375
L391.176 265.971
L391.399 267.622
L391.622 267.594
L392.069 267.321
L392.292 267.258
L392.515 267.723
L392.738 267.104
L392.962 267.835
L393.185 267.635
L393.408 267.703
L393.631 267.283
L393.854 267.607
L394.078 267.687
L394.524 267.44
L394.97 267.134
L395.194 267.631
L395.417 267.452
L395.64 267.615
L396.31 267.793
L396.533 267.443
L396.756 267.712
L396.979 267.406
L397.202 267.723
L397.426 267.624
L397.649 267.155
L398.095 267.814
L398.318 267.695
L398.542 267.719
L398.765 266.97
L398.988 267.185
L399.211 267.808
L399.434 267.185
L399.881 267.657
L400.104 267.767
L400.327 267.476
L400.55 267.491
L400.774 267.667
L401.22 267.723
L401.666 267.772
L401.89 267.701
L402.113 267.968
L402.336 267.984
L402.782 267.639
L403.452 268.053
L403.675 267.287
L403.898 267.86
L404.122 267.072
L404.568 267.902
L404.791 267.829
L405.014 267.972
L405.238 267.581
L405.461 267.812
L405.684 267.631
L405.907 267.768
L406.13 267.399
L406.354 267.863
L406.577 267.387
L406.8 267.674
L407.023 268.204
L407.246 267.828
L407.693 267.983
L407.916 267.897
L408.139 267.444
L408.362 267.862
L409.255 267.944
L409.478 267.665
L409.702 267.998
L409.925 267.909
L410.148 267.671
L410.371 268.105
L410.818 267.758
L411.041 267.704
L411.264 268.107
L411.71 267.706
L411.934 268.03
L412.38 268.027
L412.826 267.72
L413.05 267.938
L413.273 267.997
L413.496 268.209
L413.719 268.018
L414.166 267.968
L414.389 267.777
L414.835 267.94
L415.058 267.367
L415.282 268.358
L415.505 267.807
L415.728 268.109
L415.951 267.779
L416.174 267.936
L416.398 267.952
L416.844 268.157
L417.067 268.261
L417.29 268.034
L417.514 268.245
L417.737 268.273
L417.96 268.023
L418.183 267.389
L418.406 268.095
L418.63 268.218
L419.076 268.056
L419.522 268.279
L419.746 267.986
L419.969 267.937
L420.192 266.857
L420.415 268.268
L421.085 268.349
L421.531 267.856
L421.754 267.054
L421.978 268.316
L422.201 268.103
L422.424 268.221
L422.647 268.197
L422.87 268.042
L423.094 268.104
L423.317 268.333
L423.54 268.399
L423.763 268.31
L423.986 268.021
L424.656 268.238
L424.879 267.863
L425.102 268.391
L425.326 268.134
L425.549 268.466
L425.995 268.39
L426.218 268.116
L426.665 268.09
L426.888 267.482
L427.111 268.02
L427.334 268.091
L427.558 267.608
L427.781 268.347
L428.004 268.266
L428.227 268.449
L428.45 268.335
L428.897 268.493
L429.12 268.279
L429.566 268.577
L430.013 268.071
L430.236 267.933
L430.459 268.612
L430.682 268.556
L430.906 267.875
L431.129 268.557
L431.352 268.098
L431.798 268.403
L432.022 268.058
L432.245 268.222
L432.468 268.758
L432.691 268.487
L432.914 268.426
L433.138 268.163
L433.584 268.615
L433.807 268.51
L434.03 268.195
L434.254 268.568
L434.477 268.502
L434.7 268.254
L434.923 268.727
L435.146 268.511
L435.37 268.703
L435.593 268.164
L436.039 268.493
L436.262 268.375
L436.709 268.539
L437.155 268.734
L437.378 268.384
L437.602 268.73
L437.825 268.509
L438.271 268.668
L438.494 268.558
L438.941 268.733
L439.164 268.511
L439.387 267.598
L439.61 268.779
L439.834 268.802
L440.28 268.569
L440.503 268.824
L440.726 268.543
L441.396 268.659
L441.619 268.084
L441.842 268.662
L442.066 268.656
L442.289 268.113
L442.735 268.271
L442.958 268.583
L443.182 268.412
L443.405 268.869
L443.628 268.782
L443.851 268.141
L444.298 268.813
L444.521 268.586
L444.744 268.973
L444.967 268.871
L445.19 268.491
L445.414 268.465
L445.637 268.746
L446.083 268.649
L446.306 268.747
L446.53 268.561
L446.976 268.946
L447.199 268.902
L447.422 268.704
L447.646 268.814
L447.869 268.658
L448.315 268.621
L448.538 268.475
L448.985 268.533
L449.208 269.02
L449.431 268.69
L449.654 268.944
L449.878 268.704
L450.101 268.99
L450.324 269.03
L450.547 268.829
L450.77 268.909
L450.994 268.74
L451.217 268.939
L451.663 268.465
L451.886 268.783
L452.11 268.643
L452.333 268.845
L452.779 268.536
L453.226 268.823
L453.449 268.668
L453.672 268.982
L453.895 268.284
L454.118 268.292
L454.342 268.888
L454.565 268.833
L454.788 269.041
L455.011 268.736
L455.681 269.08
L456.127 268.589
L456.35 268.923
L456.574 268.765
L456.797 268.948
L457.02 268.878
L457.243 269.136
L457.69 268.402
L457.913 268.93
L458.136 268.721
L458.359 269.112
L458.582 268.803
L459.029 268.899
L459.252 268.879
L459.475 268.994
L459.698 268.92
L459.922 269.016
L460.145 269.267
L460.814 268.93
L461.038 269.215
L461.484 268.746
L461.707 269.19
L461.93 268.611
L462.377 269.116
L462.6 269.071
L462.823 269.29
L463.046 269.132
L463.27 269.209
L463.493 268.858
L463.716 268.856
L463.939 268.286
L464.386 269.051
L464.609 269.008
L464.832 269.102
L465.055 268.914
L465.278 269.016
L465.725 268.879
L465.948 269.087
L466.171 269.054
L466.394 269.207
L466.618 269.194
L466.841 269.315
L467.064 268.824
L467.287 269.382
L467.51 269.227
L467.734 268.636
L467.957 269.119
L468.403 269.001
L468.626 269.418
L468.85 268.983
L469.073 268.903
L469.296 269.26
L469.519 268.791
L469.742 269.445
L470.189 268.295
L470.412 269.028
L470.635 268.925
L470.858 269.348
L471.082 269.362
L471.305 269.084
L471.528 269.425
L471.751 269.146
L471.974 269.077
L472.421 269.464
L472.644 268.75
L472.644 268.75" style="fill:none;stroke:#0000ff;stroke-linecap:square;"/>
   </g>
   <g id="line2d_2">
    <path clip-path="url(#p7ff5b81e1d)" d="
M72 75.8381
L72.2232 209.558
L72.6696 213.18
L74.0088 220.339
L74.6784 222.378
L74.9016 222.715
L75.348 224.292
L75.5712 224.554
L75.7944 225.433
L76.9104 227.446
L77.3568 228.421
L77.58 228.561
L77.8032 228.999
L78.0264 229.125
L78.4728 229.792
L78.696 230.289
L79.1424 230.566
L79.3656 231.137
L79.812 231.436
L80.0352 231.399
L80.4816 232.284
L80.928 232.473
L81.3744 232.974
L81.5976 232.965
L82.044 233.492
L82.2672 233.439
L82.9368 234.073
L83.3832 234.235
L84.276 234.959
L84.7224 235.041
L84.9456 235.326
L85.1688 235.09
L85.392 235.211
L85.6152 235.506
L85.8384 235.465
L86.0616 235.859
L86.7312 235.778
L86.9544 236.199
L87.1776 236.145
L87.4008 236.287
L88.0704 236.376
L88.2936 236.542
L88.74 236.485
L88.9632 236.786
L89.1864 236.749
L89.4096 236.944
L89.6328 236.653
L89.856 237.009
L90.0792 236.663
L90.5256 237.267
L90.972 237.384
L91.4184 237.364
L91.6416 237.514
L91.8648 237.415
L92.3112 237.609
L92.5344 237.679
L92.7576 237.568
L93.204 237.826
L93.6504 237.807
L93.8736 237.592
L94.0968 237.956
L94.32 237.741
L94.5432 238.026
L94.7664 237.958
L94.9896 238.052
L95.2128 237.933
L95.436 238.169
L95.6592 238.229
L95.8824 237.978
L96.552 238.2
L96.7752 238.368
L98.1144 238.393
L98.5608 238.595
L98.784 238.523
L99.0072 238.626
L99.2304 238.428
L99.4536 238.611
L99.6768 238.516
L100.346 238.755
L100.57 238.686
L100.793 238.743
L101.016 238.679
L101.239 238.915
L101.462 238.754
L101.686 238.789
L101.909 238.694
L102.132 238.928
L103.248 238.918
L103.471 239.139
L103.694 239.146
L104.141 238.942
L104.364 239.176
L105.034 239.053
L105.48 239.248
L105.926 239.205
L106.15 239.317
L106.373 238.803
L106.596 239.341
L107.489 239.208
L107.712 239.523
L107.935 239.473
L108.158 239.612
L109.274 239.54
L109.498 239.655
L109.721 239.29
L109.944 239.756
L110.167 239.614
L110.39 239.762
L110.614 239.58
L110.837 239.885
L111.06 239.956
L111.506 239.799
L111.953 239.922
L113.069 240.191
L113.515 240.319
L113.738 240.218
L113.962 240.29
L114.408 240.264
L114.631 240.273
L115.078 240.481
L115.524 240.364
L115.747 240.53
L115.97 240.489
L116.417 240.797
L116.863 240.69
L117.086 240.861
L117.31 240.762
L118.202 240.982
L118.872 240.911
L119.318 241.088
L120.434 241.17
L120.881 241.409
L121.327 241.272
L121.55 241.476
L122.22 241.367
L122.443 241.559
L122.89 241.562
L123.113 241.486
L123.336 241.83
L123.559 241.587
L123.782 241.78
L124.229 241.586
L124.452 241.832
L124.675 241.742
L124.898 241.788
L125.345 241.688
L125.568 241.844
L125.791 241.754
L126.014 241.962
L126.238 241.852
L128.47 242.065
L128.916 241.901
L129.139 242.161
L129.362 242.059
L129.586 242.121
L129.809 241.831
L130.032 242.29
L130.255 242.117
L130.478 242.337
L130.702 242.17
L131.148 242.395
L131.371 242.237
L131.594 242.441
L132.264 242.198
L132.487 242.495
L132.71 242.509
L132.934 242.334
L133.38 242.607
L134.05 242.465
L134.496 242.598
L134.719 242.432
L134.942 242.542
L135.166 242.487
L135.389 242.607
L136.058 242.551
L136.282 242.735
L136.505 242.198
L136.728 242.653
L136.951 242.546
L137.174 242.598
L137.398 242.387
L137.621 242.596
L138.29 242.602
L138.514 242.815
L139.183 242.606
L139.63 242.66
L139.853 242.611
L140.299 242.807
L140.746 242.695
L141.415 242.775
L141.638 242.657
L141.862 242.792
L142.085 242.705
L142.308 242.827
L142.531 242.718
L142.754 242.761
L142.978 242.648
L143.201 242.83
L143.424 242.848
L143.647 242.436
L144.094 242.91
L144.54 242.777
L144.986 242.857
L145.21 242.709
L145.433 242.862
L145.656 242.754
L146.326 242.864
L146.549 242.613
L146.772 242.611
L146.995 242.869
L147.218 242.591
L148.111 242.845
L148.334 242.629
L149.004 242.808
L149.227 242.56
L149.45 242.578
L149.897 242.802
L150.343 242.734
L150.566 242.558
L150.79 242.614
L151.013 242.895
L151.236 242.397
L151.682 242.778
L151.906 242.602
L152.129 242.655
L152.352 242.347
L152.575 242.519
L152.798 242.841
L153.245 242.769
L153.468 242.684
L153.691 242.803
L154.361 242.596
L154.584 242.294
L154.807 242.738
L155.03 242.774
L155.477 242.497
L155.7 242.686
L155.923 242.574
L156.593 242.68
L156.816 242.59
L157.262 242.712
L157.709 242.541
L158.155 242.601
L158.378 242.437
L158.602 242.424
L158.825 242.538
L159.048 242.435
L159.271 242.823
L159.494 242.51
L159.718 242.607
L159.941 242.263
L160.164 242.594
L160.61 242.595
L160.834 242.427
L161.057 242.589
L161.28 242.342
L161.726 242.591
L161.95 242.26
L162.173 242.349
L162.396 242.651
L162.619 242.438
L162.842 242.627
L163.066 242.322
L163.512 242.42
L163.735 242.623
L163.958 242.242
L164.182 242.413
L164.628 242.219
L164.851 242.153
L165.074 242.417
L165.298 242.141
L165.744 242.645
L166.19 242.324
L166.414 241.916
L166.637 242.301
L166.86 242.201
L167.306 242.529
L167.753 242.243
L168.199 242.329
L168.422 242.455
L168.646 242.174
L168.869 242.347
L169.092 242.22
L169.315 242.289
L169.985 242.114
L170.208 242.154
L170.431 242.064
L170.654 242.363
L170.878 242.354
L171.101 242.024
L171.324 241.937
L171.547 242.467
L171.77 242.336
L171.994 242.463
L172.217 241.974
L172.44 242.36
L172.663 241.918
L172.886 242.281
L173.11 242.089
L173.556 242.036
L173.779 242.198
L174.002 242.22
L174.226 242.017
L174.449 242.365
L174.672 241.898
L175.118 242.187
L175.342 241.966
L175.565 242.146
L175.788 242.048
L176.011 242.32
L176.234 241.93
L176.904 242.318
L177.127 242.104
L177.35 242.466
L177.574 242.283
L177.797 242.307
L178.02 241.716
L178.243 241.817
L178.466 242.274
L178.69 241.721
L178.913 242.133
L179.136 242.069
L179.359 241.805
L179.582 242.044
L179.806 241.976
L180.029 242.118
L180.252 242.089
L180.698 241.564
L181.145 241.936
L181.368 242.112
L181.591 241.584
L182.038 242.102
L182.261 242.225
L182.484 241.814
L182.707 242.135
L182.93 242.245
L183.823 241.635
L184.046 241.864
L184.27 241.737
L184.939 242.048
L185.386 241.553
L185.832 242.133
L186.055 241.692
L186.278 242.019
L186.502 241.482
L186.725 241.633
L186.948 241.463
L187.171 241.458
L187.394 242.013
L187.618 242.077
L188.064 241.654
L188.287 241.967
L188.51 241.718
L188.957 241.807
L189.18 241.755
L189.403 241.53
L190.073 241.801
L190.296 241.336
L190.519 242.047
L190.742 241.467
L190.966 241.317
L191.189 241.478
L191.412 241.939
L191.635 241.43
L192.305 241.776
L192.751 241.68
L192.974 242.072
L193.421 241.601
L193.867 241.591
L194.09 241.304
L194.314 241.673
L194.537 241.313
L194.76 241.356
L195.206 241.699
L195.43 241.567
L195.653 241.305
L195.876 241.733
L196.099 241.769
L196.322 241.002
L196.769 241.692
L196.992 241.369
L197.215 241.715
L197.438 241.566
L197.662 241.853
L197.885 241.123
L198.108 241.087
L198.331 241.586
L198.554 241.288
L199.001 241.264
L199.224 241.659
L199.447 241.468
L199.67 241.71
L199.894 241.404
L200.34 241.423
L200.563 241.357
L200.786 241.543
L201.01 241.285
L201.233 241.725
L201.679 241.473
L201.902 241.095
L202.126 241.037
L202.349 241.343
L202.572 241.36
L202.795 241.738
L203.018 240.987
L203.242 241.611
L203.465 241.563
L203.911 241.197
L204.134 241.143
L204.358 240.936
L204.581 241.172
L204.804 241.137
L205.25 241.81
L205.474 240.822
L205.697 241.281
L205.92 241.06
L206.143 241.54
L206.59 241.457
L206.813 240.961
L207.036 240.823
L207.259 241.31
L207.482 240.854
L207.706 241.201
L207.929 241.246
L208.152 240.933
L208.375 241.542
L208.598 241.019
L208.822 240.811
L209.045 241.134
L209.268 240.784
L209.491 240.865
L209.714 240.795
L209.938 241.414
L210.384 240.907
L210.607 240.963
L210.83 241.298
L211.054 240.996
L211.277 241.142
L211.5 240.725
L211.723 241.506
L211.946 241.442
L212.17 240.728
L212.616 240.794
L212.839 241.262
L213.062 241.251
L213.286 241.089
L213.509 240.453
L213.732 240.982
L213.955 240.587
L214.178 241.416
L214.402 240.741
L214.625 240.928
L214.848 240.785
L215.294 241.308
L215.518 240.842
L215.741 241.111
L216.187 240.801
L216.41 240.626
L216.634 240.859
L216.857 240.706
L217.08 241.356
L217.303 240.993
L217.526 241.009
L217.973 240.731
L218.196 241.213
L218.419 241.265
L218.642 240.723
L218.866 240.969
L219.089 240.796
L219.312 240.127
L219.535 240.824
L219.982 240.834
L220.428 240.549
L220.651 240.588
L221.098 241.244
L221.321 241.176
L221.99 240.492
L222.214 241.105
L222.66 240.738
L222.883 240.873
L223.33 240.425
L223.553 240.523
L223.776 240.286
L223.999 240.453
L224.222 241.093
L224.446 240.628
L224.669 240.74
L224.892 240.474
L225.115 240.489
L225.562 241.207
L225.785 240.607
L226.008 240.515
L226.231 241.031
L226.454 240.977
L226.678 241.064
L226.901 239.959
L227.124 240.865
L227.347 240.776
L227.57 240.239
L227.794 240.951
L228.017 239.911
L228.24 240.617
L228.463 240.679
L228.91 240.275
L229.133 240.659
L229.356 240.489
L229.579 240.024
L229.802 241.063
L230.026 240.434
L230.249 240.241
L230.472 240.426
L230.695 239.878
L230.918 240.961
L231.142 240.26
L231.365 240.415
L231.588 240.939
L231.811 240.653
L232.034 240.851
L232.258 240.08
L232.481 241.041
L232.704 240.15
L232.927 240.488
L233.374 240.594
L233.597 240.898
L233.82 240.8
L234.043 240.993
L234.266 240.223
L234.713 240.505
L234.936 240.186
L235.159 240.696
L235.382 240.105
L235.606 239.941
L235.829 240.208
L236.052 240.843
L236.275 239.786
L236.722 241.13
L236.945 241.023
L237.168 240.547
L237.391 240.448
L237.614 240.166
L237.838 240.817
L238.061 240.292
L238.507 240.497
L238.73 239.979
L238.954 240.79
L239.177 240.789
L239.4 240.996
L239.846 239.95
L240.07 240.062
L240.293 240.392
L240.516 240.167
L240.739 240.115
L241.186 240.375
L241.409 240.968
L241.632 240.77
L241.855 240.033
L242.078 240.068
L242.525 240.984
L242.748 240.36
L242.971 240.862
L243.194 240.417
L243.418 239.594
L243.641 240.293
L243.864 239.243
L244.087 240.029
L244.534 239.757
L244.98 239.96
L245.426 239.97
L245.65 240.649
L245.873 240.173
L246.096 240.045
L246.319 240.551
L246.542 240.454
L247.212 239.451
L247.435 240.305
L247.658 240.583
L248.105 239.751
L248.328 240.402
L248.551 240.423
L248.774 239.713
L249.221 240.285
L249.444 240.4
L249.667 239.455
L249.89 240.457
L250.337 239.53
L250.56 240.439
L250.783 239.749
L251.23 240.351
L251.453 240.154
L251.676 239.496
L251.899 239.711
L252.122 240.649
L252.346 239.731
L252.792 240.114
L253.015 239.568
L253.238 240.734
L253.462 240.823
L253.908 239.999
L254.131 240.129
L254.354 239.557
L254.578 239.477
L255.024 239.606
L255.247 239.901
L255.47 240.698
L255.694 239.809
L255.917 240.518
L256.14 239.489
L256.363 240.19
L256.586 239.345
L256.81 240.589
L257.033 240.623
L257.256 239.798
L257.479 240.017
L257.926 239.367
L258.149 240.145
L258.595 239.697
L258.818 239.666
L259.265 240.051
L259.488 239.79
L259.711 240.634
L259.934 239.998
L260.158 239.773
L260.381 240.373
L260.604 240.485
L260.827 240.2
L261.05 239.566
L261.274 240.033
L261.497 239.097
L261.72 239.452
L261.943 239.426
L262.166 240.242
L262.39 239.433
L262.613 239.844
L262.836 240.005
L263.059 239.981
L263.282 239.743
L263.506 240.289
L263.729 239.158
L263.952 239.945
L264.175 240.174
L264.398 239.977
L264.622 239.963
L264.845 240.096
L265.068 240.707
L265.291 239.393
L265.514 239.391
L265.738 239.223
L265.961 239.738
L266.63 239.843
L266.854 239.33
L267.3 240.085
L267.523 239.381
L267.746 240.645
L267.97 239.883
L268.416 239.597
L268.639 240.526
L268.862 239.795
L269.086 239.756
L269.309 239.504
L269.532 239.903
L269.755 239.339
L269.978 239.341
L270.202 239.761
L270.425 239.649
L270.871 240.1
L271.094 239.497
L271.318 240.797
L271.541 240.494
L271.987 240.429
L272.21 239.274
L272.434 239.687
L272.657 239.325
L272.88 239.504
L273.103 240.323
L273.326 239.244
L273.55 239.735
L273.773 240.672
L273.996 240.3
L274.219 239.561
L274.442 239.52
L274.666 239.778
L274.889 239.41
L275.112 239.951
L275.335 239.222
L275.558 239.434
L275.782 240.098
L276.005 240.294
L276.228 239.68
L276.451 239.576
L276.674 239.604
L276.898 240.214
L277.121 240.128
L277.344 240.273
L277.567 238.975
L277.79 240.316
L278.014 239.57
L278.237 239.397
L278.46 240.337
L278.906 239.238
L279.13 240.294
L279.353 240.411
L279.576 239.632
L279.799 239.901
L280.022 239.154
L280.246 240.047
L280.469 239.28
L281.138 240.258
L281.362 239.837
L281.585 239.907
L281.808 238.805
L282.031 239.833
L282.254 240.147
L282.478 240.241
L282.701 239.572
L282.924 240.28
L283.147 239.053
L283.37 238.798
L283.594 238.809
L283.817 239.201
L284.04 239.041
L284.263 239.232
L284.486 239.075
L284.71 239.777
L284.933 239.141
L285.156 239.4
L285.379 238.984
L285.602 239.921
L285.826 239.53
L286.049 239.612
L286.272 239.045
L286.495 239.949
L286.718 239.285
L286.942 239.839
L287.165 238.458
L287.388 240.202
L287.611 239.023
L287.834 239.665
L288.058 239.559
L288.281 238.702
L288.504 239.655
L288.727 239.357
L288.95 238.368
L289.174 240.02
L289.397 239.014
L289.62 239.129
L289.843 238.378
L290.066 239.686
L290.29 239.643
L290.513 239.794
L290.736 239.609
L290.959 239.254
L291.182 239.496
L291.406 238.693
L291.629 238.831
L291.852 239.153
L292.075 240.039
L292.298 239.255
L292.522 239.434
L292.745 239.784
L292.968 238.963
L293.191 239.917
L293.414 239.041
L293.638 240.34
L293.861 239.297
L294.084 239.503
L294.307 238.927
L294.53 239.783
L294.754 239.646
L294.977 239.712
L295.2 238.813
L295.423 239.649
L295.87 239.836
L296.093 238.775
L296.316 239.29
L296.539 239.425
L296.762 239.896
L296.986 238.885
L297.209 238.823
L297.655 239.906
L298.102 239.539
L298.325 238.922
L298.548 239.594
L298.771 239.598
L298.994 239.338
L299.218 239.95
L299.441 238.684
L299.664 239.522
L299.887 239.282
L300.11 239.481
L300.334 239.018
L300.557 239.757
L300.78 238.582
L301.226 238.921
L301.45 239.118
L301.673 239.008
L301.896 238.626
L302.789 239.965
L303.012 239.016
L303.235 239.378
L303.458 239.16
L303.682 239.114
L303.905 239.326
L304.128 238.615
L304.351 239.726
L304.574 238.828
L304.798 239.605
L305.021 238.603
L305.244 239.294
L305.467 239.239
L305.69 239.969
L305.914 239.329
L306.137 239.793
L306.36 239.002
L306.583 238.739
L306.806 238.667
L307.03 238.395
L307.253 240.011
L307.476 238.69
L307.699 238.84
L307.922 239.668
L308.146 239.95
L308.369 239.9
L308.592 239.294
L308.815 240.039
L309.038 240.041
L309.262 239.023
L309.485 239.007
L309.708 239.174
L309.931 239.861
L310.154 240.02
L310.378 238.378
L310.824 238.822
L311.047 239.438
L311.494 238.381
L311.717 239.51
L312.163 238.676
L312.386 239.807
L312.833 238.638
L313.056 238.783
L313.279 238.286
L313.502 238.814
L313.726 238.475
L314.172 240.295
L314.395 238.2
L314.618 239.389
L314.842 239.58
L315.065 239.486
L315.288 239.005
L315.511 239.226
L315.734 238.745
L315.958 239.743
L316.181 238.61
L316.404 239.965
L316.627 238.589
L316.85 239.096
L317.074 238.624
L317.297 239.655
L317.52 238.428
L317.743 239.853
L318.19 238.919
L318.413 238.747
L318.636 239.827
L318.859 239.812
L319.082 238.583
L319.306 238.176
L319.529 239.833
L319.975 238.866
L320.198 239.964
L320.422 238.389
L320.645 239.827
L320.868 239.923
L321.091 239.396
L321.314 239.744
L321.538 239.43
L321.761 239.606
L321.984 238.454
L322.207 239.372
L322.43 239.354
L322.654 239.621
L322.877 239.259
L323.1 238.544
L323.323 238.313
L323.546 238.697
L323.77 238.557
L323.993 239.123
L324.216 239.336
L324.439 239.191
L324.662 239.337
L324.886 238.536
L325.109 238.991
L325.332 238.621
L325.555 239.496
L325.778 238.328
L326.002 238.58
L326.225 239.517
L326.448 239.448
L326.671 239.134
L326.894 239.289
L327.118 238.414
L327.341 238.683
L327.564 239.372
L327.787 238.148
L328.01 239.811
L328.234 238.371
L328.68 238.588
L328.903 238.743
L329.126 238.519
L329.573 238.751
L329.796 238.658
L330.019 238.732
L330.242 238.103
L330.689 239.88
L330.912 239.253
L331.135 239.109
L331.358 239.165
L331.582 239.37
L331.805 239.374
L332.028 239.753
L332.251 238.304
L332.474 239.026
L332.698 239.322
L332.921 239.27
L333.144 238.774
L333.367 238.962
L333.59 239.443
L333.814 238.916
L334.037 239.405
L334.26 238.538
L334.483 239.922
L334.706 238.838
L334.93 238.86
L335.153 239.346
L335.376 238.888
L335.599 238.149
L335.822 239.153
L336.046 239.044
L336.269 239.402
L336.492 238.198
L336.715 238.77
L336.938 238.24
L337.162 239.286
L337.385 238.052
L337.608 239.135
L337.831 238.347
L338.054 239.523
L338.278 237.834
L338.501 239.363
L338.947 238.32
L339.17 239.275
L339.394 238.712
L339.617 239.198
L339.84 239.261
L340.063 238.879
L340.286 238.009
L340.51 239.74
L340.733 239.514
L341.179 237.843
L341.402 239.364
L341.626 238.858
L341.849 239.326
L342.072 238.657
L342.295 238.697
L342.518 238.327
L342.965 238.768
L343.188 238.343
L343.411 238.272
L343.634 238.656
L343.858 239.652
L344.081 239.204
L344.304 238.458
L344.527 238.639
L344.75 238.668
L344.974 238.17
L345.197 239.073
L345.643 239.175
L345.866 238.46
L346.09 238.365
L346.313 238.509
L346.536 239.505
L346.759 238.66
L346.982 239.18
L347.206 239.021
L347.429 239.201
L347.652 239.619
L347.875 237.878
L348.098 237.684
L348.322 238.648
L348.545 237.772
L348.768 238.929
L348.991 238.982
L349.214 238.067
L349.661 238.806
L350.107 237.77
L350.554 239.481
L350.777 238.4
L351 238.671
L351.223 239.141
L351.446 238.905
L351.67 239.552
L351.893 238.452
L352.116 238.887
L352.339 237.948
L352.562 238.787
L352.786 237.84
L353.009 238.649
L353.232 239.01
L353.455 237.753
L353.678 239.2
L353.902 237.907
L354.125 239.377
L354.348 238.666
L354.571 238.99
L354.794 238.247
L355.018 238.97
L355.241 238.988
L355.464 238.443
L355.687 239.533
L356.134 238.196
L356.357 238.426
L356.58 239.272
L357.026 238.218
L357.25 239.591
L357.473 237.958
L357.696 238.623
L357.919 238.576
L358.142 237.672
L358.589 239.357
L358.812 238.341
L359.035 239.028
L359.258 238.18
L359.705 239.02
L359.928 238.805
L360.151 237.815
L360.374 239.286
L360.821 238.573
L361.044 237.819
L361.267 238.667
L361.49 238.026
L361.714 238.872
L361.937 237.917
L362.16 238.062
L362.383 239.57
L362.606 237.991
L362.83 239.333
L363.053 238.034
L363.499 238.135
L363.722 238.277
L363.946 238.59
L364.169 238.684
L364.615 238.384
L364.838 237.544
L365.062 237.522
L365.285 237.893
L365.508 238.029
L365.731 237.966
L366.178 238.936
L366.401 238.182
L366.624 239.157
L366.847 239.211
L367.07 238.72
L367.294 238.905
L367.517 238.77
L367.74 237.671
L367.963 239.318
L368.186 238.037
L368.41 237.724
L368.633 239.118
L368.856 238.954
L369.079 238.267
L369.302 238.652
L369.526 238.428
L369.749 239.189
L369.972 238.772
L370.195 239.176
L370.418 238.014
L370.642 237.605
L370.865 238.586
L371.088 238.081
L371.311 238.32
L371.534 237.613
L371.758 238.781
L371.981 237.734
L372.204 237.594
L372.427 238.166
L372.65 237.691
L372.874 237.809
L373.097 237.765
L373.32 239.385
L373.543 239.431
L373.99 238.033
L374.213 237.977
L374.659 238.789
L375.106 238.03
L375.329 237.518
L375.552 239.185
L375.998 237.746
L376.445 237.943
L376.668 237.813
L376.891 238.555
L377.114 238.238
L377.338 237.182
L377.784 238.018
L378.007 238.267
L378.23 238.095
L378.454 237.246
L378.9 238.825
L379.123 238.777
L379.346 237.476
L379.57 237.779
L380.016 239.256
L380.239 238.385
L380.462 238.864
L380.686 237.555
L380.909 237.609
L381.132 238.419
L381.355 237.942
L381.578 237.772
L381.802 238.588
L382.025 238.369
L382.248 238.688
L382.471 237.369
L382.694 238.793
L382.918 239.196
L383.364 238.879
L383.587 237.387
L383.81 238.972
L384.034 237.272
L384.257 238.664
L384.48 238.203
L384.703 238.759
L384.926 238.718
L385.15 239.243
L385.373 237.866
L385.596 237.598
L385.819 239.188
L386.042 238.928
L386.266 237.588
L386.712 238.372
L386.935 238.183
L387.382 239.366
L387.605 237.557
L387.828 238.554
L388.051 237.922
L388.274 237.766
L388.498 238.924
L388.721 237.478
L388.944 237.535
L389.167 238.778
L389.614 237.817
L389.837 238.462
L390.06 237.349
L390.283 239.187
L390.506 238.663
L390.73 237.834
L390.953 237.569
L391.176 239.331
L391.622 238.863
L391.846 237.602
L392.069 237.631
L392.292 237.343
L392.515 238.829
L392.738 237.489
L392.962 238.591
L393.185 238.816
L393.408 238.484
L393.631 237.659
L394.078 238.879
L394.524 238.368
L394.747 237.479
L394.97 237.441
L395.194 237.801
L395.417 238.941
L395.64 237.941
L395.863 237.649
L396.31 238.407
L396.533 237.355
L396.756 238.854
L396.979 238.029
L397.202 238.014
L397.426 238.475
L397.649 238.43
L397.872 238.15
L398.095 238.287
L398.318 238.676
L398.765 237.016
L398.988 237.314
L399.211 238.378
L399.434 237.074
L399.881 238.952
L400.104 238.235
L400.327 237.907
L400.55 237.353
L400.997 238.575
L401.22 237.77
L401.443 237.598
L401.666 237.685
L401.89 238.7
L402.559 238.179
L402.782 237.178
L403.006 237.694
L403.229 237.738
L403.452 238.505
L403.898 237.687
L404.122 237.721
L404.345 238.292
L404.568 237.697
L404.791 238.52
L405.014 238.397
L405.238 237.142
L405.461 238.441
L405.684 237.244
L405.907 238.95
L406.13 236.918
L406.354 238.555
L406.577 237.934
L406.8 238.78
L407.023 238.21
L407.246 238.812
L407.47 237.579
L407.693 238.766
L407.916 237.785
L408.139 237.878
L408.362 237.802
L408.586 238.379
L408.809 238.263
L409.032 237.33
L409.255 238.433
L409.478 237.345
L409.702 237.438
L410.148 238.347
L410.371 238.201
L410.594 237.699
L410.818 237.652
L411.041 237.27
L411.264 238.974
L411.487 237.48
L411.71 238.37
L411.934 238.047
L412.157 238.971
L412.603 237.348
L412.826 239.264
L413.273 238.668
L413.496 238.19
L413.719 239.027
L413.942 237.4
L414.166 238.268
L414.389 237.384
L414.835 238.756
L415.058 237.265
L415.282 238.269
L415.505 237.63
L415.728 239.098
L415.951 237.331
L416.174 238.406
L416.398 237.21
L416.621 238.846
L417.067 238.639
L417.29 238.884
L417.514 237.757
L417.737 238.603
L417.96 237.798
L418.183 237.579
L418.406 237.859
L418.853 237.156
L419.076 237.237
L419.522 238.942
L419.746 239.033
L419.969 237.773
L420.192 239.012
L420.415 238.8
L420.638 238.375
L421.308 237.772
L421.531 237.16
L421.754 239.133
L422.201 237.683
L422.424 237.736
L422.647 238.598
L422.87 237.599
L423.094 237.246
L423.317 238.397
L423.54 238.247
L423.763 237.86
L423.986 238.642
L424.21 237.058
L424.433 238.397
L424.656 238.838
L424.879 237.238
L425.102 237.533
L425.326 238.745
L425.549 238.211
L425.772 238.369
L425.995 238.084
L426.218 237.514
L426.442 238.955
L426.665 238.373
L426.888 238.256
L427.111 238.731
L427.334 237.051
L427.558 236.967
L427.781 238.086
L428.004 236.956
L428.227 237.918
L428.45 238.068
L428.674 238.075
L428.897 238.21
L429.343 237.731
L429.79 238.802
L430.013 236.779
L430.236 238.286
L430.682 238.738
L430.906 237.399
L431.129 238.783
L431.352 236.98
L431.575 236.938
L431.798 237.369
L432.022 238.258
L432.245 237.009
L432.468 238.381
L432.691 238.229
L432.914 238.754
L433.138 237.275
L433.361 237.214
L433.584 238.391
L433.807 238.766
L434.03 238.915
L434.254 238.235
L434.477 237.162
L434.7 237.393
L434.923 238.25
L435.146 238.579
L435.37 238.608
L435.593 236.836
L435.816 237.251
L436.039 238.676
L436.262 236.922
L436.709 237.397
L436.932 237.389
L437.155 238.566
L437.378 237.609
L437.602 237.258
L437.825 238.365
L438.048 238.406
L438.271 238.751
L438.718 237.987
L438.941 237.84
L439.164 238.425
L439.387 237.05
L439.61 238.248
L439.834 238.403
L440.057 238.064
L440.28 238.11
L440.503 238.536
L440.95 237.572
L441.396 237.586
L441.619 236.482
L441.842 238.53
L442.289 237.463
L442.512 236.735
L442.958 238.216
L443.182 238.679
L443.405 238.464
L443.628 238.7
L443.851 236.863
L444.074 236.852
L444.298 238.097
L444.521 237.529
L444.744 238.176
L444.967 238.169
L445.19 238.669
L445.414 238.122
L445.637 238.396
L445.86 237.426
L446.083 237.34
L446.306 238.588
L446.53 238.557
L446.753 238.094
L447.199 238.359
L447.422 238.248
L447.646 238.297
L447.869 238.543
L448.315 236.836
L448.762 238.831
L448.985 236.729
L449.208 238.328
L449.431 237.353
L449.878 238.271
L450.101 237.206
L450.547 237.646
L450.77 237.7
L450.994 238.227
L451.217 238.398
L451.44 237.113
L451.663 237.224
L451.886 237.914
L452.11 236.799
L452.556 237.512
L452.779 236.69
L453.002 236.842
L453.226 237.177
L453.449 236.808
L453.672 238.165
L453.895 237.015
L454.118 236.684
L454.342 237.173
L454.565 238.568
L454.788 237.894
L455.011 237.672
L455.234 237.065
L455.458 238.196
L455.681 237.314
L455.904 237.256
L456.127 237.454
L456.35 238.304
L456.574 236.806
L456.797 238.493
L457.02 237.086
L457.466 238.159
L457.913 237.239
L458.136 238.733
L458.359 238.184
L458.582 238.141
L458.806 236.715
L459.029 237.544
L459.252 237.202
L459.475 237.077
L459.698 238.059
L459.922 237.605
L460.145 238.465
L460.368 238.188
L460.591 238.528
L460.814 237.682
L461.038 237.555
L461.484 238.963
L461.93 236.58
L462.154 238.75
L462.377 237.7
L462.823 238.147
L463.046 238.1
L463.27 237.634
L463.493 236.777
L463.716 238.363
L463.939 236.548
L464.386 238.618
L464.609 238.638
L465.055 236.975
L465.278 237.496
L465.725 236.492
L465.948 238.522
L466.171 237.158
L466.394 237.49
L466.618 238.415
L467.064 236.309
L467.287 238.312
L467.51 238.399
L467.734 236.873
L467.957 238.131
L468.18 237.231
L468.626 237.761
L468.85 238.38
L469.296 238.244
L469.519 236.801
L469.742 237.962
L469.966 236.979
L470.189 236.873
L470.412 238.476
L470.635 236.631
L470.858 237.711
L471.082 237.209
L471.305 237.932
L471.751 238.322
L471.974 237.938
L472.198 238.355
L472.421 238.003
L472.644 236.244
L472.644 236.244" style="fill:none;stroke:#bf00bf;stroke-linecap:square;"/>
   </g>
   <g id="patch_3">
    <path d="
M518.4 388.8
L518.4 43.2" style="fill:none;stroke:#000000;stroke-linecap:square;stroke-linejoin:miter;"/>
   </g>
   <g id="patch_4">
    <path d="
M72 388.8
L72 43.2" style="fill:none;stroke:#000000;stroke-linecap:square;stroke-linejoin:miter;"/>
   </g>
   <g id="patch_5">
    <path d="
M72 43.2
L518.4 43.2" style="fill:none;stroke:#000000;stroke-linecap:square;stroke-linejoin:miter;"/>
   </g>
   <g id="patch_6">
    <path d="
M72 388.8
L518.4 388.8" style="fill:none;stroke:#000000;stroke-linecap:square;stroke-linejoin:miter;"/>
   </g>
   <g id="matplotlib.axis_1">
    <g id="xtick_1">
     <g id="line2d_3">
      <path clip-path="url(#p7ff5b81e1d)" d="
M72 388.8
L72 43.2" style="fill:none;stroke:#000000;stroke-dasharray:1.000000,3.000000;stroke-dashoffset:0.0;stroke-width:0.5;"/>
     </g>
     <g id="line2d_4">
      <defs>
       <path d="
M0 0
L0 -4" id="mc7db9fdffb" style="stroke:#000000;stroke-width:0.5;"/>
      </defs>
      <g>
       <use style="stroke:#000000;stroke-width:0.5;" x="72.0" xlink:href="#mc7db9fdffb" y="388.8"/>
      </g>
     </g>
     <g id="line2d_5">
      <defs>
       <path d="
M0 0
L0 4" id="m5a7d422ac3" style="stroke:#000000;stroke-width:0.5;"/>
      </defs>
      <g>
       <use style="stroke:#000000;stroke-width:0.5;" x="72.0" xlink:href="#m5a7d422ac3" y="43.2"/>
      </g>
     </g>
     <g id="text_1">
      <!-- 0 -->
      <defs>
       <path d="
M31.7812 66.4062
Q24.1719 66.4062 20.3281 58.9062
Q16.5 51.4219 16.5 36.375
Q16.5 21.3906 20.3281 13.8906
Q24.1719 6.39062 31.7812 6.39062
Q39.4531 6.39062 43.2812 13.8906
Q47.125 21.3906 47.125 36.375
Q47.125 51.4219 43.2812 58.9062
Q39.4531 66.4062 31.7812 66.4062
M31.7812 74.2188
Q44.0469 74.2188 50.5156 64.5156
Q56.9844 54.8281 56.9844 36.375
Q56.9844 17.9688 50.5156 8.26562
Q44.0469 -1.42188 31.7812 -1.42188
Q19.5312 -1.42188 13.0625 8.26562
Q6.59375 17.9688 6.59375 36.375
Q6.59375 54.8281 13.0625 64.5156
Q19.5312 74.2188 31.7812 74.2188" id="BitstreamVeraSans-Roman-30"/>
      </defs>
      <g transform="translate(68.9765625 401.918125)scale(0.12 -0.12)">
       <use xlink:href="#BitstreamVeraSans-Roman-30"/>
      </g>
     </g>
    </g>
    <g id="xtick_2">
     <g id="line2d_6">
      <path clip-path="url(#p7ff5b81e1d)" d="
M127.8 388.8
L127.8 43.2" style="fill:none;stroke:#000000;stroke-dasharray:1.000000,3.000000;stroke-dashoffset:0.0;stroke-width:0.5;"/>
     </g>
     <g id="line2d_7">
      <g>
       <use style="stroke:#000000;stroke-width:0.5;" x="127.8" xlink:href="#mc7db9fdffb" y="388.8"/>
      </g>
     </g>
     <g id="line2d_8">
      <g>
       <use style="stroke:#000000;stroke-width:0.5;" x="127.8" xlink:href="#m5a7d422ac3" y="43.2"/>
      </g>
     </g>
     <g id="text_2">
      <!-- 50000 -->
      <defs>
       <path d="
M10.7969 72.9062
L49.5156 72.9062
L49.5156 64.5938
L19.8281 64.5938
L19.8281 46.7344
Q21.9688 47.4688 24.1094 47.8281
Q26.2656 48.1875 28.4219 48.1875
Q40.625 48.1875 47.75 41.5
Q54.8906 34.8125 54.8906 23.3906
Q54.8906 11.625 47.5625 5.09375
Q40.2344 -1.42188 26.9062 -1.42188
Q22.3125 -1.42188 17.5469 -0.640625
Q12.7969 0.140625 7.71875 1.70312
L7.71875 11.625
Q12.1094 9.23438 16.7969 8.0625
Q21.4844 6.89062 26.7031 6.89062
Q35.1562 6.89062 40.0781 11.3281
Q45.0156 15.7656 45.0156 23.3906
Q45.0156 31 40.0781 35.4375
Q35.1562 39.8906 26.7031 39.8906
Q22.75 39.8906 18.8125 39.0156
Q14.8906 38.1406 10.7969 36.2812
z
" id="BitstreamVeraSans-Roman-35"/>
      </defs>
      <g transform="translate(109.5740625 401.918125)scale(0.12 -0.12)">
       <use xlink:href="#BitstreamVeraSans-Roman-35"/>
       <use x="63.623046875" xlink:href="#BitstreamVeraSans-Roman-30"/>
       <use x="127.24609375" xlink:href="#BitstreamVeraSans-Roman-30"/>
       <use x="190.869140625" xlink:href="#BitstreamVeraSans-Roman-30"/>
       <use x="254.4921875" xlink:href="#BitstreamVeraSans-Roman-30"/>
      </g>
     </g>
    </g>
    <g id="xtick_3">
     <g id="line2d_9">
      <path clip-path="url(#p7ff5b81e1d)" d="
M183.6 388.8
L183.6 43.2" style="fill:none;stroke:#000000;stroke-dasharray:1.000000,3.000000;stroke-dashoffset:0.0;stroke-width:0.5;"/>
     </g>
     <g id="line2d_10">
      <g>
       <use style="stroke:#000000;stroke-width:0.5;" x="183.6" xlink:href="#mc7db9fdffb" y="388.8"/>
      </g>
     </g>
     <g id="line2d_11">
      <g>
       <use style="stroke:#000000;stroke-width:0.5;" x="183.6" xlink:href="#m5a7d422ac3" y="43.2"/>
      </g>
     </g>
     <g id="text_3">
      <!-- 100000 -->
      <defs>
       <path d="
M12.4062 8.29688
L28.5156 8.29688
L28.5156 63.9219
L10.9844 60.4062
L10.9844 69.3906
L28.4219 72.9062
L38.2812 72.9062
L38.2812 8.29688
L54.3906 8.29688
L54.3906 0
L12.4062 0
z
" id="BitstreamVeraSans-Roman-31"/>
      </defs>
      <g transform="translate(161.7525 401.918125)scale(0.12 -0.12)">
       <use xlink:href="#BitstreamVeraSans-Roman-31"/>
       <use x="63.623046875" xlink:href="#BitstreamVeraSans-Roman-30"/>
       <use x="127.24609375" xlink:href="#BitstreamVeraSans-Roman-30"/>
       <use x="190.869140625" xlink:href="#BitstreamVeraSans-Roman-30"/>
       <use x="254.4921875" xlink:href="#BitstreamVeraSans-Roman-30"/>
       <use x="318.115234375" xlink:href="#BitstreamVeraSans-Roman-30"/>
      </g>
     </g>
    </g>
    <g id="xtick_4">
     <g id="line2d_12">
      <path clip-path="url(#p7ff5b81e1d)" d="
M239.4 388.8
L239.4 43.2" style="fill:none;stroke:#000000;stroke-dasharray:1.000000,3.000000;stroke-dashoffset:0.0;stroke-width:0.5;"/>
     </g>
     <g id="line2d_13">
      <g>
       <use style="stroke:#000000;stroke-width:0.5;" x="239.4" xlink:href="#mc7db9fdffb" y="388.8"/>
      </g>
     </g>
     <g id="line2d_14">
      <g>
       <use style="stroke:#000000;stroke-width:0.5;" x="239.4" xlink:href="#m5a7d422ac3" y="43.2"/>
      </g>
     </g>
     <g id="text_4">
      <!-- 150000 -->
      <g transform="translate(217.5525 401.918125)scale(0.12 -0.12)">
       <use xlink:href="#BitstreamVeraSans-Roman-31"/>
       <use x="63.623046875" xlink:href="#BitstreamVeraSans-Roman-35"/>
       <use x="127.24609375" xlink:href="#BitstreamVeraSans-Roman-30"/>
       <use x="190.869140625" xlink:href="#BitstreamVeraSans-Roman-30"/>
       <use x="254.4921875" xlink:href="#BitstreamVeraSans-Roman-30"/>
       <use x="318.115234375" xlink:href="#BitstreamVeraSans-Roman-30"/>
      </g>
     </g>
    </g>
    <g id="xtick_5">
     <g id="line2d_15">
      <path clip-path="url(#p7ff5b81e1d)" d="
M295.2 388.8
L295.2 43.2" style="fill:none;stroke:#000000;stroke-dasharray:1.000000,3.000000;stroke-dashoffset:0.0;stroke-width:0.5;"/>
     </g>
     <g id="line2d_16">
      <g>
       <use style="stroke:#000000;stroke-width:0.5;" x="295.2" xlink:href="#mc7db9fdffb" y="388.8"/>
      </g>
     </g>
     <g id="line2d_17">
      <g>
       <use style="stroke:#000000;stroke-width:0.5;" x="295.2" xlink:href="#m5a7d422ac3" y="43.2"/>
      </g>
     </g>
     <g id="text_5">
      <!-- 200000 -->
      <defs>
       <path d="
M19.1875 8.29688
L53.6094 8.29688
L53.6094 0
L7.32812 0
L7.32812 8.29688
Q12.9375 14.1094 22.625 23.8906
Q32.3281 33.6875 34.8125 36.5312
Q39.5469 41.8438 41.4219 45.5312
Q43.3125 49.2188 43.3125 52.7812
Q43.3125 58.5938 39.2344 62.25
Q35.1562 65.9219 28.6094 65.9219
Q23.9688 65.9219 18.8125 64.3125
Q13.6719 62.7031 7.8125 59.4219
L7.8125 69.3906
Q13.7656 71.7812 18.9375 73
Q24.125 74.2188 28.4219 74.2188
Q39.75 74.2188 46.4844 68.5469
Q53.2188 62.8906 53.2188 53.4219
Q53.2188 48.9219 51.5312 44.8906
Q49.8594 40.875 45.4062 35.4062
Q44.1875 33.9844 37.6406 27.2188
Q31.1094 20.4531 19.1875 8.29688" id="BitstreamVeraSans-Roman-32"/>
      </defs>
      <g transform="translate(273.133125 401.918125)scale(0.12 -0.12)">
       <use xlink:href="#BitstreamVeraSans-Roman-32"/>
       <use x="63.623046875" xlink:href="#BitstreamVeraSans-Roman-30"/>
       <use x="127.24609375" xlink:href="#BitstreamVeraSans-Roman-30"/>
       <use x="190.869140625" xlink:href="#BitstreamVeraSans-Roman-30"/>
       <use x="254.4921875" xlink:href="#BitstreamVeraSans-Roman-30"/>
       <use x="318.115234375" xlink:href="#BitstreamVeraSans-Roman-30"/>
      </g>
     </g>
    </g>
    <g id="xtick_6">
     <g id="line2d_18">
      <path clip-path="url(#p7ff5b81e1d)" d="
M351 388.8
L351 43.2" style="fill:none;stroke:#000000;stroke-dasharray:1.000000,3.000000;stroke-dashoffset:0.0;stroke-width:0.5;"/>
     </g>
     <g id="line2d_19">
      <g>
       <use style="stroke:#000000;stroke-width:0.5;" x="351.0" xlink:href="#mc7db9fdffb" y="388.8"/>
      </g>
     </g>
     <g id="line2d_20">
      <g>
       <use style="stroke:#000000;stroke-width:0.5;" x="351.0" xlink:href="#m5a7d422ac3" y="43.2"/>
      </g>
     </g>
     <g id="text_6">
      <!-- 250000 -->
      <g transform="translate(328.933125 401.918125)scale(0.12 -0.12)">
       <use xlink:href="#BitstreamVeraSans-Roman-32"/>
       <use x="63.623046875" xlink:href="#BitstreamVeraSans-Roman-35"/>
       <use x="127.24609375" xlink:href="#BitstreamVeraSans-Roman-30"/>
       <use x="190.869140625" xlink:href="#BitstreamVeraSans-Roman-30"/>
       <use x="254.4921875" xlink:href="#BitstreamVeraSans-Roman-30"/>
       <use x="318.115234375" xlink:href="#BitstreamVeraSans-Roman-30"/>
      </g>
     </g>
    </g>
    <g id="xtick_7">
     <g id="line2d_21">
      <path clip-path="url(#p7ff5b81e1d)" d="
M406.8 388.8
L406.8 43.2" style="fill:none;stroke:#000000;stroke-dasharray:1.000000,3.000000;stroke-dashoffset:0.0;stroke-width:0.5;"/>
     </g>
     <g id="line2d_22">
      <g>
       <use style="stroke:#000000;stroke-width:0.5;" x="406.8" xlink:href="#mc7db9fdffb" y="388.8"/>
      </g>
     </g>
     <g id="line2d_23">
      <g>
       <use style="stroke:#000000;stroke-width:0.5;" x="406.8" xlink:href="#m5a7d422ac3" y="43.2"/>
      </g>
     </g>
     <g id="text_7">
      <!-- 300000 -->
      <defs>
       <path d="
M40.5781 39.3125
Q47.6562 37.7969 51.625 33
Q55.6094 28.2188 55.6094 21.1875
Q55.6094 10.4062 48.1875 4.48438
Q40.7656 -1.42188 27.0938 -1.42188
Q22.5156 -1.42188 17.6562 -0.515625
Q12.7969 0.390625 7.625 2.20312
L7.625 11.7188
Q11.7188 9.32812 16.5938 8.10938
Q21.4844 6.89062 26.8125 6.89062
Q36.0781 6.89062 40.9375 10.5469
Q45.7969 14.2031 45.7969 21.1875
Q45.7969 27.6406 41.2812 31.2656
Q36.7656 34.9062 28.7188 34.9062
L20.2188 34.9062
L20.2188 43.0156
L29.1094 43.0156
Q36.375 43.0156 40.2344 45.9219
Q44.0938 48.8281 44.0938 54.2969
Q44.0938 59.9062 40.1094 62.9062
Q36.1406 65.9219 28.7188 65.9219
Q24.6562 65.9219 20.0156 65.0312
Q15.375 64.1562 9.8125 62.3125
L9.8125 71.0938
Q15.4375 72.6562 20.3438 73.4375
Q25.25 74.2188 29.5938 74.2188
Q40.8281 74.2188 47.3594 69.1094
Q53.9062 64.0156 53.9062 55.3281
Q53.9062 49.2656 50.4375 45.0938
Q46.9688 40.9219 40.5781 39.3125" id="BitstreamVeraSans-Roman-33"/>
      </defs>
      <g transform="translate(384.7509375 401.918125)scale(0.12 -0.12)">
       <use xlink:href="#BitstreamVeraSans-Roman-33"/>
       <use x="63.623046875" xlink:href="#BitstreamVeraSans-Roman-30"/>
       <use x="127.24609375" xlink:href="#BitstreamVeraSans-Roman-30"/>
       <use x="190.869140625" xlink:href="#BitstreamVeraSans-Roman-30"/>
       <use x="254.4921875" xlink:href="#BitstreamVeraSans-Roman-30"/>
       <use x="318.115234375" xlink:href="#BitstreamVeraSans-Roman-30"/>
      </g>
     </g>
    </g>
    <g id="xtick_8">
     <g id="line2d_24">
      <path clip-path="url(#p7ff5b81e1d)" d="
M462.6 388.8
L462.6 43.2" style="fill:none;stroke:#000000;stroke-dasharray:1.000000,3.000000;stroke-dashoffset:0.0;stroke-width:0.5;"/>
     </g>
     <g id="line2d_25">
      <g>
       <use style="stroke:#000000;stroke-width:0.5;" x="462.6" xlink:href="#mc7db9fdffb" y="388.8"/>
      </g>
     </g>
     <g id="line2d_26">
      <g>
       <use style="stroke:#000000;stroke-width:0.5;" x="462.6" xlink:href="#m5a7d422ac3" y="43.2"/>
      </g>
     </g>
     <g id="text_8">
      <!-- 350000 -->
      <g transform="translate(440.5509375 401.918125)scale(0.12 -0.12)">
       <use xlink:href="#BitstreamVeraSans-Roman-33"/>
       <use x="63.623046875" xlink:href="#BitstreamVeraSans-Roman-35"/>
       <use x="127.24609375" xlink:href="#BitstreamVeraSans-Roman-30"/>
       <use x="190.869140625" xlink:href="#BitstreamVeraSans-Roman-30"/>
       <use x="254.4921875" xlink:href="#BitstreamVeraSans-Roman-30"/>
       <use x="318.115234375" xlink:href="#BitstreamVeraSans-Roman-30"/>
      </g>
     </g>
    </g>
    <g id="xtick_9">
     <g id="line2d_27">
      <path clip-path="url(#p7ff5b81e1d)" d="
M518.4 388.8
L518.4 43.2" style="fill:none;stroke:#000000;stroke-dasharray:1.000000,3.000000;stroke-dashoffset:0.0;stroke-width:0.5;"/>
     </g>
     <g id="line2d_28">
      <g>
       <use style="stroke:#000000;stroke-width:0.5;" x="518.4" xlink:href="#mc7db9fdffb" y="388.8"/>
      </g>
     </g>
     <g id="line2d_29">
      <g>
       <use style="stroke:#000000;stroke-width:0.5;" x="518.4" xlink:href="#m5a7d422ac3" y="43.2"/>
      </g>
     </g>
     <g id="text_9">
      <!-- 400000 -->
      <defs>
       <path d="
M37.7969 64.3125
L12.8906 25.3906
L37.7969 25.3906
z

M35.2031 72.9062
L47.6094 72.9062
L47.6094 25.3906
L58.0156 25.3906
L58.0156 17.1875
L47.6094 17.1875
L47.6094 0
L37.7969 0
L37.7969 17.1875
L4.89062 17.1875
L4.89062 26.7031
z
" id="BitstreamVeraSans-Roman-34"/>
      </defs>
      <g transform="translate(496.186875 401.918125)scale(0.12 -0.12)">
       <use xlink:href="#BitstreamVeraSans-Roman-34"/>
       <use x="63.623046875" xlink:href="#BitstreamVeraSans-Roman-30"/>
       <use x="127.24609375" xlink:href="#BitstreamVeraSans-Roman-30"/>
       <use x="190.869140625" xlink:href="#BitstreamVeraSans-Roman-30"/>
       <use x="254.4921875" xlink:href="#BitstreamVeraSans-Roman-30"/>
       <use x="318.115234375" xlink:href="#BitstreamVeraSans-Roman-30"/>
      </g>
     </g>
    </g>
    <g id="text_10">
     <!-- iteration num -->
     <defs>
      <path d="
M8.5 21.5781
L8.5 54.6875
L17.4844 54.6875
L17.4844 21.9219
Q17.4844 14.1562 20.5 10.2656
Q23.5312 6.39062 29.5938 6.39062
Q36.8594 6.39062 41.0781 11.0312
Q45.3125 15.6719 45.3125 23.6875
L45.3125 54.6875
L54.2969 54.6875
L54.2969 0
L45.3125 0
L45.3125 8.40625
Q42.0469 3.42188 37.7188 1
Q33.4062 -1.42188 27.6875 -1.42188
Q18.2656 -1.42188 13.375 4.4375
Q8.5 10.2969 8.5 21.5781" id="BitstreamVeraSans-Roman-75"/>
      <path d="
M54.8906 33.0156
L54.8906 0
L45.9062 0
L45.9062 32.7188
Q45.9062 40.4844 42.875 44.3281
Q39.8438 48.1875 33.7969 48.1875
Q26.5156 48.1875 22.3125 43.5469
Q18.1094 38.9219 18.1094 30.9062
L18.1094 0
L9.07812 0
L9.07812 54.6875
L18.1094 54.6875
L18.1094 46.1875
Q21.3438 51.125 25.7031 53.5625
Q30.0781 56 35.7969 56
Q45.2188 56 50.0469 50.1719
Q54.8906 44.3438 54.8906 33.0156" id="BitstreamVeraSans-Roman-6e"/>
      <path d="
M30.6094 48.3906
Q23.3906 48.3906 19.1875 42.75
Q14.9844 37.1094 14.9844 27.2969
Q14.9844 17.4844 19.1562 11.8438
Q23.3438 6.20312 30.6094 6.20312
Q37.7969 6.20312 41.9844 11.8594
Q46.1875 17.5312 46.1875 27.2969
Q46.1875 37.0156 41.9844 42.7031
Q37.7969 48.3906 30.6094 48.3906
M30.6094 56
Q42.3281 56 49.0156 48.375
Q55.7188 40.7656 55.7188 27.2969
Q55.7188 13.875 49.0156 6.21875
Q42.3281 -1.42188 30.6094 -1.42188
Q18.8438 -1.42188 12.1719 6.21875
Q5.51562 13.875 5.51562 27.2969
Q5.51562 40.7656 12.1719 48.375
Q18.8438 56 30.6094 56" id="BitstreamVeraSans-Roman-6f"/>
      <path d="
M9.42188 54.6875
L18.4062 54.6875
L18.4062 0
L9.42188 0
z

M9.42188 75.9844
L18.4062 75.9844
L18.4062 64.5938
L9.42188 64.5938
z
" id="BitstreamVeraSans-Roman-69"/>
      <path d="
M52 44.1875
Q55.375 50.25 60.0625 53.125
Q64.75 56 71.0938 56
Q79.6406 56 84.2812 50.0156
Q88.9219 44.0469 88.9219 33.0156
L88.9219 0
L79.8906 0
L79.8906 32.7188
Q79.8906 40.5781 77.0938 44.375
Q74.3125 48.1875 68.6094 48.1875
Q61.625 48.1875 57.5625 43.5469
Q53.5156 38.9219 53.5156 30.9062
L53.5156 0
L44.4844 0
L44.4844 32.7188
Q44.4844 40.625 41.7031 44.4062
Q38.9219 48.1875 33.1094 48.1875
Q26.2188 48.1875 22.1562 43.5312
Q18.1094 38.875 18.1094 30.9062
L18.1094 0
L9.07812 0
L9.07812 54.6875
L18.1094 54.6875
L18.1094 46.1875
Q21.1875 51.2188 25.4844 53.6094
Q29.7812 56 35.6875 56
Q41.6562 56 45.8281 52.9688
Q50 49.9531 52 44.1875" id="BitstreamVeraSans-Roman-6d"/>
      <path d="
M41.1094 46.2969
Q39.5938 47.1719 37.8125 47.5781
Q36.0312 48 33.8906 48
Q26.2656 48 22.1875 43.0469
Q18.1094 38.0938 18.1094 28.8125
L18.1094 0
L9.07812 0
L9.07812 54.6875
L18.1094 54.6875
L18.1094 46.1875
Q20.9531 51.1719 25.4844 53.5781
Q30.0312 56 36.5312 56
Q37.4531 56 38.5781 55.875
Q39.7031 55.7656 41.0625 55.5156
z
" id="BitstreamVeraSans-Roman-72"/>
      <path d="
M56.2031 29.5938
L56.2031 25.2031
L14.8906 25.2031
Q15.4844 15.9219 20.4844 11.0625
Q25.4844 6.20312 34.4219 6.20312
Q39.5938 6.20312 44.4531 7.46875
Q49.3125 8.73438 54.1094 11.2812
L54.1094 2.78125
Q49.2656 0.734375 44.1875 -0.34375
Q39.1094 -1.42188 33.8906 -1.42188
Q20.7969 -1.42188 13.1562 6.1875
Q5.51562 13.8125 5.51562 26.8125
Q5.51562 40.2344 12.7656 48.1094
Q20.0156 56 32.3281 56
Q43.3594 56 49.7812 48.8906
Q56.2031 41.7969 56.2031 29.5938
M47.2188 32.2344
Q47.125 39.5938 43.0938 43.9844
Q39.0625 48.3906 32.4219 48.3906
Q24.9062 48.3906 20.3906 44.1406
Q15.875 39.8906 15.1875 32.1719
z
" id="BitstreamVeraSans-Roman-65"/>
      <path d="
M34.2812 27.4844
Q23.3906 27.4844 19.1875 25
Q14.9844 22.5156 14.9844 16.5
Q14.9844 11.7188 18.1406 8.90625
Q21.2969 6.10938 26.7031 6.10938
Q34.1875 6.10938 38.7031 11.4062
Q43.2188 16.7031 43.2188 25.4844
L43.2188 27.4844
z

M52.2031 31.2031
L52.2031 0
L43.2188 0
L43.2188 8.29688
Q40.1406 3.32812 35.5469 0.953125
Q30.9531 -1.42188 24.3125 -1.42188
Q15.9219 -1.42188 10.9531 3.29688
Q6 8.01562 6 15.9219
Q6 25.1406 12.1719 29.8281
Q18.3594 34.5156 30.6094 34.5156
L43.2188 34.5156
L43.2188 35.4062
Q43.2188 41.6094 39.1406 45
Q35.0625 48.3906 27.6875 48.3906
Q23 48.3906 18.5469 47.2656
Q14.1094 46.1406 10.0156 43.8906
L10.0156 52.2031
Q14.9375 54.1094 19.5781 55.0469
Q24.2188 56 28.6094 56
Q40.4844 56 46.3438 49.8438
Q52.2031 43.7031 52.2031 31.2031" id="BitstreamVeraSans-Roman-61"/>
      <path id="BitstreamVeraSans-Roman-20"/>
      <path d="
M18.3125 70.2188
L18.3125 54.6875
L36.8125 54.6875
L36.8125 47.7031
L18.3125 47.7031
L18.3125 18.0156
Q18.3125 11.3281 20.1406 9.42188
Q21.9688 7.51562 27.5938 7.51562
L36.8125 7.51562
L36.8125 0
L27.5938 0
Q17.1875 0 13.2344 3.875
Q9.28125 7.76562 9.28125 18.0156
L9.28125 47.7031
L2.6875 47.7031
L2.6875 54.6875
L9.28125 54.6875
L9.28125 70.2188
z
" id="BitstreamVeraSans-Roman-74"/>
     </defs>
     <g transform="translate(255.005625 418.531875)scale(0.12 -0.12)">
      <use xlink:href="#BitstreamVeraSans-Roman-69"/>
      <use x="27.783203125" xlink:href="#BitstreamVeraSans-Roman-74"/>
      <use x="66.9921875" xlink:href="#BitstreamVeraSans-Roman-65"/>
      <use x="128.515625" xlink:href="#BitstreamVeraSans-Roman-72"/>
      <use x="169.62890625" xlink:href="#BitstreamVeraSans-Roman-61"/>
      <use x="230.908203125" xlink:href="#BitstreamVeraSans-Roman-74"/>
      <use x="270.1171875" xlink:href="#BitstreamVeraSans-Roman-69"/>
      <use x="297.900390625" xlink:href="#BitstreamVeraSans-Roman-6f"/>
      <use x="359.08203125" xlink:href="#BitstreamVeraSans-Roman-6e"/>
      <use x="422.4609375" xlink:href="#BitstreamVeraSans-Roman-20"/>
      <use x="454.248046875" xlink:href="#BitstreamVeraSans-Roman-6e"/>
      <use x="517.626953125" xlink:href="#BitstreamVeraSans-Roman-75"/>
      <use x="581.005859375" xlink:href="#BitstreamVeraSans-Roman-6d"/>
     </g>
    </g>
   </g>
   <g id="matplotlib.axis_2">
    <g id="ytick_1">
     <g id="line2d_30">
      <path clip-path="url(#p7ff5b81e1d)" d="
M72 388.8
L518.4 388.8" style="fill:none;stroke:#000000;stroke-dasharray:1.000000,3.000000;stroke-dashoffset:0.0;stroke-width:0.5;"/>
     </g>
     <g id="line2d_31">
      <defs>
       <path d="
M0 0
L4 0" id="md7965d1ba0" style="stroke:#000000;stroke-width:0.5;"/>
      </defs>
      <g>
       <use style="stroke:#000000;stroke-width:0.5;" x="72.0" xlink:href="#md7965d1ba0" y="388.8"/>
      </g>
     </g>
     <g id="line2d_32">
      <defs>
       <path d="
M0 0
L-4 0" id="md9a1c1a7cd" style="stroke:#000000;stroke-width:0.5;"/>
      </defs>
      <g>
       <use style="stroke:#000000;stroke-width:0.5;" x="518.4" xlink:href="#md9a1c1a7cd" y="388.8"/>
      </g>
     </g>
     <g id="text_11">
      <!-- $\mathdefault{10^{0}}$ -->
      <g transform="translate(44.84 392.724375)scale(0.12 -0.12)">
       <use transform="translate(0.0 0.546875)" xlink:href="#BitstreamVeraSans-Roman-31"/>
       <use transform="translate(63.623046875 0.546875)" xlink:href="#BitstreamVeraSans-Roman-30"/>
       <use transform="translate(127.24609375 53.046875)scale(0.7)" xlink:href="#BitstreamVeraSans-Roman-30"/>
      </g>
     </g>
    </g>
    <g id="ytick_2">
     <g id="line2d_33">
      <path clip-path="url(#p7ff5b81e1d)" d="
M72 216
L518.4 216" style="fill:none;stroke:#000000;stroke-dasharray:1.000000,3.000000;stroke-dashoffset:0.0;stroke-width:0.5;"/>
     </g>
     <g id="line2d_34">
      <g>
       <use style="stroke:#000000;stroke-width:0.5;" x="72.0" xlink:href="#md7965d1ba0" y="216.0"/>
      </g>
     </g>
     <g id="line2d_35">
      <g>
       <use style="stroke:#000000;stroke-width:0.5;" x="518.4" xlink:href="#md9a1c1a7cd" y="216.0"/>
      </g>
     </g>
     <g id="text_12">
      <!-- $\mathdefault{10^{1}}$ -->
      <g transform="translate(44.84 219.864375)scale(0.12 -0.12)">
       <use transform="translate(0.0 0.46562500000000284)" xlink:href="#BitstreamVeraSans-Roman-31"/>
       <use transform="translate(63.623046875 0.46562500000000284)" xlink:href="#BitstreamVeraSans-Roman-30"/>
       <use transform="translate(127.24609375 52.965625)scale(0.7)" xlink:href="#BitstreamVeraSans-Roman-31"/>
      </g>
     </g>
    </g>
    <g id="ytick_3">
     <g id="line2d_36">
      <path clip-path="url(#p7ff5b81e1d)" d="
M72 43.2
L518.4 43.2" style="fill:none;stroke:#000000;stroke-dasharray:1.000000,3.000000;stroke-dashoffset:0.0;stroke-width:0.5;"/>
     </g>
     <g id="line2d_37">
      <g>
       <use style="stroke:#000000;stroke-width:0.5;" x="72.0" xlink:href="#md7965d1ba0" y="43.2"/>
      </g>
     </g>
     <g id="line2d_38">
      <g>
       <use style="stroke:#000000;stroke-width:0.5;" x="518.4" xlink:href="#md9a1c1a7cd" y="43.2"/>
      </g>
     </g>
     <g id="text_13">
      <!-- $\mathdefault{10^{2}}$ -->
      <g transform="translate(44.84 47.124375)scale(0.12 -0.12)">
       <use transform="translate(0.0 0.546875)" xlink:href="#BitstreamVeraSans-Roman-31"/>
       <use transform="translate(63.623046875 0.546875)" xlink:href="#BitstreamVeraSans-Roman-30"/>
       <use transform="translate(127.24609375 53.046875)scale(0.7)" xlink:href="#BitstreamVeraSans-Roman-32"/>
      </g>
     </g>
    </g>
    <g id="ytick_4">
     <g id="line2d_39">
      <defs>
       <path d="
M0 0
L2 0" id="m8d45281ad4" style="stroke:#000000;stroke-width:0.5;"/>
      </defs>
      <g>
       <use style="stroke:#000000;stroke-width:0.5;" x="72.0" xlink:href="#m8d45281ad4" y="336.782016749"/>
      </g>
     </g>
     <g id="line2d_40">
      <defs>
       <path d="
M0 0
L-2 0" id="me3f9b4022a" style="stroke:#000000;stroke-width:0.5;"/>
      </defs>
      <g>
       <use style="stroke:#000000;stroke-width:0.5;" x="518.4" xlink:href="#me3f9b4022a" y="336.782016749"/>
      </g>
     </g>
    </g>
    <g id="ytick_5">
     <g id="line2d_41">
      <g>
       <use style="stroke:#000000;stroke-width:0.5;" x="72.0" xlink:href="#m8d45281ad4" y="306.353447184"/>
      </g>
     </g>
     <g id="line2d_42">
      <g>
       <use style="stroke:#000000;stroke-width:0.5;" x="518.4" xlink:href="#me3f9b4022a" y="306.353447184"/>
      </g>
     </g>
    </g>
    <g id="ytick_6">
     <g id="line2d_43">
      <g>
       <use style="stroke:#000000;stroke-width:0.5;" x="72.0" xlink:href="#m8d45281ad4" y="284.764033499"/>
      </g>
     </g>
     <g id="line2d_44">
      <g>
       <use style="stroke:#000000;stroke-width:0.5;" x="518.4" xlink:href="#me3f9b4022a" y="284.764033499"/>
      </g>
     </g>
    </g>
    <g id="ytick_7">
     <g id="line2d_45">
      <g>
       <use style="stroke:#000000;stroke-width:0.5;" x="72.0" xlink:href="#m8d45281ad4" y="268.017983251"/>
      </g>
     </g>
     <g id="line2d_46">
      <g>
       <use style="stroke:#000000;stroke-width:0.5;" x="518.4" xlink:href="#me3f9b4022a" y="268.017983251"/>
      </g>
     </g>
    </g>
    <g id="ytick_8">
     <g id="line2d_47">
      <g>
       <use style="stroke:#000000;stroke-width:0.5;" x="72.0" xlink:href="#m8d45281ad4" y="254.335463934"/>
      </g>
     </g>
     <g id="line2d_48">
      <g>
       <use style="stroke:#000000;stroke-width:0.5;" x="518.4" xlink:href="#me3f9b4022a" y="254.335463934"/>
      </g>
     </g>
    </g>
    <g id="ytick_9">
     <g id="line2d_49">
      <g>
       <use style="stroke:#000000;stroke-width:0.5;" x="72.0" xlink:href="#m8d45281ad4" y="242.767058686"/>
      </g>
     </g>
     <g id="line2d_50">
      <g>
       <use style="stroke:#000000;stroke-width:0.5;" x="518.4" xlink:href="#me3f9b4022a" y="242.767058686"/>
      </g>
     </g>
    </g>
    <g id="ytick_10">
     <g id="line2d_51">
      <g>
       <use style="stroke:#000000;stroke-width:0.5;" x="72.0" xlink:href="#m8d45281ad4" y="232.746050248"/>
      </g>
     </g>
     <g id="line2d_52">
      <g>
       <use style="stroke:#000000;stroke-width:0.5;" x="518.4" xlink:href="#me3f9b4022a" y="232.746050248"/>
      </g>
     </g>
    </g>
    <g id="ytick_11">
     <g id="line2d_53">
      <g>
       <use style="stroke:#000000;stroke-width:0.5;" x="72.0" xlink:href="#m8d45281ad4" y="223.906894369"/>
      </g>
     </g>
     <g id="line2d_54">
      <g>
       <use style="stroke:#000000;stroke-width:0.5;" x="518.4" xlink:href="#me3f9b4022a" y="223.906894369"/>
      </g>
     </g>
    </g>
    <g id="ytick_12">
     <g id="line2d_55">
      <g>
       <use style="stroke:#000000;stroke-width:0.5;" x="72.0" xlink:href="#m8d45281ad4" y="163.982016749"/>
      </g>
     </g>
     <g id="line2d_56">
      <g>
       <use style="stroke:#000000;stroke-width:0.5;" x="518.4" xlink:href="#me3f9b4022a" y="163.982016749"/>
      </g>
     </g>
    </g>
    <g id="ytick_13">
     <g id="line2d_57">
      <g>
       <use style="stroke:#000000;stroke-width:0.5;" x="72.0" xlink:href="#m8d45281ad4" y="133.553447184"/>
      </g>
     </g>
     <g id="line2d_58">
      <g>
       <use style="stroke:#000000;stroke-width:0.5;" x="518.4" xlink:href="#me3f9b4022a" y="133.553447184"/>
      </g>
     </g>
    </g>
    <g id="ytick_14">
     <g id="line2d_59">
      <g>
       <use style="stroke:#000000;stroke-width:0.5;" x="72.0" xlink:href="#m8d45281ad4" y="111.964033499"/>
      </g>
     </g>
     <g id="line2d_60">
      <g>
       <use style="stroke:#000000;stroke-width:0.5;" x="518.4" xlink:href="#me3f9b4022a" y="111.964033499"/>
      </g>
     </g>
    </g>
    <g id="ytick_15">
     <g id="line2d_61">
      <g>
       <use style="stroke:#000000;stroke-width:0.5;" x="72.0" xlink:href="#m8d45281ad4" y="95.2179832507"/>
      </g>
     </g>
     <g id="line2d_62">
      <g>
       <use style="stroke:#000000;stroke-width:0.5;" x="518.4" xlink:href="#me3f9b4022a" y="95.2179832507"/>
      </g>
     </g>
    </g>
    <g id="ytick_16">
     <g id="line2d_63">
      <g>
       <use style="stroke:#000000;stroke-width:0.5;" x="72.0" xlink:href="#m8d45281ad4" y="81.5354639337"/>
      </g>
     </g>
     <g id="line2d_64">
      <g>
       <use style="stroke:#000000;stroke-width:0.5;" x="518.4" xlink:href="#me3f9b4022a" y="81.5354639337"/>
      </g>
     </g>
    </g>
    <g id="ytick_17">
     <g id="line2d_65">
      <g>
       <use style="stroke:#000000;stroke-width:0.5;" x="72.0" xlink:href="#m8d45281ad4" y="69.9670586855"/>
      </g>
     </g>
     <g id="line2d_66">
      <g>
       <use style="stroke:#000000;stroke-width:0.5;" x="518.4" xlink:href="#me3f9b4022a" y="69.9670586855"/>
      </g>
     </g>
    </g>
    <g id="ytick_18">
     <g id="line2d_67">
      <g>
       <use style="stroke:#000000;stroke-width:0.5;" x="72.0" xlink:href="#m8d45281ad4" y="59.9460502478"/>
      </g>
     </g>
     <g id="line2d_68">
      <g>
       <use style="stroke:#000000;stroke-width:0.5;" x="518.4" xlink:href="#me3f9b4022a" y="59.9460502478"/>
      </g>
     </g>
    </g>
    <g id="ytick_19">
     <g id="line2d_69">
      <g>
       <use style="stroke:#000000;stroke-width:0.5;" x="72.0" xlink:href="#m8d45281ad4" y="51.1068943689"/>
      </g>
     </g>
     <g id="line2d_70">
      <g>
       <use style="stroke:#000000;stroke-width:0.5;" x="518.4" xlink:href="#me3f9b4022a" y="51.1068943689"/>
      </g>
     </g>
    </g>
   </g>
   <g id="text_14">
    <!-- task: MuseDataset -->
    <defs>
     <path d="
M11.7188 12.4062
L22.0156 12.4062
L22.0156 0
L11.7188 0
z

M11.7188 51.7031
L22.0156 51.7031
L22.0156 39.3125
L11.7188 39.3125
z
" id="BitstreamVeraSans-Roman-3a"/>
     <path d="
M19.6719 64.7969
L19.6719 8.10938
L31.5938 8.10938
Q46.6875 8.10938 53.6875 14.9375
Q60.6875 21.7812 60.6875 36.5312
Q60.6875 51.1719 53.6875 57.9844
Q46.6875 64.7969 31.5938 64.7969
z

M9.8125 72.9062
L30.0781 72.9062
Q51.2656 72.9062 61.1719 64.0938
Q71.0938 55.2812 71.0938 36.5312
Q71.0938 17.6719 61.125 8.82812
Q51.1719 0 30.0781 0
L9.8125 0
z
" id="BitstreamVeraSans-Roman-44"/>
     <path d="
M44.2812 53.0781
L44.2812 44.5781
Q40.4844 46.5312 36.375 47.5
Q32.2812 48.4844 27.875 48.4844
Q21.1875 48.4844 17.8438 46.4375
Q14.5 44.3906 14.5 40.2812
Q14.5 37.1562 16.8906 35.375
Q19.2812 33.5938 26.5156 31.9844
L29.5938 31.2969
Q39.1562 29.25 43.1875 25.5156
Q47.2188 21.7812 47.2188 15.0938
Q47.2188 7.46875 41.1875 3.01562
Q35.1562 -1.42188 24.6094 -1.42188
Q20.2188 -1.42188 15.4531 -0.5625
Q10.6875 0.296875 5.42188 2
L5.42188 11.2812
Q10.4062 8.6875 15.2344 7.39062
Q20.0625 6.10938 24.8125 6.10938
Q31.1562 6.10938 34.5625 8.28125
Q37.9844 10.4531 37.9844 14.4062
Q37.9844 18.0625 35.5156 20.0156
Q33.0625 21.9688 24.7031 23.7812
L21.5781 24.5156
Q13.2344 26.2656 9.51562 29.9062
Q5.8125 33.5469 5.8125 39.8906
Q5.8125 47.6094 11.2812 51.7969
Q16.75 56 26.8125 56
Q31.7812 56 36.1719 55.2656
Q40.5781 54.5469 44.2812 53.0781" id="BitstreamVeraSans-Roman-73"/>
     <path d="
M9.07812 75.9844
L18.1094 75.9844
L18.1094 31.1094
L44.9219 54.6875
L56.3906 54.6875
L27.3906 29.1094
L57.625 0
L45.9062 0
L18.1094 26.7031
L18.1094 0
L9.07812 0
z
" id="BitstreamVeraSans-Roman-6b"/>
     <path d="
M9.8125 72.9062
L24.5156 72.9062
L43.1094 23.2969
L61.8125 72.9062
L76.5156 72.9062
L76.5156 0
L66.8906 0
L66.8906 64.0156
L48.0938 14.0156
L38.1875 14.0156
L19.3906 64.0156
L19.3906 0
L9.8125 0
z
" id="BitstreamVeraSans-Roman-4d"/>
    </defs>
    <g transform="translate(72.0 -9.6095625)scale(0.14 -0.14)">
     <use xlink:href="#BitstreamVeraSans-Roman-74"/>
     <use x="39.208984375" xlink:href="#BitstreamVeraSans-Roman-61"/>
     <use x="100.48828125" xlink:href="#BitstreamVeraSans-Roman-73"/>
     <use x="152.587890625" xlink:href="#BitstreamVeraSans-Roman-6b"/>
     <use x="210.498046875" xlink:href="#BitstreamVeraSans-Roman-3a"/>
     <use x="244.189453125" xlink:href="#BitstreamVeraSans-Roman-20"/>
     <use x="275.9765625" xlink:href="#BitstreamVeraSans-Roman-4d"/>
     <use x="362.255859375" xlink:href="#BitstreamVeraSans-Roman-75"/>
     <use x="425.634765625" xlink:href="#BitstreamVeraSans-Roman-73"/>
     <use x="477.734375" xlink:href="#BitstreamVeraSans-Roman-65"/>
     <use x="539.2578125" xlink:href="#BitstreamVeraSans-Roman-44"/>
     <use x="616.259765625" xlink:href="#BitstreamVeraSans-Roman-61"/>
     <use x="677.5390625" xlink:href="#BitstreamVeraSans-Roman-74"/>
     <use x="716.748046875" xlink:href="#BitstreamVeraSans-Roman-61"/>
     <use x="778.02734375" xlink:href="#BitstreamVeraSans-Roman-73"/>
     <use x="830.126953125" xlink:href="#BitstreamVeraSans-Roman-65"/>
     <use x="891.650390625" xlink:href="#BitstreamVeraSans-Roman-74"/>
    </g>
    <!-- training time: 4963.39 min,  num iterations: 359.200, batch_size: 20 -->
    <defs>
     <path d="
M50.9844 -16.6094
L50.9844 -23.5781
L-0.984375 -23.5781
L-0.984375 -16.6094
z
" id="BitstreamVeraSans-Roman-5f"/>
     <path d="
M48.7812 52.5938
L48.7812 44.1875
Q44.9688 46.2969 41.1406 47.3438
Q37.3125 48.3906 33.4062 48.3906
Q24.6562 48.3906 19.8125 42.8438
Q14.9844 37.3125 14.9844 27.2969
Q14.9844 17.2812 19.8125 11.7344
Q24.6562 6.20312 33.4062 6.20312
Q37.3125 6.20312 41.1406 7.25
Q44.9688 8.29688 48.7812 10.4062
L48.7812 2.09375
Q45.0156 0.34375 40.9844 -0.53125
Q36.9688 -1.42188 32.4219 -1.42188
Q20.0625 -1.42188 12.7812 6.34375
Q5.51562 14.1094 5.51562 27.2969
Q5.51562 40.6719 12.8594 48.3281
Q20.2188 56 33.0156 56
Q37.1562 56 41.1094 55.1406
Q45.0625 54.2969 48.7812 52.5938" id="BitstreamVeraSans-Roman-63"/>
     <path d="
M10.6875 12.4062
L21 12.4062
L21 0
L10.6875 0
z
" id="BitstreamVeraSans-Roman-2e"/>
     <path d="
M10.9844 1.51562
L10.9844 10.5
Q14.7031 8.73438 18.5 7.8125
Q22.3125 6.89062 25.9844 6.89062
Q35.75 6.89062 40.8906 13.4531
Q46.0469 20.0156 46.7812 33.4062
Q43.9531 29.2031 39.5938 26.9531
Q35.25 24.7031 29.9844 24.7031
Q19.0469 24.7031 12.6719 31.3125
Q6.29688 37.9375 6.29688 49.4219
Q6.29688 60.6406 12.9375 67.4219
Q19.5781 74.2188 30.6094 74.2188
Q43.2656 74.2188 49.9219 64.5156
Q56.5938 54.8281 56.5938 36.375
Q56.5938 19.1406 48.4062 8.85938
Q40.2344 -1.42188 26.4219 -1.42188
Q22.7031 -1.42188 18.8906 -0.6875
Q15.0938 0.046875 10.9844 1.51562
M30.6094 32.4219
Q37.25 32.4219 41.125 36.9531
Q45.0156 41.5 45.0156 49.4219
Q45.0156 57.2812 41.125 61.8438
Q37.25 66.4062 30.6094 66.4062
Q23.9688 66.4062 20.0938 61.8438
Q16.2188 57.2812 16.2188 49.4219
Q16.2188 41.5 20.0938 36.9531
Q23.9688 32.4219 30.6094 32.4219" id="BitstreamVeraSans-Roman-39"/>
     <path d="
M45.4062 27.9844
Q45.4062 37.75 41.375 43.1094
Q37.3594 48.4844 30.0781 48.4844
Q22.8594 48.4844 18.8281 43.1094
Q14.7969 37.75 14.7969 27.9844
Q14.7969 18.2656 18.8281 12.8906
Q22.8594 7.51562 30.0781 7.51562
Q37.3594 7.51562 41.375 12.8906
Q45.4062 18.2656 45.4062 27.9844
M54.3906 6.78125
Q54.3906 -7.17188 48.1875 -13.9844
Q42 -20.7969 29.2031 -20.7969
Q24.4688 -20.7969 20.2656 -20.0938
Q16.0625 -19.3906 12.1094 -17.9219
L12.1094 -9.1875
Q16.0625 -11.3281 19.9219 -12.3438
Q23.7812 -13.375 27.7812 -13.375
Q36.625 -13.375 41.0156 -8.76562
Q45.4062 -4.15625 45.4062 5.17188
L45.4062 9.625
Q42.625 4.78125 38.2812 2.39062
Q33.9375 0 27.875 0
Q17.8281 0 11.6719 7.65625
Q5.51562 15.3281 5.51562 27.9844
Q5.51562 40.6719 11.6719 48.3281
Q17.8281 56 27.875 56
Q33.9375 56 38.2812 53.6094
Q42.625 51.2188 45.4062 46.3906
L45.4062 54.6875
L54.3906 54.6875
z
" id="BitstreamVeraSans-Roman-67"/>
     <path d="
M54.8906 33.0156
L54.8906 0
L45.9062 0
L45.9062 32.7188
Q45.9062 40.4844 42.875 44.3281
Q39.8438 48.1875 33.7969 48.1875
Q26.5156 48.1875 22.3125 43.5469
Q18.1094 38.9219 18.1094 30.9062
L18.1094 0
L9.07812 0
L9.07812 75.9844
L18.1094 75.9844
L18.1094 46.1875
Q21.3438 51.125 25.7031 53.5625
Q30.0781 56 35.7969 56
Q45.2188 56 50.0469 50.1719
Q54.8906 44.3438 54.8906 33.0156" id="BitstreamVeraSans-Roman-68"/>
     <path d="
M11.7188 12.4062
L22.0156 12.4062
L22.0156 4
L14.0156 -11.625
L7.71875 -11.625
L11.7188 4
z
" id="BitstreamVeraSans-Roman-2c"/>
     <path d="
M33.0156 40.375
Q26.375 40.375 22.4844 35.8281
Q18.6094 31.2969 18.6094 23.3906
Q18.6094 15.5312 22.4844 10.9531
Q26.375 6.39062 33.0156 6.39062
Q39.6562 6.39062 43.5312 10.9531
Q47.4062 15.5312 47.4062 23.3906
Q47.4062 31.2969 43.5312 35.8281
Q39.6562 40.375 33.0156 40.375
M52.5938 71.2969
L52.5938 62.3125
Q48.875 64.0625 45.0938 64.9844
Q41.3125 65.9219 37.5938 65.9219
Q27.8281 65.9219 22.6719 59.3281
Q17.5312 52.7344 16.7969 39.4062
Q19.6719 43.6562 24.0156 45.9219
Q28.375 48.1875 33.5938 48.1875
Q44.5781 48.1875 50.9531 41.5156
Q57.3281 34.8594 57.3281 23.3906
Q57.3281 12.1562 50.6875 5.35938
Q44.0469 -1.42188 33.0156 -1.42188
Q20.3594 -1.42188 13.6719 8.26562
Q6.98438 17.9688 6.98438 36.375
Q6.98438 53.6562 15.1875 63.9375
Q23.3906 74.2188 37.2031 74.2188
Q40.9219 74.2188 44.7031 73.4844
Q48.4844 72.75 52.5938 71.2969" id="BitstreamVeraSans-Roman-36"/>
     <path d="
M48.6875 27.2969
Q48.6875 37.2031 44.6094 42.8438
Q40.5312 48.4844 33.4062 48.4844
Q26.2656 48.4844 22.1875 42.8438
Q18.1094 37.2031 18.1094 27.2969
Q18.1094 17.3906 22.1875 11.75
Q26.2656 6.10938 33.4062 6.10938
Q40.5312 6.10938 44.6094 11.75
Q48.6875 17.3906 48.6875 27.2969
M18.1094 46.3906
Q20.9531 51.2656 25.2656 53.625
Q29.5938 56 35.5938 56
Q45.5625 56 51.7812 48.0938
Q58.0156 40.1875 58.0156 27.2969
Q58.0156 14.4062 51.7812 6.48438
Q45.5625 -1.42188 35.5938 -1.42188
Q29.5938 -1.42188 25.2656 0.953125
Q20.9531 3.32812 18.1094 8.20312
L18.1094 0
L9.07812 0
L9.07812 75.9844
L18.1094 75.9844
z
" id="BitstreamVeraSans-Roman-62"/>
     <path d="
M5.51562 54.6875
L48.1875 54.6875
L48.1875 46.4844
L14.4062 7.17188
L48.1875 7.17188
L48.1875 0
L4.29688 0
L4.29688 8.20312
L38.0938 47.5156
L5.51562 47.5156
z
" id="BitstreamVeraSans-Roman-7a"/>
    </defs>
    <g transform="translate(72.0 6.067375)scale(0.14 -0.14)">
     <use xlink:href="#BitstreamVeraSans-Roman-74"/>
     <use x="39.208984375" xlink:href="#BitstreamVeraSans-Roman-72"/>
     <use x="80.322265625" xlink:href="#BitstreamVeraSans-Roman-61"/>
     <use x="141.6015625" xlink:href="#BitstreamVeraSans-Roman-69"/>
     <use x="169.384765625" xlink:href="#BitstreamVeraSans-Roman-6e"/>
     <use x="232.763671875" xlink:href="#BitstreamVeraSans-Roman-69"/>
     <use x="260.546875" xlink:href="#BitstreamVeraSans-Roman-6e"/>
     <use x="323.92578125" xlink:href="#BitstreamVeraSans-Roman-67"/>
     <use x="387.40234375" xlink:href="#BitstreamVeraSans-Roman-20"/>
     <use x="419.189453125" xlink:href="#BitstreamVeraSans-Roman-74"/>
     <use x="458.3984375" xlink:href="#BitstreamVeraSans-Roman-69"/>
     <use x="486.181640625" xlink:href="#BitstreamVeraSans-Roman-6d"/>
     <use x="583.59375" xlink:href="#BitstreamVeraSans-Roman-65"/>
     <use x="645.1171875" xlink:href="#BitstreamVeraSans-Roman-3a"/>
     <use x="678.80859375" xlink:href="#BitstreamVeraSans-Roman-20"/>
     <use x="710.595703125" xlink:href="#BitstreamVeraSans-Roman-34"/>
     <use x="774.21875" xlink:href="#BitstreamVeraSans-Roman-39"/>
     <use x="837.841796875" xlink:href="#BitstreamVeraSans-Roman-36"/>
     <use x="901.46484375" xlink:href="#BitstreamVeraSans-Roman-33"/>
     <use x="965.087890625" xlink:href="#BitstreamVeraSans-Roman-2e"/>
     <use x="996.875" xlink:href="#BitstreamVeraSans-Roman-33"/>
     <use x="1060.498046875" xlink:href="#BitstreamVeraSans-Roman-39"/>
     <use x="1124.12109375" xlink:href="#BitstreamVeraSans-Roman-20"/>
     <use x="1155.908203125" xlink:href="#BitstreamVeraSans-Roman-6d"/>
     <use x="1253.3203125" xlink:href="#BitstreamVeraSans-Roman-69"/>
     <use x="1281.103515625" xlink:href="#BitstreamVeraSans-Roman-6e"/>
     <use x="1344.482421875" xlink:href="#BitstreamVeraSans-Roman-2c"/>
     <use x="1376.26953125" xlink:href="#BitstreamVeraSans-Roman-20"/>
     <use x="1408.056640625" xlink:href="#BitstreamVeraSans-Roman-20"/>
     <use x="1439.84375" xlink:href="#BitstreamVeraSans-Roman-6e"/>
     <use x="1503.22265625" xlink:href="#BitstreamVeraSans-Roman-75"/>
     <use x="1566.6015625" xlink:href="#BitstreamVeraSans-Roman-6d"/>
     <use x="1664.013671875" xlink:href="#BitstreamVeraSans-Roman-20"/>
     <use x="1695.80078125" xlink:href="#BitstreamVeraSans-Roman-69"/>
     <use x="1723.583984375" xlink:href="#BitstreamVeraSans-Roman-74"/>
     <use x="1762.79296875" xlink:href="#BitstreamVeraSans-Roman-65"/>
     <use x="1824.31640625" xlink:href="#BitstreamVeraSans-Roman-72"/>
     <use x="1865.4296875" xlink:href="#BitstreamVeraSans-Roman-61"/>
     <use x="1926.708984375" xlink:href="#BitstreamVeraSans-Roman-74"/>
     <use x="1965.91796875" xlink:href="#BitstreamVeraSans-Roman-69"/>
     <use x="1993.701171875" xlink:href="#BitstreamVeraSans-Roman-6f"/>
     <use x="2054.8828125" xlink:href="#BitstreamVeraSans-Roman-6e"/>
     <use x="2118.26171875" xlink:href="#BitstreamVeraSans-Roman-73"/>
     <use x="2170.361328125" xlink:href="#BitstreamVeraSans-Roman-3a"/>
     <use x="2204.052734375" xlink:href="#BitstreamVeraSans-Roman-20"/>
     <use x="2235.83984375" xlink:href="#BitstreamVeraSans-Roman-33"/>
     <use x="2299.462890625" xlink:href="#BitstreamVeraSans-Roman-35"/>
     <use x="2363.0859375" xlink:href="#BitstreamVeraSans-Roman-39"/>
     <use x="2426.708984375" xlink:href="#BitstreamVeraSans-Roman-2e"/>
     <use x="2458.49609375" xlink:href="#BitstreamVeraSans-Roman-32"/>
     <use x="2522.119140625" xlink:href="#BitstreamVeraSans-Roman-30"/>
     <use x="2585.7421875" xlink:href="#BitstreamVeraSans-Roman-30"/>
     <use x="2649.365234375" xlink:href="#BitstreamVeraSans-Roman-2c"/>
     <use x="2681.15234375" xlink:href="#BitstreamVeraSans-Roman-20"/>
     <use x="2712.939453125" xlink:href="#BitstreamVeraSans-Roman-62"/>
     <use x="2776.416015625" xlink:href="#BitstreamVeraSans-Roman-61"/>
     <use x="2837.6953125" xlink:href="#BitstreamVeraSans-Roman-74"/>
     <use x="2876.904296875" xlink:href="#BitstreamVeraSans-Roman-63"/>
     <use x="2931.884765625" xlink:href="#BitstreamVeraSans-Roman-68"/>
     <use x="2995.263671875" xlink:href="#BitstreamVeraSans-Roman-5f"/>
     <use x="3045.263671875" xlink:href="#BitstreamVeraSans-Roman-73"/>
     <use x="3097.36328125" xlink:href="#BitstreamVeraSans-Roman-69"/>
     <use x="3125.146484375" xlink:href="#BitstreamVeraSans-Roman-7a"/>
     <use x="3177.63671875" xlink:href="#BitstreamVeraSans-Roman-65"/>
     <use x="3239.16015625" xlink:href="#BitstreamVeraSans-Roman-3a"/>
     <use x="3272.8515625" xlink:href="#BitstreamVeraSans-Roman-20"/>
     <use x="3304.638671875" xlink:href="#BitstreamVeraSans-Roman-32"/>
     <use x="3368.26171875" xlink:href="#BitstreamVeraSans-Roman-30"/>
    </g>
    <!-- activation fnc: tanh  n_hidden: 300  n_in: 87  n_out: 87 -->
    <defs>
     <path d="
M45.4062 46.3906
L45.4062 75.9844
L54.3906 75.9844
L54.3906 0
L45.4062 0
L45.4062 8.20312
Q42.5781 3.32812 38.25 0.953125
Q33.9375 -1.42188 27.875 -1.42188
Q17.9688 -1.42188 11.7344 6.48438
Q5.51562 14.4062 5.51562 27.2969
Q5.51562 40.1875 11.7344 48.0938
Q17.9688 56 27.875 56
Q33.9375 56 38.25 53.625
Q42.5781 51.2656 45.4062 46.3906
M14.7969 27.2969
Q14.7969 17.3906 18.875 11.75
Q22.9531 6.10938 30.0781 6.10938
Q37.2031 6.10938 41.2969 11.75
Q45.4062 17.3906 45.4062 27.2969
Q45.4062 37.2031 41.2969 42.8438
Q37.2031 48.4844 30.0781 48.4844
Q22.9531 48.4844 18.875 42.8438
Q14.7969 37.2031 14.7969 27.2969" id="BitstreamVeraSans-Roman-64"/>
     <path d="
M8.20312 72.9062
L55.0781 72.9062
L55.0781 68.7031
L28.6094 0
L18.3125 0
L43.2188 64.5938
L8.20312 64.5938
z
" id="BitstreamVeraSans-Roman-37"/>
     <path d="
M31.7812 34.625
Q24.75 34.625 20.7188 30.8594
Q16.7031 27.0938 16.7031 20.5156
Q16.7031 13.9219 20.7188 10.1562
Q24.75 6.39062 31.7812 6.39062
Q38.8125 6.39062 42.8594 10.1719
Q46.9219 13.9688 46.9219 20.5156
Q46.9219 27.0938 42.8906 30.8594
Q38.875 34.625 31.7812 34.625
M21.9219 38.8125
Q15.5781 40.375 12.0312 44.7188
Q8.5 49.0781 8.5 55.3281
Q8.5 64.0625 14.7188 69.1406
Q20.9531 74.2188 31.7812 74.2188
Q42.6719 74.2188 48.875 69.1406
Q55.0781 64.0625 55.0781 55.3281
Q55.0781 49.0781 51.5312 44.7188
Q48 40.375 41.7031 38.8125
Q48.8281 37.1562 52.7969 32.3125
Q56.7812 27.4844 56.7812 20.5156
Q56.7812 9.90625 50.3125 4.23438
Q43.8438 -1.42188 31.7812 -1.42188
Q19.7344 -1.42188 13.25 4.23438
Q6.78125 9.90625 6.78125 20.5156
Q6.78125 27.4844 10.7812 32.3125
Q14.7969 37.1562 21.9219 38.8125
M18.3125 54.3906
Q18.3125 48.7344 21.8438 45.5625
Q25.3906 42.3906 31.7812 42.3906
Q38.1406 42.3906 41.7188 45.5625
Q45.3125 48.7344 45.3125 54.3906
Q45.3125 60.0625 41.7188 63.2344
Q38.1406 66.4062 31.7812 66.4062
Q25.3906 66.4062 21.8438 63.2344
Q18.3125 60.0625 18.3125 54.3906" id="BitstreamVeraSans-Roman-38"/>
     <path d="
M2.98438 54.6875
L12.5 54.6875
L29.5938 8.79688
L46.6875 54.6875
L56.2031 54.6875
L35.6875 0
L23.4844 0
z
" id="BitstreamVeraSans-Roman-76"/>
     <path d="
M37.1094 75.9844
L37.1094 68.5
L28.5156 68.5
Q23.6875 68.5 21.7969 66.5469
Q19.9219 64.5938 19.9219 59.5156
L19.9219 54.6875
L34.7188 54.6875
L34.7188 47.7031
L19.9219 47.7031
L19.9219 0
L10.8906 0
L10.8906 47.7031
L2.29688 47.7031
L2.29688 54.6875
L10.8906 54.6875
L10.8906 58.5
Q10.8906 67.625 15.1406 71.7969
Q19.3906 75.9844 28.6094 75.9844
z
" id="BitstreamVeraSans-Roman-66"/>
    </defs>
    <g transform="translate(72.0 22.1336875)scale(0.14 -0.14)">
     <use xlink:href="#BitstreamVeraSans-Roman-61"/>
     <use x="61.279296875" xlink:href="#BitstreamVeraSans-Roman-63"/>
     <use x="116.259765625" xlink:href="#BitstreamVeraSans-Roman-74"/>
     <use x="155.46875" xlink:href="#BitstreamVeraSans-Roman-69"/>
     <use x="183.251953125" xlink:href="#BitstreamVeraSans-Roman-76"/>
     <use x="242.431640625" xlink:href="#BitstreamVeraSans-Roman-61"/>
     <use x="303.7109375" xlink:href="#BitstreamVeraSans-Roman-74"/>
     <use x="342.919921875" xlink:href="#BitstreamVeraSans-Roman-69"/>
     <use x="370.703125" xlink:href="#BitstreamVeraSans-Roman-6f"/>
     <use x="431.884765625" xlink:href="#BitstreamVeraSans-Roman-6e"/>
     <use x="495.263671875" xlink:href="#BitstreamVeraSans-Roman-20"/>
     <use x="527.05078125" xlink:href="#BitstreamVeraSans-Roman-66"/>
     <use x="562.255859375" xlink:href="#BitstreamVeraSans-Roman-6e"/>
     <use x="625.634765625" xlink:href="#BitstreamVeraSans-Roman-63"/>
     <use x="680.615234375" xlink:href="#BitstreamVeraSans-Roman-3a"/>
     <use x="714.306640625" xlink:href="#BitstreamVeraSans-Roman-20"/>
     <use x="746.09375" xlink:href="#BitstreamVeraSans-Roman-74"/>
     <use x="785.302734375" xlink:href="#BitstreamVeraSans-Roman-61"/>
     <use x="846.58203125" xlink:href="#BitstreamVeraSans-Roman-6e"/>
     <use x="909.9609375" xlink:href="#BitstreamVeraSans-Roman-68"/>
     <use x="973.33984375" xlink:href="#BitstreamVeraSans-Roman-20"/>
     <use x="1005.126953125" xlink:href="#BitstreamVeraSans-Roman-20"/>
     <use x="1036.9140625" xlink:href="#BitstreamVeraSans-Roman-6e"/>
     <use x="1100.29296875" xlink:href="#BitstreamVeraSans-Roman-5f"/>
     <use x="1150.29296875" xlink:href="#BitstreamVeraSans-Roman-68"/>
     <use x="1213.671875" xlink:href="#BitstreamVeraSans-Roman-69"/>
     <use x="1241.455078125" xlink:href="#BitstreamVeraSans-Roman-64"/>
     <use x="1304.931640625" xlink:href="#BitstreamVeraSans-Roman-64"/>
     <use x="1368.408203125" xlink:href="#BitstreamVeraSans-Roman-65"/>
     <use x="1429.931640625" xlink:href="#BitstreamVeraSans-Roman-6e"/>
     <use x="1493.310546875" xlink:href="#BitstreamVeraSans-Roman-3a"/>
     <use x="1527.001953125" xlink:href="#BitstreamVeraSans-Roman-20"/>
     <use x="1558.7890625" xlink:href="#BitstreamVeraSans-Roman-33"/>
     <use x="1622.412109375" xlink:href="#BitstreamVeraSans-Roman-30"/>
     <use x="1686.03515625" xlink:href="#BitstreamVeraSans-Roman-30"/>
     <use x="1749.658203125" xlink:href="#BitstreamVeraSans-Roman-20"/>
     <use x="1781.4453125" xlink:href="#BitstreamVeraSans-Roman-20"/>
     <use x="1813.232421875" xlink:href="#BitstreamVeraSans-Roman-6e"/>
     <use x="1876.611328125" xlink:href="#BitstreamVeraSans-Roman-5f"/>
     <use x="1926.611328125" xlink:href="#BitstreamVeraSans-Roman-69"/>
     <use x="1954.39453125" xlink:href="#BitstreamVeraSans-Roman-6e"/>
     <use x="2017.7734375" xlink:href="#BitstreamVeraSans-Roman-3a"/>
     <use x="2051.46484375" xlink:href="#BitstreamVeraSans-Roman-20"/>
     <use x="2083.251953125" xlink:href="#BitstreamVeraSans-Roman-38"/>
     <use x="2146.875" xlink:href="#BitstreamVeraSans-Roman-37"/>
     <use x="2210.498046875" xlink:href="#BitstreamVeraSans-Roman-20"/>
     <use x="2242.28515625" xlink:href="#BitstreamVeraSans-Roman-20"/>
     <use x="2274.072265625" xlink:href="#BitstreamVeraSans-Roman-6e"/>
     <use x="2337.451171875" xlink:href="#BitstreamVeraSans-Roman-5f"/>
     <use x="2387.451171875" xlink:href="#BitstreamVeraSans-Roman-6f"/>
     <use x="2448.6328125" xlink:href="#BitstreamVeraSans-Roman-75"/>
     <use x="2512.01171875" xlink:href="#BitstreamVeraSans-Roman-74"/>
     <use x="2551.220703125" xlink:href="#BitstreamVeraSans-Roman-3a"/>
     <use x="2584.912109375" xlink:href="#BitstreamVeraSans-Roman-20"/>
     <use x="2616.69921875" xlink:href="#BitstreamVeraSans-Roman-38"/>
     <use x="2680.322265625" xlink:href="#BitstreamVeraSans-Roman-37"/>
    </g>
    <!--  -->
    <g transform="translate(72.0 38.2)scale(0.14 -0.14)"/>
   </g>
   <g id="legend_1">
    <g id="patch_7">
     <path d="
M361.654 98.993
L510.32 98.993
Q513.2 98.993 513.2 96.113
L513.2 55.28
Q513.2 52.4 510.32 52.4
L361.654 52.4
Q358.774 52.4 358.774 55.28
L358.774 96.113
Q358.774 98.993 361.654 98.993
z
" style="fill:#4c4c4c;opacity:0.5;stroke:#4c4c4c;stroke-linejoin:miter;"/>
    </g>
    <g id="patch_8">
     <path d="
M359.654 96.993
L508.32 96.993
Q511.2 96.993 511.2 94.113
L511.2 53.28
Q511.2 50.4 508.32 50.4
L359.654 50.4
Q356.774 50.4 356.774 53.28
L356.774 94.113
Q356.774 96.993 359.654 96.993
z
" style="fill:#ffffff;stroke:#000000;stroke-linejoin:miter;"/>
    </g>
    <g id="line2d_71">
     <path d="
M366.854 62.0617
L387.014 62.0617" style="fill:none;stroke:#0000ff;stroke-linecap:square;"/>
    </g>
    <g id="line2d_72"/>
    <g id="text_15">
     <!-- train loss -->
     <defs>
      <path d="
M9.42188 75.9844
L18.4062 75.9844
L18.4062 0
L9.42188 0
z
" id="BitstreamVeraSans-Roman-6c"/>
     </defs>
     <g transform="translate(402.8535 67.10175)scale(0.144 -0.144)">
      <use xlink:href="#BitstreamVeraSans-Roman-74"/>
      <use x="39.208984375" xlink:href="#BitstreamVeraSans-Roman-72"/>
      <use x="80.322265625" xlink:href="#BitstreamVeraSans-Roman-61"/>
      <use x="141.6015625" xlink:href="#BitstreamVeraSans-Roman-69"/>
      <use x="169.384765625" xlink:href="#BitstreamVeraSans-Roman-6e"/>
      <use x="232.763671875" xlink:href="#BitstreamVeraSans-Roman-20"/>
      <use x="264.55078125" xlink:href="#BitstreamVeraSans-Roman-6c"/>
      <use x="292.333984375" xlink:href="#BitstreamVeraSans-Roman-6f"/>
      <use x="353.515625" xlink:href="#BitstreamVeraSans-Roman-73"/>
      <use x="405.615234375" xlink:href="#BitstreamVeraSans-Roman-73"/>
     </g>
    </g>
    <g id="line2d_73">
     <path d="
M366.854 83.1982
L387.014 83.1982" style="fill:none;stroke:#bf00bf;stroke-linecap:square;"/>
    </g>
    <g id="line2d_74"/>
    <g id="text_16">
     <!-- validation loss -->
     <g transform="translate(402.8535 88.23825)scale(0.144 -0.144)">
      <use xlink:href="#BitstreamVeraSans-Roman-76"/>
      <use x="59.1796875" xlink:href="#BitstreamVeraSans-Roman-61"/>
      <use x="120.458984375" xlink:href="#BitstreamVeraSans-Roman-6c"/>
      <use x="148.2421875" xlink:href="#BitstreamVeraSans-Roman-69"/>
      <use x="176.025390625" xlink:href="#BitstreamVeraSans-Roman-64"/>
      <use x="239.501953125" xlink:href="#BitstreamVeraSans-Roman-61"/>
      <use x="300.78125" xlink:href="#BitstreamVeraSans-Roman-74"/>
      <use x="339.990234375" xlink:href="#BitstreamVeraSans-Roman-69"/>
      <use x="367.7734375" xlink:href="#BitstreamVeraSans-Roman-6f"/>
      <use x="428.955078125" xlink:href="#BitstreamVeraSans-Roman-6e"/>
      <use x="492.333984375" xlink:href="#BitstreamVeraSans-Roman-20"/>
      <use x="524.12109375" xlink:href="#BitstreamVeraSans-Roman-6c"/>
      <use x="551.904296875" xlink:href="#BitstreamVeraSans-Roman-6f"/>
      <use x="613.0859375" xlink:href="#BitstreamVeraSans-Roman-73"/>
      <use x="665.185546875" xlink:href="#BitstreamVeraSans-Roman-73"/>
     </g>
    </g>
   </g>
  </g>
 </g>
 <defs>
  <clipPath id="p7ff5b81e1d">
   <rect height="345.6" width="446.4" x="72.0" y="43.2"/>
  </clipPath>
 </defs>
</svg>
