<?xml version="1.0" encoding="utf-8" standalone="no"?>
<!DOCTYPE svg PUBLIC "-//W3C//DTD SVG 1.1//EN"
  "http://www.w3.org/Graphics/SVG/1.1/DTD/svg11.dtd">
<!-- Created with matplotlib (http://matplotlib.org/) -->
<svg height="432pt" version="1.1" viewBox="0 0 576 432" width="576pt" xmlns="http://www.w3.org/2000/svg" xmlns:xlink="http://www.w3.org/1999/xlink">
 <defs>
  <style type="text/css">
*{stroke-linecap:butt;stroke-linejoin:round;}
  </style>
 </defs>
 <g id="figure_1">
  <g id="patch_1">
   <path d="
M0 432
L576 432
L576 0
L0 0
z
" style="fill:#ffffff;"/>
  </g>
  <g id="axes_1">
   <g id="patch_2">
    <path d="
M72 388.8
L518.4 388.8
L518.4 43.2
L72 43.2
z
" style="fill:#ffffff;"/>
   </g>
   <g id="line2d_1">
    <path clip-path="url(#p7ff5b81e1d)" d="
M72 75.807
L72.2976 211.67
L72.5952 214.43
L73.1904 217.479
L75.2736 224.924
L76.1664 227.024
L76.464 227.271
L77.3568 229.034
L79.1424 231.752
L79.44 231.979
L79.7376 232.427
L80.3328 232.915
L80.928 233.817
L81.5232 234.197
L82.1184 234.893
L82.416 235
L82.7136 234.914
L83.3088 235.781
L84.2016 236.268
L84.4992 236.48
L84.7968 236.549
L85.0944 236.912
L85.392 237.095
L85.6896 237.116
L85.9872 237.307
L86.2848 237.716
L86.88 237.777
L89.2608 239.017
L89.5584 238.814
L89.856 238.958
L90.1536 239.252
L90.4512 239.307
L90.7488 239.587
L91.344 239.533
L91.6416 239.555
L91.9392 239.993
L92.2368 239.918
L92.832 240.097
L93.4272 240.192
L93.7248 240.374
L94.32 240.324
L94.6176 240.696
L94.9152 240.672
L95.2128 240.909
L95.5104 240.643
L95.808 240.979
L96.1056 240.538
L96.4032 240.964
L96.9984 241.319
L97.8912 241.349
L98.1888 241.55
L98.4864 241.403
L98.784 241.582
L99.0816 241.613
L99.3792 241.758
L99.6768 241.639
L100.272 241.896
L100.867 241.924
L101.165 241.655
L101.462 242.065
L101.76 241.987
L102.058 242.176
L102.653 242.222
L102.95 242.136
L103.248 242.433
L103.546 242.484
L103.843 242.236
L104.438 242.369
L105.629 242.774
L105.926 242.743
L106.224 242.864
L106.522 242.647
L106.819 242.755
L107.117 242.99
L108.01 243.081
L108.307 242.821
L108.605 243.09
L109.498 243.214
L109.795 243.363
L110.093 243.322
L110.39 243.406
L110.688 243.294
L110.986 243.625
L111.283 243.416
L111.581 243.497
L111.878 243.452
L112.176 243.634
L113.069 243.821
L113.366 243.665
L113.664 243.682
L113.962 244.013
L114.259 244.048
L114.557 243.862
L114.854 243.831
L115.152 244.078
L115.45 244.155
L116.045 244.082
L116.342 244.208
L117.235 244.22
L117.533 244.378
L117.83 243.914
L118.128 244.468
L119.021 244.478
L119.318 244.399
L119.616 244.696
L120.211 244.779
L120.509 244.873
L120.806 244.801
L121.402 244.86
L121.699 244.817
L121.997 244.937
L122.294 244.554
L122.592 245.08
L123.187 245.13
L123.485 244.91
L124.08 245.389
L124.675 245.244
L124.973 245.436
L125.27 245.423
L126.163 245.629
L126.758 245.711
L127.354 245.885
L127.651 245.768
L128.544 245.937
L128.842 245.9
L129.139 246.153
L129.734 246.079
L130.032 245.956
L130.33 246.22
L130.627 246.212
L131.222 246.519
L131.818 246.334
L132.115 246.687
L132.413 246.546
L132.71 246.537
L133.603 246.835
L134.496 246.759
L134.794 246.937
L135.389 247.001
L135.984 247.198
L136.579 247.129
L136.877 247.405
L137.174 247.279
L137.77 247.364
L138.067 247.577
L138.96 247.595
L139.555 247.73
L139.853 247.678
L140.15 247.789
L140.448 248.06
L140.746 247.95
L141.043 248.117
L141.341 247.943
L141.638 248.012
L141.936 248.201
L142.234 248.01
L142.531 248.256
L143.126 248.205
L143.424 248.341
L143.722 248.299
L144.019 248.476
L144.614 248.319
L144.912 248.621
L145.507 248.603
L146.4 248.693
L147.293 248.927
L147.888 248.678
L148.186 248.917
L148.781 249.112
L149.078 248.723
L149.376 249.268
L149.674 249.125
L149.971 249.238
L150.269 249.132
L150.864 249.543
L151.162 249.347
L151.459 249.574
L151.757 249.493
L152.054 249.557
L152.352 249.441
L152.65 249.717
L152.947 249.76
L153.245 249.643
L153.542 249.875
L154.435 249.867
L154.733 249.861
L155.328 250.032
L155.626 249.977
L156.518 250.266
L157.411 250.304
L157.709 250.469
L158.006 249.865
L158.304 250.525
L158.602 250.26
L158.899 250.499
L159.197 250.052
L159.792 250.657
L160.09 250.677
L160.387 250.478
L160.685 250.804
L160.982 250.656
L161.28 250.68
L161.875 250.87
L162.47 250.849
L163.066 251.055
L163.363 250.995
L163.958 251.232
L164.256 250.999
L164.554 251.23
L166.042 251.509
L166.637 251.463
L166.934 251.557
L167.53 251.27
L167.827 251.41
L168.125 251.678
L168.72 251.745
L169.018 251.818
L169.315 251.727
L169.613 251.777
L169.91 251.966
L170.208 251.915
L170.803 252.066
L171.696 251.901
L171.994 252.149
L172.291 251.978
L172.886 252.079
L173.482 252.359
L174.077 252.286
L174.374 252.526
L174.97 252.35
L175.267 251.862
L175.565 252.575
L176.16 252.541
L176.458 252.434
L177.053 252.56
L177.35 252.804
L177.648 252.111
L177.946 252.707
L178.243 252.845
L178.541 252.685
L178.838 252.884
L179.136 252.344
L179.434 252.762
L180.029 253.12
L180.326 253.181
L180.624 252.816
L180.922 253.248
L181.517 252.919
L181.814 253.216
L182.112 252.737
L182.41 253.187
L183.005 253.341
L183.898 253.284
L184.195 253.46
L184.493 253.377
L184.79 253.654
L185.088 253.41
L185.386 253.629
L185.683 253.503
L186.576 253.821
L187.469 253.78
L187.766 253.917
L188.064 253.831
L188.362 254.039
L188.659 253.88
L188.957 254.018
L189.254 253.819
L190.445 254.172
L191.338 254.073
L191.635 254.243
L192.23 254.177
L192.826 254.421
L193.123 254.621
L193.421 254.156
L193.718 254.348
L194.611 254.408
L194.909 254.456
L195.206 254.658
L195.802 254.563
L196.099 254.847
L196.397 254.579
L196.992 254.915
L197.29 254.845
L197.587 254.926
L197.885 254.69
L198.182 254.914
L198.48 254.797
L198.778 255.04
L199.075 254.934
L199.67 255.061
L199.968 255.037
L200.266 255.222
L200.563 255.009
L200.861 255.144
L201.456 255.156
L201.754 255.345
L202.051 255.232
L202.944 255.32
L203.242 255.194
L203.837 255.57
L204.134 255.278
L205.027 255.666
L205.622 255.425
L206.218 255.473
L206.515 255.732
L206.813 255.831
L207.408 255.728
L207.706 255.852
L208.003 255.679
L208.301 255.793
L208.896 255.843
L209.789 255.787
L210.384 256.139
L210.682 256.081
L210.979 255.806
L211.277 256.224
L211.574 255.984
L211.872 256.284
L212.17 256.422
L212.467 256.278
L213.062 256.349
L213.36 256.171
L213.955 256.394
L214.253 256.305
L214.55 256.383
L214.848 256.172
L216.038 256.47
L216.634 256.566
L216.931 256.212
L217.229 256.577
L217.824 256.773
L218.419 256.354
L218.717 256.728
L219.312 256.793
L219.61 256.979
L219.907 256.795
L220.502 256.766
L220.8 256.866
L221.098 256.847
L221.395 257.073
L222.586 256.62
L222.883 257.098
L223.181 256.931
L223.478 257.276
L224.074 256.952
L224.371 257.099
L224.669 256.934
L224.966 257.348
L225.264 257.115
L225.859 257.338
L226.454 257.456
L226.752 257.344
L227.05 257.383
L227.347 257.288
L227.645 257.537
L227.942 257.212
L228.24 257.616
L228.538 257.486
L229.133 257.586
L229.43 257.599
L229.728 257.243
L230.026 257.649
L230.323 257.659
L230.621 257.46
L230.918 257.733
L231.514 257.688
L231.811 257.517
L232.109 257.755
L233.002 257.963
L233.299 257.779
L233.597 257.756
L233.894 258.062
L234.192 257.943
L234.49 257.655
L234.787 257.944
L235.68 257.937
L236.275 258.147
L236.87 258.055
L237.168 258.218
L237.763 258.004
L238.061 258.271
L238.656 258.12
L238.954 258.339
L239.251 258.21
L239.549 258.3
L239.846 258.161
L240.144 258.368
L240.442 258.296
L241.037 258.348
L241.334 258.368
L241.632 258.219
L241.93 258.381
L242.525 258.397
L242.822 258.631
L243.12 258.411
L243.418 257.811
L243.715 258.693
L244.013 258.719
L244.31 258.481
L244.608 258.812
L245.203 258.663
L245.501 258.409
L245.798 258.375
L246.096 258.842
L246.691 258.806
L246.989 259.014
L247.584 258.898
L247.882 258.934
L248.477 258.826
L248.774 258.792
L249.37 259.098
L249.965 258.737
L250.56 259.103
L250.858 259.279
L251.453 259.037
L251.75 259.152
L252.048 259
L252.346 259.216
L252.643 259.15
L252.941 258.719
L253.238 259.211
L253.536 259.247
L253.834 259.155
L254.131 259.331
L254.429 259.113
L254.726 259.344
L255.619 259.213
L255.917 259.148
L256.512 259.412
L257.107 259.572
L257.405 259.458
L257.702 259.671
L258 259.392
L258.298 259.614
L258.893 259.332
L259.19 259.534
L259.786 259.536
L260.083 259.699
L260.678 259.512
L260.976 259.751
L261.274 259.512
L261.869 259.71
L262.166 259.55
L262.464 259.808
L262.762 259.705
L263.059 259.999
L263.654 259.764
L264.25 259.903
L264.845 259.823
L265.738 260.032
L266.928 259.935
L267.821 260.156
L268.416 259.783
L268.714 260.219
L269.011 260.076
L269.309 260.159
L270.202 260.137
L270.797 260.333
L271.094 260.225
L271.987 260.395
L272.285 260.221
L272.582 260.416
L272.88 260.222
L273.178 260.504
L273.475 260.348
L273.773 260.469
L274.07 260.339
L274.368 260.373
L274.666 260.518
L274.963 260.502
L275.261 260.615
L275.558 260.419
L276.154 260.553
L276.451 260.603
L276.749 260.519
L277.046 260.632
L277.344 260.501
L277.642 260.643
L277.939 260.445
L278.534 260.292
L278.832 260.677
L279.13 260.512
L279.725 260.918
L280.022 260.475
L280.32 260.817
L280.618 260.782
L280.915 260.927
L281.213 260.756
L281.51 260.972
L282.106 260.639
L282.403 260.861
L282.701 260.8
L282.998 260.944
L284.486 260.818
L284.784 261.049
L285.082 260.845
L285.379 261.008
L286.272 260.983
L286.867 261.115
L287.462 260.959
L287.76 261.347
L288.058 261.041
L288.355 261.218
L288.95 260.926
L289.546 261.283
L289.843 261.143
L290.141 260.869
L290.438 261.253
L291.034 261.075
L291.331 261.457
L291.926 261.122
L292.522 261.538
L292.819 261.142
L293.117 261.421
L293.414 261.259
L293.712 261.521
L294.307 261.323
L294.605 261.576
L295.2 261.451
L295.498 261.563
L296.093 261.372
L296.39 261.616
L296.688 261.599
L296.986 261.703
L297.283 261.275
L297.581 261.694
L297.878 261.628
L298.176 261.741
L298.771 261.511
L299.069 261.742
L299.366 261.73
L299.664 261.939
L299.962 261.666
L300.259 260.328
L300.557 261.458
L300.854 261.606
L301.152 261.106
L301.45 261.677
L301.747 261.807
L302.045 261.675
L302.64 261.783
L302.938 261.713
L303.235 261.951
L303.533 261.81
L304.723 262.051
L305.616 261.656
L305.914 262.064
L306.211 262.176
L306.806 261.921
L307.104 261.955
L307.402 262.17
L307.699 261.91
L308.294 262.163
L308.592 262.212
L308.89 261.877
L309.187 262.222
L309.485 262.039
L309.782 262.096
L310.378 262.007
L310.675 262.074
L310.973 262.308
L311.27 262.295
L311.568 262.116
L312.163 262.221
L312.758 262.092
L313.056 262.304
L313.651 262.233
L314.246 262.392
L314.544 262.327
L314.842 262.52
L315.139 262.195
L315.437 262.412
L316.032 262.353
L316.33 262.471
L316.627 262.337
L316.925 262.348
L317.222 262.547
L317.52 262.235
L317.818 262.549
L318.115 262.007
L318.413 262.457
L318.71 262.604
L319.901 262.504
L320.198 262.688
L320.496 262.591
L320.794 262.117
L321.091 262.353
L321.389 262.33
L321.686 262.603
L321.984 262.501
L322.282 262.686
L322.579 262.327
L322.877 262.411
L323.472 262.84
L323.77 262.948
L324.067 262.781
L324.365 262.866
L324.96 262.437
L325.258 262.49
L325.555 262.813
L325.853 262.763
L326.15 262.879
L326.746 262.561
L327.043 262.936
L327.638 262.727
L327.936 263.007
L328.234 262.431
L328.531 263.049
L329.424 262.846
L330.317 262.724
L330.614 263.049
L330.912 263.006
L331.21 263.116
L331.805 262.899
L332.995 263.127
L333.888 262.99
L334.186 263.252
L334.483 263.343
L334.781 263.315
L335.078 263.081
L335.376 263.35
L335.674 262.831
L335.971 263.117
L336.269 263.102
L336.566 263.327
L336.864 262.8
L337.162 263.444
L337.459 263.324
L337.757 262.984
L338.054 263.238
L338.352 263.334
L339.245 263.336
L339.542 262.92
L339.84 263.425
L340.435 263.348
L340.733 263.087
L341.328 263.353
L341.626 263.409
L341.923 263.236
L342.221 263.506
L343.114 263.471
L343.411 263.294
L344.006 263.614
L344.602 263.468
L344.899 263.603
L345.197 263.091
L345.494 263.435
L346.09 263.331
L346.387 263.731
L346.685 263.699
L346.982 263.542
L347.28 263.691
L348.768 263.787
L349.066 263.521
L349.363 263.748
L350.256 263.852
L350.554 263.639
L350.851 263.874
L351.446 263.78
L351.744 263.564
L352.042 263.824
L354.125 263.522
L354.422 263.77
L354.72 263.693
L355.315 263.817
L355.91 263.637
L356.208 263.86
L356.506 263.775
L356.803 264.108
L357.101 264.137
L357.398 263.973
L357.696 263.259
L357.994 263.488
L358.291 263.964
L358.589 264.09
L358.886 263.637
L359.184 264.084
L359.482 264.02
L359.779 264.139
L360.374 263.645
L360.672 264.07
L360.97 264.148
L361.267 263.517
L361.565 264.083
L362.458 263.376
L362.755 264.179
L363.648 264.335
L363.946 264.097
L364.243 264.144
L364.541 263.849
L364.838 264.043
L365.136 263.905
L365.434 264.316
L365.731 264.216
L366.029 264.297
L366.326 264.211
L366.922 264.308
L367.219 264.151
L367.814 264.152
L368.112 264.533
L368.41 264.169
L368.707 264.19
L369.005 264.625
L369.302 264.27
L369.898 264.315
L370.195 264.375
L370.493 264.559
L370.79 264.33
L371.088 264.577
L371.386 264.381
L371.683 264.405
L371.981 264.271
L372.278 264.282
L372.576 263.645
L372.874 264.342
L373.469 264.599
L373.766 263.679
L374.064 264.59
L374.659 264.285
L374.957 264.739
L375.254 264.038
L375.552 264.599
L375.85 264.506
L376.147 264.696
L377.04 264.313
L377.635 264.64
L377.933 264.39
L378.23 264.644
L378.528 264.063
L378.826 264.654
L379.718 264.799
L380.016 264.476
L380.314 264.701
L380.611 264.492
L380.909 264.821
L381.206 264.781
L381.504 264.443
L381.802 264.837
L382.099 264.665
L382.397 264.834
L382.694 264.539
L382.992 264.819
L383.29 264.304
L383.587 264.753
L384.48 264.954
L385.67 264.394
L385.968 264.894
L386.861 264.904
L387.158 265.114
L387.456 264.35
L388.051 264.927
L388.349 264.821
L388.646 264.965
L389.242 264.915
L389.539 265.064
L390.134 264.44
L390.432 264.949
L390.73 265.008
L391.027 264.876
L391.325 264.566
L391.622 265.115
L392.218 264.877
L392.813 265.107
L393.11 264.902
L394.003 265.093
L394.301 264.795
L394.598 265.261
L394.896 264.475
L395.789 265.373
L396.384 265.124
L396.682 265.316
L396.979 265.028
L397.277 265.068
L397.574 264.899
L397.872 264.976
L398.17 264.895
L398.467 265.413
L398.765 264.573
L399.062 265.175
L399.36 265.094
L399.658 265.357
L399.955 265.399
L400.253 264.786
L400.55 265.333
L400.848 265.262
L401.146 265.059
L401.443 265.115
L401.741 264.955
L402.336 265.501
L402.634 265.186
L402.931 265.282
L403.229 265.101
L403.526 265.434
L403.824 265.205
L404.122 265.433
L404.419 265.066
L404.717 265.417
L405.014 265.569
L405.312 265.201
L405.61 265.13
L405.907 265.569
L406.205 265.407
L406.502 265.547
L407.098 265.173
L407.395 265.456
L407.693 264.992
L407.99 265.536
L408.586 265.304
L408.883 265.64
L409.181 265.603
L409.478 264.669
L409.776 265.393
L410.074 265.664
L410.371 265.252
L410.669 265.199
L410.966 265.491
L411.264 265.294
L411.562 265.843
L412.157 265.429
L412.454 265.394
L412.752 265.667
L413.05 265.313
L413.347 265.45
L413.942 265.256
L414.538 265.768
L414.835 265.489
L415.133 265.601
L416.323 265.493
L416.621 265.706
L416.918 265.539
L417.216 266.027
L417.811 265.665
L418.109 265.933
L419.002 265.592
L419.894 265.951
L420.192 265.536
L420.49 265.837
L420.787 265.857
L421.085 265.628
L421.382 265.68
L421.68 265.86
L421.978 265.708
L422.573 265.929
L423.168 265.77
L423.763 265.619
L424.358 266.068
L424.656 265.732
L424.954 265.198
L425.251 265.678
L425.549 265.919
L425.846 265.786
L426.144 265.913
L426.739 265.834
L427.037 264.68
L427.334 266.142
L427.93 265.759
L428.227 266.192
L428.525 266.044
L428.822 266.156
L429.12 265.865
L429.715 265.751
L430.013 266.034
L430.31 266.077
L430.608 265.966
L430.906 265.334
L431.203 266.06
L431.501 265.887
L432.394 266.321
L432.691 265.964
L432.989 265.932
L433.286 266.177
L433.584 265.626
L433.882 265.912
L434.179 265.953
L434.774 266.272
L435.072 266.055
L435.667 265.995
L435.965 265.865
L436.262 266.278
L436.56 266.251
L436.858 265.89
L437.75 266.165
L438.048 266.023
L438.346 266.133
L438.643 266.105
L438.941 266.433
L439.238 265.97
L439.536 266.015
L439.834 266.177
L440.131 265.893
L440.429 266.363
L440.726 266.098
L441.917 266.107
L442.214 266.377
L442.81 265.996
L443.405 266.366
L444 266.212
L444.298 266.49
L444.893 266.36
L445.488 266.489
L445.786 266.197
L446.083 266.351
L446.381 266.308
L446.678 266.597
L446.976 266.055
L447.571 266.35
L448.166 265.718
L448.464 265.631
L449.059 266.448
L449.357 266.754
L449.952 266.342
L450.845 266.621
L451.44 266.444
L451.738 266.705
L452.035 266.671
L452.63 266.166
L452.928 266.684
L453.523 266.416
L453.821 266.605
L454.714 266.816
L455.309 266.491
L455.904 266.534
L456.202 266.131
L456.499 266.673
L456.797 266.644
L457.094 266.352
L457.392 265.845
L457.69 266.897
L457.987 266.246
L458.285 266.858
L458.582 266.476
L458.88 266.398
L459.178 266.69
L459.773 266.816
L460.07 266.008
L460.666 266.562
L460.963 266.713
L461.261 266.734
L461.558 266.236
L461.856 266.417
L462.154 266.843
L462.451 266.425
L462.749 266.351
L463.046 266.678
L463.939 266.635
L464.237 266.665
L464.534 266.825
L464.832 266.593
L465.427 267
L466.022 266.934
L466.32 266.657
L467.51 266.934
L467.808 267.021
L468.106 266.674
L468.403 267.115
L468.701 266.898
L468.998 267.14
L469.296 267.187
L469.891 266.874
L470.189 266.191
L470.486 266.925
L470.784 266.924
L471.082 267.039
L471.379 266.445
L471.677 267.057
L471.974 266.494
L472.272 266.597
L472.57 266.871
L472.867 266.691
L473.165 266.687
L473.76 266.975
L474.355 267.171
L474.653 266.78
L475.248 266.957
L475.546 267.24
L475.843 267.135
L476.141 266.575
L476.438 266.916
L477.034 266.997
L477.331 266.92
L477.629 267.103
L477.926 267.047
L478.224 266.602
L478.522 267.235
L478.819 267.131
L479.117 266.644
L479.414 266.996
L479.712 267.032
L480.307 267.355
L480.605 266.565
L480.902 267.231
L481.2 266.898
L481.498 267.404
L481.795 266.706
L482.093 267.088
L482.688 267.266
L482.986 267.076
L483.283 267.318
L483.581 267.145
L483.878 266.731
L484.176 267.21
L484.474 266.833
L485.069 267.452
L485.366 266.832
L485.664 267.494
L485.962 267.003
L486.259 267.341
L486.557 267.293
L487.152 267.439
L487.45 266.953
L487.747 267.342
L488.045 267.059
L488.64 267.554
L488.938 267.329
L489.235 266.736
L489.533 267.143
L490.128 267.185
L490.426 267.122
L490.723 267.416
L491.021 267.1
L491.318 267.553
L491.616 267.436
L491.914 267.106
L492.211 267.491
L492.806 267.142
L493.104 267.539
L493.402 267.419
L493.699 266.904
L493.997 267.468
L494.592 267.098
L494.89 267.07
L495.187 267.444
L495.782 267.432
L496.08 267.156
L496.378 267.52
L496.675 267.646
L496.973 267.307
L497.27 267.375
L497.568 265.971
L497.866 267.622
L497.866 267.622" style="fill:none;stroke:#0000ff;stroke-linecap:square;"/>
   </g>
   <g id="line2d_2">
    <path clip-path="url(#p7ff5b81e1d)" d="
M72 75.8381
L72.2976 209.558
L72.8928 213.18
L73.488 215.481
L73.7856 216.278
L74.3808 219.314
L75.2736 222.01
L75.8688 222.715
L76.464 224.292
L76.7616 224.554
L77.0592 225.433
L78.5472 227.446
L79.1424 228.421
L79.44 228.561
L79.7376 228.999
L80.0352 229.125
L80.6304 229.792
L80.928 230.289
L81.5232 230.566
L81.8208 231.137
L82.416 231.436
L82.7136 231.399
L83.0112 231.986
L83.3088 232.284
L83.904 232.473
L84.4992 232.974
L84.7968 232.965
L85.392 233.492
L85.6896 233.439
L86.5824 234.073
L87.1776 234.235
L88.0704 234.844
L88.6656 234.975
L88.9632 235.041
L89.2608 235.326
L89.5584 235.09
L89.856 235.211
L90.1536 235.506
L90.4512 235.465
L90.7488 235.859
L91.6416 235.778
L91.9392 236.199
L92.2368 236.145
L92.5344 236.287
L93.4272 236.376
L93.7248 236.542
L94.32 236.485
L94.6176 236.786
L94.9152 236.749
L95.2128 236.944
L95.5104 236.653
L95.808 237.009
L96.1056 236.663
L96.7008 237.267
L97.296 237.384
L97.8912 237.364
L98.1888 237.514
L98.4864 237.415
L99.0816 237.609
L99.3792 237.679
L99.6768 237.568
L100.272 237.826
L100.867 237.807
L101.165 237.592
L101.462 237.956
L101.76 237.741
L102.058 238.026
L102.355 237.958
L102.653 238.052
L102.95 237.933
L103.248 238.169
L103.546 238.229
L103.843 237.978
L104.736 238.2
L105.034 238.368
L106.819 238.393
L107.414 238.595
L107.712 238.523
L108.01 238.626
L108.307 238.428
L108.605 238.611
L108.902 238.516
L109.795 238.755
L110.093 238.686
L110.39 238.743
L110.688 238.679
L110.986 238.915
L111.283 238.754
L111.581 238.789
L111.878 238.694
L112.176 238.928
L113.664 238.918
L113.962 239.139
L114.259 239.146
L114.854 238.942
L115.152 239.176
L116.045 239.053
L116.64 239.248
L117.235 239.205
L117.533 239.317
L117.83 238.803
L118.128 239.341
L119.318 239.208
L119.616 239.523
L119.914 239.473
L120.211 239.612
L121.699 239.54
L121.997 239.655
L122.294 239.29
L122.592 239.756
L122.89 239.614
L123.187 239.762
L123.485 239.58
L123.782 239.885
L124.08 239.956
L124.675 239.799
L125.27 239.922
L126.758 240.191
L127.354 240.319
L127.651 240.218
L127.949 240.29
L128.544 240.264
L128.842 240.273
L129.139 240.443
L129.437 240.481
L130.032 240.364
L130.33 240.53
L130.627 240.489
L131.222 240.797
L131.818 240.69
L132.115 240.861
L132.413 240.762
L133.603 240.982
L134.496 240.911
L135.091 241.088
L136.579 241.17
L137.174 241.409
L137.77 241.272
L138.067 241.476
L138.96 241.367
L139.258 241.559
L139.853 241.562
L140.15 241.486
L140.448 241.83
L140.746 241.587
L141.043 241.78
L141.638 241.586
L141.936 241.832
L142.234 241.742
L142.531 241.788
L143.126 241.688
L143.424 241.844
L143.722 241.754
L144.019 241.962
L144.317 241.852
L147.293 242.065
L147.888 241.901
L148.186 242.161
L148.483 242.059
L148.781 242.121
L149.078 241.831
L149.376 242.29
L149.674 242.117
L149.971 242.337
L150.269 242.17
L150.864 242.395
L151.162 242.237
L151.459 242.441
L152.352 242.198
L152.65 242.495
L152.947 242.509
L153.245 242.334
L153.84 242.607
L154.733 242.465
L155.328 242.598
L155.626 242.432
L155.923 242.542
L156.221 242.487
L156.518 242.607
L157.411 242.551
L157.709 242.735
L158.006 242.198
L158.304 242.653
L158.602 242.546
L158.899 242.598
L159.197 242.387
L159.494 242.596
L160.387 242.602
L160.685 242.815
L161.578 242.606
L162.173 242.66
L162.47 242.611
L163.066 242.807
L163.363 242.688
L166.339 242.761
L166.637 242.648
L166.934 242.83
L167.232 242.848
L167.53 242.436
L167.827 242.767
L168.125 242.91
L168.72 242.777
L169.315 242.857
L169.613 242.709
L169.91 242.862
L170.208 242.754
L171.101 242.864
L171.398 242.613
L171.696 242.611
L171.994 242.869
L172.291 242.591
L173.482 242.845
L173.779 242.629
L174.672 242.808
L174.97 242.56
L175.267 242.578
L175.565 242.756
L176.16 242.795
L176.458 242.734
L176.755 242.558
L177.053 242.614
L177.35 242.895
L177.648 242.397
L178.243 242.778
L178.541 242.602
L178.838 242.655
L179.136 242.347
L179.434 242.519
L179.731 242.841
L180.326 242.769
L180.624 242.684
L180.922 242.803
L181.814 242.596
L182.112 242.294
L182.41 242.738
L182.707 242.774
L183.302 242.497
L183.6 242.686
L183.898 242.574
L184.79 242.68
L185.088 242.59
L185.683 242.712
L186.278 242.541
L186.874 242.601
L187.171 242.437
L187.469 242.424
L187.766 242.538
L188.064 242.435
L188.362 242.823
L188.659 242.51
L188.957 242.607
L189.254 242.263
L189.552 242.594
L190.147 242.595
L190.445 242.427
L190.742 242.589
L191.04 242.342
L191.338 242.539
L191.635 242.591
L191.933 242.26
L192.23 242.349
L192.528 242.651
L192.826 242.438
L193.123 242.627
L193.421 242.322
L194.016 242.42
L194.314 242.623
L194.611 242.242
L194.909 242.413
L195.504 242.219
L195.802 242.153
L196.099 242.417
L196.397 242.141
L196.992 242.645
L197.587 242.324
L197.885 241.916
L198.182 242.301
L198.48 242.201
L199.075 242.529
L199.373 242.31
L199.968 242.264
L200.563 242.455
L200.861 242.174
L201.158 242.347
L201.456 242.22
L201.754 242.289
L202.646 242.114
L202.944 242.154
L203.242 242.064
L203.539 242.363
L203.837 242.354
L204.134 242.024
L204.432 241.937
L204.73 242.467
L205.027 242.336
L205.325 242.463
L205.622 241.974
L205.92 242.36
L206.218 241.918
L206.515 242.281
L206.813 242.089
L207.408 242.036
L207.706 242.198
L208.003 242.22
L208.301 242.017
L208.598 242.365
L208.896 241.898
L209.491 242.187
L209.789 241.966
L210.086 242.146
L210.384 242.048
L210.682 242.32
L210.979 241.93
L211.872 242.318
L212.17 242.104
L212.467 242.466
L212.765 242.283
L213.062 242.307
L213.36 241.716
L213.658 241.817
L213.955 242.274
L214.253 241.721
L214.55 242.133
L214.848 242.069
L215.146 241.805
L215.443 242.044
L215.741 241.976
L216.038 242.118
L216.336 242.089
L216.931 241.564
L217.526 241.936
L217.824 242.112
L218.122 241.584
L218.717 242.102
L219.014 242.225
L219.312 241.814
L219.61 242.135
L219.907 242.245
L221.098 241.635
L221.395 241.864
L221.693 241.737
L222.586 242.048
L222.883 241.714
L223.181 241.553
L223.478 241.946
L223.776 242.133
L224.074 241.692
L224.371 242.019
L224.669 241.482
L224.966 241.633
L225.264 241.463
L225.562 241.458
L225.859 242.013
L226.157 242.077
L226.752 241.654
L227.05 241.967
L227.347 241.718
L227.942 241.807
L228.24 241.755
L228.538 241.53
L229.43 241.801
L229.728 241.336
L230.026 242.047
L230.323 241.467
L230.621 241.317
L230.918 241.478
L231.216 241.939
L231.514 241.43
L232.406 241.776
L233.002 241.68
L233.299 242.072
L233.894 241.601
L234.49 241.591
L234.787 241.304
L235.085 241.673
L235.382 241.313
L235.68 241.356
L236.275 241.699
L236.573 241.567
L236.87 241.305
L237.168 241.733
L237.466 241.769
L237.763 241.002
L238.061 241.457
L238.358 241.692
L238.656 241.369
L238.954 241.715
L239.251 241.566
L239.549 241.853
L239.846 241.123
L240.144 241.087
L240.442 241.586
L240.739 241.288
L241.037 241.219
L241.334 241.264
L241.632 241.659
L241.93 241.468
L242.227 241.71
L242.525 241.404
L243.12 241.423
L243.418 241.357
L243.715 241.543
L244.013 241.285
L244.31 241.725
L244.906 241.473
L245.203 241.095
L245.501 241.037
L245.798 241.343
L246.096 241.36
L246.394 241.738
L246.691 240.987
L246.989 241.611
L247.286 241.563
L247.584 241.301
L248.477 240.936
L248.774 241.172
L249.072 241.137
L249.37 241.581
L249.667 241.81
L249.965 240.822
L250.262 241.281
L250.56 241.06
L250.858 241.54
L251.453 241.457
L251.75 240.961
L252.048 240.823
L252.346 241.31
L252.643 240.854
L252.941 241.201
L253.238 241.246
L253.536 240.933
L253.834 241.542
L254.131 241.019
L254.429 240.811
L254.726 241.134
L255.024 240.784
L255.322 240.865
L255.619 240.795
L255.917 241.414
L256.214 241.057
L256.512 240.907
L256.81 240.963
L257.107 241.298
L257.405 240.996
L257.702 241.142
L258 240.725
L258.298 241.506
L258.595 241.442
L258.893 240.728
L259.488 240.794
L259.786 241.262
L260.083 241.251
L260.381 241.089
L260.678 240.453
L260.976 240.982
L261.274 240.587
L261.571 241.416
L261.869 240.741
L262.166 240.928
L262.464 240.785
L263.059 241.308
L263.357 240.842
L263.654 241.111
L264.25 240.801
L264.547 240.626
L264.845 240.859
L265.142 240.706
L265.44 241.356
L265.738 240.993
L266.035 241.009
L266.63 240.731
L266.928 241.213
L267.226 241.265
L267.523 240.723
L267.821 240.969
L268.118 240.796
L268.416 240.127
L268.714 240.824
L269.309 240.834
L269.904 240.549
L270.202 240.588
L270.797 241.244
L271.094 241.176
L271.987 240.492
L272.285 241.105
L272.88 240.738
L273.178 240.873
L273.773 240.425
L274.07 240.523
L274.368 240.286
L274.666 240.453
L274.963 241.093
L275.261 240.628
L275.558 240.74
L275.856 240.474
L276.154 240.489
L276.749 241.207
L277.046 240.607
L277.344 240.515
L277.642 241.031
L277.939 240.977
L278.237 241.064
L278.534 239.959
L278.832 240.865
L279.13 240.776
L279.427 240.239
L279.725 240.951
L280.022 239.911
L280.32 240.617
L280.618 240.679
L281.213 240.275
L281.51 240.659
L281.808 240.489
L282.106 240.024
L282.403 241.063
L282.701 240.434
L282.998 240.241
L283.296 240.426
L283.594 239.878
L283.891 240.961
L284.189 240.26
L284.486 240.415
L284.784 240.939
L285.082 240.653
L285.379 240.851
L285.677 240.08
L285.974 241.041
L286.272 240.15
L286.57 240.488
L287.165 240.594
L287.462 240.898
L287.76 240.8
L288.058 240.993
L288.355 240.223
L288.95 240.505
L289.248 240.186
L289.546 240.696
L289.843 240.105
L290.141 239.941
L290.438 240.208
L290.736 240.843
L291.034 239.786
L291.331 240.632
L291.629 241.13
L291.926 241.023
L292.224 240.547
L292.522 240.448
L292.819 240.166
L293.117 240.817
L293.414 240.292
L294.01 240.497
L294.307 239.979
L294.605 240.79
L294.902 240.789
L295.2 240.996
L295.795 239.95
L296.093 240.062
L296.39 240.392
L296.688 240.167
L296.986 240.115
L297.581 240.375
L297.878 240.968
L298.176 240.77
L298.474 240.033
L298.771 240.068
L299.366 240.984
L299.664 240.36
L299.962 240.862
L300.259 240.417
L300.557 239.594
L300.854 240.293
L301.152 239.243
L301.45 240.029
L302.045 239.757
L302.342 239.926
L303.235 239.97
L303.533 240.649
L303.83 240.173
L304.128 240.045
L304.426 240.551
L304.723 240.454
L305.021 240.101
L305.318 239.553
L305.616 239.451
L305.914 240.305
L306.211 240.583
L306.509 240.046
L306.806 239.751
L307.104 240.402
L307.402 240.423
L307.699 239.713
L308.294 240.285
L308.592 240.4
L308.89 239.455
L309.187 240.457
L309.485 239.846
L309.782 239.53
L310.08 240.439
L310.378 239.749
L310.973 240.351
L311.27 240.154
L311.568 239.496
L311.866 239.711
L312.163 240.649
L312.461 239.731
L313.056 240.114
L313.354 239.568
L313.651 240.734
L313.949 240.823
L314.544 239.999
L314.842 240.129
L315.139 239.557
L315.437 239.477
L316.032 239.606
L316.33 239.901
L316.627 240.698
L316.925 239.809
L317.222 240.518
L317.52 239.489
L317.818 240.19
L318.115 239.345
L318.413 240.589
L318.71 240.623
L319.008 239.798
L319.306 240.017
L319.901 239.367
L320.198 240.145
L320.794 239.697
L321.091 239.666
L321.686 240.051
L321.984 239.79
L322.282 240.634
L322.579 239.998
L322.877 239.773
L323.174 240.373
L323.472 240.485
L323.77 240.2
L324.067 239.566
L324.365 240.033
L324.662 239.097
L324.96 239.452
L325.258 239.426
L325.555 240.242
L325.853 239.433
L326.15 239.844
L326.448 240.005
L326.746 239.981
L327.043 239.743
L327.341 240.289
L327.638 239.158
L327.936 239.945
L328.234 240.174
L328.531 239.977
L328.829 239.963
L329.126 240.096
L329.424 240.707
L329.722 239.393
L330.019 239.391
L330.317 239.223
L330.614 239.738
L331.507 239.843
L331.805 239.33
L332.4 240.085
L332.698 239.381
L332.995 240.645
L333.293 239.883
L333.59 239.662
L333.888 239.597
L334.186 240.526
L334.483 239.795
L334.781 239.756
L335.078 239.504
L335.376 239.903
L335.674 239.339
L335.971 239.341
L336.269 239.761
L336.566 239.649
L337.162 240.1
L337.459 239.497
L337.757 240.797
L338.054 240.494
L338.65 240.429
L338.947 239.274
L339.245 239.687
L339.542 239.325
L339.84 239.504
L340.138 240.323
L340.435 239.244
L340.733 239.735
L341.03 240.672
L341.328 240.3
L341.626 239.561
L341.923 239.52
L342.221 239.778
L342.518 239.41
L342.816 239.951
L343.114 239.222
L343.411 239.434
L343.709 240.098
L344.006 240.294
L344.304 239.68
L344.602 239.576
L344.899 239.604
L345.197 240.214
L345.494 240.128
L345.792 240.273
L346.09 238.975
L346.387 240.316
L346.685 239.57
L346.982 239.397
L347.28 240.337
L347.875 239.238
L348.173 240.294
L348.47 240.411
L348.768 239.632
L349.066 239.901
L349.363 239.154
L349.661 240.047
L349.958 239.28
L350.256 239.585
L350.554 239.724
L350.851 240.258
L351.149 239.837
L351.446 239.907
L351.744 238.805
L352.042 239.833
L352.339 240.147
L352.637 240.241
L352.934 239.572
L353.232 240.28
L353.53 239.053
L353.827 238.798
L354.125 238.809
L354.422 239.201
L354.72 239.041
L355.018 239.232
L355.315 239.075
L355.613 239.777
L355.91 239.141
L356.208 239.4
L356.506 238.984
L356.803 239.921
L357.101 239.53
L357.398 239.612
L357.696 239.045
L357.994 239.949
L358.291 239.285
L358.589 239.839
L358.886 238.458
L359.184 240.202
L359.482 239.023
L359.779 239.665
L360.077 239.559
L360.374 238.702
L360.672 239.655
L360.97 239.357
L361.267 238.368
L361.565 240.02
L361.862 239.014
L362.16 239.129
L362.458 238.378
L362.755 239.686
L363.053 239.643
L363.35 239.794
L363.648 239.609
L363.946 239.254
L364.243 239.496
L364.541 238.693
L364.838 238.831
L365.136 239.153
L365.434 240.039
L365.731 239.255
L366.029 239.434
L366.326 239.784
L366.624 238.963
L366.922 239.917
L367.219 239.041
L367.517 240.34
L367.814 239.297
L368.112 239.503
L368.41 238.927
L368.707 239.783
L369.005 239.646
L369.302 239.712
L369.6 238.813
L369.898 239.649
L370.195 239.807
L370.493 239.836
L370.79 238.775
L371.088 239.29
L371.386 239.425
L371.683 239.896
L371.981 238.885
L372.278 238.823
L372.874 239.906
L373.469 239.539
L373.766 238.922
L374.064 239.594
L374.362 239.598
L374.659 239.338
L374.957 239.95
L375.254 238.684
L375.552 239.522
L375.85 239.282
L376.147 239.481
L376.445 239.018
L376.742 239.757
L377.04 238.582
L377.635 238.921
L377.933 239.118
L378.23 239.008
L378.528 238.626
L379.718 239.965
L380.016 239.016
L380.314 239.378
L380.611 239.16
L380.909 239.114
L381.206 239.326
L381.504 238.615
L381.802 239.726
L382.099 238.828
L382.397 239.605
L382.694 238.603
L382.992 239.294
L383.29 239.239
L383.587 239.969
L383.885 239.329
L384.182 239.793
L384.48 239.002
L384.778 238.739
L385.075 238.667
L385.373 238.395
L385.67 240.011
L385.968 238.69
L386.266 238.84
L386.563 239.668
L386.861 239.95
L387.158 239.9
L387.456 239.294
L387.754 240.039
L388.051 240.041
L388.349 239.023
L388.646 239.007
L388.944 239.174
L389.242 239.861
L389.539 240.02
L389.837 238.378
L390.432 238.822
L390.73 239.438
L391.325 238.381
L391.622 239.51
L392.218 238.676
L392.515 239.807
L392.813 239.331
L393.11 238.638
L393.408 238.783
L393.706 238.286
L394.003 238.814
L394.301 238.475
L394.896 240.295
L395.194 238.2
L395.491 239.389
L395.789 239.58
L396.086 239.486
L396.384 239.005
L396.682 239.226
L396.979 238.745
L397.277 239.743
L397.574 238.61
L397.872 239.965
L398.17 238.589
L398.467 239.096
L398.765 238.624
L399.062 239.655
L399.36 238.428
L399.658 239.853
L400.253 238.919
L400.55 238.747
L400.848 239.827
L401.146 239.812
L401.443 238.583
L401.741 238.176
L402.038 239.833
L402.634 238.866
L402.931 239.964
L403.229 238.389
L403.526 239.827
L403.824 239.923
L404.122 239.396
L404.419 239.744
L404.717 239.43
L405.014 239.606
L405.312 238.454
L405.61 239.372
L405.907 239.354
L406.205 239.621
L406.502 239.259
L406.8 238.544
L407.098 238.313
L407.395 238.697
L407.693 238.557
L407.99 239.123
L408.288 239.336
L408.586 239.191
L408.883 239.337
L409.181 238.536
L409.478 238.991
L409.776 238.621
L410.074 239.496
L410.371 238.328
L410.669 238.58
L410.966 239.517
L411.264 239.448
L411.562 239.134
L411.859 239.289
L412.157 238.414
L412.454 238.683
L412.752 239.372
L413.05 238.148
L413.347 239.811
L413.645 238.371
L414.24 238.588
L414.538 238.743
L414.835 238.519
L415.43 238.751
L415.728 238.658
L416.026 238.732
L416.323 238.103
L416.918 239.88
L417.216 239.253
L417.514 239.109
L417.811 239.165
L418.109 239.37
L418.406 239.374
L418.704 239.753
L419.002 238.304
L419.299 239.026
L419.597 239.322
L419.894 239.27
L420.192 238.774
L420.49 238.962
L420.787 239.443
L421.085 238.916
L421.382 239.405
L421.68 238.538
L421.978 239.922
L422.275 238.838
L422.573 238.86
L422.87 239.346
L423.168 238.888
L423.466 238.149
L423.763 239.153
L424.061 239.044
L424.358 239.402
L424.656 238.198
L424.954 238.77
L425.251 238.24
L425.549 239.286
L425.846 238.052
L426.144 239.135
L426.442 238.347
L426.739 239.523
L427.037 237.834
L427.334 239.363
L427.93 238.32
L428.227 239.275
L428.525 238.712
L428.822 239.198
L429.12 239.261
L429.418 238.879
L429.715 238.009
L430.013 239.74
L430.31 239.514
L430.906 237.843
L431.203 239.364
L431.501 238.858
L431.798 239.326
L432.096 238.657
L432.394 238.697
L432.691 238.327
L433.286 238.768
L433.584 238.343
L433.882 238.272
L434.179 238.656
L434.477 239.652
L434.774 239.204
L435.072 238.458
L435.37 238.639
L435.667 238.668
L435.965 238.17
L436.262 239.073
L436.858 239.175
L437.155 238.46
L437.453 238.365
L437.75 238.509
L438.048 239.505
L438.346 238.66
L438.643 239.18
L438.941 239.021
L439.238 239.201
L439.536 239.619
L439.834 237.878
L440.131 237.684
L440.429 238.648
L440.726 237.772
L441.024 238.929
L441.322 238.982
L441.619 238.067
L442.214 238.806
L442.81 237.77
L443.107 238.876
L443.405 239.481
L443.702 238.4
L444 238.671
L444.298 239.141
L444.595 238.905
L444.893 239.552
L445.19 238.452
L445.488 238.887
L445.786 237.948
L446.083 238.787
L446.381 237.84
L446.678 238.649
L446.976 239.01
L447.274 237.753
L447.571 239.2
L447.869 237.907
L448.166 239.377
L448.464 238.666
L448.762 238.99
L449.059 238.247
L449.357 238.97
L449.654 238.988
L449.952 238.443
L450.25 239.533
L450.547 238.644
L450.845 238.196
L451.142 238.426
L451.44 239.272
L451.738 238.589
L452.035 238.218
L452.333 239.591
L452.63 237.958
L452.928 238.623
L453.226 238.576
L453.523 237.672
L454.118 239.357
L454.416 238.341
L454.714 239.028
L455.011 238.18
L455.606 239.02
L455.904 238.805
L456.202 237.815
L456.499 239.286
L457.094 238.573
L457.392 237.819
L457.69 238.667
L457.987 238.026
L458.285 238.872
L458.582 237.917
L458.88 238.062
L459.178 239.57
L459.475 237.991
L459.773 239.333
L460.07 238.034
L460.666 238.135
L460.963 238.277
L461.261 238.59
L461.558 238.684
L462.154 238.384
L462.451 237.544
L462.749 237.522
L463.046 237.893
L463.344 238.029
L463.642 237.966
L464.237 238.936
L464.534 238.182
L464.832 239.157
L465.13 239.211
L465.427 238.72
L465.725 238.905
L466.022 238.77
L466.32 237.671
L466.618 239.318
L466.915 238.037
L467.213 237.724
L467.51 239.118
L467.808 238.954
L468.106 238.267
L468.403 238.652
L468.701 238.428
L468.998 239.189
L469.296 238.772
L469.594 239.176
L469.891 238.014
L470.189 237.605
L470.486 238.586
L470.784 238.081
L471.082 238.32
L471.379 237.613
L471.677 238.781
L471.974 237.734
L472.272 237.594
L472.57 238.166
L472.867 237.691
L473.165 237.809
L473.462 237.765
L473.76 239.385
L474.058 239.431
L474.653 238.033
L474.95 237.977
L475.546 238.789
L476.141 238.03
L476.438 237.518
L476.736 239.185
L477.331 237.746
L477.926 237.943
L478.224 237.813
L478.522 238.555
L478.819 238.238
L479.117 237.182
L479.414 237.741
L480.01 238.267
L480.307 238.095
L480.605 237.246
L481.2 238.825
L481.498 238.777
L481.795 237.476
L482.093 237.779
L482.39 238.71
L482.688 239.256
L482.986 238.385
L483.283 238.864
L483.581 237.555
L483.878 237.609
L484.176 238.419
L484.474 237.942
L484.771 237.772
L485.069 238.588
L485.366 238.369
L485.664 238.688
L485.962 237.369
L486.259 238.793
L486.557 239.196
L487.152 238.879
L487.45 237.387
L487.747 238.972
L488.045 237.272
L488.342 238.664
L488.64 238.203
L488.938 238.759
L489.235 238.718
L489.533 239.243
L489.83 237.866
L490.128 237.598
L490.426 239.188
L490.723 238.928
L491.021 237.588
L491.616 238.372
L491.914 238.183
L492.509 239.366
L492.806 237.557
L493.104 238.554
L493.402 237.922
L493.699 237.766
L493.997 238.924
L494.294 237.478
L494.592 237.535
L494.89 238.778
L495.187 238.13
L495.485 237.817
L495.782 238.462
L496.08 237.349
L496.378 239.187
L496.675 238.663
L496.973 237.834
L497.27 237.569
L497.568 239.331
L497.866 239.121
L497.866 239.121" style="fill:none;stroke:#bf00bf;stroke-linecap:square;"/>
   </g>
   <g id="patch_3">
    <path d="
M72 43.2
L518.4 43.2" style="fill:none;stroke:#000000;stroke-linecap:square;stroke-linejoin:miter;"/>
   </g>
   <g id="patch_4">
    <path d="
M72 388.8
L72 43.2" style="fill:none;stroke:#000000;stroke-linecap:square;stroke-linejoin:miter;"/>
   </g>
   <g id="patch_5">
    <path d="
M518.4 388.8
L518.4 43.2" style="fill:none;stroke:#000000;stroke-linecap:square;stroke-linejoin:miter;"/>
   </g>
   <g id="patch_6">
    <path d="
M72 388.8
L518.4 388.8" style="fill:none;stroke:#000000;stroke-linecap:square;stroke-linejoin:miter;"/>
   </g>
   <g id="matplotlib.axis_1">
    <g id="xtick_1">
     <g id="line2d_3">
      <path clip-path="url(#p7ff5b81e1d)" d="
M72 388.8
L72 43.2" style="fill:none;stroke:#000000;stroke-dasharray:1.000000,3.000000;stroke-dashoffset:0.0;stroke-width:0.5;"/>
     </g>
     <g id="line2d_4">
      <defs>
       <path d="
M0 0
L0 -4" id="mc7db9fdffb" style="stroke:#000000;stroke-width:0.5;"/>
      </defs>
      <g>
       <use style="stroke:#000000;stroke-width:0.5;" x="72.0" xlink:href="#mc7db9fdffb" y="388.8"/>
      </g>
     </g>
     <g id="line2d_5">
      <defs>
       <path d="
M0 0
L0 4" id="m5a7d422ac3" style="stroke:#000000;stroke-width:0.5;"/>
      </defs>
      <g>
       <use style="stroke:#000000;stroke-width:0.5;" x="72.0" xlink:href="#m5a7d422ac3" y="43.2"/>
      </g>
     </g>
     <g id="text_1">
      <!-- 0 -->
      <defs>
       <path d="
M31.7812 66.4062
Q24.1719 66.4062 20.3281 58.9062
Q16.5 51.4219 16.5 36.375
Q16.5 21.3906 20.3281 13.8906
Q24.1719 6.39062 31.7812 6.39062
Q39.4531 6.39062 43.2812 13.8906
Q47.125 21.3906 47.125 36.375
Q47.125 51.4219 43.2812 58.9062
Q39.4531 66.4062 31.7812 66.4062
M31.7812 74.2188
Q44.0469 74.2188 50.5156 64.5156
Q56.9844 54.8281 56.9844 36.375
Q56.9844 17.9688 50.5156 8.26562
Q44.0469 -1.42188 31.7812 -1.42188
Q19.5312 -1.42188 13.0625 8.26562
Q6.59375 17.9688 6.59375 36.375
Q6.59375 54.8281 13.0625 64.5156
Q19.5312 74.2188 31.7812 74.2188" id="BitstreamVeraSans-Roman-30"/>
      </defs>
      <g transform="translate(68.9765625 401.918125)scale(0.12 -0.12)">
       <use xlink:href="#BitstreamVeraSans-Roman-30"/>
      </g>
     </g>
    </g>
    <g id="xtick_2">
     <g id="line2d_6">
      <path clip-path="url(#p7ff5b81e1d)" d="
M146.4 388.8
L146.4 43.2" style="fill:none;stroke:#000000;stroke-dasharray:1.000000,3.000000;stroke-dashoffset:0.0;stroke-width:0.5;"/>
     </g>
     <g id="line2d_7">
      <g>
       <use style="stroke:#000000;stroke-width:0.5;" x="146.4" xlink:href="#mc7db9fdffb" y="388.8"/>
      </g>
     </g>
     <g id="line2d_8">
      <g>
       <use style="stroke:#000000;stroke-width:0.5;" x="146.4" xlink:href="#m5a7d422ac3" y="43.2"/>
      </g>
     </g>
     <g id="text_2">
      <!-- 50000 -->
      <defs>
       <path d="
M10.7969 72.9062
L49.5156 72.9062
L49.5156 64.5938
L19.8281 64.5938
L19.8281 46.7344
Q21.9688 47.4688 24.1094 47.8281
Q26.2656 48.1875 28.4219 48.1875
Q40.625 48.1875 47.75 41.5
Q54.8906 34.8125 54.8906 23.3906
Q54.8906 11.625 47.5625 5.09375
Q40.2344 -1.42188 26.9062 -1.42188
Q22.3125 -1.42188 17.5469 -0.640625
Q12.7969 0.140625 7.71875 1.70312
L7.71875 11.625
Q12.1094 9.23438 16.7969 8.0625
Q21.4844 6.89062 26.7031 6.89062
Q35.1562 6.89062 40.0781 11.3281
Q45.0156 15.7656 45.0156 23.3906
Q45.0156 31 40.0781 35.4375
Q35.1562 39.8906 26.7031 39.8906
Q22.75 39.8906 18.8125 39.0156
Q14.8906 38.1406 10.7969 36.2812
z
" id="BitstreamVeraSans-Roman-35"/>
      </defs>
      <g transform="translate(128.1740625 401.918125)scale(0.12 -0.12)">
       <use xlink:href="#BitstreamVeraSans-Roman-35"/>
       <use x="63.623046875" xlink:href="#BitstreamVeraSans-Roman-30"/>
       <use x="127.24609375" xlink:href="#BitstreamVeraSans-Roman-30"/>
       <use x="190.869140625" xlink:href="#BitstreamVeraSans-Roman-30"/>
       <use x="254.4921875" xlink:href="#BitstreamVeraSans-Roman-30"/>
      </g>
     </g>
    </g>
    <g id="xtick_3">
     <g id="line2d_9">
      <path clip-path="url(#p7ff5b81e1d)" d="
M220.8 388.8
L220.8 43.2" style="fill:none;stroke:#000000;stroke-dasharray:1.000000,3.000000;stroke-dashoffset:0.0;stroke-width:0.5;"/>
     </g>
     <g id="line2d_10">
      <g>
       <use style="stroke:#000000;stroke-width:0.5;" x="220.8" xlink:href="#mc7db9fdffb" y="388.8"/>
      </g>
     </g>
     <g id="line2d_11">
      <g>
       <use style="stroke:#000000;stroke-width:0.5;" x="220.8" xlink:href="#m5a7d422ac3" y="43.2"/>
      </g>
     </g>
     <g id="text_3">
      <!-- 100000 -->
      <defs>
       <path d="
M12.4062 8.29688
L28.5156 8.29688
L28.5156 63.9219
L10.9844 60.4062
L10.9844 69.3906
L28.4219 72.9062
L38.2812 72.9062
L38.2812 8.29688
L54.3906 8.29688
L54.3906 0
L12.4062 0
z
" id="BitstreamVeraSans-Roman-31"/>
      </defs>
      <g transform="translate(198.9525 401.918125)scale(0.12 -0.12)">
       <use xlink:href="#BitstreamVeraSans-Roman-31"/>
       <use x="63.623046875" xlink:href="#BitstreamVeraSans-Roman-30"/>
       <use x="127.24609375" xlink:href="#BitstreamVeraSans-Roman-30"/>
       <use x="190.869140625" xlink:href="#BitstreamVeraSans-Roman-30"/>
       <use x="254.4921875" xlink:href="#BitstreamVeraSans-Roman-30"/>
       <use x="318.115234375" xlink:href="#BitstreamVeraSans-Roman-30"/>
      </g>
     </g>
    </g>
    <g id="xtick_4">
     <g id="line2d_12">
      <path clip-path="url(#p7ff5b81e1d)" d="
M295.2 388.8
L295.2 43.2" style="fill:none;stroke:#000000;stroke-dasharray:1.000000,3.000000;stroke-dashoffset:0.0;stroke-width:0.5;"/>
     </g>
     <g id="line2d_13">
      <g>
       <use style="stroke:#000000;stroke-width:0.5;" x="295.2" xlink:href="#mc7db9fdffb" y="388.8"/>
      </g>
     </g>
     <g id="line2d_14">
      <g>
       <use style="stroke:#000000;stroke-width:0.5;" x="295.2" xlink:href="#m5a7d422ac3" y="43.2"/>
      </g>
     </g>
     <g id="text_4">
      <!-- 150000 -->
      <g transform="translate(273.3525 401.918125)scale(0.12 -0.12)">
       <use xlink:href="#BitstreamVeraSans-Roman-31"/>
       <use x="63.623046875" xlink:href="#BitstreamVeraSans-Roman-35"/>
       <use x="127.24609375" xlink:href="#BitstreamVeraSans-Roman-30"/>
       <use x="190.869140625" xlink:href="#BitstreamVeraSans-Roman-30"/>
       <use x="254.4921875" xlink:href="#BitstreamVeraSans-Roman-30"/>
       <use x="318.115234375" xlink:href="#BitstreamVeraSans-Roman-30"/>
      </g>
     </g>
    </g>
    <g id="xtick_5">
     <g id="line2d_15">
      <path clip-path="url(#p7ff5b81e1d)" d="
M369.6 388.8
L369.6 43.2" style="fill:none;stroke:#000000;stroke-dasharray:1.000000,3.000000;stroke-dashoffset:0.0;stroke-width:0.5;"/>
     </g>
     <g id="line2d_16">
      <g>
       <use style="stroke:#000000;stroke-width:0.5;" x="369.6" xlink:href="#mc7db9fdffb" y="388.8"/>
      </g>
     </g>
     <g id="line2d_17">
      <g>
       <use style="stroke:#000000;stroke-width:0.5;" x="369.6" xlink:href="#m5a7d422ac3" y="43.2"/>
      </g>
     </g>
     <g id="text_5">
      <!-- 200000 -->
      <defs>
       <path d="
M19.1875 8.29688
L53.6094 8.29688
L53.6094 0
L7.32812 0
L7.32812 8.29688
Q12.9375 14.1094 22.625 23.8906
Q32.3281 33.6875 34.8125 36.5312
Q39.5469 41.8438 41.4219 45.5312
Q43.3125 49.2188 43.3125 52.7812
Q43.3125 58.5938 39.2344 62.25
Q35.1562 65.9219 28.6094 65.9219
Q23.9688 65.9219 18.8125 64.3125
Q13.6719 62.7031 7.8125 59.4219
L7.8125 69.3906
Q13.7656 71.7812 18.9375 73
Q24.125 74.2188 28.4219 74.2188
Q39.75 74.2188 46.4844 68.5469
Q53.2188 62.8906 53.2188 53.4219
Q53.2188 48.9219 51.5312 44.8906
Q49.8594 40.875 45.4062 35.4062
Q44.1875 33.9844 37.6406 27.2188
Q31.1094 20.4531 19.1875 8.29688" id="BitstreamVeraSans-Roman-32"/>
      </defs>
      <g transform="translate(347.533125 401.918125)scale(0.12 -0.12)">
       <use xlink:href="#BitstreamVeraSans-Roman-32"/>
       <use x="63.623046875" xlink:href="#BitstreamVeraSans-Roman-30"/>
       <use x="127.24609375" xlink:href="#BitstreamVeraSans-Roman-30"/>
       <use x="190.869140625" xlink:href="#BitstreamVeraSans-Roman-30"/>
       <use x="254.4921875" xlink:href="#BitstreamVeraSans-Roman-30"/>
       <use x="318.115234375" xlink:href="#BitstreamVeraSans-Roman-30"/>
      </g>
     </g>
    </g>
    <g id="xtick_6">
     <g id="line2d_18">
      <path clip-path="url(#p7ff5b81e1d)" d="
M444 388.8
L444 43.2" style="fill:none;stroke:#000000;stroke-dasharray:1.000000,3.000000;stroke-dashoffset:0.0;stroke-width:0.5;"/>
     </g>
     <g id="line2d_19">
      <g>
       <use style="stroke:#000000;stroke-width:0.5;" x="444.0" xlink:href="#mc7db9fdffb" y="388.8"/>
      </g>
     </g>
     <g id="line2d_20">
      <g>
       <use style="stroke:#000000;stroke-width:0.5;" x="444.0" xlink:href="#m5a7d422ac3" y="43.2"/>
      </g>
     </g>
     <g id="text_6">
      <!-- 250000 -->
      <g transform="translate(421.933125 401.918125)scale(0.12 -0.12)">
       <use xlink:href="#BitstreamVeraSans-Roman-32"/>
       <use x="63.623046875" xlink:href="#BitstreamVeraSans-Roman-35"/>
       <use x="127.24609375" xlink:href="#BitstreamVeraSans-Roman-30"/>
       <use x="190.869140625" xlink:href="#BitstreamVeraSans-Roman-30"/>
       <use x="254.4921875" xlink:href="#BitstreamVeraSans-Roman-30"/>
       <use x="318.115234375" xlink:href="#BitstreamVeraSans-Roman-30"/>
      </g>
     </g>
    </g>
    <g id="xtick_7">
     <g id="line2d_21">
      <path clip-path="url(#p7ff5b81e1d)" d="
M518.4 388.8
L518.4 43.2" style="fill:none;stroke:#000000;stroke-dasharray:1.000000,3.000000;stroke-dashoffset:0.0;stroke-width:0.5;"/>
     </g>
     <g id="line2d_22">
      <g>
       <use style="stroke:#000000;stroke-width:0.5;" x="518.4" xlink:href="#mc7db9fdffb" y="388.8"/>
      </g>
     </g>
     <g id="line2d_23">
      <g>
       <use style="stroke:#000000;stroke-width:0.5;" x="518.4" xlink:href="#m5a7d422ac3" y="43.2"/>
      </g>
     </g>
     <g id="text_7">
      <!-- 300000 -->
      <defs>
       <path d="
M40.5781 39.3125
Q47.6562 37.7969 51.625 33
Q55.6094 28.2188 55.6094 21.1875
Q55.6094 10.4062 48.1875 4.48438
Q40.7656 -1.42188 27.0938 -1.42188
Q22.5156 -1.42188 17.6562 -0.515625
Q12.7969 0.390625 7.625 2.20312
L7.625 11.7188
Q11.7188 9.32812 16.5938 8.10938
Q21.4844 6.89062 26.8125 6.89062
Q36.0781 6.89062 40.9375 10.5469
Q45.7969 14.2031 45.7969 21.1875
Q45.7969 27.6406 41.2812 31.2656
Q36.7656 34.9062 28.7188 34.9062
L20.2188 34.9062
L20.2188 43.0156
L29.1094 43.0156
Q36.375 43.0156 40.2344 45.9219
Q44.0938 48.8281 44.0938 54.2969
Q44.0938 59.9062 40.1094 62.9062
Q36.1406 65.9219 28.7188 65.9219
Q24.6562 65.9219 20.0156 65.0312
Q15.375 64.1562 9.8125 62.3125
L9.8125 71.0938
Q15.4375 72.6562 20.3438 73.4375
Q25.25 74.2188 29.5938 74.2188
Q40.8281 74.2188 47.3594 69.1094
Q53.9062 64.0156 53.9062 55.3281
Q53.9062 49.2656 50.4375 45.0938
Q46.9688 40.9219 40.5781 39.3125" id="BitstreamVeraSans-Roman-33"/>
      </defs>
      <g transform="translate(496.3509375 401.918125)scale(0.12 -0.12)">
       <use xlink:href="#BitstreamVeraSans-Roman-33"/>
       <use x="63.623046875" xlink:href="#BitstreamVeraSans-Roman-30"/>
       <use x="127.24609375" xlink:href="#BitstreamVeraSans-Roman-30"/>
       <use x="190.869140625" xlink:href="#BitstreamVeraSans-Roman-30"/>
       <use x="254.4921875" xlink:href="#BitstreamVeraSans-Roman-30"/>
       <use x="318.115234375" xlink:href="#BitstreamVeraSans-Roman-30"/>
      </g>
     </g>
    </g>
    <g id="text_8">
     <!-- iteration num -->
     <defs>
      <path d="
M52 44.1875
Q55.375 50.25 60.0625 53.125
Q64.75 56 71.0938 56
Q79.6406 56 84.2812 50.0156
Q88.9219 44.0469 88.9219 33.0156
L88.9219 0
L79.8906 0
L79.8906 32.7188
Q79.8906 40.5781 77.0938 44.375
Q74.3125 48.1875 68.6094 48.1875
Q61.625 48.1875 57.5625 43.5469
Q53.5156 38.9219 53.5156 30.9062
L53.5156 0
L44.4844 0
L44.4844 32.7188
Q44.4844 40.625 41.7031 44.4062
Q38.9219 48.1875 33.1094 48.1875
Q26.2188 48.1875 22.1562 43.5312
Q18.1094 38.875 18.1094 30.9062
L18.1094 0
L9.07812 0
L9.07812 54.6875
L18.1094 54.6875
L18.1094 46.1875
Q21.1875 51.2188 25.4844 53.6094
Q29.7812 56 35.6875 56
Q41.6562 56 45.8281 52.9688
Q50 49.9531 52 44.1875" id="BitstreamVeraSans-Roman-6d"/>
      <path d="
M56.2031 29.5938
L56.2031 25.2031
L14.8906 25.2031
Q15.4844 15.9219 20.4844 11.0625
Q25.4844 6.20312 34.4219 6.20312
Q39.5938 6.20312 44.4531 7.46875
Q49.3125 8.73438 54.1094 11.2812
L54.1094 2.78125
Q49.2656 0.734375 44.1875 -0.34375
Q39.1094 -1.42188 33.8906 -1.42188
Q20.7969 -1.42188 13.1562 6.1875
Q5.51562 13.8125 5.51562 26.8125
Q5.51562 40.2344 12.7656 48.1094
Q20.0156 56 32.3281 56
Q43.3594 56 49.7812 48.8906
Q56.2031 41.7969 56.2031 29.5938
M47.2188 32.2344
Q47.125 39.5938 43.0938 43.9844
Q39.0625 48.3906 32.4219 48.3906
Q24.9062 48.3906 20.3906 44.1406
Q15.875 39.8906 15.1875 32.1719
z
" id="BitstreamVeraSans-Roman-65"/>
      <path d="
M30.6094 48.3906
Q23.3906 48.3906 19.1875 42.75
Q14.9844 37.1094 14.9844 27.2969
Q14.9844 17.4844 19.1562 11.8438
Q23.3438 6.20312 30.6094 6.20312
Q37.7969 6.20312 41.9844 11.8594
Q46.1875 17.5312 46.1875 27.2969
Q46.1875 37.0156 41.9844 42.7031
Q37.7969 48.3906 30.6094 48.3906
M30.6094 56
Q42.3281 56 49.0156 48.375
Q55.7188 40.7656 55.7188 27.2969
Q55.7188 13.875 49.0156 6.21875
Q42.3281 -1.42188 30.6094 -1.42188
Q18.8438 -1.42188 12.1719 6.21875
Q5.51562 13.875 5.51562 27.2969
Q5.51562 40.7656 12.1719 48.375
Q18.8438 56 30.6094 56" id="BitstreamVeraSans-Roman-6f"/>
      <path d="
M34.2812 27.4844
Q23.3906 27.4844 19.1875 25
Q14.9844 22.5156 14.9844 16.5
Q14.9844 11.7188 18.1406 8.90625
Q21.2969 6.10938 26.7031 6.10938
Q34.1875 6.10938 38.7031 11.4062
Q43.2188 16.7031 43.2188 25.4844
L43.2188 27.4844
z

M52.2031 31.2031
L52.2031 0
L43.2188 0
L43.2188 8.29688
Q40.1406 3.32812 35.5469 0.953125
Q30.9531 -1.42188 24.3125 -1.42188
Q15.9219 -1.42188 10.9531 3.29688
Q6 8.01562 6 15.9219
Q6 25.1406 12.1719 29.8281
Q18.3594 34.5156 30.6094 34.5156
L43.2188 34.5156
L43.2188 35.4062
Q43.2188 41.6094 39.1406 45
Q35.0625 48.3906 27.6875 48.3906
Q23 48.3906 18.5469 47.2656
Q14.1094 46.1406 10.0156 43.8906
L10.0156 52.2031
Q14.9375 54.1094 19.5781 55.0469
Q24.2188 56 28.6094 56
Q40.4844 56 46.3438 49.8438
Q52.2031 43.7031 52.2031 31.2031" id="BitstreamVeraSans-Roman-61"/>
      <path d="
M18.3125 70.2188
L18.3125 54.6875
L36.8125 54.6875
L36.8125 47.7031
L18.3125 47.7031
L18.3125 18.0156
Q18.3125 11.3281 20.1406 9.42188
Q21.9688 7.51562 27.5938 7.51562
L36.8125 7.51562
L36.8125 0
L27.5938 0
Q17.1875 0 13.2344 3.875
Q9.28125 7.76562 9.28125 18.0156
L9.28125 47.7031
L2.6875 47.7031
L2.6875 54.6875
L9.28125 54.6875
L9.28125 70.2188
z
" id="BitstreamVeraSans-Roman-74"/>
      <path d="
M9.42188 54.6875
L18.4062 54.6875
L18.4062 0
L9.42188 0
z

M9.42188 75.9844
L18.4062 75.9844
L18.4062 64.5938
L9.42188 64.5938
z
" id="BitstreamVeraSans-Roman-69"/>
      <path d="
M8.5 21.5781
L8.5 54.6875
L17.4844 54.6875
L17.4844 21.9219
Q17.4844 14.1562 20.5 10.2656
Q23.5312 6.39062 29.5938 6.39062
Q36.8594 6.39062 41.0781 11.0312
Q45.3125 15.6719 45.3125 23.6875
L45.3125 54.6875
L54.2969 54.6875
L54.2969 0
L45.3125 0
L45.3125 8.40625
Q42.0469 3.42188 37.7188 1
Q33.4062 -1.42188 27.6875 -1.42188
Q18.2656 -1.42188 13.375 4.4375
Q8.5 10.2969 8.5 21.5781" id="BitstreamVeraSans-Roman-75"/>
      <path d="
M54.8906 33.0156
L54.8906 0
L45.9062 0
L45.9062 32.7188
Q45.9062 40.4844 42.875 44.3281
Q39.8438 48.1875 33.7969 48.1875
Q26.5156 48.1875 22.3125 43.5469
Q18.1094 38.9219 18.1094 30.9062
L18.1094 0
L9.07812 0
L9.07812 54.6875
L18.1094 54.6875
L18.1094 46.1875
Q21.3438 51.125 25.7031 53.5625
Q30.0781 56 35.7969 56
Q45.2188 56 50.0469 50.1719
Q54.8906 44.3438 54.8906 33.0156" id="BitstreamVeraSans-Roman-6e"/>
      <path d="
M41.1094 46.2969
Q39.5938 47.1719 37.8125 47.5781
Q36.0312 48 33.8906 48
Q26.2656 48 22.1875 43.0469
Q18.1094 38.0938 18.1094 28.8125
L18.1094 0
L9.07812 0
L9.07812 54.6875
L18.1094 54.6875
L18.1094 46.1875
Q20.9531 51.1719 25.4844 53.5781
Q30.0312 56 36.5312 56
Q37.4531 56 38.5781 55.875
Q39.7031 55.7656 41.0625 55.5156
z
" id="BitstreamVeraSans-Roman-72"/>
      <path id="BitstreamVeraSans-Roman-20"/>
     </defs>
     <g transform="translate(255.005625 418.531875)scale(0.12 -0.12)">
      <use xlink:href="#BitstreamVeraSans-Roman-69"/>
      <use x="27.783203125" xlink:href="#BitstreamVeraSans-Roman-74"/>
      <use x="66.9921875" xlink:href="#BitstreamVeraSans-Roman-65"/>
      <use x="128.515625" xlink:href="#BitstreamVeraSans-Roman-72"/>
      <use x="169.62890625" xlink:href="#BitstreamVeraSans-Roman-61"/>
      <use x="230.908203125" xlink:href="#BitstreamVeraSans-Roman-74"/>
      <use x="270.1171875" xlink:href="#BitstreamVeraSans-Roman-69"/>
      <use x="297.900390625" xlink:href="#BitstreamVeraSans-Roman-6f"/>
      <use x="359.08203125" xlink:href="#BitstreamVeraSans-Roman-6e"/>
      <use x="422.4609375" xlink:href="#BitstreamVeraSans-Roman-20"/>
      <use x="454.248046875" xlink:href="#BitstreamVeraSans-Roman-6e"/>
      <use x="517.626953125" xlink:href="#BitstreamVeraSans-Roman-75"/>
      <use x="581.005859375" xlink:href="#BitstreamVeraSans-Roman-6d"/>
     </g>
    </g>
   </g>
   <g id="matplotlib.axis_2">
    <g id="ytick_1">
     <g id="line2d_24">
      <path clip-path="url(#p7ff5b81e1d)" d="
M72 388.8
L518.4 388.8" style="fill:none;stroke:#000000;stroke-dasharray:1.000000,3.000000;stroke-dashoffset:0.0;stroke-width:0.5;"/>
     </g>
     <g id="line2d_25">
      <defs>
       <path d="
M0 0
L4 0" id="md7965d1ba0" style="stroke:#000000;stroke-width:0.5;"/>
      </defs>
      <g>
       <use style="stroke:#000000;stroke-width:0.5;" x="72.0" xlink:href="#md7965d1ba0" y="388.8"/>
      </g>
     </g>
     <g id="line2d_26">
      <defs>
       <path d="
M0 0
L-4 0" id="md9a1c1a7cd" style="stroke:#000000;stroke-width:0.5;"/>
      </defs>
      <g>
       <use style="stroke:#000000;stroke-width:0.5;" x="518.4" xlink:href="#md9a1c1a7cd" y="388.8"/>
      </g>
     </g>
     <g id="text_9">
      <!-- $\mathdefault{10^{0}}$ -->
      <g transform="translate(44.84 392.724375)scale(0.12 -0.12)">
       <use transform="translate(0.0 0.546875)" xlink:href="#BitstreamVeraSans-Roman-31"/>
       <use transform="translate(63.623046875 0.546875)" xlink:href="#BitstreamVeraSans-Roman-30"/>
       <use transform="translate(127.24609375 53.046875)scale(0.7)" xlink:href="#BitstreamVeraSans-Roman-30"/>
      </g>
     </g>
    </g>
    <g id="ytick_2">
     <g id="line2d_27">
      <path clip-path="url(#p7ff5b81e1d)" d="
M72 216
L518.4 216" style="fill:none;stroke:#000000;stroke-dasharray:1.000000,3.000000;stroke-dashoffset:0.0;stroke-width:0.5;"/>
     </g>
     <g id="line2d_28">
      <g>
       <use style="stroke:#000000;stroke-width:0.5;" x="72.0" xlink:href="#md7965d1ba0" y="216.0"/>
      </g>
     </g>
     <g id="line2d_29">
      <g>
       <use style="stroke:#000000;stroke-width:0.5;" x="518.4" xlink:href="#md9a1c1a7cd" y="216.0"/>
      </g>
     </g>
     <g id="text_10">
      <!-- $\mathdefault{10^{1}}$ -->
      <g transform="translate(44.84 219.864375)scale(0.12 -0.12)">
       <use transform="translate(0.0 0.46562500000000284)" xlink:href="#BitstreamVeraSans-Roman-31"/>
       <use transform="translate(63.623046875 0.46562500000000284)" xlink:href="#BitstreamVeraSans-Roman-30"/>
       <use transform="translate(127.24609375 52.965625)scale(0.7)" xlink:href="#BitstreamVeraSans-Roman-31"/>
      </g>
     </g>
    </g>
    <g id="ytick_3">
     <g id="line2d_30">
      <path clip-path="url(#p7ff5b81e1d)" d="
M72 43.2
L518.4 43.2" style="fill:none;stroke:#000000;stroke-dasharray:1.000000,3.000000;stroke-dashoffset:0.0;stroke-width:0.5;"/>
     </g>
     <g id="line2d_31">
      <g>
       <use style="stroke:#000000;stroke-width:0.5;" x="72.0" xlink:href="#md7965d1ba0" y="43.2"/>
      </g>
     </g>
     <g id="line2d_32">
      <g>
       <use style="stroke:#000000;stroke-width:0.5;" x="518.4" xlink:href="#md9a1c1a7cd" y="43.2"/>
      </g>
     </g>
     <g id="text_11">
      <!-- $\mathdefault{10^{2}}$ -->
      <g transform="translate(44.84 47.124375)scale(0.12 -0.12)">
       <use transform="translate(0.0 0.546875)" xlink:href="#BitstreamVeraSans-Roman-31"/>
       <use transform="translate(63.623046875 0.546875)" xlink:href="#BitstreamVeraSans-Roman-30"/>
       <use transform="translate(127.24609375 53.046875)scale(0.7)" xlink:href="#BitstreamVeraSans-Roman-32"/>
      </g>
     </g>
    </g>
    <g id="ytick_4">
     <g id="line2d_33">
      <defs>
       <path d="
M0 0
L2 0" id="m8d45281ad4" style="stroke:#000000;stroke-width:0.5;"/>
      </defs>
      <g>
       <use style="stroke:#000000;stroke-width:0.5;" x="72.0" xlink:href="#m8d45281ad4" y="336.782016749"/>
      </g>
     </g>
     <g id="line2d_34">
      <defs>
       <path d="
M0 0
L-2 0" id="me3f9b4022a" style="stroke:#000000;stroke-width:0.5;"/>
      </defs>
      <g>
       <use style="stroke:#000000;stroke-width:0.5;" x="518.4" xlink:href="#me3f9b4022a" y="336.782016749"/>
      </g>
     </g>
    </g>
    <g id="ytick_5">
     <g id="line2d_35">
      <g>
       <use style="stroke:#000000;stroke-width:0.5;" x="72.0" xlink:href="#m8d45281ad4" y="306.353447184"/>
      </g>
     </g>
     <g id="line2d_36">
      <g>
       <use style="stroke:#000000;stroke-width:0.5;" x="518.4" xlink:href="#me3f9b4022a" y="306.353447184"/>
      </g>
     </g>
    </g>
    <g id="ytick_6">
     <g id="line2d_37">
      <g>
       <use style="stroke:#000000;stroke-width:0.5;" x="72.0" xlink:href="#m8d45281ad4" y="284.764033499"/>
      </g>
     </g>
     <g id="line2d_38">
      <g>
       <use style="stroke:#000000;stroke-width:0.5;" x="518.4" xlink:href="#me3f9b4022a" y="284.764033499"/>
      </g>
     </g>
    </g>
    <g id="ytick_7">
     <g id="line2d_39">
      <g>
       <use style="stroke:#000000;stroke-width:0.5;" x="72.0" xlink:href="#m8d45281ad4" y="268.017983251"/>
      </g>
     </g>
     <g id="line2d_40">
      <g>
       <use style="stroke:#000000;stroke-width:0.5;" x="518.4" xlink:href="#me3f9b4022a" y="268.017983251"/>
      </g>
     </g>
    </g>
    <g id="ytick_8">
     <g id="line2d_41">
      <g>
       <use style="stroke:#000000;stroke-width:0.5;" x="72.0" xlink:href="#m8d45281ad4" y="254.335463934"/>
      </g>
     </g>
     <g id="line2d_42">
      <g>
       <use style="stroke:#000000;stroke-width:0.5;" x="518.4" xlink:href="#me3f9b4022a" y="254.335463934"/>
      </g>
     </g>
    </g>
    <g id="ytick_9">
     <g id="line2d_43">
      <g>
       <use style="stroke:#000000;stroke-width:0.5;" x="72.0" xlink:href="#m8d45281ad4" y="242.767058686"/>
      </g>
     </g>
     <g id="line2d_44">
      <g>
       <use style="stroke:#000000;stroke-width:0.5;" x="518.4" xlink:href="#me3f9b4022a" y="242.767058686"/>
      </g>
     </g>
    </g>
    <g id="ytick_10">
     <g id="line2d_45">
      <g>
       <use style="stroke:#000000;stroke-width:0.5;" x="72.0" xlink:href="#m8d45281ad4" y="232.746050248"/>
      </g>
     </g>
     <g id="line2d_46">
      <g>
       <use style="stroke:#000000;stroke-width:0.5;" x="518.4" xlink:href="#me3f9b4022a" y="232.746050248"/>
      </g>
     </g>
    </g>
    <g id="ytick_11">
     <g id="line2d_47">
      <g>
       <use style="stroke:#000000;stroke-width:0.5;" x="72.0" xlink:href="#m8d45281ad4" y="223.906894369"/>
      </g>
     </g>
     <g id="line2d_48">
      <g>
       <use style="stroke:#000000;stroke-width:0.5;" x="518.4" xlink:href="#me3f9b4022a" y="223.906894369"/>
      </g>
     </g>
    </g>
    <g id="ytick_12">
     <g id="line2d_49">
      <g>
       <use style="stroke:#000000;stroke-width:0.5;" x="72.0" xlink:href="#m8d45281ad4" y="163.982016749"/>
      </g>
     </g>
     <g id="line2d_50">
      <g>
       <use style="stroke:#000000;stroke-width:0.5;" x="518.4" xlink:href="#me3f9b4022a" y="163.982016749"/>
      </g>
     </g>
    </g>
    <g id="ytick_13">
     <g id="line2d_51">
      <g>
       <use style="stroke:#000000;stroke-width:0.5;" x="72.0" xlink:href="#m8d45281ad4" y="133.553447184"/>
      </g>
     </g>
     <g id="line2d_52">
      <g>
       <use style="stroke:#000000;stroke-width:0.5;" x="518.4" xlink:href="#me3f9b4022a" y="133.553447184"/>
      </g>
     </g>
    </g>
    <g id="ytick_14">
     <g id="line2d_53">
      <g>
       <use style="stroke:#000000;stroke-width:0.5;" x="72.0" xlink:href="#m8d45281ad4" y="111.964033499"/>
      </g>
     </g>
     <g id="line2d_54">
      <g>
       <use style="stroke:#000000;stroke-width:0.5;" x="518.4" xlink:href="#me3f9b4022a" y="111.964033499"/>
      </g>
     </g>
    </g>
    <g id="ytick_15">
     <g id="line2d_55">
      <g>
       <use style="stroke:#000000;stroke-width:0.5;" x="72.0" xlink:href="#m8d45281ad4" y="95.2179832507"/>
      </g>
     </g>
     <g id="line2d_56">
      <g>
       <use style="stroke:#000000;stroke-width:0.5;" x="518.4" xlink:href="#me3f9b4022a" y="95.2179832507"/>
      </g>
     </g>
    </g>
    <g id="ytick_16">
     <g id="line2d_57">
      <g>
       <use style="stroke:#000000;stroke-width:0.5;" x="72.0" xlink:href="#m8d45281ad4" y="81.5354639337"/>
      </g>
     </g>
     <g id="line2d_58">
      <g>
       <use style="stroke:#000000;stroke-width:0.5;" x="518.4" xlink:href="#me3f9b4022a" y="81.5354639337"/>
      </g>
     </g>
    </g>
    <g id="ytick_17">
     <g id="line2d_59">
      <g>
       <use style="stroke:#000000;stroke-width:0.5;" x="72.0" xlink:href="#m8d45281ad4" y="69.9670586855"/>
      </g>
     </g>
     <g id="line2d_60">
      <g>
       <use style="stroke:#000000;stroke-width:0.5;" x="518.4" xlink:href="#me3f9b4022a" y="69.9670586855"/>
      </g>
     </g>
    </g>
    <g id="ytick_18">
     <g id="line2d_61">
      <g>
       <use style="stroke:#000000;stroke-width:0.5;" x="72.0" xlink:href="#m8d45281ad4" y="59.9460502478"/>
      </g>
     </g>
     <g id="line2d_62">
      <g>
       <use style="stroke:#000000;stroke-width:0.5;" x="518.4" xlink:href="#me3f9b4022a" y="59.9460502478"/>
      </g>
     </g>
    </g>
    <g id="ytick_19">
     <g id="line2d_63">
      <g>
       <use style="stroke:#000000;stroke-width:0.5;" x="72.0" xlink:href="#m8d45281ad4" y="51.1068943689"/>
      </g>
     </g>
     <g id="line2d_64">
      <g>
       <use style="stroke:#000000;stroke-width:0.5;" x="518.4" xlink:href="#me3f9b4022a" y="51.1068943689"/>
      </g>
     </g>
    </g>
   </g>
   <g id="text_12">
    <!-- task: MuseDataset -->
    <defs>
     <path d="
M11.7188 12.4062
L22.0156 12.4062
L22.0156 0
L11.7188 0
z

M11.7188 51.7031
L22.0156 51.7031
L22.0156 39.3125
L11.7188 39.3125
z
" id="BitstreamVeraSans-Roman-3a"/>
     <path d="
M9.8125 72.9062
L24.5156 72.9062
L43.1094 23.2969
L61.8125 72.9062
L76.5156 72.9062
L76.5156 0
L66.8906 0
L66.8906 64.0156
L48.0938 14.0156
L38.1875 14.0156
L19.3906 64.0156
L19.3906 0
L9.8125 0
z
" id="BitstreamVeraSans-Roman-4d"/>
     <path d="
M9.07812 75.9844
L18.1094 75.9844
L18.1094 31.1094
L44.9219 54.6875
L56.3906 54.6875
L27.3906 29.1094
L57.625 0
L45.9062 0
L18.1094 26.7031
L18.1094 0
L9.07812 0
z
" id="BitstreamVeraSans-Roman-6b"/>
     <path d="
M19.6719 64.7969
L19.6719 8.10938
L31.5938 8.10938
Q46.6875 8.10938 53.6875 14.9375
Q60.6875 21.7812 60.6875 36.5312
Q60.6875 51.1719 53.6875 57.9844
Q46.6875 64.7969 31.5938 64.7969
z

M9.8125 72.9062
L30.0781 72.9062
Q51.2656 72.9062 61.1719 64.0938
Q71.0938 55.2812 71.0938 36.5312
Q71.0938 17.6719 61.125 8.82812
Q51.1719 0 30.0781 0
L9.8125 0
z
" id="BitstreamVeraSans-Roman-44"/>
     <path d="
M44.2812 53.0781
L44.2812 44.5781
Q40.4844 46.5312 36.375 47.5
Q32.2812 48.4844 27.875 48.4844
Q21.1875 48.4844 17.8438 46.4375
Q14.5 44.3906 14.5 40.2812
Q14.5 37.1562 16.8906 35.375
Q19.2812 33.5938 26.5156 31.9844
L29.5938 31.2969
Q39.1562 29.25 43.1875 25.5156
Q47.2188 21.7812 47.2188 15.0938
Q47.2188 7.46875 41.1875 3.01562
Q35.1562 -1.42188 24.6094 -1.42188
Q20.2188 -1.42188 15.4531 -0.5625
Q10.6875 0.296875 5.42188 2
L5.42188 11.2812
Q10.4062 8.6875 15.2344 7.39062
Q20.0625 6.10938 24.8125 6.10938
Q31.1562 6.10938 34.5625 8.28125
Q37.9844 10.4531 37.9844 14.4062
Q37.9844 18.0625 35.5156 20.0156
Q33.0625 21.9688 24.7031 23.7812
L21.5781 24.5156
Q13.2344 26.2656 9.51562 29.9062
Q5.8125 33.5469 5.8125 39.8906
Q5.8125 47.6094 11.2812 51.7969
Q16.75 56 26.8125 56
Q31.7812 56 36.1719 55.2656
Q40.5781 54.5469 44.2812 53.0781" id="BitstreamVeraSans-Roman-73"/>
    </defs>
    <g transform="translate(72.0 -9.6095625)scale(0.14 -0.14)">
     <use xlink:href="#BitstreamVeraSans-Roman-74"/>
     <use x="39.208984375" xlink:href="#BitstreamVeraSans-Roman-61"/>
     <use x="100.48828125" xlink:href="#BitstreamVeraSans-Roman-73"/>
     <use x="152.587890625" xlink:href="#BitstreamVeraSans-Roman-6b"/>
     <use x="210.498046875" xlink:href="#BitstreamVeraSans-Roman-3a"/>
     <use x="244.189453125" xlink:href="#BitstreamVeraSans-Roman-20"/>
     <use x="275.9765625" xlink:href="#BitstreamVeraSans-Roman-4d"/>
     <use x="362.255859375" xlink:href="#BitstreamVeraSans-Roman-75"/>
     <use x="425.634765625" xlink:href="#BitstreamVeraSans-Roman-73"/>
     <use x="477.734375" xlink:href="#BitstreamVeraSans-Roman-65"/>
     <use x="539.2578125" xlink:href="#BitstreamVeraSans-Roman-44"/>
     <use x="616.259765625" xlink:href="#BitstreamVeraSans-Roman-61"/>
     <use x="677.5390625" xlink:href="#BitstreamVeraSans-Roman-74"/>
     <use x="716.748046875" xlink:href="#BitstreamVeraSans-Roman-61"/>
     <use x="778.02734375" xlink:href="#BitstreamVeraSans-Roman-73"/>
     <use x="830.126953125" xlink:href="#BitstreamVeraSans-Roman-65"/>
     <use x="891.650390625" xlink:href="#BitstreamVeraSans-Roman-74"/>
    </g>
    <!-- training time: 3927.12 min,  num iterations: 286.400, batch_size: 20 -->
    <defs>
     <path d="
M48.7812 52.5938
L48.7812 44.1875
Q44.9688 46.2969 41.1406 47.3438
Q37.3125 48.3906 33.4062 48.3906
Q24.6562 48.3906 19.8125 42.8438
Q14.9844 37.3125 14.9844 27.2969
Q14.9844 17.2812 19.8125 11.7344
Q24.6562 6.20312 33.4062 6.20312
Q37.3125 6.20312 41.1406 7.25
Q44.9688 8.29688 48.7812 10.4062
L48.7812 2.09375
Q45.0156 0.34375 40.9844 -0.53125
Q36.9688 -1.42188 32.4219 -1.42188
Q20.0625 -1.42188 12.7812 6.34375
Q5.51562 14.1094 5.51562 27.2969
Q5.51562 40.6719 12.8594 48.3281
Q20.2188 56 33.0156 56
Q37.1562 56 41.1094 55.1406
Q45.0625 54.2969 48.7812 52.5938" id="BitstreamVeraSans-Roman-63"/>
     <path d="
M11.7188 12.4062
L22.0156 12.4062
L22.0156 4
L14.0156 -11.625
L7.71875 -11.625
L11.7188 4
z
" id="BitstreamVeraSans-Roman-2c"/>
     <path d="
M48.6875 27.2969
Q48.6875 37.2031 44.6094 42.8438
Q40.5312 48.4844 33.4062 48.4844
Q26.2656 48.4844 22.1875 42.8438
Q18.1094 37.2031 18.1094 27.2969
Q18.1094 17.3906 22.1875 11.75
Q26.2656 6.10938 33.4062 6.10938
Q40.5312 6.10938 44.6094 11.75
Q48.6875 17.3906 48.6875 27.2969
M18.1094 46.3906
Q20.9531 51.2656 25.2656 53.625
Q29.5938 56 35.5938 56
Q45.5625 56 51.7812 48.0938
Q58.0156 40.1875 58.0156 27.2969
Q58.0156 14.4062 51.7812 6.48438
Q45.5625 -1.42188 35.5938 -1.42188
Q29.5938 -1.42188 25.2656 0.953125
Q20.9531 3.32812 18.1094 8.20312
L18.1094 0
L9.07812 0
L9.07812 75.9844
L18.1094 75.9844
z
" id="BitstreamVeraSans-Roman-62"/>
     <path d="
M45.4062 27.9844
Q45.4062 37.75 41.375 43.1094
Q37.3594 48.4844 30.0781 48.4844
Q22.8594 48.4844 18.8281 43.1094
Q14.7969 37.75 14.7969 27.9844
Q14.7969 18.2656 18.8281 12.8906
Q22.8594 7.51562 30.0781 7.51562
Q37.3594 7.51562 41.375 12.8906
Q45.4062 18.2656 45.4062 27.9844
M54.3906 6.78125
Q54.3906 -7.17188 48.1875 -13.9844
Q42 -20.7969 29.2031 -20.7969
Q24.4688 -20.7969 20.2656 -20.0938
Q16.0625 -19.3906 12.1094 -17.9219
L12.1094 -9.1875
Q16.0625 -11.3281 19.9219 -12.3438
Q23.7812 -13.375 27.7812 -13.375
Q36.625 -13.375 41.0156 -8.76562
Q45.4062 -4.15625 45.4062 5.17188
L45.4062 9.625
Q42.625 4.78125 38.2812 2.39062
Q33.9375 0 27.875 0
Q17.8281 0 11.6719 7.65625
Q5.51562 15.3281 5.51562 27.9844
Q5.51562 40.6719 11.6719 48.3281
Q17.8281 56 27.875 56
Q33.9375 56 38.2812 53.6094
Q42.625 51.2188 45.4062 46.3906
L45.4062 54.6875
L54.3906 54.6875
z
" id="BitstreamVeraSans-Roman-67"/>
     <path d="
M50.9844 -16.6094
L50.9844 -23.5781
L-0.984375 -23.5781
L-0.984375 -16.6094
z
" id="BitstreamVeraSans-Roman-5f"/>
     <path d="
M31.7812 34.625
Q24.75 34.625 20.7188 30.8594
Q16.7031 27.0938 16.7031 20.5156
Q16.7031 13.9219 20.7188 10.1562
Q24.75 6.39062 31.7812 6.39062
Q38.8125 6.39062 42.8594 10.1719
Q46.9219 13.9688 46.9219 20.5156
Q46.9219 27.0938 42.8906 30.8594
Q38.875 34.625 31.7812 34.625
M21.9219 38.8125
Q15.5781 40.375 12.0312 44.7188
Q8.5 49.0781 8.5 55.3281
Q8.5 64.0625 14.7188 69.1406
Q20.9531 74.2188 31.7812 74.2188
Q42.6719 74.2188 48.875 69.1406
Q55.0781 64.0625 55.0781 55.3281
Q55.0781 49.0781 51.5312 44.7188
Q48 40.375 41.7031 38.8125
Q48.8281 37.1562 52.7969 32.3125
Q56.7812 27.4844 56.7812 20.5156
Q56.7812 9.90625 50.3125 4.23438
Q43.8438 -1.42188 31.7812 -1.42188
Q19.7344 -1.42188 13.25 4.23438
Q6.78125 9.90625 6.78125 20.5156
Q6.78125 27.4844 10.7812 32.3125
Q14.7969 37.1562 21.9219 38.8125
M18.3125 54.3906
Q18.3125 48.7344 21.8438 45.5625
Q25.3906 42.3906 31.7812 42.3906
Q38.1406 42.3906 41.7188 45.5625
Q45.3125 48.7344 45.3125 54.3906
Q45.3125 60.0625 41.7188 63.2344
Q38.1406 66.4062 31.7812 66.4062
Q25.3906 66.4062 21.8438 63.2344
Q18.3125 60.0625 18.3125 54.3906" id="BitstreamVeraSans-Roman-38"/>
     <path d="
M10.6875 12.4062
L21 12.4062
L21 0
L10.6875 0
z
" id="BitstreamVeraSans-Roman-2e"/>
     <path d="
M37.7969 64.3125
L12.8906 25.3906
L37.7969 25.3906
z

M35.2031 72.9062
L47.6094 72.9062
L47.6094 25.3906
L58.0156 25.3906
L58.0156 17.1875
L47.6094 17.1875
L47.6094 0
L37.7969 0
L37.7969 17.1875
L4.89062 17.1875
L4.89062 26.7031
z
" id="BitstreamVeraSans-Roman-34"/>
     <path d="
M5.51562 54.6875
L48.1875 54.6875
L48.1875 46.4844
L14.4062 7.17188
L48.1875 7.17188
L48.1875 0
L4.29688 0
L4.29688 8.20312
L38.0938 47.5156
L5.51562 47.5156
z
" id="BitstreamVeraSans-Roman-7a"/>
     <path d="
M8.20312 72.9062
L55.0781 72.9062
L55.0781 68.7031
L28.6094 0
L18.3125 0
L43.2188 64.5938
L8.20312 64.5938
z
" id="BitstreamVeraSans-Roman-37"/>
     <path d="
M10.9844 1.51562
L10.9844 10.5
Q14.7031 8.73438 18.5 7.8125
Q22.3125 6.89062 25.9844 6.89062
Q35.75 6.89062 40.8906 13.4531
Q46.0469 20.0156 46.7812 33.4062
Q43.9531 29.2031 39.5938 26.9531
Q35.25 24.7031 29.9844 24.7031
Q19.0469 24.7031 12.6719 31.3125
Q6.29688 37.9375 6.29688 49.4219
Q6.29688 60.6406 12.9375 67.4219
Q19.5781 74.2188 30.6094 74.2188
Q43.2656 74.2188 49.9219 64.5156
Q56.5938 54.8281 56.5938 36.375
Q56.5938 19.1406 48.4062 8.85938
Q40.2344 -1.42188 26.4219 -1.42188
Q22.7031 -1.42188 18.8906 -0.6875
Q15.0938 0.046875 10.9844 1.51562
M30.6094 32.4219
Q37.25 32.4219 41.125 36.9531
Q45.0156 41.5 45.0156 49.4219
Q45.0156 57.2812 41.125 61.8438
Q37.25 66.4062 30.6094 66.4062
Q23.9688 66.4062 20.0938 61.8438
Q16.2188 57.2812 16.2188 49.4219
Q16.2188 41.5 20.0938 36.9531
Q23.9688 32.4219 30.6094 32.4219" id="BitstreamVeraSans-Roman-39"/>
     <path d="
M33.0156 40.375
Q26.375 40.375 22.4844 35.8281
Q18.6094 31.2969 18.6094 23.3906
Q18.6094 15.5312 22.4844 10.9531
Q26.375 6.39062 33.0156 6.39062
Q39.6562 6.39062 43.5312 10.9531
Q47.4062 15.5312 47.4062 23.3906
Q47.4062 31.2969 43.5312 35.8281
Q39.6562 40.375 33.0156 40.375
M52.5938 71.2969
L52.5938 62.3125
Q48.875 64.0625 45.0938 64.9844
Q41.3125 65.9219 37.5938 65.9219
Q27.8281 65.9219 22.6719 59.3281
Q17.5312 52.7344 16.7969 39.4062
Q19.6719 43.6562 24.0156 45.9219
Q28.375 48.1875 33.5938 48.1875
Q44.5781 48.1875 50.9531 41.5156
Q57.3281 34.8594 57.3281 23.3906
Q57.3281 12.1562 50.6875 5.35938
Q44.0469 -1.42188 33.0156 -1.42188
Q20.3594 -1.42188 13.6719 8.26562
Q6.98438 17.9688 6.98438 36.375
Q6.98438 53.6562 15.1875 63.9375
Q23.3906 74.2188 37.2031 74.2188
Q40.9219 74.2188 44.7031 73.4844
Q48.4844 72.75 52.5938 71.2969" id="BitstreamVeraSans-Roman-36"/>
     <path d="
M54.8906 33.0156
L54.8906 0
L45.9062 0
L45.9062 32.7188
Q45.9062 40.4844 42.875 44.3281
Q39.8438 48.1875 33.7969 48.1875
Q26.5156 48.1875 22.3125 43.5469
Q18.1094 38.9219 18.1094 30.9062
L18.1094 0
L9.07812 0
L9.07812 75.9844
L18.1094 75.9844
L18.1094 46.1875
Q21.3438 51.125 25.7031 53.5625
Q30.0781 56 35.7969 56
Q45.2188 56 50.0469 50.1719
Q54.8906 44.3438 54.8906 33.0156" id="BitstreamVeraSans-Roman-68"/>
    </defs>
    <g transform="translate(72.0 6.067375)scale(0.14 -0.14)">
     <use xlink:href="#BitstreamVeraSans-Roman-74"/>
     <use x="39.208984375" xlink:href="#BitstreamVeraSans-Roman-72"/>
     <use x="80.322265625" xlink:href="#BitstreamVeraSans-Roman-61"/>
     <use x="141.6015625" xlink:href="#BitstreamVeraSans-Roman-69"/>
     <use x="169.384765625" xlink:href="#BitstreamVeraSans-Roman-6e"/>
     <use x="232.763671875" xlink:href="#BitstreamVeraSans-Roman-69"/>
     <use x="260.546875" xlink:href="#BitstreamVeraSans-Roman-6e"/>
     <use x="323.92578125" xlink:href="#BitstreamVeraSans-Roman-67"/>
     <use x="387.40234375" xlink:href="#BitstreamVeraSans-Roman-20"/>
     <use x="419.189453125" xlink:href="#BitstreamVeraSans-Roman-74"/>
     <use x="458.3984375" xlink:href="#BitstreamVeraSans-Roman-69"/>
     <use x="486.181640625" xlink:href="#BitstreamVeraSans-Roman-6d"/>
     <use x="583.59375" xlink:href="#BitstreamVeraSans-Roman-65"/>
     <use x="645.1171875" xlink:href="#BitstreamVeraSans-Roman-3a"/>
     <use x="678.80859375" xlink:href="#BitstreamVeraSans-Roman-20"/>
     <use x="710.595703125" xlink:href="#BitstreamVeraSans-Roman-33"/>
     <use x="774.21875" xlink:href="#BitstreamVeraSans-Roman-39"/>
     <use x="837.841796875" xlink:href="#BitstreamVeraSans-Roman-32"/>
     <use x="901.46484375" xlink:href="#BitstreamVeraSans-Roman-37"/>
     <use x="965.087890625" xlink:href="#BitstreamVeraSans-Roman-2e"/>
     <use x="996.875" xlink:href="#BitstreamVeraSans-Roman-31"/>
     <use x="1060.498046875" xlink:href="#BitstreamVeraSans-Roman-32"/>
     <use x="1124.12109375" xlink:href="#BitstreamVeraSans-Roman-20"/>
     <use x="1155.908203125" xlink:href="#BitstreamVeraSans-Roman-6d"/>
     <use x="1253.3203125" xlink:href="#BitstreamVeraSans-Roman-69"/>
     <use x="1281.103515625" xlink:href="#BitstreamVeraSans-Roman-6e"/>
     <use x="1344.482421875" xlink:href="#BitstreamVeraSans-Roman-2c"/>
     <use x="1376.26953125" xlink:href="#BitstreamVeraSans-Roman-20"/>
     <use x="1408.056640625" xlink:href="#BitstreamVeraSans-Roman-20"/>
     <use x="1439.84375" xlink:href="#BitstreamVeraSans-Roman-6e"/>
     <use x="1503.22265625" xlink:href="#BitstreamVeraSans-Roman-75"/>
     <use x="1566.6015625" xlink:href="#BitstreamVeraSans-Roman-6d"/>
     <use x="1664.013671875" xlink:href="#BitstreamVeraSans-Roman-20"/>
     <use x="1695.80078125" xlink:href="#BitstreamVeraSans-Roman-69"/>
     <use x="1723.583984375" xlink:href="#BitstreamVeraSans-Roman-74"/>
     <use x="1762.79296875" xlink:href="#BitstreamVeraSans-Roman-65"/>
     <use x="1824.31640625" xlink:href="#BitstreamVeraSans-Roman-72"/>
     <use x="1865.4296875" xlink:href="#BitstreamVeraSans-Roman-61"/>
     <use x="1926.708984375" xlink:href="#BitstreamVeraSans-Roman-74"/>
     <use x="1965.91796875" xlink:href="#BitstreamVeraSans-Roman-69"/>
     <use x="1993.701171875" xlink:href="#BitstreamVeraSans-Roman-6f"/>
     <use x="2054.8828125" xlink:href="#BitstreamVeraSans-Roman-6e"/>
     <use x="2118.26171875" xlink:href="#BitstreamVeraSans-Roman-73"/>
     <use x="2170.361328125" xlink:href="#BitstreamVeraSans-Roman-3a"/>
     <use x="2204.052734375" xlink:href="#BitstreamVeraSans-Roman-20"/>
     <use x="2235.83984375" xlink:href="#BitstreamVeraSans-Roman-32"/>
     <use x="2299.462890625" xlink:href="#BitstreamVeraSans-Roman-38"/>
     <use x="2363.0859375" xlink:href="#BitstreamVeraSans-Roman-36"/>
     <use x="2426.708984375" xlink:href="#BitstreamVeraSans-Roman-2e"/>
     <use x="2458.49609375" xlink:href="#BitstreamVeraSans-Roman-34"/>
     <use x="2522.119140625" xlink:href="#BitstreamVeraSans-Roman-30"/>
     <use x="2585.7421875" xlink:href="#BitstreamVeraSans-Roman-30"/>
     <use x="2649.365234375" xlink:href="#BitstreamVeraSans-Roman-2c"/>
     <use x="2681.15234375" xlink:href="#BitstreamVeraSans-Roman-20"/>
     <use x="2712.939453125" xlink:href="#BitstreamVeraSans-Roman-62"/>
     <use x="2776.416015625" xlink:href="#BitstreamVeraSans-Roman-61"/>
     <use x="2837.6953125" xlink:href="#BitstreamVeraSans-Roman-74"/>
     <use x="2876.904296875" xlink:href="#BitstreamVeraSans-Roman-63"/>
     <use x="2931.884765625" xlink:href="#BitstreamVeraSans-Roman-68"/>
     <use x="2995.263671875" xlink:href="#BitstreamVeraSans-Roman-5f"/>
     <use x="3045.263671875" xlink:href="#BitstreamVeraSans-Roman-73"/>
     <use x="3097.36328125" xlink:href="#BitstreamVeraSans-Roman-69"/>
     <use x="3125.146484375" xlink:href="#BitstreamVeraSans-Roman-7a"/>
     <use x="3177.63671875" xlink:href="#BitstreamVeraSans-Roman-65"/>
     <use x="3239.16015625" xlink:href="#BitstreamVeraSans-Roman-3a"/>
     <use x="3272.8515625" xlink:href="#BitstreamVeraSans-Roman-20"/>
     <use x="3304.638671875" xlink:href="#BitstreamVeraSans-Roman-32"/>
     <use x="3368.26171875" xlink:href="#BitstreamVeraSans-Roman-30"/>
    </g>
    <!-- activation fnc: tanh  n_hidden: 300  n_in: 87  n_out: 87 -->
    <defs>
     <path d="
M45.4062 46.3906
L45.4062 75.9844
L54.3906 75.9844
L54.3906 0
L45.4062 0
L45.4062 8.20312
Q42.5781 3.32812 38.25 0.953125
Q33.9375 -1.42188 27.875 -1.42188
Q17.9688 -1.42188 11.7344 6.48438
Q5.51562 14.4062 5.51562 27.2969
Q5.51562 40.1875 11.7344 48.0938
Q17.9688 56 27.875 56
Q33.9375 56 38.25 53.625
Q42.5781 51.2656 45.4062 46.3906
M14.7969 27.2969
Q14.7969 17.3906 18.875 11.75
Q22.9531 6.10938 30.0781 6.10938
Q37.2031 6.10938 41.2969 11.75
Q45.4062 17.3906 45.4062 27.2969
Q45.4062 37.2031 41.2969 42.8438
Q37.2031 48.4844 30.0781 48.4844
Q22.9531 48.4844 18.875 42.8438
Q14.7969 37.2031 14.7969 27.2969" id="BitstreamVeraSans-Roman-64"/>
     <path d="
M2.98438 54.6875
L12.5 54.6875
L29.5938 8.79688
L46.6875 54.6875
L56.2031 54.6875
L35.6875 0
L23.4844 0
z
" id="BitstreamVeraSans-Roman-76"/>
     <path d="
M37.1094 75.9844
L37.1094 68.5
L28.5156 68.5
Q23.6875 68.5 21.7969 66.5469
Q19.9219 64.5938 19.9219 59.5156
L19.9219 54.6875
L34.7188 54.6875
L34.7188 47.7031
L19.9219 47.7031
L19.9219 0
L10.8906 0
L10.8906 47.7031
L2.29688 47.7031
L2.29688 54.6875
L10.8906 54.6875
L10.8906 58.5
Q10.8906 67.625 15.1406 71.7969
Q19.3906 75.9844 28.6094 75.9844
z
" id="BitstreamVeraSans-Roman-66"/>
    </defs>
    <g transform="translate(72.0 22.1336875)scale(0.14 -0.14)">
     <use xlink:href="#BitstreamVeraSans-Roman-61"/>
     <use x="61.279296875" xlink:href="#BitstreamVeraSans-Roman-63"/>
     <use x="116.259765625" xlink:href="#BitstreamVeraSans-Roman-74"/>
     <use x="155.46875" xlink:href="#BitstreamVeraSans-Roman-69"/>
     <use x="183.251953125" xlink:href="#BitstreamVeraSans-Roman-76"/>
     <use x="242.431640625" xlink:href="#BitstreamVeraSans-Roman-61"/>
     <use x="303.7109375" xlink:href="#BitstreamVeraSans-Roman-74"/>
     <use x="342.919921875" xlink:href="#BitstreamVeraSans-Roman-69"/>
     <use x="370.703125" xlink:href="#BitstreamVeraSans-Roman-6f"/>
     <use x="431.884765625" xlink:href="#BitstreamVeraSans-Roman-6e"/>
     <use x="495.263671875" xlink:href="#BitstreamVeraSans-Roman-20"/>
     <use x="527.05078125" xlink:href="#BitstreamVeraSans-Roman-66"/>
     <use x="562.255859375" xlink:href="#BitstreamVeraSans-Roman-6e"/>
     <use x="625.634765625" xlink:href="#BitstreamVeraSans-Roman-63"/>
     <use x="680.615234375" xlink:href="#BitstreamVeraSans-Roman-3a"/>
     <use x="714.306640625" xlink:href="#BitstreamVeraSans-Roman-20"/>
     <use x="746.09375" xlink:href="#BitstreamVeraSans-Roman-74"/>
     <use x="785.302734375" xlink:href="#BitstreamVeraSans-Roman-61"/>
     <use x="846.58203125" xlink:href="#BitstreamVeraSans-Roman-6e"/>
     <use x="909.9609375" xlink:href="#BitstreamVeraSans-Roman-68"/>
     <use x="973.33984375" xlink:href="#BitstreamVeraSans-Roman-20"/>
     <use x="1005.126953125" xlink:href="#BitstreamVeraSans-Roman-20"/>
     <use x="1036.9140625" xlink:href="#BitstreamVeraSans-Roman-6e"/>
     <use x="1100.29296875" xlink:href="#BitstreamVeraSans-Roman-5f"/>
     <use x="1150.29296875" xlink:href="#BitstreamVeraSans-Roman-68"/>
     <use x="1213.671875" xlink:href="#BitstreamVeraSans-Roman-69"/>
     <use x="1241.455078125" xlink:href="#BitstreamVeraSans-Roman-64"/>
     <use x="1304.931640625" xlink:href="#BitstreamVeraSans-Roman-64"/>
     <use x="1368.408203125" xlink:href="#BitstreamVeraSans-Roman-65"/>
     <use x="1429.931640625" xlink:href="#BitstreamVeraSans-Roman-6e"/>
     <use x="1493.310546875" xlink:href="#BitstreamVeraSans-Roman-3a"/>
     <use x="1527.001953125" xlink:href="#BitstreamVeraSans-Roman-20"/>
     <use x="1558.7890625" xlink:href="#BitstreamVeraSans-Roman-33"/>
     <use x="1622.412109375" xlink:href="#BitstreamVeraSans-Roman-30"/>
     <use x="1686.03515625" xlink:href="#BitstreamVeraSans-Roman-30"/>
     <use x="1749.658203125" xlink:href="#BitstreamVeraSans-Roman-20"/>
     <use x="1781.4453125" xlink:href="#BitstreamVeraSans-Roman-20"/>
     <use x="1813.232421875" xlink:href="#BitstreamVeraSans-Roman-6e"/>
     <use x="1876.611328125" xlink:href="#BitstreamVeraSans-Roman-5f"/>
     <use x="1926.611328125" xlink:href="#BitstreamVeraSans-Roman-69"/>
     <use x="1954.39453125" xlink:href="#BitstreamVeraSans-Roman-6e"/>
     <use x="2017.7734375" xlink:href="#BitstreamVeraSans-Roman-3a"/>
     <use x="2051.46484375" xlink:href="#BitstreamVeraSans-Roman-20"/>
     <use x="2083.251953125" xlink:href="#BitstreamVeraSans-Roman-38"/>
     <use x="2146.875" xlink:href="#BitstreamVeraSans-Roman-37"/>
     <use x="2210.498046875" xlink:href="#BitstreamVeraSans-Roman-20"/>
     <use x="2242.28515625" xlink:href="#BitstreamVeraSans-Roman-20"/>
     <use x="2274.072265625" xlink:href="#BitstreamVeraSans-Roman-6e"/>
     <use x="2337.451171875" xlink:href="#BitstreamVeraSans-Roman-5f"/>
     <use x="2387.451171875" xlink:href="#BitstreamVeraSans-Roman-6f"/>
     <use x="2448.6328125" xlink:href="#BitstreamVeraSans-Roman-75"/>
     <use x="2512.01171875" xlink:href="#BitstreamVeraSans-Roman-74"/>
     <use x="2551.220703125" xlink:href="#BitstreamVeraSans-Roman-3a"/>
     <use x="2584.912109375" xlink:href="#BitstreamVeraSans-Roman-20"/>
     <use x="2616.69921875" xlink:href="#BitstreamVeraSans-Roman-38"/>
     <use x="2680.322265625" xlink:href="#BitstreamVeraSans-Roman-37"/>
    </g>
    <!--  -->
    <g transform="translate(72.0 38.2)scale(0.14 -0.14)"/>
   </g>
   <g id="legend_1">
    <g id="patch_7">
     <path d="
M361.654 98.993
L510.32 98.993
Q513.2 98.993 513.2 96.113
L513.2 55.28
Q513.2 52.4 510.32 52.4
L361.654 52.4
Q358.774 52.4 358.774 55.28
L358.774 96.113
Q358.774 98.993 361.654 98.993
z
" style="fill:#4c4c4c;opacity:0.5;stroke:#4c4c4c;stroke-linejoin:miter;"/>
    </g>
    <g id="patch_8">
     <path d="
M359.654 96.993
L508.32 96.993
Q511.2 96.993 511.2 94.113
L511.2 53.28
Q511.2 50.4 508.32 50.4
L359.654 50.4
Q356.774 50.4 356.774 53.28
L356.774 94.113
Q356.774 96.993 359.654 96.993
z
" style="fill:#ffffff;stroke:#000000;stroke-linejoin:miter;"/>
    </g>
    <g id="line2d_65">
     <path d="
M366.854 62.0617
L387.014 62.0617" style="fill:none;stroke:#0000ff;stroke-linecap:square;"/>
    </g>
    <g id="line2d_66"/>
    <g id="text_13">
     <!-- train loss -->
     <defs>
      <path d="
M9.42188 75.9844
L18.4062 75.9844
L18.4062 0
L9.42188 0
z
" id="BitstreamVeraSans-Roman-6c"/>
     </defs>
     <g transform="translate(402.8535 67.10175)scale(0.144 -0.144)">
      <use xlink:href="#BitstreamVeraSans-Roman-74"/>
      <use x="39.208984375" xlink:href="#BitstreamVeraSans-Roman-72"/>
      <use x="80.322265625" xlink:href="#BitstreamVeraSans-Roman-61"/>
      <use x="141.6015625" xlink:href="#BitstreamVeraSans-Roman-69"/>
      <use x="169.384765625" xlink:href="#BitstreamVeraSans-Roman-6e"/>
      <use x="232.763671875" xlink:href="#BitstreamVeraSans-Roman-20"/>
      <use x="264.55078125" xlink:href="#BitstreamVeraSans-Roman-6c"/>
      <use x="292.333984375" xlink:href="#BitstreamVeraSans-Roman-6f"/>
      <use x="353.515625" xlink:href="#BitstreamVeraSans-Roman-73"/>
      <use x="405.615234375" xlink:href="#BitstreamVeraSans-Roman-73"/>
     </g>
    </g>
    <g id="line2d_67">
     <path d="
M366.854 83.1982
L387.014 83.1982" style="fill:none;stroke:#bf00bf;stroke-linecap:square;"/>
    </g>
    <g id="line2d_68"/>
    <g id="text_14">
     <!-- validation loss -->
     <g transform="translate(402.8535 88.23825)scale(0.144 -0.144)">
      <use xlink:href="#BitstreamVeraSans-Roman-76"/>
      <use x="59.1796875" xlink:href="#BitstreamVeraSans-Roman-61"/>
      <use x="120.458984375" xlink:href="#BitstreamVeraSans-Roman-6c"/>
      <use x="148.2421875" xlink:href="#BitstreamVeraSans-Roman-69"/>
      <use x="176.025390625" xlink:href="#BitstreamVeraSans-Roman-64"/>
      <use x="239.501953125" xlink:href="#BitstreamVeraSans-Roman-61"/>
      <use x="300.78125" xlink:href="#BitstreamVeraSans-Roman-74"/>
      <use x="339.990234375" xlink:href="#BitstreamVeraSans-Roman-69"/>
      <use x="367.7734375" xlink:href="#BitstreamVeraSans-Roman-6f"/>
      <use x="428.955078125" xlink:href="#BitstreamVeraSans-Roman-6e"/>
      <use x="492.333984375" xlink:href="#BitstreamVeraSans-Roman-20"/>
      <use x="524.12109375" xlink:href="#BitstreamVeraSans-Roman-6c"/>
      <use x="551.904296875" xlink:href="#BitstreamVeraSans-Roman-6f"/>
      <use x="613.0859375" xlink:href="#BitstreamVeraSans-Roman-73"/>
      <use x="665.185546875" xlink:href="#BitstreamVeraSans-Roman-73"/>
     </g>
    </g>
   </g>
  </g>
 </g>
 <defs>
  <clipPath id="p7ff5b81e1d">
   <rect height="345.6" width="446.4" x="72.0" y="43.2"/>
  </clipPath>
 </defs>
</svg>
